<svg width="12" height="12" viewBox="0 0 12 12" fill="none" xmlns="http://www.w3.org/2000/svg">
<g clip-path="url(#clip0_25_6831)">
<path fill-rule="evenodd" clip-rule="evenodd" d="M2.43801 5.59356C2.44966 5.59683 2.46209 5.59576 2.47301 5.59056C2.47423 5.58951 2.4751 5.58812 2.47551 5.58656C2.47621 5.58499 2.47639 5.58324 2.47601 5.58156C2.47557 5.58002 2.47471 5.57863 2.47351 5.57756C2.47238 5.57655 2.471 5.57586 2.46951 5.57556C2.18345 5.55031 1.90396 5.47553 1.64351 5.35456C1.24045 5.17087 0.886619 4.89434 0.610986 4.5476C0.335353 4.20086 0.145756 3.79377 0.0577145 3.35966C-0.0303268 2.92555 -0.0143087 2.47676 0.104458 2.05003C0.223224 1.62331 0.441362 1.23077 0.741013 0.904562C1.01101 0.604562 1.35301 0.368563 1.76601 0.197063C1.8396 0.165741 1.91592 0.141304 1.99401 0.124063C2.01201 0.120563 2.07451 0.105063 2.18201 0.0785625C2.70901 -0.0544375 3.23951 -0.0184375 3.77301 0.185563C4.74201 0.555563 5.38601 1.35056 5.56401 2.37606C5.58551 2.50056 5.59551 2.72606 5.59451 3.05256C5.59251 3.92656 5.59251 4.44406 5.59501 4.60506C5.59851 4.81956 5.58601 4.96706 5.55851 5.04806C5.35301 5.65306 4.55301 5.80656 4.16501 5.29006C4.15895 5.28207 4.15025 5.27648 4.14046 5.27428C4.13067 5.27209 4.12041 5.27342 4.11151 5.27806C3.70147 5.49811 3.24123 5.6077 2.77601 5.59606C2.66351 5.59406 2.55101 5.59356 2.43801 5.59406V5.59356ZM3.99601 2.80356C3.99927 2.64408 3.97067 2.48555 3.91189 2.33726C3.85311 2.18897 3.76533 2.0539 3.6537 1.93996C3.54206 1.82602 3.40881 1.7355 3.26175 1.6737C3.11469 1.61191 2.95678 1.58008 2.79726 1.58008C2.63775 1.58008 2.47984 1.61191 2.33278 1.6737C2.18572 1.7355 2.05247 1.82602 1.94083 1.93996C1.82919 2.0539 1.74141 2.18897 1.68263 2.33726C1.62385 2.48555 1.59526 2.64408 1.59851 2.80356C1.60492 3.11725 1.73403 3.41593 1.95814 3.63551C2.18225 3.85509 2.48351 3.97808 2.79726 3.97808C3.11102 3.97808 3.41227 3.85509 3.63638 3.63551C3.8605 3.41593 3.98961 3.11725 3.99601 2.80356ZM8.71101 0.0465625C8.70005 0.0435392 8.68848 0.0435392 8.67751 0.0465625H8.67651V0.0475625H8.67751C9.48951 -0.0844375 10.2235 0.0905625 10.88 0.572563C11.055 0.700563 11.2655 0.883562 11.3415 1.08256C11.507 1.51756 11.3095 1.99056 10.8645 2.14256C10.62 2.22606 10.392 2.20056 10.1795 2.06606C10.0665 1.99456 9.95151 1.86256 9.82851 1.78756C9.45651 1.56356 9.06201 1.54406 8.64401 1.72956C8.63832 1.73228 8.63295 1.73563 8.62801 1.73956L8.37501 1.91806C8.36422 1.92595 8.35417 1.93482 8.34501 1.94456C8.12151 2.18706 8.00501 2.45756 7.99651 2.75606C7.98751 3.04456 8.06051 3.29356 8.21551 3.50306C8.37901 3.72456 8.59201 3.87506 8.85501 3.95406C9.17951 4.05156 9.49301 4.01406 9.79501 3.84156C9.85551 3.80756 9.92801 3.75156 10.0125 3.67456C10.122 3.57606 10.1935 3.51956 10.2275 3.50356C10.6185 3.32756 11.0655 3.41156 11.2995 3.79756C11.3085 3.81256 11.3145 3.82856 11.3185 3.84606L11.347 3.97106C11.4025 4.20056 11.395 4.39406 11.3235 4.55206C11.27 4.67106 11.1555 4.80506 10.979 4.95356C10.7878 5.10982 10.5785 5.24245 10.3555 5.34856C10.2355 5.40856 10.147 5.44656 10.0905 5.46506C9.73933 5.5776 9.36982 5.62173 9.00201 5.59506C6.94201 5.45706 5.73801 3.20006 6.76851 1.40806C6.94801 1.09556 7.15151 0.847563 7.37851 0.663063C7.58343 0.49196 7.80985 0.348408 8.05201 0.236062C8.24251 0.151062 8.46201 0.0930625 8.70951 0.0610625C8.71121 0.06075 8.71275 0.0599002 8.71392 0.0586392C8.71509 0.0573781 8.71583 0.0557732 8.71601 0.0540625C8.71601 0.0520625 8.71601 0.0505625 8.71501 0.0490625C8.71404 0.0477577 8.71261 0.0468656 8.71101 0.0465625ZM0.240013 8.08906C0.386236 7.72849 0.611822 7.40549 0.900013 7.14406C1.06687 6.9912 1.24766 6.85427 1.44001 6.73506C1.45117 6.72847 1.46309 6.72326 1.47551 6.71956C1.55101 6.69656 1.62851 6.66156 1.70801 6.61456C1.72063 6.60694 1.73483 6.60232 1.74951 6.60106C1.79551 6.59756 1.82601 6.58806 1.84151 6.57206C1.85028 6.56299 1.86108 6.55614 1.87301 6.55206C2.00201 6.50706 2.09651 6.47856 2.15801 6.46706C2.33438 6.43596 2.5126 6.41642 2.69151 6.40856C4.27301 6.32056 5.61751 7.65006 5.59201 9.22456C5.58501 9.64306 5.23951 9.99456 4.81901 9.99356L3.70401 10.0001C3.46051 10.0011 3.30201 9.98906 3.22901 9.96406C2.95801 9.87206 2.72401 9.61756 2.69001 9.32706C2.65001 8.98206 2.77001 8.74556 3.03201 8.51956C3.04618 8.50727 3.06221 8.49731 3.07951 8.49006C3.25451 8.41406 3.44401 8.38506 3.64651 8.40356C3.65129 8.40406 3.65609 8.40302 3.66023 8.40059C3.66437 8.39816 3.66762 8.39447 3.66951 8.39006C3.67144 8.38562 3.67195 8.38069 3.67096 8.37594C3.66998 8.3712 3.66755 8.36687 3.66401 8.36356C3.30451 8.03306 2.90401 7.92856 2.46251 8.05006C2.13151 8.14156 1.82651 8.40856 1.70251 8.71006C1.53001 9.13206 1.56951 9.52606 1.82051 9.89256C2.00051 10.1541 2.31651 10.3516 2.61451 10.3831C2.79251 10.4021 2.97451 10.3996 3.12151 10.4681C3.78501 10.7786 3.74651 11.7436 3.03501 11.9631C2.89751 12.0056 2.70851 12.0111 2.46801 11.9801C1.83413 11.9051 1.24509 11.6151 0.799013 11.1586C0.761434 11.1214 0.727295 11.0809 0.697013 11.0376C0.655513 10.9776 0.597013 10.9401 0.557013 10.8806C0.394513 10.6446 0.279013 10.4396 0.211013 10.2666C-0.0724867 9.54406 -0.0704867 8.82756 0.218013 8.11656C0.226013 8.09756 0.233013 8.08856 0.239513 8.08906H0.240013Z" fill="white"/>
</g>
<defs>
<clipPath id="clip0_25_6831">
<rect width="12" height="12" fill="white"/>
</clipPath>
</defs>
</svg>
