<svg width="12" height="12" viewBox="0 0 12 12" fill="none" xmlns="http://www.w3.org/2000/svg">
<g clip-path="url(#clip0_25_7419)">
<path fill-rule="evenodd" clip-rule="evenodd" d="M0.479 7.96799C0.538256 7.96794 0.595236 7.99081 0.638013 8.03182C0.680789 8.07282 0.706047 8.12879 0.7085 8.18799V9.55249C0.704653 9.61074 0.678801 9.66535 0.636184 9.70524C0.593568 9.74514 0.537376 9.76734 0.479 9.76734C0.420624 9.76734 0.364432 9.74514 0.321816 9.70524C0.279199 9.66535 0.253347 9.61074 0.2495 9.55249V8.18799C0.251953 8.12879 0.277211 8.07282 0.319988 8.03182C0.362764 7.99081 0.419744 7.96794 0.479 7.96799ZM2.886 6.95049C2.91942 6.94359 2.95396 6.94422 2.98711 6.95232C3.02027 6.96042 3.0512 6.9758 3.07767 6.99735C3.10414 7.01889 3.12549 7.04605 3.14016 7.07686C3.15483 7.10767 3.16246 7.14136 3.1625 7.17549V9.55249C3.1625 9.61336 3.13832 9.67173 3.09528 9.71477C3.05224 9.75781 2.99387 9.78199 2.933 9.78199C2.87213 9.78199 2.81376 9.75781 2.77072 9.71477C2.72768 9.67173 2.7035 9.61336 2.7035 9.55249V7.73999L1.87 8.60099C1.84907 8.6231 1.82397 8.64085 1.79615 8.65322C1.76834 8.66559 1.73835 8.67235 1.70791 8.67309C1.67748 8.67383 1.6472 8.66855 1.61881 8.65755C1.59042 8.64655 1.56449 8.63005 1.5425 8.60899C1.53015 8.5966 1.51925 8.58285 1.51 8.56799L0.314 7.33499C0.276536 7.29054 0.257336 7.23353 0.26028 7.17547C0.263223 7.11741 0.288089 7.06263 0.329857 7.0222C0.371624 6.98176 0.42718 6.95869 0.485304 6.95763C0.543427 6.95657 0.599787 6.97761 0.643 7.01649L1.705 8.10999L2.7685 7.01599C2.80033 6.98312 2.84124 6.96049 2.886 6.95099V6.95049ZM3.92 6.95249C3.97955 6.95272 4.03669 6.97603 4.0794 7.01753C4.12211 7.05903 4.14706 7.11547 4.149 7.17499V9.55249C4.14874 9.61315 4.12453 9.67124 4.08164 9.71413C4.03875 9.75702 3.98065 9.78123 3.92 9.78149C3.85931 9.78136 3.80114 9.75719 3.75822 9.71427C3.7153 9.67136 3.69113 9.61319 3.691 9.55249V7.17499C3.69282 7.11543 3.71773 7.05892 3.76047 7.01739C3.8032 6.97587 3.86041 6.95259 3.92 6.95249ZM4.9065 7.95949C4.96724 7.95949 5.02552 7.98352 5.06861 8.02633C5.1117 8.06914 5.1361 8.12725 5.1365 8.18799V9.55249C5.13625 9.5978 5.12263 9.64202 5.09734 9.67961C5.07205 9.7172 5.03622 9.74649 4.99435 9.76379C4.95248 9.7811 4.90643 9.78565 4.86198 9.77688C4.81753 9.76811 4.77666 9.74641 4.7445 9.71449C4.70166 9.67146 4.67757 9.61322 4.6775 9.55249V8.18799C4.67776 8.12734 4.70198 8.06924 4.74486 8.02636C4.78775 7.98347 4.84585 7.95976 4.9065 7.95949ZM4.9075 6.93699C4.93875 6.93819 4.96942 6.94577 4.99763 6.95927C5.02583 6.97277 5.05097 6.9919 5.0715 7.01549L6.135 8.11049L7.1975 7.01549C7.22939 6.98351 7.27 6.96165 7.31425 6.95264C7.35851 6.94364 7.40443 6.94789 7.44628 6.96486C7.48813 6.98184 7.52404 7.01078 7.54952 7.04807C7.57499 7.08536 7.5889 7.12934 7.5895 7.17449V9.55249C7.58924 9.61289 7.56524 9.67076 7.52267 9.71361C7.48011 9.75645 7.42239 9.78084 7.362 9.78149C7.30135 9.78123 7.24325 9.75702 7.20036 9.71413C7.15748 9.67124 7.13326 9.61315 7.133 9.55249V7.73999L6.2995 8.60149C6.25691 8.64508 6.19876 8.66998 6.13783 8.67073C6.07689 8.67148 6.01815 8.64802 5.9745 8.60549L5.972 8.60299C5.972 8.60199 5.971 8.60199 5.97 8.60149L4.7425 7.33449C4.71962 7.31328 4.7013 7.28763 4.68865 7.25911C4.676 7.23059 4.66928 7.1998 4.66891 7.1686C4.66853 7.1374 4.67451 7.10646 4.68647 7.07764C4.69844 7.04883 4.71614 7.02275 4.7385 7.00099C4.76091 6.97949 4.78743 6.96274 4.81647 6.95174C4.84551 6.94074 4.87647 6.93573 4.9075 6.93699ZM8.306 7.53999C8.34885 7.52851 8.39411 7.52967 8.43631 7.54332C8.47852 7.55698 8.51588 7.58254 8.54389 7.61695C8.57189 7.65135 8.58935 7.69311 8.59416 7.73721C8.59898 7.78131 8.59093 7.82586 8.571 7.86549C8.46891 8.05193 8.43001 8.26643 8.46011 8.47684C8.49022 8.68726 8.58771 8.88224 8.73798 9.03257C8.88826 9.1829 9.08321 9.28047 9.29361 9.31065C9.50401 9.34084 9.71853 9.30201 9.905 9.19999C9.95834 9.17108 10.0209 9.16432 10.0792 9.18116C10.1375 9.198 10.1868 9.23709 10.2165 9.28999C10.2458 9.34338 10.2527 9.40621 10.2358 9.4647C10.2188 9.52319 10.1793 9.57256 10.126 9.60199C9.91454 9.71802 9.6772 9.77873 9.436 9.77849L9.365 9.77649C9.12068 9.76532 8.88324 9.69211 8.67505 9.56375C8.46687 9.4354 8.29481 9.25614 8.17509 9.04287C8.05537 8.8296 7.99195 8.58935 7.9908 8.34478C7.98964 8.10021 8.0508 7.85938 8.1685 7.64499C8.19884 7.59357 8.24846 7.55593 8.306 7.53999ZM8.738 7.07449C9.0115 6.92476 9.32616 6.86771 9.63481 6.91189C9.94347 6.95608 10.2295 7.09912 10.45 7.31956C10.6705 7.54001 10.8136 7.82599 10.8579 8.13464C10.9021 8.44328 10.8452 8.75796 10.6955 9.03149C10.6758 9.06766 10.6468 9.09787 10.6114 9.11898C10.5761 9.14009 10.5357 9.15131 10.4945 9.15149L10.466 9.14949C10.4372 9.14562 10.4093 9.13628 10.384 9.12199C10.3309 9.09265 10.2915 9.0435 10.2744 8.98524C10.2574 8.92698 10.2641 8.86435 10.293 8.81099C10.395 8.62448 10.4339 8.40994 10.4037 8.1995C10.3735 7.98906 10.276 7.79406 10.1257 7.64371C9.97542 7.49336 9.78046 7.39576 9.57003 7.36552C9.35961 7.33529 9.14505 7.37404 8.9585 7.47599C8.93202 7.49282 8.90238 7.50404 8.87139 7.50896C8.84041 7.51388 8.80874 7.51239 8.77836 7.50459C8.74797 7.49679 8.7195 7.48284 8.69472 7.46361C8.66993 7.44438 8.64935 7.42027 8.63425 7.39277C8.61915 7.36527 8.60984 7.33497 8.60691 7.30373C8.60398 7.2725 8.60749 7.24099 8.61721 7.21117C8.62693 7.18134 8.64267 7.15382 8.66344 7.13031C8.68422 7.10681 8.70959 7.08781 8.738 7.07449ZM4.795 3.18399C5.5355 3.18399 5.643 3.78499 5.643 4.01099V5.33499H5.1845V5.11899C5.0545 5.29199 4.7885 5.38649 4.5045 5.38649C4.438 5.38649 3.86 5.37149 3.8125 4.81849C3.7715 4.35249 4.15 4.01349 4.839 4.01349H5.1845C5.1845 3.73199 5.001 3.57049 4.693 3.57049C4.473 3.57699 4.261 3.65749 4.093 3.79949L3.913 3.46749C4.155 3.27799 4.419 3.18399 4.795 3.18399ZM7.0085 3.23399C7.64 3.23399 8.0495 3.71899 8.05 4.30899C8.05 4.89949 7.638 5.38599 7.0085 5.38599C6.3785 5.38599 5.9665 4.89999 5.9665 4.30999C5.9665 3.71999 6.3765 3.23399 7.0085 3.23399ZM10.409 3.24149C10.749 3.24149 11.01 3.47399 11.0075 4.01549V5.33649H10.55V4.14499C10.55 3.98899 10.549 3.65499 10.235 3.65499C9.921 3.65499 9.921 3.98849 9.921 4.07399V5.33599H9.476V4.07399C9.476 3.98899 9.4755 3.65499 9.161 3.65499C8.847 3.65499 8.847 3.98899 8.847 4.14499V5.33649H8.3885V3.32149H8.847V3.49999C8.90088 3.42358 8.97159 3.36057 9.05369 3.31583C9.1358 3.2711 9.22708 3.24583 9.3205 3.24199C9.5195 3.24199 9.7005 3.33849 9.8115 3.58499C9.86989 3.47837 9.95656 3.38994 10.062 3.32942C10.1674 3.2689 10.2875 3.23865 10.409 3.24199V3.24149ZM1.3625 3.67749L2.091 2.79149H2.66L1.6555 4.03499L2.7255 5.33599H2.12L1.3625 4.39799L0.605 5.33599H0L1.069 4.03499L0.065 2.79149H0.634L1.363 3.67749H1.3625ZM3.437 5.33599H2.979V3.32199H3.437V5.33599ZM11.932 5.33599H11.474V3.32199H11.932V5.33599ZM4.9625 4.35499C4.435 4.35499 4.283 4.56099 4.2995 4.72599C4.3155 4.89049 4.4615 4.99449 4.678 4.99449C4.80861 4.99475 4.93427 4.94454 5.02874 4.85436C5.12322 4.76417 5.1792 4.64097 5.185 4.51049L5.186 4.35549H4.9625V4.35499ZM7.009 3.64999C6.6775 3.64999 6.417 3.89349 6.417 4.30999C6.417 4.72599 6.677 4.96999 7.009 4.96999C7.34 4.96999 7.6 4.72499 7.6 4.30999C7.6 3.89399 7.34 3.64999 7.009 3.64999ZM3.2085 2.50049C3.24718 2.49918 3.28573 2.5058 3.32176 2.51993C3.3578 2.53406 3.39056 2.5554 3.41805 2.58265C3.44553 2.60991 3.46716 2.64249 3.4816 2.6784C3.49603 2.71431 3.50298 2.7528 3.502 2.79149C3.49887 2.8673 3.46656 2.93897 3.41181 2.9915C3.35706 3.04404 3.28413 3.07337 3.20825 3.07337C3.13238 3.07337 3.05944 3.04404 3.00469 2.9915C2.94995 2.93897 2.91763 2.8673 2.9145 2.79149C2.9136 2.75275 2.9206 2.71424 2.93509 2.6783C2.94958 2.64235 2.97124 2.60975 2.99876 2.58246C3.02628 2.55518 3.05907 2.53379 3.09513 2.51961C3.13119 2.50543 3.16977 2.49926 3.2085 2.50049ZM11.704 2.50049C11.7429 2.49898 11.7816 2.50544 11.8179 2.51946C11.8541 2.53349 11.8871 2.55478 11.9149 2.58204C11.9426 2.6093 11.9645 2.64194 11.9791 2.67796C11.9937 2.71398 12.0008 2.75262 12 2.79149C11.9956 2.86637 11.9628 2.93675 11.9082 2.98822C11.8537 3.03968 11.7815 3.06835 11.7065 3.06835C11.6315 3.06835 11.5593 3.03968 11.5048 2.98822C11.4502 2.93675 11.4174 2.86637 11.413 2.79149C11.4117 2.73353 11.428 2.67653 11.4599 2.62811C11.4918 2.57969 11.5377 2.54214 11.5915 2.52049C11.6273 2.50633 11.6655 2.49952 11.704 2.50049Z" fill="white"/>
</g>
<defs>
<clipPath id="clip0_25_7419">
<rect width="12" height="12" fill="white"/>
</clipPath>
</defs>
</svg>
