<svg width="12" height="12" viewBox="0 0 12 12" fill="none" xmlns="http://www.w3.org/2000/svg">
<g clip-path="url(#clip0_25_7430)">
<path fill-rule="evenodd" clip-rule="evenodd" d="M0.526037 8.4585L5.29554 9.7345C5.28912 10.0736 5.29913 10.4128 5.32554 10.751L8.30354 11.5475C7.42027 11.9121 6.4627 12.0603 5.51054 11.98L5.42054 11.972L5.39854 11.97L5.35654 11.9655L5.30954 11.9605C5.28335 11.9573 5.25718 11.954 5.23104 11.9505L5.17754 11.9435L5.12254 11.9355C5.06909 11.9277 5.01575 11.9192 4.96254 11.91L4.94154 11.906L4.90404 11.8995L4.85054 11.8895L4.81554 11.882L4.76904 11.8725L4.73154 11.8645L4.68404 11.8545L4.63554 11.843L4.58854 11.832L4.55454 11.8235L4.51054 11.8125L4.46554 11.8005L4.41804 11.788L4.37704 11.7765L4.32254 11.7615L4.29154 11.7515L4.24954 11.739L4.20304 11.725L4.15054 11.708L4.12154 11.6985L4.08154 11.6855L4.03654 11.67L4.00354 11.658C3.99619 11.6555 3.98886 11.653 3.98154 11.6505L3.94754 11.638L3.89704 11.6195L3.86854 11.6085L3.82854 11.5935L3.78504 11.576L3.74104 11.5585L3.70154 11.5425L3.65404 11.5225L3.62254 11.5085L3.59104 11.495C3.58419 11.492 3.57736 11.489 3.57054 11.486L3.53754 11.471L3.48604 11.4475L3.46004 11.4355L3.41204 11.4125L3.38104 11.3975L3.33904 11.3775L3.29604 11.3555L3.24954 11.332L3.22354 11.3185L3.17204 11.291L3.14354 11.276L3.11454 11.26C3.10685 11.2557 3.09919 11.2514 3.09154 11.247L3.04454 11.2205L3.01454 11.2035L2.98904 11.1885L2.95304 11.168L2.91204 11.143L2.86554 11.115L2.83954 11.099L2.79754 11.0725L2.76704 11.053L2.72754 11.028L2.69254 11.0045L2.66604 10.987C2.65701 10.981 2.64801 10.975 2.63904 10.969L2.61704 10.954L2.59504 10.939C2.58835 10.9344 2.58169 10.9297 2.57504 10.925L2.54654 10.905L2.50854 10.878L2.47404 10.853L2.43704 10.826L2.40904 10.805L2.37104 10.7765L2.33304 10.747L2.29004 10.7135L2.26754 10.696L2.23554 10.67L2.19854 10.64L2.15404 10.6035L2.13104 10.584L2.10804 10.5645C2.10085 10.5584 2.09368 10.5522 2.08654 10.546L2.06404 10.526L2.03354 10.4995L1.99854 10.4685L1.96454 10.4385L1.93354 10.4095L1.90004 10.3785L1.87354 10.3535L1.82954 10.3115C1.81295 10.2954 1.79645 10.2793 1.78004 10.263L1.76554 10.249L1.74504 10.228L1.71054 10.193L1.68554 10.1675L1.66054 10.141C1.63197 10.1117 1.60397 10.0819 1.57654 10.0515L1.53654 10.0075L1.50554 9.9725L1.47004 9.9325L1.44904 9.908L1.42254 9.877L1.39354 9.843L1.37054 9.815C1.36602 9.80951 1.36152 9.80401 1.35704 9.7985L1.33454 9.771L1.30154 9.73L1.28104 9.704L1.25604 9.672L1.24604 9.6595C0.959947 9.28867 0.718299 8.88558 0.526037 8.4585ZM0.0160372 5.5615L5.69254 7.08C5.5975 7.41101 5.51924 7.7466 5.45804 8.0855L10.8665 9.5325C10.5978 9.9004 10.2884 10.2367 9.94404 10.535L0.328537 7.962L0.320537 7.939L0.303037 7.887C0.294532 7.86156 0.286199 7.83606 0.278037 7.8105L0.274537 7.799C0.236051 7.67665 0.201533 7.55308 0.171037 7.4285L0.156037 7.3655L0.147037 7.3255L0.136537 7.277L0.127537 7.2365L0.118537 7.1915L0.110037 7.1495L0.101037 7.1025C0.0880372 7.032 0.0760372 6.961 0.0655372 6.8895L0.0570372 6.8305L0.0515372 6.789L0.0450372 6.738C0.0416894 6.71119 0.0385227 6.68435 0.0355372 6.6575L0.0330372 6.634C-0.00431973 6.27771 -0.0100087 5.9188 0.0160372 5.5615ZM0.812537 2.9865L6.78654 4.5845C6.60254 4.887 6.43404 5.2 6.28154 5.522L11.929 7.033C11.858 7.443 11.745 7.839 11.595 8.2155L5.82004 6.6705L0.0620372 5.1305L0.0695372 5.0805L0.0735372 5.056L0.0785372 5.0225L0.0860372 4.979L0.0950372 4.93C0.108037 4.856 0.123037 4.7825 0.139037 4.709L0.153037 4.647L0.163037 4.6045L0.175037 4.556C0.186037 4.511 0.197537 4.466 0.210037 4.422L0.224037 4.371L0.235537 4.3295L0.250537 4.2795L0.263037 4.2385L0.278037 4.1905L0.291037 4.1495L0.306537 4.102C0.436015 3.71361 0.605245 3.33963 0.811537 2.986L0.812537 2.9865ZM3.03354 0.7865L8.67604 2.2955C8.37828 2.56575 8.09647 2.85307 7.83204 3.156L11.7435 4.2025C11.877 4.6285 11.9645 5.0745 12 5.535L1.05304 2.607L1.07554 2.5745L1.08904 2.5545L1.10904 2.527L1.13204 2.4945L1.15954 2.4565L1.18654 2.4205L1.21854 2.3775L1.24354 2.345L1.27204 2.3085L1.29954 2.2735L1.32954 2.2365L1.35704 2.202L1.38954 2.1635L1.41654 2.1305L1.44954 2.092L1.47604 2.062L1.51204 2.021L1.53854 1.991L1.57204 1.954L1.59904 1.925L1.63554 1.886L1.66454 1.856L1.69604 1.8225L1.78004 1.7375L1.83004 1.6885L1.85954 1.6605L1.89754 1.625C2.24213 1.30206 2.6234 1.02064 3.03354 0.7865ZM6.00854 0.0005H6.05704L6.09804 0.001L6.13254 0.0015L6.15954 0.0025L6.19354 0.0035L6.21654 0.004L6.25454 0.0055L6.27804 0.0065L6.30804 0.008L6.33504 0.009L6.37854 0.0115L6.43104 0.015L6.50304 0.0205L6.54704 0.024L6.56904 0.026L6.60754 0.03L6.64854 0.034L6.67204 0.0365L6.72304 0.0425L6.74804 0.0455L6.80204 0.0525L6.84254 0.0575L6.86354 0.0605L6.89604 0.0655L6.99954 0.0815L7.03454 0.0875L7.06704 0.093L7.13704 0.106L7.18304 0.115L7.23804 0.126L7.26104 0.131L7.29854 0.139L7.31904 0.144L7.35004 0.1505L7.37104 0.1555L7.40354 0.163L7.42804 0.169L7.46354 0.1775L7.51154 0.1895L7.56754 0.2045L7.62404 0.2195L7.68054 0.2355L7.70554 0.243L7.74054 0.253L7.77954 0.265L7.81604 0.2765L7.84104 0.2845L7.86604 0.2925L7.90404 0.305L7.95354 0.3215L8.00454 0.3395L8.02854 0.348L8.06054 0.3595L8.10704 0.3765L8.16204 0.397L8.22004 0.4195L8.27004 0.4395L8.29354 0.4495L8.32354 0.4615L8.34404 0.4705L8.37554 0.4835L8.39554 0.4925L8.42404 0.505L8.47904 0.529L8.52904 0.552L8.56604 0.5695L8.60354 0.5875L8.63354 0.6015L8.67954 0.6245L8.72504 0.647L8.77604 0.673L8.80254 0.687L8.82704 0.7L8.85004 0.712L8.88004 0.7285L8.90054 0.7395L8.92654 0.754L8.97054 0.779L9.02354 0.809L9.06704 0.8345L9.09554 0.8515L9.12204 0.8675L9.17004 0.897L9.21404 0.9245L9.26304 0.9555L9.28104 0.9675L9.31304 0.988L9.35504 1.016L9.37504 1.0295L9.40604 1.0505L9.43704 1.072L9.44854 1.0805C9.47554 1.099 9.50254 1.118 9.52904 1.1375L9.57054 1.1675L9.60304 1.1915L9.63104 1.213L9.67404 1.2455L9.71504 1.2775L9.73504 1.2925L9.76004 1.313L9.80304 1.3475L9.84254 1.38L9.88504 1.4155C10.241 1.7155 10.5615 2.057 10.8395 2.431L3.61104 0.4975L3.64204 0.484L3.67454 0.47L3.71504 0.453L3.75804 0.4355C3.81454 0.413 3.87154 0.3905 3.92854 0.37L3.97654 0.3525L4.02304 0.336L4.06504 0.321L4.11304 0.3055C4.15654 0.2905 4.20104 0.2765 4.24504 0.263L4.29054 0.2495L4.33354 0.237L4.38454 0.222L4.42704 0.2105L4.47704 0.1975L4.52004 0.1855L4.56504 0.174L4.61054 0.163L4.65804 0.152L4.70304 0.142L4.75204 0.1315L4.79754 0.1215L4.84504 0.1125L4.89104 0.1035L4.94104 0.0945L4.98654 0.0865L5.03554 0.078L5.08154 0.071L5.13004 0.0635L5.17604 0.057L5.22704 0.0505L5.27254 0.0445L5.32504 0.0385L5.37004 0.0335L5.42254 0.0285C5.46904 0.0235 5.51554 0.0195 5.56254 0.0165L5.61554 0.0125L5.66054 0.01L5.71554 0.007L5.76204 0.005L5.81204 0.003L5.86054 0.002L5.91004 0.001L6.00854 0V0.0005Z" fill="white"/>
</g>
<defs>
<clipPath id="clip0_25_7430">
<rect width="12" height="12" fill="white"/>
</clipPath>
</defs>
</svg>
