<svg width="12" height="12" viewBox="0 0 12 12" fill="none" xmlns="http://www.w3.org/2000/svg">
<g clip-path="url(#clip0_25_7442)">
<path fill-rule="evenodd" clip-rule="evenodd" d="M2.47009 6.41752C2.53359 6.39802 2.61259 6.42752 2.65659 6.48902C2.67059 6.50802 2.67459 6.53502 2.67959 6.55902C2.68109 6.56602 2.66959 6.57552 2.65959 6.58402C2.59759 6.53502 2.53959 6.48702 2.48259 6.43852C2.47709 6.43352 2.47459 6.42502 2.47009 6.41752ZM3.69909 4.70602C3.79659 4.69002 3.89409 4.67602 3.99309 4.68102C4.01824 4.68189 4.04315 4.68626 4.06709 4.69402C4.16809 4.72952 4.26809 4.76752 4.36759 4.80602C4.38159 4.81102 4.39259 4.82402 4.40509 4.83352L4.39859 4.84702C4.35504 4.83284 4.3117 4.818 4.26859 4.80252C4.21109 4.78352 4.16209 4.76402 4.11109 4.75352C3.98609 4.72852 3.98609 4.73052 3.96509 4.74652L4.25209 4.81852C4.38959 4.88802 4.52709 4.95652 4.66359 5.02702C4.68459 5.03802 4.70859 5.05552 4.71709 5.07602C4.73009 5.10602 4.74859 5.11402 4.77559 5.11202C4.80859 5.10902 4.84159 5.10352 4.88209 5.09852L4.86209 5.14152C4.88759 5.18152 4.93309 5.15152 4.97009 5.17352C4.93309 5.23852 4.84659 5.21852 4.80309 5.27302L4.83359 5.31002L4.77359 5.35352C4.77359 5.40652 4.75459 5.43752 4.62059 5.47502L4.63359 5.51752L4.53559 5.53852L4.57059 5.60052H4.44559L4.44209 5.66902C4.40159 5.66402 4.36159 5.66002 4.32009 5.65552L4.29359 5.71702C4.28009 5.71302 4.26759 5.71152 4.25709 5.70552C4.22359 5.68652 4.19309 5.67752 4.15959 5.70852C4.15009 5.71702 4.12809 5.71552 4.11309 5.71252C4.10009 5.70952 4.08809 5.69802 4.07809 5.69152C4.02309 5.73902 4.02309 5.73902 3.97409 5.69302C3.94559 5.71602 3.91409 5.73002 3.88109 5.69852C3.84959 5.71202 3.81959 5.68852 3.79209 5.69152C3.75709 5.69502 3.74359 5.67402 3.72559 5.65652L3.66059 5.67302C3.65409 5.55502 3.56359 5.57802 3.49059 5.57152C3.49309 5.53552 3.51559 5.52552 3.53809 5.52452C3.56503 5.52364 3.59191 5.52736 3.61759 5.53552C3.69959 5.56052 3.77759 5.59552 3.86559 5.60452C3.96709 5.61502 4.06809 5.61902 4.16609 5.59702C4.29859 5.56752 4.42609 5.52252 4.51959 5.41452C4.54409 5.38652 4.56109 5.35102 4.57809 5.31702C4.58759 5.29802 4.58809 5.27502 4.56809 5.25902C4.51055 5.21301 4.44608 5.17639 4.37709 5.15052C4.38909 5.21052 4.36159 5.24152 4.31959 5.26102C4.31959 5.26802 4.31759 5.27352 4.31959 5.27602C4.35959 5.33352 4.36159 5.35602 4.31609 5.40952C4.28372 5.44856 4.24717 5.48394 4.20709 5.51502C4.16017 5.55157 4.10129 5.56926 4.042 5.56463C3.98271 5.56001 3.92728 5.5334 3.88659 5.49002C3.86257 5.46637 3.84034 5.44097 3.82009 5.41402C3.78109 5.36052 3.78209 5.36002 3.80359 5.29602C3.72109 5.25602 3.73959 5.18302 3.75159 5.11402C3.75559 5.08902 3.76559 5.06602 3.77609 5.03252C3.75609 5.03952 3.74259 5.04102 3.73259 5.04852C3.66479 5.09268 3.61019 5.15436 3.57459 5.22702C3.57109 5.23502 3.56959 5.24402 3.56459 5.25052C3.55859 5.25802 3.54759 5.26952 3.54209 5.26802C3.53209 5.26502 3.52359 5.25452 3.51709 5.24552C3.51309 5.23952 3.51359 5.22952 3.51109 5.21702H3.44809L3.47459 5.13102C3.46811 5.12284 3.46161 5.11467 3.45509 5.10652L3.51009 4.96452C3.48009 4.97752 3.46459 4.98652 3.44809 4.99002C3.43309 4.99352 3.41609 4.99002 3.40059 4.99002C3.40059 4.97452 3.39559 4.95502 3.40259 4.94402C3.47709 4.83402 3.55509 4.73002 3.69909 4.70602Z" fill="white"/>
<path fill-rule="evenodd" clip-rule="evenodd" d="M3.53115 5.39402C3.52965 5.37502 3.52915 5.35652 3.54965 5.36302C3.55765 5.36602 3.56665 5.38702 3.56365 5.39652C3.55865 5.41652 3.54415 5.41252 3.53115 5.39402Z" fill="white"/>
<path fill-rule="evenodd" clip-rule="evenodd" d="M5.49164 0.00449764C5.60464 -0.00150236 5.71814 -0.00100236 5.83114 0.00449764C5.95464 0.00949764 6.07864 0.0164976 6.20114 0.0354976C6.40164 0.0674976 6.60014 0.113998 6.79614 0.171998C7.02764 0.240998 7.25614 0.321498 7.47414 0.427498C8.07762 0.72388 8.58765 1.18098 8.94814 1.7485C9.09414 1.983 9.21614 2.23 9.31764 2.488C9.42714 2.766 9.54064 3.043 9.62914 3.3295C9.73114 3.6565 9.79364 3.9925 9.85814 4.328C9.90664 4.58 9.94914 4.833 10.0031 5.0835C10.0811 5.4445 10.1676 5.8035 10.2501 6.1635C10.3431 6.5695 10.4501 6.971 10.5651 7.371C10.6161 7.5485 10.6616 7.7275 10.7061 7.907C10.7611 8.125 10.8071 8.345 10.8331 8.5685C10.8486 8.7075 10.8661 8.847 10.8696 8.987C10.8754 9.13371 10.8725 9.28062 10.8611 9.427C10.8426 9.6335 10.8111 9.836 10.7481 10.033C10.6491 10.3343 10.4939 10.6141 10.2906 10.8575L10.2256 10.9355L10.2346 10.947C10.2561 10.9355 10.2786 10.9265 10.2981 10.913C10.3981 10.844 10.4846 10.7595 10.5636 10.668C10.7636 10.438 10.9241 10.1815 11.0511 9.9035C11.1754 9.63463 11.2313 9.33918 11.2136 9.0435C11.2016 8.8315 11.1651 8.6265 11.0636 8.437C11.0571 8.4235 11.0561 8.407 11.0486 8.3765C11.0736 8.394 11.0896 8.4005 11.0991 8.4125C11.1526 8.4775 11.2091 8.5415 11.2566 8.6115C11.4216 8.8585 11.4866 9.1375 11.4996 9.4315C11.5131 9.77517 11.4318 10.1159 11.2646 10.4165C11.0846 10.744 10.8211 10.9865 10.5016 11.1695C10.4051 11.225 10.3046 11.2745 10.2041 11.3235C10.1256 11.3625 10.0801 11.429 10.0451 11.506C10.0289 11.537 10.0191 11.5709 10.0163 11.6058C10.0134 11.6407 10.0176 11.6758 10.0286 11.709C10.0353 11.7315 10.0375 11.7551 10.0351 11.7785C10.0326 11.817 9.99664 11.856 9.96514 11.8595C9.93814 11.8625 9.90264 11.838 9.89014 11.8015C9.87628 11.7638 9.86623 11.7247 9.86014 11.685C9.84014 11.528 9.78264 11.385 9.70614 11.25C9.60794 11.0809 9.4849 10.9275 9.34114 10.795C9.21557 10.672 9.06148 10.582 8.89264 10.533C8.7794 10.5013 8.66364 10.4793 8.54664 10.4675C8.50914 10.4635 8.47164 10.4475 8.43664 10.4725C8.52664 10.5025 8.61814 10.5275 8.70564 10.5625C8.92264 10.649 9.11564 10.7775 9.29564 10.9265C9.44964 11.054 9.58564 11.198 9.69264 11.3685C9.74164 11.446 9.78564 11.526 9.80614 11.6165C9.81964 11.678 9.82714 11.7415 9.83964 11.804C9.84614 11.835 9.83864 11.8585 9.81314 11.876C9.78964 11.8925 9.75214 11.893 9.73164 11.871C9.71424 11.8502 9.7007 11.8265 9.69164 11.801C9.67664 11.7645 9.67264 11.7215 9.65264 11.6885C9.45856 11.377 9.21871 11.0966 8.94114 10.8565C8.86114 10.788 8.77664 10.7265 8.67264 10.695C8.48464 10.638 8.29614 10.5935 8.09764 10.618C7.99114 10.6305 7.88414 10.634 7.77764 10.6445C7.64531 10.6595 7.51882 10.7073 7.40964 10.7835C7.25814 10.8882 7.11834 11.0089 6.99264 11.1435C6.82814 11.3145 6.67164 11.493 6.51514 11.671C6.44714 11.7485 6.38314 11.8305 6.35814 11.9365C6.3561 11.945 6.3541 11.9535 6.35214 11.962C6.34992 11.9724 6.3443 11.9818 6.33615 11.9887C6.328 11.9956 6.31779 11.9996 6.30714 12H6.15214C6.12914 12 6.11114 11.976 6.11614 11.953C6.12764 11.899 6.13864 11.845 6.15114 11.791C6.18864 11.6285 6.24614 11.4735 6.33514 11.3325C6.34714 11.313 6.35514 11.2885 6.38714 11.2925L6.39214 11.317L6.40564 11.3555C6.54564 11.138 6.69114 10.9385 6.90364 10.788C7.04514 10.686 7.19564 10.599 7.34864 10.513C7.33265 10.5085 7.31579 10.5082 7.29964 10.512C7.21864 10.5335 7.13714 10.554 7.05714 10.579C6.85614 10.641 6.67514 10.744 6.50214 10.862C6.42864 10.912 6.35314 10.9585 6.29514 11.0285C6.07591 11.2962 5.89578 11.5937 5.76014 11.912C5.75198 11.9315 5.7453 11.9515 5.74014 11.972C5.73805 11.98 5.73339 11.987 5.72688 11.9921C5.72038 11.9972 5.71238 11.9999 5.70414 12H5.45714C5.43714 12 5.42614 11.9745 5.43914 11.959C5.50064 11.889 5.56214 11.818 5.62764 11.7515C5.76514 11.611 5.91764 11.4855 6.01614 11.3095C6.02964 11.2855 6.04764 11.2645 6.06364 11.242C6.18264 11.0755 6.33364 10.9385 6.47264 10.791C6.51364 10.748 6.56014 10.711 6.60264 10.671C6.61714 10.6575 6.62914 10.6425 6.64214 10.6285L6.63314 10.616L6.56564 10.6365C6.54864 10.645 6.53064 10.652 6.51464 10.6615C6.39064 10.7335 6.26764 10.8075 6.14314 10.878C5.93914 10.993 5.73064 11.0975 5.53864 11.2335C5.39814 11.3335 5.24314 11.4125 5.09414 11.5C5.08414 11.506 5.07214 11.5075 5.05414 11.514C5.04664 11.4465 5.12564 11.4135 5.10814 11.346C5.09164 11.353 5.07614 11.356 5.06564 11.365C5.01014 11.413 4.95214 11.46 4.90164 11.513C4.82764 11.5915 4.75964 11.6755 4.68914 11.757C4.62664 11.8285 4.56414 11.9 4.50264 11.9725C4.4957 11.9808 4.48708 11.9876 4.47734 11.9923C4.4676 11.9971 4.45697 11.9997 4.44614 12H3.88214C3.8853 11.9932 3.88797 11.9862 3.89014 11.979C3.90414 11.934 3.93264 11.893 3.93164 11.839C3.88614 11.83 3.85064 11.8395 3.82564 11.8775C3.80195 11.9127 3.77928 11.9485 3.75764 11.985C3.75264 11.993 3.74564 12 3.73664 12H3.69014C3.68064 12 3.67564 11.989 3.68164 11.9815C3.71714 11.9375 3.75164 11.8925 3.78614 11.8475C3.78664 11.8465 3.78314 11.8415 3.78014 11.8355C3.77314 11.8375 3.76514 11.8385 3.75764 11.842C3.66964 11.887 3.58164 11.9325 3.49414 11.979C3.46824 11.9927 3.43942 11.9999 3.41014 12H2.10214C2.08914 12 2.08264 11.982 2.09264 11.9735C2.19764 11.8845 2.29364 11.7865 2.37164 11.671C2.53914 11.423 2.64064 11.1475 2.70514 10.8565C2.70714 10.8465 2.70364 10.835 2.70214 10.811C2.68364 10.835 2.67264 10.847 2.66414 10.861C2.61826 10.9375 2.56207 11.0073 2.49714 11.0685C2.35714 11.1975 2.20214 11.2925 2.00564 11.3005C1.85714 11.3065 1.71164 11.3005 1.57314 11.237C1.34314 11.132 1.21214 10.952 1.17614 10.701C1.16364 10.616 1.16764 10.6155 1.08514 10.5915C0.868705 10.5334 0.665383 10.4345 0.486138 10.3C0.296123 10.1581 0.154936 9.96068 0.0821383 9.735C0.018905 9.53385 -0.00818049 9.3231 0.00213831 9.1125C0.00313831 9.0955 0.0101383 9.079 0.0141383 9.0625C0.0301383 9.074 0.0371383 9.084 0.0391383 9.0955C0.0556383 9.172 0.0686383 9.2495 0.0871383 9.3255C0.130138 9.503 0.215638 9.6575 0.345138 9.7855C0.474138 9.9135 0.630638 9.995 0.800138 10.0515C0.979138 10.1105 1.15864 10.1205 1.33514 10.0435C1.45302 9.99021 1.5587 9.91329 1.64564 9.8175C1.80964 9.6435 1.91214 9.4375 1.96964 9.206C1.97414 9.189 1.97214 9.1705 1.97314 9.151C1.96564 9.154 1.96014 9.154 1.95814 9.1565C1.94264 9.1815 1.92614 9.2065 1.91164 9.2325C1.76964 9.4835 1.57214 9.676 1.31364 9.8C1.13814 9.885 0.954638 9.9275 0.758638 9.8795C0.562531 9.83718 0.389347 9.72303 0.273138 9.5595C0.173995 9.42339 0.110717 9.2645 0.0891383 9.0975C0.0697794 8.95019 0.073152 8.80078 0.0991383 8.6545C0.124138 8.435 0.332138 8.0695 0.470138 8.019C0.460138 8.0505 0.452638 8.075 0.443638 8.099C0.422138 8.157 0.395138 8.2125 0.378638 8.2715C0.340521 8.40471 0.331989 8.54464 0.353638 8.6815C0.370138 8.7875 0.398638 8.8895 0.455638 8.9815C0.529138 9.0995 0.628638 9.185 0.765638 9.214C0.820638 9.2255 0.878138 9.221 0.934638 9.223C1.0048 9.22542 1.07344 9.20213 1.12764 9.1575C1.20964 9.0935 1.26864 9.0115 1.31064 8.917C1.39464 8.7295 1.43064 8.5285 1.46514 8.3275C1.49014 8.1795 1.51164 8.0305 1.53164 7.881C1.55114 7.7405 1.56714 7.5995 1.58364 7.4585C1.59664 7.3425 1.60764 7.2265 1.62064 7.1105C1.63264 6.9965 1.64664 6.883 1.65864 6.769C1.67064 6.6555 1.68214 6.5415 1.69314 6.4275C1.69964 6.3575 1.70414 6.2875 1.71014 6.2175L1.72864 6.009C1.73964 5.884 1.74914 5.759 1.76114 5.635C1.76514 5.594 1.75114 5.569 1.71614 5.5465C1.62531 5.48794 1.5426 5.41767 1.47014 5.3375C1.42014 5.283 1.37614 5.2235 1.32914 5.1665C1.31164 5.1455 1.30114 5.118 1.27114 5.1075C1.30089 5.21364 1.3473 5.3144 1.40864 5.406C1.43864 5.452 1.47414 5.494 1.50664 5.5385C1.53814 5.5815 1.59764 5.596 1.62364 5.6515C1.60964 5.653 1.60064 5.6565 1.59364 5.6545C1.55675 5.64588 1.52007 5.63638 1.48364 5.626C1.23435 5.55393 1.011 5.4118 0.840138 5.2165C0.622638 4.973 0.512138 4.6785 0.485138 4.355C0.469432 4.17855 0.471777 4.00097 0.492138 3.825C0.528138 3.524 0.602138 3.232 0.717138 2.9525C0.794638 2.7645 0.886138 2.582 0.980138 2.4015C1.08264 2.205 1.21314 2.0265 1.36264 1.8635C1.61864 1.584 1.91464 1.3515 2.22564 1.1395C2.58414 0.894498 2.96464 0.690498 3.36414 0.522998C3.62314 0.413998 3.88464 0.315998 4.15614 0.246998C4.48364 0.163998 4.81114 0.0819976 5.14714 0.0394976C5.26164 0.0244976 5.37614 0.0104976 5.49114 0.00449764H5.49164ZM4.56814 11.4145C4.53314 11.4445 4.49464 11.47 4.46464 11.5045C4.34564 11.6395 4.23264 11.779 4.13064 11.939L4.10864 11.993C4.12675 11.9886 4.14302 11.9787 4.15514 11.9645C4.24214 11.8695 4.33064 11.7755 4.41464 11.6775C4.46664 11.6165 4.51214 11.55 4.55864 11.4845C4.57064 11.4675 4.57364 11.4445 4.58164 11.4245L4.56814 11.4145ZM5.39314 9.567C5.27656 9.65695 5.16737 9.7561 5.06664 9.8635L4.88164 10.0565C4.82962 10.1125 4.76501 10.1554 4.69314 10.1815C4.61852 10.21 4.5395 10.2252 4.45964 10.2265C4.43764 10.2265 4.41614 10.2295 4.38414 10.2325C4.39814 10.2615 4.40564 10.281 4.41614 10.298C4.49114 10.419 4.56664 10.539 4.64114 10.66C4.70914 10.77 4.77914 10.879 4.84064 10.993C4.87464 11.0555 4.89314 11.1265 4.91864 11.195C4.95714 11.2085 4.98864 11.186 5.01964 11.171C5.16464 11.1035 5.30914 11.034 5.45314 10.965C5.55964 10.9145 5.67164 10.872 5.77114 10.81C5.94464 10.7025 6.11114 10.5825 6.28014 10.4675C6.28764 10.4625 6.29314 10.4535 6.30114 10.4445C6.28964 10.435 6.28214 10.426 6.27314 10.4225C6.12964 10.367 6.00964 10.2725 5.88814 10.1815C5.79955 10.1168 5.71506 10.0466 5.63514 9.9715C5.54347 9.87919 5.47345 9.76767 5.43014 9.645C5.42064 9.6205 5.40764 9.5975 5.39264 9.567H5.39314ZM2.46964 9.699C2.43964 9.747 2.42114 9.796 2.40364 9.8455C2.34073 10.0285 2.24687 10.1993 2.12614 10.3505C2.02614 10.4755 1.89864 10.5565 1.74514 10.597C1.63014 10.627 1.51314 10.635 1.39514 10.632C1.37114 10.631 1.34664 10.633 1.31614 10.6345C1.32414 10.6545 1.32664 10.6675 1.33364 10.677C1.38364 10.7495 1.44864 10.8 1.53364 10.8245C1.61214 10.8475 1.69164 10.8415 1.78264 10.836C1.87314 10.8175 1.95414 10.7785 2.02514 10.719C2.14414 10.6195 2.22614 10.492 2.29314 10.353C2.38064 10.1715 2.42514 9.9775 2.46414 9.781C2.46914 9.7545 2.46814 9.726 2.46964 9.699ZM9.94214 7.406C9.94614 7.4205 9.95014 7.4345 9.95564 7.4595C9.96764 7.537 9.98114 7.6145 9.99164 7.6915C10.0066 7.801 10.0251 7.91 10.0306 8.02C10.0391 8.192 10.0441 8.3645 10.0236 8.5365C10.0051 8.694 9.99214 8.853 9.96564 9.0095C9.92204 9.27136 9.84473 9.52648 9.73564 9.7685C9.73164 9.7775 9.73064 9.788 9.72564 9.8095C9.74914 9.7945 9.76414 9.7885 9.77464 9.7775C9.81714 9.736 9.85964 9.694 9.89864 9.65C10.0341 9.4975 10.1276 9.32 10.1966 9.1285C10.2866 8.8795 10.3106 8.623 10.2691 8.363C10.2176 8.038 10.1041 7.7315 9.97064 7.4225C9.96667 7.41332 9.96267 7.40415 9.95864 7.395L9.94214 7.406ZM2.39964 4.145C2.39484 4.17082 2.39798 4.19749 2.40864 4.2215C2.47064 4.347 2.53364 4.472 2.59814 4.5965C2.61064 4.621 2.63114 4.6415 2.61314 4.678C2.47114 4.708 2.32414 4.7375 2.17314 4.8055C2.20264 4.8245 2.22164 4.8355 2.23914 4.849C2.26014 4.865 2.29514 4.878 2.28414 4.909C2.27914 4.9255 2.24664 4.933 2.22564 4.945C2.23414 4.95 2.24714 4.9555 2.25914 4.963C2.34214 5.014 2.42414 5.0665 2.48264 5.147C2.55164 5.243 2.59714 5.349 2.57664 5.469C2.53714 5.7035 2.42364 5.894 2.23164 6.035C2.20464 6.055 2.17864 6.0765 2.15114 6.096C2.13159 6.10921 2.1163 6.12783 2.10716 6.14958C2.09801 6.17134 2.0954 6.19528 2.09964 6.2185C2.10447 6.25207 2.11372 6.28485 2.12714 6.316C2.16864 6.414 2.23714 6.491 2.31464 6.562C2.35614 6.6 2.39414 6.644 2.42564 6.6905C2.44447 6.7179 2.45556 6.74986 2.45776 6.78303C2.45996 6.8162 2.45318 6.84935 2.43814 6.879C2.42664 6.904 2.41314 6.9285 2.40014 6.953C2.38514 6.983 2.38614 7.0085 2.41114 7.034C2.43164 7.055 2.45114 7.0785 2.46714 7.103C2.48614 7.132 2.50614 7.1425 2.54064 7.128C2.59405 7.10742 2.65302 7.10636 2.70714 7.125C2.78714 7.148 2.85814 7.188 2.92914 7.23C2.99414 7.2685 3.06114 7.3045 3.12914 7.3395C3.16264 7.357 3.19914 7.3645 3.23864 7.3525C3.27414 7.3415 3.30064 7.3575 3.31114 7.3905C3.32114 7.4225 3.30964 7.4445 3.27414 7.46C3.23914 7.475 3.20564 7.4915 3.16964 7.504C3.11964 7.5215 3.06914 7.5405 3.01264 7.5425C3.00614 7.489 3.06764 7.4985 3.07614 7.463C2.97314 7.4 2.75464 7.3905 2.67564 7.446C2.70714 7.502 2.69314 7.551 2.62764 7.6025C2.56264 7.5525 2.61514 7.5015 2.62864 7.4525C2.61486 7.44961 2.60064 7.44954 2.58683 7.45228C2.57302 7.45502 2.55991 7.46053 2.54828 7.46847C2.53665 7.47641 2.52675 7.48662 2.51916 7.49848C2.51158 7.51034 2.50647 7.52361 2.50414 7.5375C2.49664 7.588 2.53764 7.6455 2.59314 7.6495C2.64714 7.653 2.70214 7.647 2.75614 7.6435C2.78614 7.641 2.81614 7.63 2.85564 7.6435C2.80414 7.705 2.73164 7.707 2.67714 7.7385C2.67814 7.7635 2.71214 7.7815 2.68664 7.804C2.66014 7.828 2.63914 7.8035 2.62064 7.789C2.58064 7.7575 2.54064 7.726 2.50514 7.6905C2.46018 7.65051 2.43212 7.59492 2.42664 7.535C2.42445 7.50531 2.41718 7.47622 2.40514 7.449C2.38914 7.412 2.38914 7.3805 2.42164 7.354C2.41264 7.339 2.40764 7.3275 2.39914 7.318C2.35612 7.26258 2.32297 7.20017 2.30114 7.1335C2.27464 7.065 2.27814 7.0015 2.32514 6.943C2.33714 6.928 2.35014 6.913 2.35714 6.8955C2.36863 6.86865 2.37653 6.84041 2.38064 6.8115C2.38914 6.729 2.34864 6.668 2.28964 6.618C2.19664 6.54 2.10964 6.457 2.05964 6.3425C2.05714 6.337 2.04764 6.334 2.04114 6.3295C2.03564 6.338 2.02914 6.343 2.02864 6.3485C2.01914 6.441 2.00614 6.5335 2.00264 6.627C1.99564 6.8155 2.03164 6.9985 2.08364 7.179C2.14264 7.384 2.22814 7.578 2.32764 7.7655C2.46114 8.0165 2.59614 8.2665 2.73364 8.5155C2.76114 8.5645 2.79864 8.61 2.83764 8.6505C2.93664 8.7515 3.06364 8.7865 3.19964 8.787C3.30064 8.787 3.40164 8.784 3.50214 8.774C3.64964 8.759 3.79714 8.7375 3.94414 8.7175C4.03564 8.705 4.12664 8.689 4.21814 8.6775C4.32314 8.6645 4.40814 8.714 4.47914 8.7825C4.55914 8.8605 4.63164 8.946 4.70264 9.0325C4.81264 9.165 4.90114 9.3125 4.97964 9.466C5.00464 9.515 5.01464 9.516 5.05314 9.481C5.11814 9.4205 5.18314 9.36 5.25014 9.301C5.28364 9.2715 5.29414 9.241 5.28364 9.1945C5.25445 9.06387 5.24019 8.93035 5.24114 8.7965C5.24214 8.718 5.24414 8.6395 5.25014 8.561C5.25764 8.449 5.26514 8.336 5.28014 8.225C5.33293 7.84085 5.39327 7.45777 5.46114 7.076C5.50464 6.8295 5.55214 6.584 5.59514 6.3375C5.62514 6.164 5.65414 5.9905 5.67614 5.816C5.69314 5.6795 5.70364 5.541 5.70764 5.4035C5.71314 5.2375 5.70914 5.071 5.70864 4.9045C5.70864 4.866 5.71064 4.827 5.70364 4.7895C5.68964 4.7185 5.69864 4.712 5.62264 4.6945C5.52249 4.67132 5.42118 4.65346 5.31914 4.641C5.24614 4.632 5.21564 4.6145 5.20864 4.546C5.20564 4.5215 5.19614 4.497 5.18814 4.473C5.18364 4.4605 5.17614 4.449 5.16514 4.428L5.15264 4.56C5.14814 4.608 5.13814 4.618 5.08914 4.6175C5.06164 4.6175 5.03414 4.6135 5.00714 4.6135C4.76914 4.6135 4.53114 4.6095 4.29414 4.6295C4.24664 4.6335 4.20764 4.622 4.18114 4.578C4.16114 4.545 4.13714 4.515 4.11414 4.485C4.08264 4.443 4.07114 4.4385 4.02314 4.455C3.92564 4.489 3.82914 4.524 3.73214 4.56C3.61071 4.60901 3.49703 4.67537 3.39464 4.757C3.34649 4.79478 3.29172 4.82327 3.23314 4.841C3.21664 4.846 3.19814 4.845 3.16964 4.8475C3.17964 4.8145 3.18164 4.7905 3.19314 4.7725C3.22514 4.72 3.26064 4.67 3.29564 4.6195C3.30714 4.603 3.32014 4.588 3.33214 4.572L3.32464 4.5605L3.22414 4.579C3.15114 4.599 3.07614 4.614 3.00564 4.64C2.93164 4.6665 2.87264 4.6515 2.81264 4.604C2.67161 4.49195 2.54809 4.35949 2.44614 4.211L2.39964 4.145ZM6.69564 8.6265L6.62214 8.6715C6.51214 8.7385 6.40214 8.8045 6.29264 8.8725C6.24614 8.9015 6.20064 8.9325 6.15764 8.9665C6.11514 9.0015 6.09564 9.047 6.12164 9.1025C6.14514 9.1525 6.16814 9.2025 6.19514 9.2495C6.21864 9.2895 6.25714 9.3185 6.30164 9.323C6.35664 9.328 6.41564 9.329 6.46964 9.317C6.57814 9.292 6.65564 9.2145 6.73364 9.1385C6.75515 9.11989 6.77073 9.09539 6.77846 9.06802C6.78619 9.04065 6.78573 9.01161 6.77714 8.9845C6.75414 8.8945 6.73764 8.802 6.71814 8.711C6.71264 8.685 6.70464 8.6595 6.69564 8.6265ZM6.56714 7.422C6.50714 7.5675 6.46464 7.7205 6.40464 7.877C6.32914 8.0935 6.25764 8.312 6.18714 8.5385C6.20514 8.5335 6.21414 8.5335 6.22064 8.5295C6.35114 8.4495 6.48164 8.3675 6.61314 8.2875C6.64014 8.271 6.64864 8.2485 6.64564 8.2185C6.63964 8.1535 6.63364 8.0875 6.62864 8.022L6.59464 7.579C6.59064 7.5275 6.58464 7.476 6.58014 7.424C6.57564 7.424 6.57164 7.423 6.56714 7.422ZM8.10764 3.357L8.15714 3.4995C8.19714 3.615 8.23664 3.731 8.27714 3.8565L8.56714 4.8325C8.66064 5.1475 8.75314 5.4635 8.84614 5.779C8.90314 5.97 8.96364 6.16 9.01764 6.352C9.05364 6.4805 9.08064 6.6115 9.11064 6.7515C9.13264 6.8545 9.15414 6.958 9.17414 7.0715C9.19114 7.1245 9.18564 7.1845 9.21264 7.234L9.22514 7.231L9.19114 7.05C9.17214 6.947 9.15264 6.844 9.13464 6.731C9.12714 6.696 9.12014 6.6605 9.11164 6.6255C9.06414 6.4275 9.02314 6.2275 8.96664 6.032C8.86864 5.6895 8.76014 5.35 8.65764 5.009C8.57514 4.7345 8.49664 4.459 8.41364 4.185C8.37914 4.0715 8.33864 3.96 8.30064 3.8375L8.24214 3.6695C8.22364 3.616 8.20464 3.5615 8.18464 3.5085C8.16464 3.4555 8.14264 3.4035 8.12114 3.3515C8.11664 3.35317 8.11214 3.35484 8.10764 3.3565V3.357ZM2.61364 7.152C2.58214 7.1515 2.55614 7.159 2.54664 7.1935C2.57583 7.21594 2.61136 7.2286 2.64817 7.22967C2.68497 7.23075 2.72118 7.22019 2.75164 7.1995C2.70616 7.18219 2.66014 7.16635 2.61364 7.152ZM2.11614 5.99C2.10314 5.9765 2.08764 5.966 2.07864 5.991C2.07264 6.007 2.07514 6.026 2.07364 6.0475C2.11464 6.029 2.11464 6.029 2.11614 5.99ZM2.14714 5.3955C2.13831 5.39701 2.12988 5.40027 2.12232 5.40508C2.11477 5.40988 2.10825 5.41615 2.10314 5.4235C2.0937 5.44022 2.08935 5.45934 2.09064 5.4785C2.09314 5.5545 2.09564 5.6315 2.10364 5.707C2.10903 5.7448 2.12016 5.78155 2.13664 5.816C2.16714 5.884 2.21514 5.8995 2.28064 5.8665C2.30814 5.853 2.31064 5.8395 2.29314 5.8115C2.27068 5.77693 2.24917 5.74175 2.22864 5.706C2.22114 5.672 2.19564 5.6405 2.21214 5.6025C2.23214 5.5575 2.17414 5.5445 2.17514 5.5075V5.437C2.17364 5.418 2.17214 5.3935 2.14714 5.3955ZM2.13864 4.9115C2.05636 4.91007 1.97537 4.9321 1.90514 4.975C1.86714 4.9975 1.86314 5.01 1.88014 5.054C1.89714 5.0975 1.91514 5.1405 1.93764 5.181C1.96964 5.2395 1.98264 5.2435 2.04264 5.2195C2.09534 5.19607 2.15328 5.18693 2.21064 5.193C2.31164 5.204 2.38914 5.261 2.46264 5.325L2.50864 5.3635C2.51214 5.3605 2.51564 5.357 2.51964 5.3545C2.51014 5.302 2.50214 5.2415 2.44514 5.2225C2.36664 5.196 2.28314 5.185 2.19114 5.164L2.07114 5.1615C2.19114 5.077 2.29714 5.1395 2.41464 5.166C2.38314 5.1085 2.33814 5.0925 2.29964 5.0695C2.25864 5.0445 2.21464 5.0235 2.17464 4.9975C2.14464 4.979 2.11464 4.9575 2.13864 4.9115ZM7.25514 5.074C7.14014 5.069 7.04164 5.114 6.95114 5.1795C6.93414 5.1925 6.92114 5.212 6.89864 5.238C6.94214 5.251 6.97364 5.261 7.01464 5.2705C7.03664 5.263 7.05864 5.2555 7.07964 5.2475C7.23264 5.1905 7.38464 5.19 7.53164 5.263C7.59464 5.2945 7.65014 5.283 7.71464 5.2605C7.70464 5.245 7.69964 5.2335 7.69214 5.225C7.63117 5.1601 7.55376 5.11293 7.46814 5.0885C7.39814 5.0665 7.32614 5.077 7.25514 5.074ZM3.49614 3.2415C3.49162 3.26347 3.49197 3.28617 3.49714 3.308C3.53714 3.4685 3.57514 3.6295 3.61814 3.789C3.67014 3.9825 3.75314 4.164 3.84614 4.3405C3.85614 4.359 3.87664 4.3805 3.89514 4.384C3.93896 4.38956 3.98339 4.3806 4.02164 4.3585L3.78564 3.9385C3.67064 3.7145 3.58314 3.4785 3.49614 3.2415ZM4.69964 0.248498C4.59964 0.244498 4.49714 0.250498 4.39814 0.265498C4.28014 0.282998 4.16314 0.308998 4.04814 0.341498C3.90464 0.381498 3.76364 0.431498 3.62214 0.477998C3.60214 0.484498 3.58514 0.496998 3.56714 0.506998C3.58114 0.513998 3.59214 0.515998 3.60214 0.513998C3.74564 0.479998 3.89214 0.471498 4.03864 0.468998C4.10564 0.467998 4.17314 0.473498 4.23964 0.481498C4.33464 0.493498 4.43064 0.505498 4.52464 0.526498C4.75264 0.578498 4.96164 0.676498 5.15714 0.804498C5.38914 0.957498 5.60114 1.1345 5.78564 1.3435C5.88814 1.4595 5.98314 1.581 6.06564 1.713C6.15064 1.85 6.22314 1.9935 6.29014 2.141C6.42664 2.4415 6.51814 2.757 6.59014 3.079C6.61014 3.1655 6.62514 3.253 6.64014 3.341C6.64864 3.393 6.67264 3.4245 6.72514 3.436C6.78614 3.45 6.82514 3.4885 6.83514 3.5615C6.83364 3.6125 6.80514 3.6485 6.77064 3.6815C6.71381 3.73101 6.66813 3.79202 6.63664 3.8605C6.65204 3.85808 6.66644 3.85131 6.67814 3.841C6.71814 3.798 6.75914 3.755 6.79564 3.7085C6.83491 3.66159 6.85774 3.60311 6.86064 3.542C6.86514 3.517 6.87164 3.492 6.87264 3.467C6.87614 3.405 6.86414 3.392 6.80114 3.383C6.78864 3.381 6.77664 3.376 6.76464 3.3755C6.72364 3.372 6.70214 3.344 6.69614 3.31C6.67964 3.211 6.69414 3.1325 6.81964 3.106C6.86264 3.097 6.90664 3.091 6.94964 3.085C7.02864 3.0735 7.10714 3.0585 7.18614 3.0515C7.25614 3.0455 7.28114 3.068 7.29914 3.135C7.30314 3.1495 7.30814 3.1635 7.30964 3.1785C7.31914 3.268 7.30564 3.291 7.23914 3.3225C7.22564 3.329 7.21164 3.3345 7.20014 3.3435C7.18857 3.35196 7.17972 3.3636 7.17464 3.377C7.15514 3.449 7.21114 3.568 7.27764 3.5995L7.61414 3.7595C7.62564 3.765 7.63914 3.767 7.65164 3.771L7.66064 3.758C7.65314 3.754 7.64464 3.7515 7.63864 3.746C7.55586 3.68026 7.46431 3.6264 7.36664 3.586C7.33805 3.57294 7.30921 3.56044 7.28014 3.5485C7.26125 3.54076 7.24514 3.52751 7.2339 3.51047C7.22266 3.49343 7.21682 3.4734 7.21714 3.453C7.21564 3.4105 7.23964 3.376 7.28114 3.3595L7.31064 3.347C7.36014 3.325 7.36964 3.309 7.36664 3.2535C7.36618 3.24291 7.36484 3.23237 7.36264 3.222C7.32914 3.075 7.30114 2.927 7.26014 2.782C7.1624 2.4278 7.0238 2.08617 6.84714 1.764C6.66301 1.42938 6.42862 1.125 6.15214 0.861498C5.97911 0.693771 5.78045 0.554694 5.56364 0.449498C5.40324 0.370268 5.23208 0.315012 5.05564 0.285498C4.93779 0.266268 4.81892 0.253914 4.69964 0.248498ZM8.05914 3.226C8.06414 3.233 8.06814 3.24 8.07814 3.243L8.06714 3.221L8.05914 3.226ZM1.55264 1.9585C1.54826 1.96179 1.54308 1.96386 1.53764 1.9645C1.53138 1.9714 1.5247 1.97791 1.51764 1.984C1.51264 1.989 1.50764 1.994 1.49514 2.004L1.31364 2.181C1.26964 2.2235 1.22864 2.27 1.18064 2.3075C1.03864 2.4175 0.968138 2.5725 0.908638 2.735C0.904235 2.74629 0.903024 2.75857 0.905138 2.7705C0.911638 2.798 0.921638 2.8245 0.931138 2.8545L0.968138 2.8675C0.959638 2.8955 0.953138 2.92 0.944638 2.9435C0.915638 3.0255 0.885638 3.107 0.857138 3.189C0.854638 3.1965 0.861138 3.207 0.866638 3.2275C0.906638 3.14 0.945638 3.0625 0.979138 2.983C1.09314 2.711 1.22114 2.446 1.38864 2.2025C1.43364 2.136 1.47964 2.0695 1.53014 2.002C1.53214 1.999 1.53364 1.9955 1.54114 1.987C1.54164 1.979 1.54264 1.971 1.54864 1.967L1.55264 1.9585ZM8.04064 3.1625C8.04209 3.16361 8.04326 3.16505 8.04404 3.1667C8.04482 3.16836 8.0452 3.17017 8.04514 3.172C8.04401 3.17358 8.043 3.17525 8.04214 3.177C8.04312 3.18039 8.04429 3.18373 8.04564 3.187L8.05464 3.198C8.05564 3.1945 8.05814 3.19 8.05714 3.1875C8.05564 3.1825 8.05114 3.1785 8.04714 3.1685C8.04496 3.16651 8.04279 3.16451 8.04064 3.1625ZM1.60064 2.24C1.59914 2.242 1.59664 2.244 1.58714 2.247C1.58464 2.2535 1.58164 2.2595 1.57164 2.2705C1.55237 2.29935 1.53168 2.32721 1.50964 2.354C1.48564 2.389 1.45164 2.3815 1.41914 2.3745C1.35214 2.3605 1.30514 2.3825 1.27564 2.446C1.23114 2.5395 1.18214 2.631 1.13914 2.726C1.11464 2.78 1.08414 2.834 1.08014 2.906C1.12064 2.9075 1.15714 2.9095 1.19414 2.91H1.30814C1.29735 2.95467 1.28416 2.99874 1.26864 3.042C1.26364 3.068 1.25764 3.0935 1.25214 3.1195L1.26214 3.1215C1.27114 3.0985 1.28064 3.0755 1.29564 3.045C1.32864 2.974 1.36064 2.9025 1.39564 2.832C1.40564 2.812 1.41264 2.782 1.45364 2.786C1.45364 2.8075 1.45564 2.828 1.45364 2.848C1.45114 2.8705 1.44514 2.893 1.43964 2.9195C1.51014 2.941 1.48264 3.0065 1.49714 3.054C1.54814 3.043 1.54914 2.9565 1.62114 2.982V3.0845L1.62964 3.0855L1.84914 2.556C1.78414 2.556 1.72614 2.546 1.67014 2.5725C1.65814 2.578 1.64114 2.572 1.61614 2.5705C1.65364 2.4955 1.68564 2.4315 1.72164 2.362C1.72474 2.35532 1.72897 2.34923 1.73414 2.344C1.73414 2.3365 1.73364 2.329 1.73814 2.325L1.74114 2.315C1.73864 2.318 1.73614 2.3205 1.72714 2.3235C1.72514 2.3295 1.72264 2.3355 1.71414 2.346C1.71042 2.35286 1.70489 2.35857 1.69814 2.3625C1.63664 2.441 1.65314 2.4445 1.56914 2.4155C1.52964 2.402 1.53014 2.4015 1.54564 2.3435C1.55964 2.3205 1.57364 2.297 1.59464 2.2685C1.59464 2.2605 1.59414 2.2525 1.59814 2.2475L1.60064 2.24ZM2.63714 1.905C2.63564 1.908 2.63364 1.9105 2.62364 1.913C2.57664 1.9755 2.52664 2.036 2.48364 2.1015C2.40614 2.2205 2.33314 2.342 2.25814 2.463C2.18814 2.575 2.08564 2.647 1.97064 2.7035C1.96214 2.7075 1.95064 2.7065 1.93114 2.709C1.93714 2.6795 1.93914 2.6545 1.94764 2.6325C1.98176 2.54443 2.01997 2.458 2.06214 2.3735L2.05864 2.3635C2.05349 2.36855 2.04759 2.37277 2.04114 2.376C2.02714 2.401 2.01364 2.426 1.99464 2.458C1.86464 2.67 1.77314 2.8665 1.77364 2.933C1.78564 2.935 1.79764 2.9385 1.81014 2.9395C1.89864 2.946 1.90414 2.943 1.94014 2.857C1.95514 2.822 1.97864 2.797 2.01364 2.782L2.10114 2.747C2.12314 2.738 2.14364 2.7185 2.17414 2.731C2.17564 2.756 2.16914 2.786 2.18114 2.8035C2.20214 2.8345 2.20314 2.866 2.20464 2.9C2.20564 2.9245 2.21314 2.949 2.21764 2.9735C2.23214 2.9565 2.23714 2.941 2.24264 2.925C2.31364 2.73 2.38114 2.534 2.45664 2.34C2.50664 2.212 2.56664 2.088 2.62164 1.962C2.62814 1.947 2.62814 1.9285 2.63664 1.916L2.63714 1.905ZM4.63064 1.735C4.63064 1.7575 4.63564 1.777 4.64114 1.7965C4.66214 1.8765 4.68814 1.9555 4.70314 2.0365C4.71514 2.103 4.71464 2.1715 4.71714 2.2395C4.71714 2.256 4.70764 2.273 4.70114 2.2945C4.65414 2.2655 4.67764 2.2155 4.64814 2.187H4.58564C4.57814 2.223 4.58064 2.263 4.56264 2.287C4.52964 2.3295 4.48514 2.364 4.44464 2.4005C4.42314 2.4195 4.40564 2.4095 4.39314 2.388L4.37014 2.3445C4.33764 2.362 4.31164 2.379 4.28414 2.391C4.22614 2.4165 4.16664 2.4385 4.10914 2.4645C4.06664 2.4835 4.06414 2.491 4.07414 2.538C4.08114 2.5755 4.09114 2.612 4.09764 2.6495C4.10414 2.6855 4.12264 2.704 4.15914 2.7115C4.27564 2.7365 4.39014 2.769 4.48764 2.844C4.51664 2.793 4.51664 2.793 4.57164 2.7685C4.58664 2.7615 4.60164 2.7535 4.61764 2.7475C4.65764 2.7325 4.67514 2.739 4.69264 2.7775C4.70414 2.8015 4.71314 2.8265 4.72564 2.8565C4.75564 2.7865 4.70464 2.723 4.73414 2.6485C4.81264 2.7385 4.85414 2.8435 4.92164 2.932C4.92879 2.91665 4.93255 2.89993 4.93264 2.883C4.93364 2.821 4.93264 2.7595 4.93364 2.6975C4.93364 2.6805 4.94014 2.664 4.94364 2.6475L4.95964 2.646C5.01464 2.7235 5.02464 2.823 5.07264 2.906C5.0752 2.84062 5.07353 2.77515 5.06764 2.71C5.06564 2.6875 5.06764 2.673 5.09264 2.666C5.13264 2.684 5.15064 2.736 5.20014 2.745C5.18514 2.6075 4.98864 2.1765 4.80114 1.9275C4.74414 1.864 4.70114 1.7875 4.63114 1.7345L4.63064 1.735ZM3.29714 2.083C3.28764 2.1 3.28214 2.108 3.27864 2.1165C3.24814 2.209 3.21614 2.3015 3.18864 2.3945C3.17314 2.447 3.14514 2.479 3.09114 2.4895C3.04614 2.499 3.00214 2.5155 2.95714 2.526C2.93814 2.5305 2.91264 2.5335 2.89814 2.5245C2.88614 2.5165 2.88564 2.49 2.88014 2.4715C2.84814 2.5095 2.83914 2.515 2.79514 2.495C2.72864 2.464 2.66414 2.4275 2.59864 2.3945C2.57464 2.382 2.55214 2.363 2.51364 2.3795C2.49214 2.4395 2.46814 2.5045 2.44514 2.5705C2.39564 2.7105 2.40164 2.6915 2.49264 2.797C2.51564 2.821 2.54364 2.812 2.56964 2.8085C2.59664 2.804 2.62264 2.7935 2.64964 2.7905C2.71464 2.784 2.77964 2.7505 2.83314 2.783C2.93514 2.751 3.02664 2.722 3.11864 2.694C3.14364 2.6865 3.16314 2.6965 3.17564 2.721C3.18664 2.742 3.19264 2.7675 3.21664 2.7815C3.23564 2.7535 3.21014 2.7175 3.24814 2.6925L3.31814 2.813L3.29714 2.083ZM3.43614 2.262C3.38814 2.257 3.38264 2.267 3.38114 2.316C3.38014 2.335 3.37964 2.355 3.38214 2.3735C3.39714 2.4735 3.43164 2.5665 3.46914 2.6585C3.47014 2.6615 3.47514 2.6635 3.48014 2.666L3.51914 2.641C3.54514 2.659 3.55964 2.685 3.59564 2.685C3.69814 2.684 3.80064 2.692 3.90364 2.691C3.95314 2.6905 3.98264 2.712 4.00614 2.751C4.01514 2.766 4.01814 2.7895 4.05014 2.784L4.01014 2.587C3.98514 2.4895 3.96764 2.3895 3.92414 2.2925C3.89564 2.321 3.86714 2.3265 3.83414 2.3155C3.81214 2.30868 3.78953 2.30399 3.76664 2.3015C3.65664 2.2875 3.54664 2.272 3.43664 2.2615L3.43614 2.262ZM8.56314 1.3985C8.60764 1.48 8.64064 1.5565 8.63264 1.644C8.62464 1.728 8.64564 1.815 8.61064 1.902C8.58714 1.8855 8.56664 1.861 8.55464 1.8645C8.49614 1.882 8.47264 1.836 8.44114 1.807C8.39143 1.76072 8.34372 1.71234 8.29814 1.662L8.24614 1.6055C8.24231 1.60868 8.23848 1.61184 8.23464 1.615C8.25214 1.638 8.26964 1.6615 8.28964 1.693C8.30964 1.725 8.33164 1.7565 8.35064 1.7895C8.36764 1.8185 8.38314 1.8485 8.36614 1.892C8.32514 1.887 8.28414 1.8825 8.24314 1.876C8.21314 1.871 8.19264 1.876 8.18114 1.911C8.16564 1.96 8.16264 1.959 8.10614 1.956C8.11614 1.977 8.12414 1.996 8.13464 2.014C8.15514 2.051 8.14964 2.083 8.11964 2.112C8.08964 2.142 8.06064 2.173 8.03064 2.2025C8.01909 2.21486 8.00421 2.22362 7.98779 2.2277C7.97138 2.23178 7.95413 2.23102 7.93814 2.2255C7.82714 2.195 7.71464 2.169 7.60314 2.1385C7.58714 2.134 7.57164 2.1185 7.56014 2.1045C7.54514 2.0845 7.53414 2.061 7.52014 2.0395C7.49814 2.0045 7.47514 1.9705 7.45214 1.936C7.44459 1.9524 7.44215 1.97069 7.44514 1.9885C7.45114 2.052 7.46014 2.115 7.46264 2.1785C7.46514 2.2285 7.45064 2.2385 7.40214 2.2305C7.35014 2.222 7.29914 2.2105 7.24714 2.2015C7.21514 2.1955 7.18164 2.1875 7.14614 2.2165L7.18664 2.3205C7.23164 2.3205 7.26964 2.3155 7.30514 2.3215C7.39312 2.33722 7.47355 2.38129 7.53414 2.447C7.57314 2.4885 7.61114 2.531 7.65464 2.577L7.66364 2.5745C7.66164 2.5715 7.65964 2.568 7.65864 2.5545C7.66564 2.5265 7.62764 2.4955 7.66764 2.4655C7.68314 2.4805 7.69964 2.494 7.71164 2.5105C7.74064 2.5495 7.76714 2.59 7.79614 2.639L7.84064 2.7095L7.85264 2.703C7.78143 2.54735 7.71027 2.39168 7.63914 2.236C7.66664 2.2395 7.68064 2.2395 7.69314 2.244C7.78964 2.279 7.88564 2.315 7.98164 2.352C8.01864 2.366 8.05514 2.382 8.09114 2.399C8.12214 2.413 8.14714 2.408 8.16964 2.3825C8.19464 2.3545 8.22064 2.3265 8.24664 2.299C8.27164 2.2735 8.29414 2.276 8.31264 2.306C8.32064 2.3185 8.32564 2.3325 8.33264 2.346C8.36814 2.415 8.40414 2.4845 8.44114 2.5625L8.52064 2.7165L8.53314 2.711C8.51114 2.658 8.49814 2.602 8.46414 2.544C8.43564 2.453 8.38014 2.371 8.36114 2.2715C8.42914 2.2885 8.54214 2.4345 8.64464 2.6375L8.67314 2.6745L8.68214 2.669C8.67255 2.64822 8.66387 2.62703 8.65614 2.6055C8.63314 2.533 8.60764 2.4605 8.58814 2.3875C8.57714 2.346 8.57014 2.301 8.59914 2.2575L8.65364 2.2865L8.64064 2.183L8.65414 2.175C8.66514 2.185 8.67914 2.193 8.68664 2.205C8.72314 2.259 8.75814 2.315 8.79414 2.37C8.79914 2.378 8.80864 2.3845 8.81564 2.3915C8.79764 2.283 8.71564 2.2015 8.70114 2.0785L8.77864 2.1345C8.78564 2.0515 8.78464 1.975 8.79964 1.902C8.81564 1.823 8.78814 1.7535 8.76814 1.6795C8.78014 1.6815 8.78614 1.6825 8.79564 1.692C8.84164 1.754 8.88714 1.8165 8.93414 1.8775C8.94414 1.891 8.95914 1.901 8.96864 1.921L8.98864 1.9525L8.99814 1.945C8.98707 1.93291 8.97812 1.91905 8.97164 1.904C8.91544 1.82292 8.8601 1.74125 8.80564 1.659C8.69514 1.5035 8.62414 1.4255 8.56314 1.3985ZM5.27814 1.562C5.27664 1.6425 5.32414 1.6995 5.31264 1.7695L5.12864 1.813C5.17364 1.8825 5.14464 1.9315 5.10264 1.9785C5.07764 2.007 5.05664 2.0395 5.03114 2.0675C5.01264 2.0875 5.00814 2.1065 5.02214 2.1305L5.10214 2.268C5.11664 2.292 5.13814 2.301 5.16614 2.3C5.20414 2.2985 5.24214 2.3 5.28014 2.2995C5.33814 2.298 5.38814 2.3105 5.41764 2.368C5.42064 2.375 5.42764 2.38 5.43964 2.394C5.44164 2.3645 5.43814 2.345 5.44464 2.329C5.45264 2.309 5.46464 2.2795 5.48064 2.275C5.52264 2.2635 5.56714 2.263 5.61064 2.26C5.61714 2.2595 5.62414 2.269 5.63064 2.2745L5.66614 2.307C5.67564 2.252 5.62514 2.208 5.65414 2.152L5.71714 2.172C5.70414 2.1105 5.68214 2.0495 5.68164 1.989C5.68164 1.9275 5.70714 1.8675 5.73914 1.809C5.79264 1.84 5.81914 1.887 5.85614 1.9355C5.94764 2.068 6.03614 2.202 6.10314 2.3525C6.18564 2.3135 6.23814 2.3865 6.30664 2.3965C6.30514 2.3435 6.24014 2.176 6.20814 2.1505C6.19358 2.13944 6.17531 2.13442 6.15714 2.1365C6.12714 2.142 6.09764 2.156 6.06164 2.168C6.04914 2.1485 6.03364 2.129 6.02314 2.107C5.95979 1.96775 5.88042 1.83636 5.78664 1.7155C5.74864 1.6685 5.70664 1.6245 5.67264 1.5855L5.47714 1.728C5.45264 1.7455 5.43014 1.743 5.41114 1.7195L5.32664 1.616C5.31414 1.601 5.30014 1.5865 5.27814 1.562Z" fill="white"/>
</g>
<defs>
<clipPath id="clip0_25_7442">
<rect width="12" height="12" fill="white"/>
</clipPath>
</defs>
</svg>
