<svg width="12" height="12" viewBox="0 0 12 12" fill="none" xmlns="http://www.w3.org/2000/svg">
<g clip-path="url(#clip0_25_7497)">
<path fill-rule="evenodd" clip-rule="evenodd" d="M12 12H0V0H12V12ZM1.07018 7.76291C2.14418 7.92655 3.81273 7.992 5.31382 7.66964C5.80691 7.56327 6.26455 7.41873 6.672 7.23164C5.91109 5.37709 5.75836 4.08655 5.98255 3.20727C6.23673 2.21291 6.96382 1.79455 7.61782 1.788H7.62327C7.99855 1.788 8.778 1.88455 9.30382 2.52436C9.85091 3.18982 9.96709 4.24364 9.44564 5.79218C9.17073 6.60655 8.66182 7.21909 8.03073 7.67727C8.75236 9.30982 9.18164 10.1307 9.44236 10.5595C9.564 10.7596 9.64527 10.8671 9.69709 10.9298H10.9298V1.07018H1.07018V7.76291ZM7.09745 8.214C6.6 8.43927 6.06818 8.60182 5.53909 8.71582C3.95182 9.05727 2.23418 9.00327 1.07018 8.84345V10.9298H8.418C8.13055 10.428 7.716 9.60818 7.09745 8.214ZM7.62655 2.85764C7.45036 2.86036 7.152 2.95636 7.02 3.47236C6.88364 4.00418 6.93218 4.98655 7.59545 6.65782C7.98 6.33164 8.268 5.93291 8.43055 5.45073C8.904 4.04564 8.67873 3.44891 8.47745 3.204C8.256 2.93455 7.88291 2.85818 7.62655 2.85764Z" fill="white"/>
</g>
<defs>
<clipPath id="clip0_25_7497">
<rect width="12" height="12" fill="white"/>
</clipPath>
</defs>
</svg>
