<svg width="12" height="12" viewBox="0 0 12 12" fill="none" xmlns="http://www.w3.org/2000/svg">
<path fill-rule="evenodd" clip-rule="evenodd" d="M10.2931 7.15614C10.6833 7.15614 11 7.45915 11 7.83295V11.3232C11 11.697 10.6833 12 10.2925 12C10.1987 11.9992 10.1061 11.9811 10.0198 11.9466C9.93347 11.9122 9.85524 11.8621 9.78954 11.7993C9.72384 11.7364 9.67196 11.662 9.63686 11.5804C9.60176 11.4987 9.58413 11.4113 9.58497 11.3232V7.83295C9.58497 7.45915 9.90233 7.15614 10.2931 7.15614ZM8.99687 0.631066C9.05623 0.563459 9.12941 0.507709 9.21208 0.467105C9.29475 0.4265 9.38523 0.401865 9.4782 0.39465C9.57116 0.387436 9.66472 0.39779 9.75336 0.4251C9.842 0.452411 9.92392 0.496125 9.99428 0.553665C10.2918 0.796068 10.3276 1.22327 10.0747 1.50768L6.28302 5.77433V11.2626C6.28302 11.637 5.9663 11.94 5.57551 11.94C5.4817 11.9392 5.38898 11.9211 5.30264 11.8866C5.21631 11.8521 5.13805 11.802 5.07234 11.7391C5.00663 11.6762 4.95476 11.6017 4.9197 11.5199C4.88464 11.4382 4.86707 11.3507 4.86799 11.2626V5.57632L4.86991 5.52352L4.87629 5.47132C4.88587 5.33212 4.94143 5.19412 5.04296 5.07892L8.99687 0.631066ZM0.258931 0.15346C0.330378 0.0971569 0.413099 0.0548644 0.502216 0.0290757C0.591334 0.00328703 0.685044 -0.00547586 0.777822 0.00330347C0.870601 0.0120828 0.96057 0.0382268 1.04243 0.0801941C1.12428 0.122161 1.19637 0.179103 1.25443 0.247661L4.05576 3.5177C4.17469 3.65719 4.23091 3.83483 4.21242 4.01272C4.19393 4.19062 4.10219 4.35468 3.95678 4.46991C3.88533 4.52621 3.80261 4.56851 3.7135 4.5943C3.62438 4.62008 3.53067 4.62885 3.43789 4.62007C3.34511 4.61129 3.25514 4.58514 3.17329 4.54318C3.09143 4.50121 3.01935 4.44427 2.96128 4.37571L0.159955 1.10567C0.0501343 0.976611 -0.00645238 0.814657 0.000585672 0.649547C0.00762372 0.484437 0.0778141 0.327254 0.198268 0.206861L0.258931 0.15346Z" fill="white"/>
<path d="M9.677 6.379C10.0509 6.379 10.354 6.0703 10.354 5.6895C10.354 5.3087 10.0509 5 9.677 5C9.3031 5 9 5.3087 9 5.6895C9 6.0703 9.3031 6.379 9.677 6.379Z" fill="#00FF25"/>
</svg>
