<svg width="24" height="24" viewBox="0 0 24 24" fill="none" xmlns="http://www.w3.org/2000/svg">
<g clip-path="url(#clip0_1002_325038)">
<path d="M21.8843 0H2.07031C0.965743 0 0.0703125 0.89543 0.0703125 2V22C0.0703125 23.1046 0.965742 24 2.07031 24H21.8843C22.9888 24 23.8843 23.1046 23.8843 22V2C23.8843 0.895431 22.9888 0 21.8843 0Z" fill="url(#paint0_linear_1002_325038)"/>
<path fill-rule="evenodd" clip-rule="evenodd" d="M11.2237 8.39297C11.3167 7.74923 11.5229 6.92265 11.8423 5.91328C11.8846 5.78242 12.0698 5.78242 12.1121 5.91328C12.4315 6.92265 12.6377 7.74923 12.7307 8.39297C12.802 8.86485 12.802 9.46485 12.7307 10.193C12.6594 10.9242 12.6594 11.5289 12.7307 12.007C12.8361 12.707 13.154 13.2883 13.6842 13.7508C14.2237 14.2227 14.8485 14.4586 15.5586 14.4586C16.3462 14.4586 17.0191 14.1789 17.5772 13.6195C18.1322 13.0602 18.4129 12.3852 18.4191 11.5945C18.4222 10.8945 18.4935 10.1227 18.6331 9.27891C18.7012 8.85703 18.7709 8.50391 18.8424 8.21953C18.8731 8.09239 19.0472 8.07302 19.1028 8.19141C19.5834 9.21641 19.8346 10.2976 19.8563 11.4352V11.5945C19.8563 12.6727 19.65 13.7023 19.2377 14.6836C18.8377 15.6367 18.2749 16.4789 17.5493 17.2102C16.8206 17.9414 15.985 18.5086 15.0423 18.9118C14.0687 19.3273 13.047 19.5353 11.9772 19.5353C10.9074 19.5353 9.88574 19.3273 8.9121 18.9118C7.96946 18.5086 7.13381 17.9414 6.40512 17.2102C5.67954 16.4789 5.11675 15.6367 4.71675 14.6836C4.30434 13.7023 4.09814 12.6727 4.09814 11.5945V11.4352C4.11986 10.2976 4.37102 9.21641 4.85163 8.19141C4.90728 8.07302 5.08133 8.09239 5.1121 8.21953C5.18341 8.50391 5.25318 8.85703 5.3214 9.27891C5.46094 10.1227 5.53225 10.8945 5.53535 11.5945C5.54155 12.3852 5.82218 13.0602 6.37721 13.6195C6.93535 14.1789 7.60823 14.4586 8.39582 14.4586C9.1059 14.4586 9.7307 14.2227 10.2702 13.7508C10.8005 13.2883 11.1183 12.707 11.2237 12.007C11.295 11.5289 11.295 10.9242 11.2237 10.193C11.1524 9.46485 11.1524 8.86485 11.2237 8.39297ZM11.9772 18.0867C13.0656 18.0867 14.0857 17.8273 15.0377 17.3086C15.7123 16.9427 16.2981 16.4766 16.7952 15.9103C16.8573 15.8397 16.7842 15.7321 16.6938 15.7568C16.3276 15.857 15.9492 15.907 15.5586 15.907C14.7834 15.907 14.0625 15.7102 13.3958 15.3164C12.8571 15 12.4108 14.5891 12.0568 14.0839C12.0182 14.0289 11.9362 14.0289 11.8977 14.0839C11.5437 14.5891 11.0973 15 10.5586 15.3164C9.89195 15.7102 9.17102 15.907 8.39582 15.907C8.00523 15.907 7.62685 15.857 7.26064 15.7568C7.17029 15.7321 7.0972 15.8397 7.1592 15.9103C7.65628 16.4766 8.24213 16.9427 8.91675 17.3086C9.86869 17.8273 10.8888 18.0867 11.9772 18.0867Z" fill="white"/>
</g>
<defs>
<linearGradient id="paint0_linear_1002_325038" x1="11.9773" y1="0" x2="11.9773" y2="24" gradientUnits="userSpaceOnUse">
<stop stop-color="#2563EB"/>
<stop offset="1" stop-color="#0049DF"/>
</linearGradient>
<clipPath id="clip0_1002_325038">
<rect width="24" height="24" fill="white"/>
</clipPath>
</defs>
</svg>
