<svg width="24" height="24" viewBox="0 0 24 24" fill="none" xmlns="http://www.w3.org/2000/svg">
<path fill-rule="evenodd" clip-rule="evenodd" d="M19.738 5.77611C19.901 5.56711 20.044 5.37611 20.195 5.19111C20.265 5.10411 20.259 5.03811 20.191 4.94711C19.536 4.08611 19.474 3.13011 19.851 2.16011C20.134 1.43011 20.76 1.08811 21.525 1.01511C22.002 0.970106 22.47 1.01911 22.904 1.25111C23.474 1.55611 23.806 2.02111 23.914 2.66311C24 3.17511 23.984 3.67511 23.839 4.17111C23.582 5.04911 22.951 5.50411 22.086 5.61911C21.368 5.71511 20.64 5.72711 19.916 5.77611C19.86 5.78011 19.803 5.77611 19.738 5.77611Z" fill="#027AFF"/>
<path fill-rule="evenodd" clip-rule="evenodd" d="M17.962 1.84399H13.636L10.211 9.65399H5.369V1.87799H1.5V22H5.37V13.523H12.194C12.7704 13.523 13.3349 13.3582 13.8208 13.0482C14.3068 12.7382 14.694 12.2957 14.937 11.773V22H18.807V13.523C18.8071 12.5454 18.4371 11.6039 17.7716 10.8879C17.106 10.1718 16.194 9.73423 15.219 9.66299V9.65299H13.094C13.606 9.47807 14.0765 9.19956 14.4762 8.83482C14.8759 8.47008 15.1961 8.02693 15.417 7.53299L17.962 1.84399Z" fill="black"/>
</svg>
