<svg xmlns="http://www.w3.org/2000/svg" width="200" height="200" viewBox="0 0 200 200" version="1.1">
	<path d="M 153.821 68.395 C 147.749 70.030, 142.544 74.064, 139.741 79.308 C 137.680 83.164, 137.500 84.823, 137.500 100 C 137.500 115.255, 137.672 116.822, 139.777 120.763 C 146.233 132.850, 164.280 136.388, 175.898 127.844 C 182.371 123.084, 184.315 118.371, 184.809 106.250 L 185.227 96 174.613 96 L 164 96 164 101.500 L 164 107 168.500 107 C 173.427 107, 173.598 107.306, 171.960 113.205 C 170.512 118.417, 166.855 121, 160.921 121 C 157.281 121, 155.429 120.414, 153.306 118.589 C 150.511 116.187, 150.499 116.125, 150.173 101.983 C 149.727 82.671, 151.457 79, 161 79 C 166.326 79, 169.234 80.736, 170.984 84.960 C 172.200 87.897, 172.458 88, 178.621 88 C 185.968 88, 186.060 87.819, 182.564 80.310 C 179.636 74.022, 173.958 69.586, 166.900 68.072 C 160.822 66.769, 159.764 66.795, 153.821 68.395 M 18 73.500 L 18 79 26.500 79 L 35 79 35 105.500 L 35 132 40.983 132 L 46.967 132 47.233 105.750 L 47.500 79.500 55.750 79.210 L 64 78.919 64 73.460 L 64 68 41 68 L 18 68 18 73.500 M 75 100 L 75 132 80.978 132 L 86.957 132 87.228 112.750 L 87.500 93.500 97.030 108 C 102.272 115.975, 107.897 124.621, 109.530 127.213 L 112.500 131.927 118.250 131.963 L 124 132 124 100 L 124 68 117.500 68 L 111 68 111 87.178 L 111 106.356 102.872 93.928 C 98.401 87.093, 92.761 78.463, 90.337 74.750 L 85.931 68 80.465 68 L 75 68 75 100" stroke="none" fill="black" fill-rule="evenodd"/>
</svg>