<svg fill="none" viewBox="0 0 256 256" version="1.1" xmlns="http://www.w3.org/2000/svg" width="32" height="32">
<path d="M0 0 C25.9 21.81 43.58 52 47 86 C48.53 125.53 38.96 158.93 12.38 188.62 C-9.99 211.96 -40.72 226.98 -73.17 228.24 C-112.33 228.65 -144.98 216.99 -173.39 189.77 C-199.27 162.76 -209.45 129.93 -209.28 93.29 C-207.96 58.63 -191.78 27.75 -167 4 C-119.16 -36.54 -49.59 -39.81 0 0 Z " fill="#000000" transform="translate(209,28)"/>
<path d="M0 0 C8.41 5.71 13.47 12.25 16.29 22 C17.89 30.67 16.63 37.45 13.97 45.81 C13.33 47.84 12.69 49.87 12.02 51.96 C11.37 53.97 10.71 55.99 10.04 58.06 C9.19 60.66 9.19 60.66 8.33 63.31 C6.59 68.57 4.82 73.82 3.04 79.06 C1.91 82.4 1.91 82.4 0.77 85.8 C-0.01 88.09 -0.79 90.38 -1.59 92.75 C-2.3 94.85 -3.02 96.96 -3.75 99.13 C-9.28 113.94 -17.24 127.36 -32.01 134.23 C-32.65 134.51 -33.3 134.78 -33.96 135.06 C-35.08 135.6 -35.08 135.6 -36.21 136.15 C-39.84 137.35 -43.03 137.32 -46.84 137.31 C-48.2 137.31 -49.56 137.32 -50.96 137.32 C-54.9 137.06 -58.22 136.29 -61.96 135.06 C-60.55 131.95 -58.82 129.51 -56.65 126.87 C-54.12 123.73 -52.28 120.77 -50.59 117.12 C-48.6 113.32 -48.6 113.32 -45.87 112.19 C-44.31 111.89 -42.74 111.64 -41.17 111.43 C-36.54 110.65 -33.62 107.71 -30.4 104.5 C-20.79 90.94 -16.27 72.52 -11.97 56.59 C-10.24 50.53 -8.17 44.57 -6.14 38.6 C-4.58 32.56 -3.81 27.37 -6.65 21.68 C-9.66 18.27 -11.68 16.37 -16.3 15.74 C-22.01 15.48 -25.57 16.09 -29.96 20.06 C-33.98 26.75 -35.71 33.59 -37.96 41.06 C-38.9 44.12 -39.83 47.19 -40.8 50.34 C-42.27 55.18 -42.27 55.18 -43.78 60.12 C-62.17 119.75 -62.17 119.75 -79.13 129.96 C-89.9 135.52 -101 136.75 -113.02 134.48 C-124.79 130.34 -133.3 119.5 -138.59 108.69 C-142.96 98.81 -146.83 88.77 -150.71 78.68 C-152.22 74.8 -153.72 70.91 -155.26 66.91 C-160.29 53.53 -163.64 43.43 -157.96 30.06 C-153.59 21.85 -147.46 15.31 -138.75 11.75 C-130.17 9.61 -120.23 9.78 -112.2 13.69 C-97.8 22.5 -93.21 38.35 -87.46 53.5 C-86.4 56.26 -85.34 59.02 -84.25 61.87 C-81.63 70.13 -82.45 75.22 -85.28 83.12 C-85.69 84.29 -86.09 85.45 -86.52 86.66 C-87.99 90.12 -89.78 93 -91.96 96.06 C-95.94 94.07 -96.89 87.8 -98.34 83.93 C-99.23 81.6 -100.12 79.26 -101.03 76.85 C-103.07 71.44 -105.1 66.03 -107.12 60.61 C-108.16 57.85 -109.2 55.09 -110.28 52.25 C-111.24 49.66 -112.21 47.08 -113.2 44.41 C-116.45 36.89 -116.45 36.89 -122.96 32.06 C-127.5 31.51 -130.92 31.44 -134.9 33.81 C-138.07 37.26 -138.94 39.8 -139.4 44.45 C-138.84 51.6 -136.62 57.2 -133.96 63.87 C-132.46 67.69 -132.46 67.69 -130.92 71.59 C-129.46 75.29 -129.46 75.29 -127.96 79.06 C-125.93 84.57 -123.91 90.08 -121.91 95.61 C-118.6 103.18 -114.56 110.26 -106.96 114.06 C-100.79 114.75 -94.77 115.31 -89.53 111.56 C-87.65 109.89 -87.65 109.89 -85.96 108.06 C-85.44 107.52 -84.91 106.99 -84.36 106.44 C-75.57 96.28 -72.78 80.63 -68.96 68.06 C-68.13 65.39 -67.3 62.72 -66.46 60.06 C-65.23 56.12 -64 52.18 -62.79 48.23 C-61.53 44.17 -60.25 40.11 -58.96 36.06 C-58.42 34.29 -57.87 32.52 -57.3 30.7 C-56.72 28.86 -56.13 27.02 -55.53 25.12 C-54.72 22.57 -54.72 22.57 -53.91 19.97 C-50.23 10.66 -45.22 4.42 -36.96 -0.94 C-36.31 -1.38 -35.66 -1.81 -34.98 -2.26 C-23.93 -8.38 -10.47 -5.97 0 0 Z " fill="#13AAFE" transform="translate(199.96484375,61.94140625)"/>
<path d="M0 0 C14.4 8.81 18.99 24.66 24.73 39.8 C25.8 42.57 26.86 45.33 27.95 48.18 C30.57 56.43 29.75 61.53 26.92 69.43 C26.51 70.6 26.1 71.76 25.68 72.96 C24.21 76.43 22.42 79.31 20.23 82.37 C16.26 80.38 15.31 74.11 13.86 70.24 C12.97 67.91 12.08 65.57 11.17 63.16 C9.13 57.75 7.1 52.33 5.08 46.92 C4.04 44.16 3 41.4 1.92 38.55 C0.96 35.97 -0.01 33.39 -1 30.72 C-4.25 23.2 -4.25 23.2 -10.77 18.37 C-15.3 17.82 -18.72 17.74 -22.7 20.12 C-25.87 23.57 -26.74 26.1 -27.2 30.75 C-26.65 37.91 -24.42 43.51 -21.77 50.18 C-20.26 54 -20.26 54 -18.72 57.9 C-17.75 60.37 -16.77 62.83 -15.77 65.37 C-13.74 70.88 -11.72 76.39 -9.71 81.91 C-7.22 87.61 -4.19 92.94 0.23 97.37 C-0.09 99.98 -0.59 102.01 -1.77 104.37 C1.2 103.38 1.2 103.38 4.23 102.37 C4.23 104.35 4.23 106.33 4.23 108.37 C2.91 108.37 1.59 108.37 0.23 108.37 C0.23 109.36 0.23 110.35 0.23 111.37 C-0.76 111.86 -0.76 111.86 -1.77 112.37 C-2.26 113.85 -2.26 113.85 -2.77 115.37 C-5.33 116.55 -5.33 116.55 -7.77 117.37 C-24.71 102.9 -30.48 85.87 -38.52 64.99 C-40.02 61.11 -41.52 57.22 -43.06 53.22 C-48.09 39.84 -51.44 29.74 -45.77 16.37 C-41.39 8.16 -35.26 1.62 -26.55 -1.94 C-17.97 -4.08 -8.03 -3.91 0 0 Z " fill="#20C9FC" transform="translate(87.765625,75.6328125)"/>
<path d="M0 0 C4.89 2.48 7.55 5.09 10 10 C10.57 17.18 9.11 22.72 6.81 29.5 C4.62 36.1 2.49 42.67 0.62 49.38 C-10.38 87.17 -10.38 87.17 -23 96 C-25.85 97.46 -27.77 97.98 -30.97 98.23 C-34.12 98.69 -34.12 98.69 -35.62 101.15 C-36.03 102.07 -36.45 102.99 -36.88 103.94 C-39.88 110.04 -43.63 114.8 -48 120 C-42.06 120.66 -36.12 121.32 -30 122 C-30 122.33 -30 122.66 -30 123 C-36.43 123.1 -42.66 123.15 -49 122 C-49.33 119.69 -49.66 117.38 -50 115 C-50.66 115 -51.32 115 -52 115 C-51.5 113.51 -51.5 113.51 -51 112 C-52.49 111.5 -52.49 111.5 -54 111 C-54 112.65 -54 114.3 -54 116 C-55.65 116 -57.3 116 -59 116 C-59 115.34 -59 114.68 -59 114 C-59.99 114 -60.98 114 -62 114 C-62 114.66 -62 115.32 -62 116 C-63.32 116 -64.64 116 -66 116 C-66.5 116.99 -66.5 116.99 -67 118 C-67.66 117.34 -68.32 116.68 -69 116 C-68.43 115.65 -67.86 115.3 -67.28 114.93 C-45.99 101.33 -41.08 78.2 -34 55 C-32.23 49.35 -30.46 43.71 -28.69 38.06 C-26.23 30.15 -23.78 22.25 -21.44 14.3 C-17.71 3.15 -11.55 -1.8 0 0 Z " fill="#000102" transform="translate(186,77)"/>
<path d="M0 0 C8.39 2.4 15.5 7.59 20.26 14.95 C25.06 24.02 26.21 33.12 23.71 43.17 C23.13 45.01 22.54 46.85 21.94 48.75 C21.29 50.78 20.65 52.81 19.99 54.9 C19.33 56.91 18.68 58.93 18 61 C17.44 62.73 16.87 64.47 16.29 66.25 C14.56 71.51 12.78 76.76 11 82 C10.25 84.22 9.5 86.45 8.73 88.74 C7.96 91.03 7.18 93.33 6.38 95.69 C5.66 97.8 4.95 99.9 4.21 102.07 C-1.32 116.89 -9.27 130.3 -24.04 137.18 C-24.69 137.45 -25.33 137.72 -26 138 C-27.11 138.54 -27.11 138.54 -28.25 139.09 C-31.87 140.29 -35.06 140.26 -38.88 140.25 C-40.23 140.26 -41.59 140.26 -42.99 140.27 C-46.94 140 -50.25 139.23 -54 138 C-52.58 134.89 -50.85 132.45 -48.69 129.81 C-46.16 126.67 -44.32 123.72 -42.62 120.06 C-40.63 116.26 -40.63 116.26 -37.9 115.13 C-36.34 114.84 -34.78 114.58 -33.21 114.37 C-28.58 113.59 -25.65 110.65 -22.44 107.44 C-12.82 93.88 -8.3 75.46 -4.01 59.54 C-2.28 53.47 -0.2 47.51 1.83 41.54 C3.39 35.5 4.15 30.31 1.31 24.62 C-0.97 22.04 -2.93 20.53 -6 19 C-3.92 18.45 -2.16 18 0 18 C0.33 16.35 0.66 14.7 1 13 C3.31 13 5.62 13 8 13 C7.5 8.55 7.5 8.55 7 4 C5.35 4.33 3.7 4.66 2 5 C1.34 3.35 0.68 1.7 0 0 Z " fill="#0A8FFC" transform="translate(192,59)"/>
<path d="M0 0 C9.12 4.13 11.32 15.16 14.62 23.88 C15.49 26.15 16.36 28.42 17.25 30.77 C18.61 34.35 18.61 34.35 20 38 C21.87 42.88 23.75 47.75 25.62 52.62 C27.08 56.42 28.54 60.21 30 64 C36.4 57.6 38.66 47.58 41 39 C41.66 39 42.32 39 43 39 C43.5 41.47 43.5 41.47 44 44 C43.01 44.66 42.02 45.32 41 46 C40.26 49.57 40.26 49.57 40 53 C41.32 53.66 42.64 54.32 44 55 C44 55.66 44 56.32 44 57 C44.66 57 45.32 57 46 57 C45.34 55.02 44.68 53.04 44 51 C44.62 50.94 45.24 50.88 45.88 50.81 C48.18 50.19 48.18 50.19 49.12 47.94 C50.2 44.31 51.13 40.68 52 37 C52.66 37 53.32 37 54 37 C50.91 53.93 46.36 71.4 32 82 C27.11 85.26 21.71 84.56 16 84 C12.56 82.44 12.56 82.44 10 80 C9.51 79.56 9.03 79.12 8.53 78.67 C-0.25 69.81 -3.49 55.18 -7.62 43.75 C-11.32 33.52 -11.32 33.52 -15.3 23.41 C-17.2 18.49 -17.9 14.19 -17 9 C-13.02 1.19 -8.56 -1.3 0 0 Z " fill="#000102" transform="translate(77,93)"/>
<path d="M0 0 C4.16 0.01 8.05 0.08 12.11 1.13 C12.11 1.79 12.11 2.45 12.11 3.13 C14.09 3.79 16.07 4.45 18.11 5.13 C18.11 6.12 18.11 7.11 18.11 8.13 C19.43 7.8 20.75 7.47 22.11 7.13 C21.78 8.12 21.45 9.11 21.11 10.13 C22.43 10.79 23.75 11.45 25.11 12.13 C24.78 12.46 24.45 12.79 24.11 13.13 C25.18 13.44 26.26 13.76 27.36 14.08 C32.48 16.88 33.09 19.57 35.05 25.01 C35.7 26.79 36.36 28.58 37.04 30.42 C37.72 32.3 38.41 34.19 39.11 36.13 C39.88 38.03 40.64 39.93 41.43 41.88 C42.17 43.72 42.91 45.55 43.67 47.45 C44.35 49.13 45.04 50.82 45.74 52.56 C47.84 59.58 46.21 64.45 43.8 71.2 C43.18 72.95 43.18 72.95 42.56 74.73 C41.08 78.2 39.29 81.07 37.11 84.13 C33.14 82.15 32.19 75.87 30.73 72.01 C29.85 69.67 28.96 67.33 28.04 64.93 C26.01 59.51 23.98 54.1 21.96 48.68 C20.91 45.92 19.87 43.16 18.8 40.32 C17.83 37.74 16.87 35.15 15.87 32.49 C12.63 24.97 12.63 24.97 6.11 20.13 C4.07 19.9 2.03 19.72 -0.02 19.57 C-1.66 19.44 -1.66 19.44 -3.34 19.32 C-4.6 19.23 -4.6 19.23 -5.89 19.13 C-5.89 17.48 -5.89 15.83 -5.89 14.13 C-4.9 13.8 -3.91 13.47 -2.89 13.13 C-2.9 12.28 -2.91 11.42 -2.93 10.54 C-2.94 8.89 -2.94 8.89 -2.95 7.2 C-2.96 6.09 -2.98 4.99 -2.99 3.86 C-2.86 0.2 -2.86 0.2 0 0 Z " fill="#23C1F5" transform="translate(70.890625,73.8671875)"/>
<path d="M0 0 C8.98 2.56 16.43 8.48 21.44 16.38 C24.42 22.86 23.81 31.07 23 38 C21.6 40.01 21.6 40.01 20 41 C19.34 41 18.68 41 18 41 C18.33 42.32 18.66 43.64 19 45 C17.51 45.5 17.51 45.5 16 46 C16 46.99 16 47.98 16 49 C15.22 49.27 14.43 49.54 13.62 49.81 C10.72 50.85 10.72 50.85 9 54 C8.56 55.88 8.19 57.78 7.88 59.69 C7.71 60.68 7.54 61.68 7.37 62.7 C7.25 63.46 7.12 64.22 7 65 C8.49 65.5 8.49 65.5 10 66 C9.34 66.99 8.68 67.98 8 69 C8.66 69 9.32 69 10 69 C9.47 70.76 9.47 70.76 8.94 72.56 C7.89 76.66 8.37 79.82 9 84 C8.06 86.94 8.06 86.94 7 89 C6.34 89 5.68 89 5 89 C5 90.98 5 92.96 5 95 C4.01 95 3.02 95 2 95 C2.33 97.31 2.66 99.62 3 102 C2.01 102.5 2.01 102.5 1 103 C1 103.99 1 104.98 1 106 C0.34 106 -0.32 106 -1 106 C-1 107.98 -1 109.96 -1 112 C-3.64 110.68 -6.28 109.36 -9 108 C-9 107.34 -9 106.68 -9 106 C-9.66 106 -10.32 106 -11 106 C-11.5 106.99 -11.5 106.99 -12 108 C-12 107.01 -12 106.02 -12 105 C-10.51 104.5 -10.51 104.5 -9 104 C-9.02 103.01 -9.04 102.02 -9.06 101 C-9 90.33 -9 90.33 -6.12 86.5 C-4 85 -4 85 -1 85 C-0.67 82.36 -0.34 79.72 0 77 C-2.39 77.58 -4.67 78.22 -7 79 C-7 77.35 -7 75.7 -7 74 C-6.01 74 -5.02 74 -4 74 C-4.33 71.69 -4.66 69.38 -5 67 C-4.34 67 -3.68 67 -3 67 C-3.07 66.43 -3.14 65.85 -3.21 65.26 C-3.76 56.72 -1.16 49.63 1.69 41.65 C3.41 35.57 4.19 30.39 1.31 24.62 C-0.97 22.04 -2.93 20.53 -6 19 C-3.92 18.45 -2.16 18 0 18 C0.33 16.35 0.66 14.7 1 13 C3.31 13 5.62 13 8 13 C7.67 10.03 7.34 7.06 7 4 C5.35 4.33 3.7 4.66 2 5 C1.34 3.35 0.68 1.7 0 0 Z " fill="#0B94FD" transform="translate(192,59)"/>
<path d="M0 0 C0.82 0.69 1.64 1.38 2.48 2.09 C2.48 2.75 2.48 3.41 2.48 4.09 C3.8 4.09 5.12 4.09 6.48 4.09 C6.98 8.55 6.98 8.55 7.48 13.09 C5.17 13.09 2.86 13.09 0.48 13.09 C0.15 15.4 -0.18 17.71 -0.52 20.09 C-1.18 19.76 -1.84 19.43 -2.52 19.09 C-11.72 18.11 -11.72 18.11 -20.21 20.91 C-21.58 22.2 -22.94 23.51 -24.27 24.84 C-24.68 25.26 -25.09 25.67 -25.52 26.09 C-26.18 26.09 -26.84 26.09 -27.52 26.09 C-29.74 29.42 -29.57 32.21 -29.46 36.12 C-29.54 38.74 -30.36 40.77 -31.52 43.09 C-32.18 43.09 -32.84 43.09 -33.52 43.09 C-33.52 44.74 -33.52 46.39 -33.52 48.09 C-34.48 48.28 -34.48 48.28 -35.46 48.47 C-36.14 48.67 -36.82 48.88 -37.52 49.09 C-37.85 49.75 -38.18 50.41 -38.52 51.09 C-39.51 51.09 -40.5 51.09 -41.52 51.09 C-41.52 49.11 -41.52 47.13 -41.52 45.09 C-43.5 45.09 -45.48 45.09 -47.52 45.09 C-47.85 49.71 -48.18 54.33 -48.52 59.09 C-49.18 59.09 -49.84 59.09 -50.52 59.09 C-50.52 60.41 -50.52 61.73 -50.52 63.09 C-51.51 63.09 -52.5 63.09 -53.52 63.09 C-54.64 58.34 -54.64 58.34 -53.52 56.09 C-53.38 55 -53.23 53.91 -53.08 52.78 C-52.59 49.54 -51.87 47.05 -50.52 44.09 C-49.2 44.09 -47.88 44.09 -46.52 44.09 C-45.99 42.35 -45.47 40.6 -44.96 38.84 C-44.52 37.38 -44.52 37.38 -44.08 35.89 C-43.53 33.13 -43.58 31.7 -44.52 29.09 C-43.86 29.09 -43.2 29.09 -42.52 29.09 C-42.85 25.79 -43.18 22.49 -43.52 19.09 C-42.86 19.09 -42.2 19.09 -41.52 19.09 C-41.19 17.44 -40.86 15.79 -40.52 14.09 C-39.86 14.09 -39.2 14.09 -38.52 14.09 C-38.19 13.1 -37.86 12.11 -37.52 11.09 C-36.86 11.09 -36.2 11.09 -35.52 11.09 C-35.43 10.26 -35.43 10.26 -35.33 9.41 C-33.7 4.77 -29.96 2.08 -25.77 -0.22 C-18.1 -3.39 -7.32 -3.97 0 0 Z " fill="#15AFFE" transform="translate(192.51953125,58.90625)"/>
<path d="M0 0 C5.95 3.71 10.99 7.61 13.25 14.4 C10.94 13.74 8.63 13.08 6.25 12.4 C6.25 11.41 6.25 10.42 6.25 9.4 C5.59 9.07 4.93 8.74 4.25 8.4 C3.76 7.41 3.76 7.41 3.25 6.4 C2.59 6.4 1.93 6.4 1.25 6.4 C0.76 4.92 0.76 4.92 0.25 3.4 C-1.73 3.07 -3.71 2.74 -5.75 2.4 C-5.42 1.41 -5.09 0.42 -4.75 -0.6 C-9.37 -0.6 -13.99 -0.6 -18.75 -0.6 C-18.75 3.69 -18.75 7.98 -18.75 12.4 C-20.07 12.4 -21.39 12.4 -22.75 12.4 C-22.75 14.05 -22.75 15.7 -22.75 17.4 C-21.76 17.73 -20.77 18.06 -19.75 18.4 C-20.53 18.98 -21.31 19.56 -22.12 20.15 C-25.22 22.81 -26.55 24.66 -27.01 28.73 C-26.98 34.02 -26.48 38.41 -24.75 43.4 C-26.68 42.84 -26.68 42.84 -28.75 41.4 C-29.94 36.43 -29.84 31.49 -29.75 26.4 C-30.74 26.4 -31.73 26.4 -32.75 26.4 C-32.09 28.05 -31.43 29.7 -30.75 31.4 C-31.74 31.4 -32.73 31.4 -33.75 31.4 C-33.87 32.4 -33.99 33.4 -34.11 34.43 C-34.36 36.37 -34.36 36.37 -34.62 38.34 C-34.78 39.63 -34.95 40.92 -35.11 42.24 C-35.32 43.29 -35.53 44.33 -35.75 45.4 C-36.74 45.9 -36.74 45.9 -37.75 46.4 C-38.4 48.93 -38.4 48.93 -38.75 51.4 C-39.41 51.4 -40.07 51.4 -40.75 51.4 C-40.42 52.14 -40.09 52.89 -39.75 53.65 C-38.75 56.4 -38.75 56.4 -38.75 60.4 C-38.09 60.73 -37.43 61.06 -36.75 61.4 C-36.75 62.72 -36.75 64.04 -36.75 65.4 C-36.09 65.73 -35.43 66.06 -34.75 66.4 C-34.75 68.38 -34.75 70.36 -34.75 72.4 C-38.29 67.09 -40.06 60.91 -42.31 54.96 C-43.3 52.35 -44.29 49.73 -45.31 47.03 C-49.29 36.19 -50.33 27.2 -45.75 16.4 C-41.37 8.19 -35.24 1.65 -26.53 -1.9 C-17.93 -4.05 -8.07 -3.84 0 0 Z " fill="#29DBF6" transform="translate(87.74609375,75.59765625)"/>
<path d="M0 0 C0.66 0.33 1.32 0.66 2 1 C0.87 3.88 -0.08 5.06 -2.56 7 C-5.08 9.07 -5.66 9.85 -6 13 C-6.66 13 -7.32 13 -8 13 C-7.67 16.3 -7.34 19.6 -7 23 C-7.66 23 -8.32 23 -9 23 C-8.34 23.99 -7.68 24.98 -7 26 C-7.36 30.33 -9.01 34.17 -11 38 C-12.33 38.36 -13.66 38.7 -15 39 C-16.9 43.1 -17.1 46.54 -17 51 C-17.33 51.99 -17.66 52.98 -18 54 C-18 54.99 -18 55.98 -18 57 C-17.01 57 -16.02 57 -15 57 C-15 55.68 -15 54.36 -15 53 C-14.34 53 -13.68 53 -13 53 C-13.31 51.76 -13.31 51.76 -13.62 50.5 C-14.09 46.12 -13.23 43.21 -12 39 C-10.02 39 -8.04 39 -6 39 C-6 40.98 -6 42.96 -6 45 C-5.01 45 -4.02 45 -3 45 C-2.67 44.01 -2.34 43.02 -2 42 C-1.01 41.67 -0.02 41.34 1 41 C1.73 38.98 1.73 38.98 2 37 C2.66 37 3.32 37 4 37 C4.66 32.71 5.32 28.42 6 24 C5.34 23.67 4.68 23.34 4 23 C4.99 22.67 5.98 22.34 7 22 C7.33 21.34 7.66 20.68 8 20 C8.66 20 9.32 20 10 20 C7.9 29.86 5.05 39.27 1.81 48.81 C0.91 51.48 0.01 54.15 -0.92 56.89 C-1.61 58.91 -2.29 60.92 -3 63 C-3.33 63 -3.66 63 -4 63 C-4 60.36 -4 57.72 -4 55 C-4.66 55 -5.32 55 -6 55 C-6 53.68 -6 52.36 -6 51 C-10.91 54.35 -10.91 54.35 -12.88 59.81 C-12.92 60.86 -12.96 61.92 -13 63 C-12.34 63.33 -11.68 63.66 -11 64 C-12.49 64.5 -12.49 64.5 -14 65 C-14 65.99 -14 66.98 -14 68 C-14.99 68 -15.98 68 -17 68 C-17 68.99 -17 69.98 -17 71 C-16.34 71 -15.68 71 -15 71 C-15 72.32 -15 73.64 -15 75 C-15.66 75 -16.32 75 -17 75 C-17 76.32 -17 77.64 -17 79 C-24.75 80 -24.75 80 -27 80 C-27.33 82.31 -27.66 84.62 -28 87 C-27.34 87 -26.68 87 -26 87 C-26 90 -26 90 -27.38 91.69 C-29 93 -29 93 -31 93 C-31 93.66 -31 94.32 -31 95 C-31.66 95 -32.32 95 -33 95 C-33.5 95.99 -33.5 95.99 -34 97 C-34.66 97 -35.32 97 -36 97 C-34.39 91.33 -32.59 85.78 -30.56 80.25 C-28.5 74.55 -26.77 68.83 -25.15 62.99 C-23.22 56.29 -21.07 49.66 -18.93 43.03 C-17.58 38.81 -16.27 34.58 -14.98 30.34 C-14.31 28.15 -13.63 25.95 -12.94 23.69 C-12.02 20.66 -12.02 20.66 -11.09 17.57 C-8.5 10.66 -5.22 5.22 0 0 Z " fill="#15AEFD" transform="translate(157,65)"/>
<path d="M0 0 C4.16 0.01 8.05 0.08 12.11 1.13 C12.11 1.79 12.11 2.45 12.11 3.13 C14.09 3.79 16.07 4.45 18.11 5.13 C18.11 6.12 18.11 7.11 18.11 8.13 C19.43 7.8 20.75 7.47 22.11 7.13 C21.78 8.12 21.45 9.11 21.11 10.13 C22.43 10.79 23.75 11.45 25.11 12.13 C24.78 12.46 24.45 12.79 24.11 13.13 C24.91 13.44 25.72 13.75 26.55 14.07 C29.11 15.13 29.11 15.13 30.11 16.13 C30.56 21.76 29.53 25.19 27.11 30.13 C25.79 30.13 24.47 30.13 23.11 30.13 C24.1 33.6 24.1 33.6 25.11 37.13 C24.45 37.13 23.79 37.13 23.11 37.13 C23.11 38.12 23.11 39.11 23.11 40.13 C22.12 40.13 21.13 40.13 20.11 40.13 C18.51 36.63 17.89 33.99 18.11 30.13 C17.45 30.13 16.79 30.13 16.11 30.13 C15.86 29.05 15.86 29.05 15.61 27.95 C13.38 23.77 10.48 21.88 6.11 20.13 C2.11 19.46 -1.84 19.21 -5.89 19.13 C-5.89 17.48 -5.89 15.83 -5.89 14.13 C-4.9 13.8 -3.91 13.47 -2.89 13.13 C-2.9 12.28 -2.91 11.42 -2.93 10.54 C-2.94 8.89 -2.94 8.89 -2.95 7.2 C-2.96 6.09 -2.98 4.99 -2.99 3.86 C-2.86 0.2 -2.86 0.2 0 0 Z " fill="#22D3FE" transform="translate(70.890625,73.8671875)"/>
<path d="M0 0 C0.82 0.69 1.64 1.38 2.48 2.09 C2.48 2.75 2.48 3.41 2.48 4.09 C3.8 4.09 5.12 4.09 6.48 4.09 C6.98 8.55 6.98 8.55 7.48 13.09 C5.17 13.09 2.86 13.09 0.48 13.09 C0.15 15.4 -0.18 17.71 -0.52 20.09 C-1.18 19.76 -1.84 19.43 -2.52 19.09 C-11.74 18.1 -11.74 18.1 -20.21 20.97 C-20.97 21.67 -21.73 22.37 -22.52 23.09 C-23.51 23.75 -24.5 24.41 -25.52 25.09 C-26.91 19.49 -26.36 14.54 -24.52 9.09 C-22.67 6.8 -21.05 5.69 -18.52 4.09 C-17.86 4.42 -17.2 4.75 -16.52 5.09 C-16.52 3.44 -16.52 1.79 -16.52 0.09 C-18.17 0.42 -19.82 0.75 -21.52 1.09 C-21.52 1.75 -21.52 2.41 -21.52 3.09 C-25.15 3.75 -28.78 4.41 -32.52 5.09 C-24.43 -2.99 -10.23 -5.54 0 0 Z " fill="#16A7F8" transform="translate(192.51953125,58.90625)"/>
<path d="M0 0 C0.99 0 1.98 0 3 0 C3.04 1.59 3.04 1.59 3.08 3.21 C3.13 4.59 3.19 5.96 3.25 7.38 C3.3 8.74 3.34 10.11 3.39 11.52 C3.59 12.67 3.79 13.82 4 15 C5.86 16.37 5.86 16.37 8 17 C10.11 20.16 10.34 21.51 10.62 25.19 C10.7 26.09 10.77 26.99 10.85 27.92 C10.9 28.61 10.95 29.29 11 30 C11.33 30 11.66 30 12 30 C11.67 34.62 11.34 39.24 11 44 C10.34 44 9.68 44 9 44 C9 43.34 9 42.68 9 42 C8.34 42 7.68 42 7 42 C7 40.68 7 39.36 7 38 C5.02 38.66 3.04 39.32 1 40 C1.19 41.11 1.37 42.23 1.56 43.38 C2 47 2 47 1 49 C1.99 49 2.98 49 4 49 C4 49.99 4 50.98 4 52 C3.34 52 2.68 52 2 52 C2 51.34 2 50.68 2 50 C1.34 50 0.68 50 0 50 C0 48.68 0 47.36 0 46 C-0.66 46 -1.32 46 -2 46 C-2.27 45.03 -2.54 44.06 -2.81 43.06 C-3.64 40.13 -4.58 37.26 -5.56 34.38 C-6.61 31.27 -7.48 28.25 -8 25 C-7.34 24.67 -6.68 24.34 -6 24 C-5.34 21.47 -5.34 21.47 -5 19 C-4.34 19 -3.68 19 -3 19 C-2.94 18.16 -2.88 17.31 -2.82 16.45 C-2.73 15.35 -2.65 14.25 -2.56 13.12 C-2.48 12.03 -2.4 10.94 -2.32 9.82 C-2 7 -2 7 -1 5 C-0.01 5 0.98 5 2 5 C1.34 3.35 0.68 1.7 0 0 Z " fill="#22D0FC" transform="translate(55,102)"/>
<path d="M0 0 C5.95 3.71 10.99 7.61 13.25 14.4 C10.94 13.74 8.63 13.08 6.25 12.4 C6.25 11.41 6.25 10.42 6.25 9.4 C5.59 9.07 4.93 8.74 4.25 8.4 C3.76 7.41 3.76 7.41 3.25 6.4 C2.59 6.4 1.93 6.4 1.25 6.4 C0.76 4.92 0.76 4.92 0.25 3.4 C-1.73 3.07 -3.71 2.74 -5.75 2.4 C-5.42 1.41 -5.09 0.42 -4.75 -0.6 C-11.02 -0.6 -17.29 -0.6 -23.75 -0.6 C-23.75 1.05 -23.75 2.7 -23.75 4.4 C-25.73 5.06 -27.71 5.72 -29.75 6.4 C-30.41 9.7 -31.07 13 -31.75 16.4 C-32.74 16.73 -33.73 17.06 -34.75 17.4 C-37.84 19.77 -38.66 20.95 -39.37 24.84 C-39.49 26.02 -39.62 27.19 -39.75 28.4 C-40.78 31.5 -41.43 33.09 -43.75 35.4 C-44.21 37.83 -44.21 37.83 -44.37 40.53 C-44.45 41.44 -44.52 42.35 -44.6 43.29 C-44.65 43.98 -44.7 44.68 -44.75 45.4 C-44.09 45.4 -43.43 45.4 -42.75 45.4 C-42.75 47.38 -42.75 49.36 -42.75 51.4 C-48.26 43.14 -50.09 33.56 -48.27 23.88 C-45.61 13.52 -39.65 6 -30.86 0.15 C-21.84 -4.77 -9.18 -4.36 0 0 Z " fill="#31E1EA" transform="translate(87.74609375,75.59765625)"/>
<path d="M0 0 C4.06 8.11 1.58 15.47 -1.06 23.75 C-1.71 25.78 -2.35 27.81 -3.01 29.9 C-3.67 31.91 -4.32 33.93 -5 36 C-5.56 37.73 -6.13 39.47 -6.71 41.25 C-8.44 46.51 -10.22 51.76 -12 57 C-12.75 59.22 -13.5 61.45 -14.27 63.74 C-15.04 66.03 -15.82 68.33 -16.62 70.69 C-17.34 72.8 -18.05 74.9 -18.79 77.07 C-21.59 84.57 -24.63 91.8 -29.69 98.06 C-30.27 98.8 -30.85 99.53 -31.45 100.29 C-33 102 -33 102 -35 103 C-35 101.35 -35 99.7 -35 98 C-34.34 98 -33.68 98 -33 98 C-33 97.34 -33 96.68 -33 96 C-32.01 96 -31.02 96 -30 96 C-30.21 95.22 -30.41 94.43 -30.62 93.62 C-30.75 92.76 -30.87 91.89 -31 91 C-30.01 90.01 -30.01 90.01 -29 89 C-28.01 89 -27.02 89 -26 89 C-26.33 88.01 -26.66 87.02 -27 86 C-26.34 86 -25.68 86 -25 86 C-24.67 84.35 -24.34 82.7 -24 81 C-23.34 81 -22.68 81 -22 81 C-22.33 79.68 -22.66 78.36 -23 77 C-22.01 77 -21.02 77 -20 77 C-20.33 74.69 -20.66 72.38 -21 70 C-20.01 70 -19.02 70 -18 70 C-18.33 67.03 -18.66 64.06 -19 61 C-18.67 61.99 -18.34 62.98 -18 64 C-17.34 64 -16.68 64 -16 64 C-15.8 62.4 -15.62 60.79 -15.44 59.19 C-15.33 58.29 -15.23 57.4 -15.12 56.48 C-14.84 53.87 -14.84 53.87 -16 51 C-15.08 48.63 -14.08 46.3 -13 44 C-13.66 44 -14.32 44 -15 44 C-14.67 43.01 -14.34 42.02 -14 41 C-14.66 40.67 -15.32 40.34 -16 40 C-15.66 30.15 -15.66 30.15 -13.19 25.81 C-11 24 -11 24 -7 24 C-7 23.01 -7 22.02 -7 21 C-6.34 20.67 -5.68 20.34 -5 20 C-5.33 18.35 -5.66 16.7 -6 15 C-4.35 15 -2.7 15 -1 15 C-0.67 10.05 -0.34 5.1 0 0 Z " fill="#0A90FD" transform="translate(215,84)"/>
<path d="M0 0 C0.99 0.33 1.98 0.66 3 1 C2.01 2.48 2.01 2.48 1 4 C1.66 4 2.32 4 3 4 C2.47 5.76 2.47 5.76 1.94 7.56 C0.89 11.66 1.37 14.82 2 19 C1.06 21.94 1.06 21.94 0 24 C-0.66 24 -1.32 24 -2 24 C-2 25.98 -2 27.96 -2 30 C-2.99 30 -3.98 30 -5 30 C-4.67 32.31 -4.34 34.62 -4 37 C-4.99 37.5 -4.99 37.5 -6 38 C-6 38.99 -6 39.98 -6 41 C-6.66 41 -7.32 41 -8 41 C-8 42.98 -8 44.96 -8 47 C-10.64 45.68 -13.28 44.36 -16 43 C-16 42.34 -16 41.68 -16 41 C-16.66 41 -17.32 41 -18 41 C-18.33 41.66 -18.66 42.32 -19 43 C-19 42.01 -19 41.02 -19 40 C-17.51 39.5 -17.51 39.5 -16 39 C-16.02 38.01 -16.04 37.02 -16.06 36 C-16 25.33 -16 25.33 -13.12 21.5 C-11 20 -11 20 -8 20 C-8.01 19.23 -8.02 18.46 -8.04 17.66 C-8.05 16.16 -8.05 16.16 -8.06 14.62 C-8.07 13.63 -8.09 12.63 -8.1 11.6 C-8 9 -8 9 -7 7 C-6.34 7 -5.68 7 -5 7 C-5 6.01 -5 5.02 -5 4 C-2.69 1.75 -2.69 1.75 0 0 Z " fill="#098EFD" transform="translate(199,124)"/>
<path d="M0 0 C8.49 2.43 15.52 7.68 20.37 15.09 C23.14 20.23 23.14 20.23 22.59 23.24 C22.4 23.82 22.2 24.4 22 25 C21.67 23.68 21.34 22.36 21 21 C20.01 21.33 19.02 21.66 18 22 C17.01 21.34 16.02 20.68 15 20 C15.33 18.68 15.66 17.36 16 16 C14.02 16.66 12.04 17.32 10 18 C10.02 19.18 10.04 20.35 10.06 21.56 C10.07 25.47 9.64 29.14 9 33 C9.99 33.33 10.98 33.66 12 34 C8.55 40.77 8.55 40.77 5.75 41.94 C5.17 41.96 4.59 41.98 4 42 C3.5 44.97 3.5 44.97 3 48 C2.67 48 2.34 48 2 48 C1.81 49.64 1.81 49.64 1.62 51.31 C1 55 1 55 -1 58 C-1.66 58 -2.32 58 -3 58 C-0.28 46.59 -0.28 46.59 1.69 41.31 C3.21 36.84 3.79 32.69 3 28 C0.76 23.53 -1.54 21.23 -6 19 C-3.92 18.45 -2.16 18 0 18 C0.33 16.35 0.66 14.7 1 13 C3.31 13 5.62 13 8 13 C7.67 10.03 7.34 7.06 7 4 C5.35 4.33 3.7 4.66 2 5 C1.34 3.35 0.68 1.7 0 0 Z " fill="#0E9BFE" transform="translate(192,59)"/>
<path d="M0 0 C0.33 2.64 0.66 5.28 1 8 C1.99 8.33 2.98 8.66 4 9 C6.31 12.47 6.49 14.91 7 19 C7.33 19.99 7.66 20.98 8 22 C7.01 22 6.02 22 5 22 C5 22.99 5 23.98 5 25 C4.01 25 3.02 25 2 25 C1.73 25.6 1.46 26.2 1.19 26.81 C-0.01 29.02 -1.04 30.44 -3 32 C-3.99 32 -4.98 32 -6 32 C-7.43 23.43 -7.43 23.43 -5 20 C-6.65 20 -8.3 20 -10 20 C-10.33 17.36 -10.66 14.72 -11 12 C-11.66 12 -12.32 12 -13 12 C-12.75 10.12 -12.75 10.12 -12 8 C-9.94 6.75 -9.94 6.75 -8 6 C-8 5.34 -8 4.68 -8 4 C-7.34 4 -6.68 4 -6 4 C-6 2.68 -6 1.36 -6 0 C-3 -1 -3 -1 0 0 Z " fill="#1AC1FE" transform="translate(107,108)"/>
<path d="M0 0 C2.62 -0.03 5.25 -0.05 7.88 -0.06 C9.34 -0.07 10.8 -0.09 12.3 -0.1 C16 0 16 0 18 1 C18.26 5.35 17.28 8.86 16 13 C15.67 14.32 15.34 15.64 15 17 C10.05 17 5.1 17 0 17 C0 16.34 0 15.68 0 15 C-0.71 14.95 -1.42 14.9 -2.15 14.85 C-3.07 14.78 -3.99 14.7 -4.94 14.62 C-5.85 14.56 -6.77 14.49 -7.71 14.41 C-8.85 14.21 -8.85 14.21 -10 14 C-10.33 13.34 -10.66 12.68 -11 12 C-9.68 12 -8.36 12 -7 12 C-6.67 10.68 -6.34 9.36 -6 8 C-5.34 8 -4.68 8 -4 8 C-4 7.01 -4 6.02 -4 5 C-2.68 5 -1.36 5 0 5 C-0.33 4.01 -0.66 3.02 -1 2 C-0.67 1.34 -0.34 0.68 0 0 Z " fill="#17B7FE" transform="translate(92,179)"/>
<path d="M0 0 C2.56 3.84 4.4 7.93 6.37 12.09 C7.96 14.94 9.71 16.72 12 19 C11.8 21.74 11.22 23.55 10 26 C11.98 25.34 13.96 24.68 16 24 C16 25.98 16 27.96 16 30 C14.68 30 13.36 30 12 30 C12 30.99 12 31.98 12 33 C11.01 33.5 11.01 33.5 10 34 C9.67 34.99 9.34 35.98 9 37 C6.44 38.19 6.44 38.19 4 39 C-1.76 34.07 -6.9 29.42 -11 23 C-7.24 22 -3.89 22 0 22 C0 24.31 0 26.62 0 29 C0.66 28.01 1.32 27.02 2 26 C2.66 26 3.32 26 4 26 C4 24.68 4 23.36 4 22 C3.34 21.67 2.68 21.34 2 21 C3.65 19.35 5.3 17.7 7 16 C4.69 16.66 2.38 17.32 0 18 C0 17.01 0 16.02 0 15 C0.99 15 1.98 15 3 15 C2.67 14.01 2.34 13.02 2 12 C1.34 12 0.68 12 0 12 C0 8.04 0 4.08 0 0 Z " fill="#1ABEFE" transform="translate(76,154)"/>
<path d="M0 0 C0.5 1.98 0.5 1.98 1 4 C0.34 4 -0.32 4 -1 4 C-1.1 5.11 -1.21 6.23 -1.31 7.38 C-1.54 8.57 -1.77 9.77 -2 11 C-2.99 11.66 -3.98 12.32 -5 13 C-4.67 13 -4.34 13 -4 13 C-4 15.97 -4 18.94 -4 22 C-3.01 22 -2.02 22 -1 22 C-0.92 22.62 -0.84 23.24 -0.75 23.88 C-0.2 26.19 -0.2 26.19 2.05 27.13 C3.01 27.56 3.01 27.56 4 28 C2.09 28.98 0.17 29.96 -1.75 30.94 C-2.82 31.48 -3.88 32.03 -4.98 32.59 C-10.29 35.07 -14.96 35.19 -20.75 35.25 C-23.06 35.29 -23.06 35.29 -25.42 35.33 C-30.15 34.99 -33.67 33.88 -38 32 C-34.87 31.22 -32.86 30.89 -29.75 30.94 C-27.89 30.97 -27.89 30.97 -26 31 C-26.33 31.66 -26.66 32.32 -27 33 C-22.38 33 -17.76 33 -13 33 C-12.88 31.64 -12.75 30.28 -12.62 28.88 C-12.27 25.01 -11.3 21.65 -10 18 C-13.25 17.81 -16.5 17.62 -19.75 17.44 C-21.56 17.33 -23.37 17.23 -25.23 17.12 C-29.92 16.79 -29.92 16.79 -34 18 C-33.34 16.02 -32.68 14.04 -32 12 C-31.31 12.32 -30.61 12.64 -29.89 12.97 C-24.17 15.01 -17.23 15.42 -11.59 12.94 C-6.74 9.5 -3.28 4.9 0 0 Z " fill="#17ACF9" transform="translate(120,162)"/>
<path d="M0 0 C0.33 0 0.66 0 1 0 C1 2.64 1 5.28 1 8 C0.34 8 -0.32 8 -1 8 C-0.67 10.31 -0.34 12.62 0 15 C-0.99 15 -1.98 15 -3 15 C-3 16.65 -3 18.3 -3 20 C-2.22 19.48 -1.43 18.97 -0.62 18.44 C0.24 17.96 1.11 17.49 2 17 C2.66 17.33 3.32 17.66 4 18 C4 20.97 4 23.94 4 27 C3.22 27.1 2.43 27.21 1.62 27.31 C-1.33 27.78 -1.33 27.78 -3 31 C-3.29 33.39 -3.49 35.79 -3.62 38.19 C-3.7 39.46 -3.77 40.73 -3.85 42.04 C-3.9 43.02 -3.95 43.99 -4 45 C-5.98 45.5 -5.98 45.5 -8 46 C-8 47.32 -8 48.64 -8 50 C-9.32 50.66 -10.64 51.32 -12 52 C-12 51.34 -12 50.68 -12 50 C-14.33 49.67 -14.33 49.67 -17 50 C-19.31 51.9 -19.31 51.9 -21 54 C-21.66 53.67 -22.32 53.34 -23 53 C-22.55 52.55 -22.11 52.1 -21.64 51.64 C-21.04 50.99 -20.44 50.35 -19.81 49.69 C-19.22 49.07 -18.63 48.46 -18.02 47.82 C-12.65 40.31 -9.86 31.16 -6.88 22.5 C-5.88 19.64 -5.88 19.64 -4.87 16.72 C-3.06 11.18 -1.48 5.63 0 0 Z " fill="#0C91F9" transform="translate(188,118)"/>
<path d="M0 0 C0.66 0.33 1.32 0.66 2 1 C1.67 1.66 1.34 2.32 1 3 C2.32 3.66 3.64 4.32 5 5 C4.67 5.33 4.34 5.66 4 6 C4.8 6.31 5.61 6.62 6.44 6.94 C9 8 9 8 10 9 C10.45 14.62 9.42 18.06 7 23 C5.68 23 4.36 23 3 23 C3.66 25.31 4.32 27.62 5 30 C4.34 30 3.68 30 3 30 C3 30.99 3 31.98 3 33 C2.01 33 1.02 33 0 33 C-1.6 29.49 -2.22 26.86 -2 23 C-2.66 23 -3.32 23 -4 23 C-4.25 21.92 -4.25 21.92 -4.5 20.81 C-6.69 16.7 -9.8 14.88 -14 13 C-16.73 12.37 -19.18 12.15 -22 12 C-21.67 11.34 -21.34 10.68 -21 10 C-17.37 10 -13.74 10 -10 10 C-10 11.32 -10 12.64 -10 14 C-8.35 14.33 -6.7 14.66 -5 15 C-5 15.66 -5 16.32 -5 17 C-4.34 17 -3.68 17 -3 17 C-3 15.02 -3 13.04 -3 11 C-4.32 11 -5.64 11 -7 11 C-6.67 9.68 -6.34 8.36 -6 7 C-5.01 7 -4.02 7 -3 7 C-3 7.66 -3 8.32 -3 9 C-2.34 9 -1.68 9 -1 9 C-1 8.34 -1 7.68 -1 7 C-0.01 7 0.98 7 2 7 C2 6.01 2 5.02 2 4 C0.68 3.67 -0.64 3.34 -2 3 C-2 2.34 -2 1.68 -2 1 C-1.34 0.67 -0.68 0.34 0 0 Z " fill="#1FCAFD" transform="translate(91,81)"/>
<path d="M0 0 C1.06 2.81 1.06 2.81 2 6 C2.65 7.34 3.31 8.68 4 10 C1 14 -2 18 -5 22 C0.94 22.66 6.88 23.32 13 24 C13 24.33 13 24.66 13 25 C6.57 25.1 0.34 25.15 -6 24 C-6.33 21.69 -6.66 19.38 -7 17 C-7.66 17 -8.32 17 -9 17 C-8.67 16.01 -8.34 15.02 -8 14 C-8.99 13.67 -9.98 13.34 -11 13 C-11 14.65 -11 16.3 -11 18 C-12.65 18 -14.3 18 -16 18 C-16 17.34 -16 16.68 -16 16 C-16.99 16 -17.98 16 -19 16 C-19 16.66 -19 17.32 -19 18 C-20.32 18 -21.64 18 -23 18 C-23.33 18.66 -23.66 19.32 -24 20 C-24.66 19.34 -25.32 18.68 -26 18 C-25.43 17.65 -24.86 17.3 -24.28 16.93 C-17.97 12.9 -12.16 8.68 -8.31 2.12 C-7 0 -7 0 -5 -0.88 C-3 -1 -3 -1 0 0 Z " fill="#000002" transform="translate(143,175)"/>
<path d="M0 0 C1.55 2.32 2.65 4.21 3.69 6.75 C3.96 7.38 4.23 8.02 4.51 8.67 C5.69 14.3 3.57 19.8 1.69 25.06 C1.28 26.23 0.87 27.4 0.45 28.6 C-1.03 32.06 -2.82 34.94 -5 38 C-8.64 36.18 -9.28 31.75 -10.69 28.12 C-11.65 25.68 -11.65 25.68 -12.64 23.2 C-14 19 -14 19 -13 16 C-12.67 17.32 -12.34 18.64 -12 20 C-9.23 18.5 -7.27 17.36 -5.38 14.81 C-4.92 14.21 -4.47 13.62 -4 13 C-3.01 13 -2.02 13 -1 13 C-1 12.01 -1 11.02 -1 10 C-0.01 10 0.98 10 2 10 C1.34 9.34 0.68 8.68 0 8 C-0.27 5.31 -0.09 2.71 0 0 Z " fill="#25B0FC" transform="translate(113,120)"/>
<path d="M0 0 C2.27 -0.08 4.54 -0.14 6.81 -0.19 C8.08 -0.22 9.34 -0.26 10.64 -0.29 C14 0 14 0 15.95 1.45 C17 3 17 3 17 4 C18.32 4 19.64 4 21 4 C21.33 6.97 21.66 9.94 22 13 C19.69 13 17.38 13 15 13 C14.67 15.31 14.34 17.62 14 20 C11.36 19.34 8.72 18.68 6 18 C6 17.34 6 16.68 6 16 C4.68 16 3.36 16 2 16 C2.33 14.68 2.66 13.36 3 12 C3.99 12 4.98 12 6 12 C6 11.01 6 10.02 6 9 C5.01 9 4.02 9 3 9 C3 8.34 3 7.68 3 7 C3.99 7 4.98 7 6 7 C5.89 5.04 5.89 5.04 5 3 C2.51 1.7 2.51 1.7 0 1 C0 0.67 0 0.34 0 0 Z " fill="#10A2FD" transform="translate(178,59)"/>
<path d="M0 0 C0.66 0.33 1.32 0.66 2 1 C1.67 1.66 1.34 2.32 1 3 C-1 3.67 -3 4.33 -5 5 C-5.33 5.66 -5.66 6.32 -6 7 C-5.34 7.33 -4.68 7.66 -4 8 C-6.97 7.5 -6.97 7.5 -10 7 C-9.81 7.91 -9.63 8.81 -9.44 9.75 C-9 13 -9 13 -9.62 15.06 C-10.2 18.02 -8.57 19.54 -7 22 C-7 22.99 -7 23.98 -7 25 C-4.69 25 -2.38 25 0 25 C-2 27 -2 27 -5.45 27.27 C-6.85 27.26 -8.25 27.26 -9.69 27.25 C-11.07 27.26 -12.46 27.26 -13.89 27.27 C-17.88 27.01 -21.21 26.25 -25 25 C-23.58 21.89 -21.85 19.45 -19.69 16.81 C-17.16 13.67 -15.32 10.72 -13.62 7.06 C-12.22 4.37 -11.57 3.25 -8.76 2.03 C-6.5 1.54 -4.29 1.25 -2 1 C-1.34 0.67 -0.68 0.34 0 0 Z " fill="#3086F1" transform="translate(163,172)"/>
<path d="M0 0 C6.32 1.09 6.32 1.09 8.21 3.62 C8.54 4.24 8.86 4.86 9.19 5.5 C10.94 8.89 11.49 9.87 15 11 C15 11.99 15 12.98 15 14 C15.74 13.65 16.49 13.3 17.25 12.94 C20.21 11.93 21.12 12.12 24 13 C22.73 13.82 21.46 14.63 20.19 15.44 C19.13 16.12 19.13 16.12 18.04 16.81 C14.54 18.85 11.78 19.11 7.81 19.06 C6.91 19.05 6.01 19.04 5.08 19.04 C4.39 19.02 3.71 19.01 3 19 C3 18.34 3 17.68 3 17 C2.01 16.67 1.02 16.34 0 16 C0.66 15.67 1.32 15.34 2 15 C1.5 14.46 1.01 13.93 0.5 13.38 C-1.4 10.37 -1.22 8.49 -1 5 C-1 4.01 -1 3.02 -1 2 C-0.67 1.34 -0.34 0.68 0 0 Z " fill="#1C8EFC" transform="translate(153,178)"/>
<path d="M0 0 C1.32 0.33 2.64 0.66 4 1 C3.34 3.64 2.68 6.28 2 9 C1.34 9 0.68 9 0 9 C-0.33 10.32 -0.66 11.64 -1 13 C-2.65 13.33 -4.3 13.66 -6 14 C-6 15.98 -6 17.96 -6 20 C-6.99 20.33 -7.98 20.66 -9 21 C-9 22.32 -9 23.64 -9 25 C-9.99 25.33 -10.98 25.66 -12 26 C-13.19 28.78 -13.19 28.78 -14.06 32.12 C-14.4 33.3 -14.74 34.47 -15.08 35.68 C-15.38 36.77 -15.69 37.87 -16 39 C-16.42 40.44 -16.83 41.88 -17.25 43.31 C-17.5 44.2 -17.74 45.09 -18 46 C-18.99 46 -19.98 46 -21 46 C-21.05 44.42 -21.09 42.83 -21.12 41.25 C-21.15 40.37 -21.17 39.49 -21.2 38.58 C-20.99 35.89 -20.37 34.3 -19 32 C-18.67 32 -18.34 32 -18 32 C-17.85 30.95 -17.85 30.95 -17.7 29.88 C-17.48 28.52 -17.48 28.52 -17.25 27.12 C-17.11 26.22 -16.97 25.32 -16.83 24.38 C-16 22 -16 22 -13.98 20.87 C-13.33 20.58 -12.67 20.29 -12 20 C-11.67 19.01 -11.34 18.02 -11 17 C-10.01 17 -9.02 17 -8 17 C-7.96 16.3 -7.93 15.6 -7.89 14.88 C-7.82 13.97 -7.76 13.06 -7.69 12.12 C-7.63 11.22 -7.57 10.32 -7.51 9.38 C-7 7 -7 7 -4 5 C-2.68 5 -1.36 5 0 5 C0 3.35 0 1.7 0 0 Z " fill="#2EDFF0" transform="translate(64,75)"/>
<path d="M0 0 C1.32 0.33 2.64 0.66 4 1 C3.67 4.3 3.34 7.6 3 11 C3.66 11 4.32 11 5 11 C5.33 10.01 5.66 9.02 6 8 C7.32 8 8.64 8 10 8 C10 7.01 10 6.02 10 5 C10.66 5 11.32 5 12 5 C10.48 10.4 6.75 14.01 3 18 C2.49 18.57 1.97 19.14 1.45 19.73 C0 21 0 21 -2.69 21.19 C-3.83 21.09 -3.83 21.09 -5 21 C-5.5 18.53 -5.5 18.53 -6 16 C-6.99 16 -7.98 16 -9 16 C-8.67 13.36 -8.34 10.72 -8 8 C-6.02 7.67 -4.04 7.34 -2 7 C-1.34 4.69 -0.68 2.38 0 0 Z " fill="#14A9FC" transform="translate(125,168)"/>
<path d="M0 0 C0.66 0 1.32 0 2 0 C-0.45 13.42 -4.02 28.34 -13 39 C-13.66 37.68 -14.32 36.36 -15 35 C-14.34 35 -13.68 35 -13 35 C-12.67 34.01 -12.34 33.02 -12 32 C-11.34 32 -10.68 32 -10 32 C-10.11 30.42 -10.24 28.83 -10.38 27.25 C-10.48 25.93 -10.48 25.93 -10.59 24.58 C-11 22.01 -11.71 20.24 -13 18 C-13.31 18.62 -13.62 19.24 -13.94 19.88 C-14.62 21.25 -15.31 22.62 -16 24 C-16.66 24 -17.32 24 -18 24 C-17.59 22.78 -17.17 21.57 -16.75 20.31 C-14.72 14.24 -12.86 8.12 -11 2 C-10.34 2 -9.68 2 -9 2 C-8.67 3.65 -8.34 5.3 -8 7 C-8.99 7.66 -9.98 8.32 -11 9 C-11.74 12.57 -11.74 12.57 -12 16 C-10.68 16.66 -9.36 17.32 -8 18 C-8 18.66 -8 19.32 -8 20 C-7.34 20 -6.68 20 -6 20 C-6.66 18.02 -7.32 16.04 -8 14 C-7.38 13.94 -6.76 13.88 -6.12 13.81 C-3.82 13.19 -3.82 13.19 -2.88 10.94 C-1.8 7.31 -0.87 3.68 0 0 Z " fill="#000207" transform="translate(129,130)"/>
<path d="M0 0 C0.66 0.33 1.32 0.66 2 1 C2.45 2.96 2.45 2.96 2.69 5.38 C2.77 6.17 2.86 6.96 2.95 7.77 C3 10 3 10 2 13 C2.99 12.67 3.98 12.34 5 12 C5 13.32 5 14.64 5 16 C4.01 16 3.02 16 2 16 C2.33 16.66 2.66 17.32 3 18 C4.98 17.67 6.96 17.34 9 17 C8 20 8 20 5 22 C5.33 23.65 5.66 25.3 6 27 C4.35 28.32 2.7 29.64 1 31 C1.33 28.36 1.66 25.72 2 23 C-1.93 23.57 -1.93 23.57 -5 26 C-5.69 24.19 -5.69 24.19 -6 22 C-4.69 20.25 -4.69 20.25 -3 19 C-2.34 19 -1.68 19 -1 19 C-1.14 18.39 -1.29 17.77 -1.44 17.14 C-1.62 16.33 -1.81 15.52 -2 14.69 C-2.19 13.89 -2.37 13.09 -2.56 12.26 C-3 10 -3 10 -3 7 C-3.99 7 -4.98 7 -6 7 C-6 6.01 -6 5.02 -6 4 C-4.68 4 -3.36 4 -2 4 C-2 3.01 -2 2.02 -2 1 C-1.34 0.67 -0.68 0.34 0 0 Z " fill="#1CC4FD" transform="translate(74,153)"/>
<path d="M0 0 C3.01 3.01 2.6 5.82 3 10 C5.97 10.33 8.94 10.66 12 11 C12 12.98 12 14.96 12 17 C11.04 17.22 11.04 17.22 10.06 17.44 C8.02 17.81 8.02 17.81 7 19 C6.96 23.4 7.08 26.97 10.06 30.31 C10.7 30.87 11.34 31.43 12 32 C12 33.32 12 34.64 12 36 C10.02 36.5 10.02 36.5 8 37 C8 35.35 8 33.7 8 32 C7.34 32 6.68 32 6 32 C5.67 33.32 5.34 34.64 5 36 C4.34 36 3.68 36 3 36 C3.23 36.89 3.45 37.77 3.69 38.69 C4.06 42.59 3.4 43.97 1 47 C0.34 47 -0.32 47 -1 47 C-0.36 44.4 0.29 41.79 0.94 39.19 C1.3 37.74 1.66 36.29 2.03 34.79 C2.61 32.51 3.25 30.24 4 28 C5 18.64 1.83 10.38 -2 2 C-1.34 2 -0.68 2 0 2 C0 1.34 0 0.68 0 0 Z " fill="#00050E" transform="translate(212,69)"/>
<path d="M0 0 C1.76 7.05 -1.91 13.53 -4.19 20.25 C-5.17 23.18 -6.15 26.12 -7.17 29.14 C-9.18 34.73 -11.13 39.83 -14 45 C-16.13 41.81 -16.5 39.73 -17 36 C-16.34 36.66 -15.68 37.32 -15 38 C-15.33 36.02 -15.66 34.04 -16 32 C-15.34 32 -14.68 32 -14 32 C-14 31.34 -14 30.68 -14 30 C-13.34 29.67 -12.68 29.34 -12 29 C-12 26.03 -12 23.06 -12 20 C-10.68 20.33 -9.36 20.66 -8 21 C-7.67 19.68 -7.34 18.36 -7 17 C-6.34 17 -5.68 17 -5 17 C-5 16.31 -5 15.63 -5 14.92 C-5 11.28 -5 7.64 -5 4 C-3.68 4.66 -2.36 5.32 -1 6 C-0.67 4.02 -0.34 2.04 0 0 Z " fill="#13A6FD" transform="translate(152,128)"/>
<path d="M0 0 C1.98 0 3.96 0 6 0 C5.01 0.33 4.02 0.66 3 1 C3.01 1.63 3.02 2.25 3.04 2.9 C3.04 3.72 3.05 4.53 3.06 5.38 C3.07 6.19 3.09 7 3.1 7.84 C3 10 3 10 2 12 C2.66 12 3.32 12 4 12 C4 13.32 4 14.64 4 16 C5.32 16.33 6.64 16.66 8 17 C8 17.99 8 18.98 8 20 C8.99 20.33 9.98 20.66 11 21 C7.55 27.77 7.55 27.77 4.75 28.94 C4.17 28.96 3.59 28.98 3 29 C2.67 30.98 2.34 32.96 2 35 C1.67 35 1.34 35 1 35 C0.81 36.64 0.81 36.64 0.62 38.31 C0 42 0 42 -2 45 C-2.66 45 -3.32 45 -4 45 C-1.28 33.59 -1.28 33.59 0.69 28.31 C2.21 23.84 2.79 19.69 2 15 C-0.24 10.53 -2.54 8.23 -7 6 C-4.92 5.45 -3.16 5 -1 5 C-0.67 3.35 -0.34 1.7 0 0 Z " fill="#0E96FE" transform="translate(193,72)"/>
<path d="M0 0 C0.66 0.33 1.32 0.66 2 1 C0.87 3.88 -0.08 5.06 -2.56 7 C-5.08 9.07 -5.66 9.85 -6 13 C-6.66 13 -7.32 13 -8 13 C-7.67 16.3 -7.34 19.6 -7 23 C-7.66 23 -8.32 23 -9 23 C-8.34 23.99 -7.68 24.98 -7 26 C-7.36 30.33 -9.01 34.17 -11 38 C-11.66 38.14 -12.32 38.28 -13 38.42 C-13.66 38.61 -14.32 38.8 -15 39 C-16.14 41.08 -16.14 41.08 -16.75 43.56 C-16.99 44.39 -17.23 45.22 -17.48 46.07 C-17.65 46.7 -17.82 47.34 -18 48 C-18.66 48 -19.32 48 -20 48 C-17.88 40.08 -15.61 32.21 -13.19 24.38 C-12.22 21.2 -12.22 21.2 -11.23 17.96 C-8.58 10.88 -5.35 5.35 0 0 Z " fill="#16B2FD" transform="translate(157,65)"/>
<path d="M0 0 C2.64 0 5.28 0 8 0 C8.33 1.32 8.66 2.64 9 4 C9.66 4 10.32 4 11 4 C11 5.65 11 7.3 11 9 C10.34 9 9.68 9 9 9 C8.67 9.99 8.34 10.98 8 12 C4.04 12 0.08 12 -4 12 C-4 11.34 -4 10.68 -4 10 C-6.64 10.33 -9.28 10.66 -12 11 C-12 10.01 -12 9.02 -12 8 C-10.68 8 -9.36 8 -8 8 C-8 6.68 -8 5.36 -8 4 C-6.68 4 -5.36 4 -4 4 C-4 5.32 -4 6.64 -4 8 C-1.36 8 1.28 8 4 8 C4 7.01 4 6.02 4 5 C4.66 4.67 5.32 4.34 6 4 C6 3.34 6 2.68 6 2 C5.01 2 4.02 2 3 2 C3 2.66 3 3.32 3 4 C2.01 4 1.02 4 0 4 C0 2.68 0 1.36 0 0 Z " fill="#000001" transform="translate(84,124)"/>
<path d="M0 0 C3.3 0 6.6 0 10 0 C10.33 1.32 10.66 2.64 11 4 C10.01 4.33 9.02 4.66 8 5 C6.3 7.5 6.3 7.5 5 10 C3.68 9.67 2.36 9.34 1 9 C0.34 10.32 -0.32 11.64 -1 13 C-3.64 13 -6.28 13 -9 13 C-8.62 10.56 -8.62 10.56 -8 8 C-7.34 7.67 -6.68 7.34 -6 7 C-6 6.01 -6 5.02 -6 4 C-4.02 4 -2.04 4 0 4 C0 2.68 0 1.36 0 0 Z " fill="#010001" transform="translate(160,160)"/>
<path d="M0 0 C1.55 2.32 2.65 4.21 3.69 6.75 C3.96 7.38 4.23 8.02 4.51 8.67 C5.69 14.3 3.57 19.8 1.69 25.06 C1.28 26.23 0.87 27.4 0.45 28.6 C-1.03 32.06 -2.82 34.94 -5 38 C-7.57 36.72 -7.66 35.77 -8.62 33.12 C-8.89 32.43 -9.15 31.73 -9.41 31.01 C-10 29 -10 29 -10 26 C-9.3 25.78 -8.6 25.56 -7.88 25.34 C-2.13 23.51 -2.13 23.51 1.62 19.12 C2 16 2.29 13.14 2 10 C1.34 9.34 0.68 8.68 0 8 C-0.27 5.31 -0.09 2.71 0 0 Z " fill="#369CE4" transform="translate(113,120)"/>
<path d="M0 0 C0.66 0 1.32 0 2 0 C-0.1 9.86 -2.95 19.27 -6.19 28.81 C-7.09 31.48 -7.99 34.15 -8.92 36.89 C-9.61 38.91 -10.29 40.92 -11 43 C-11.33 43 -11.66 43 -12 43 C-12 40.36 -12 37.72 -12 35 C-12.66 35 -13.32 35 -14 35 C-14 33.68 -14 32.36 -14 31 C-13.34 31 -12.68 31 -12 31 C-12.66 29.02 -13.32 27.04 -14 25 C-13.01 25 -12.02 25 -11 25 C-10.67 24.01 -10.34 23.02 -10 22 C-9.01 21.67 -8.02 21.34 -7 21 C-6.27 18.98 -6.27 18.98 -6 17 C-5.34 17 -4.68 17 -4 17 C-3.34 12.71 -2.68 8.42 -2 4 C-2.66 3.67 -3.32 3.34 -4 3 C-3.01 2.67 -2.02 2.34 -1 2 C-0.67 1.34 -0.34 0.68 0 0 Z " fill="#16A8FB" transform="translate(165,85)"/>
<path d="M0 0 C0 2.64 0 5.28 0 8 C-1.32 8.33 -2.64 8.66 -4 9 C-4 11.64 -4 14.28 -4 17 C-4.66 17 -5.32 17 -6 17 C-6 18.65 -6 20.3 -6 22 C-9.01 19.15 -11.26 16.76 -13 13 C-13.66 12.67 -14.32 12.34 -15 12 C-14.34 10.68 -13.68 9.36 -13 8 C-11.35 8 -9.7 8 -8 8 C-7.67 7.01 -7.34 6.02 -7 5 C-2.04 0 -2.04 0 0 0 Z " fill="#0A95FC" transform="translate(172,167)"/>
<path d="M0 0 C0.66 0.33 1.32 0.66 2 1 C2 4.63 2 8.26 2 12 C0.68 12 -0.64 12 -2 12 C-2 13.65 -2 15.3 -2 17 C-1.01 17.33 -0.02 17.66 1 18 C0.22 18.58 -0.57 19.16 -1.38 19.75 C-4.47 22.41 -5.8 24.26 -6.27 28.33 C-6.23 33.61 -5.74 38 -4 43 C-5.94 42.44 -5.94 42.44 -8 41 C-9.19 36.02 -9.09 31.09 -9 26 C-9.66 26 -10.32 26 -11 26 C-11 25.34 -11 24.68 -11 24 C-10.34 24 -9.68 24 -9 24 C-9 23.34 -9 22.68 -9 22 C-8.34 22 -7.68 22 -7 22 C-7 18.7 -7 15.4 -7 12 C-6.01 11.67 -5.02 11.34 -4 11 C-3.67 10.01 -3.34 9.02 -3 8 C-2.34 8 -1.68 8 -1 8 C-0.67 5.36 -0.34 2.72 0 0 Z " fill="#28D7F8" transform="translate(67,76)"/>
<path d="M0 0 C3.41 3.84 4.87 8.38 6.69 13.12 C7.31 14.74 7.93 16.35 8.57 18.01 C10 22 10 22 10 24 C8 24 8 24 6.5 22.56 C5.76 21.79 5.76 21.79 5 21 C4.34 20.67 3.68 20.34 3 20 C2.67 21.65 2.34 23.3 2 25 C1.67 25 1.34 25 1 25 C1 21.7 1 18.4 1 15 C-0.32 15 -1.64 15 -3 15 C-3.03 13.54 -3.05 12.08 -3.06 10.62 C-3.07 9.81 -3.09 9 -3.1 8.16 C-3 6 -3 6 -2 4 C-1.34 4 -0.68 4 0 4 C0 2.68 0 1.36 0 0 Z " fill="#020001" transform="translate(95,129)"/>
<path d="M0 0 C2.97 0.5 2.97 0.5 6 1 C6.26 5.35 5.28 8.86 4 13 C3.67 14.32 3.34 15.64 3 17 C-1.95 17 -6.9 17 -12 17 C-12 16.67 -12 16.34 -12 16 C-8.04 16 -4.08 16 0 16 C0 15.01 0 14.02 0 13 C-1.32 13 -2.64 13 -4 13 C-4.33 9.7 -4.66 6.4 -5 3 C-3.68 2.67 -2.36 2.34 -1 2 C-0.67 1.34 -0.34 0.68 0 0 Z " fill="#17B2FE" transform="translate(104,179)"/>
<path d="M0 0 C0.12 0.63 0.24 1.27 0.37 1.92 C0.81 4.2 0.81 4.2 3.06 5.25 C3.7 5.5 4.34 5.75 5 6 C5 6.66 5 7.32 5 8 C7.31 8 9.62 8 12 8 C12 11.3 12 14.6 12 18 C9.36 18 6.72 18 4 18 C4 15.03 4 12.06 4 9 C2.35 8.67 0.7 8.34 -1 8 C-1 9.98 -1 11.96 -1 14 C-1.66 14 -2.32 14 -3 14 C-3.66 17.3 -4.32 20.6 -5 24 C-5.66 24 -6.32 24 -7 24 C-5.09 15.84 -2.76 7.92 0 0 Z " fill="#000104" transform="translate(164,94)"/>
<path d="M0 0 C1.78 5.35 -1.32 10.42 -3.12 15.56 C-4.3 18.97 -4.3 18.97 -5.51 22.44 C-8.43 30.14 -11.48 37.61 -16.69 44.06 C-17.27 44.8 -17.85 45.53 -18.45 46.29 C-20 48 -20 48 -22 49 C-22 47.35 -22 45.7 -22 44 C-21.34 44 -20.68 44 -20 44 C-20 43.34 -20 42.68 -20 42 C-19.01 42 -18.02 42 -17 42 C-17.21 41.22 -17.41 40.43 -17.62 39.62 C-17.75 38.76 -17.87 37.89 -18 37 C-17.34 36.34 -16.68 35.68 -16 35 C-15.01 35 -14.02 35 -13 35 C-13.5 33.51 -13.5 33.51 -14 32 C-13.34 32 -12.68 32 -12 32 C-11.67 30.35 -11.34 28.7 -11 27 C-10.34 27 -9.68 27 -9 27 C-9.33 25.68 -9.66 24.36 -10 23 C-9.01 23 -8.02 23 -7 23 C-7.33 20.69 -7.66 18.38 -8 16 C-7.01 16 -6.02 16 -5 16 C-5.33 13.03 -5.66 10.06 -6 7 C-5.67 7.99 -5.34 8.98 -5 10 C-4.34 10 -3.68 10 -3 10 C-2.88 9.28 -2.75 8.56 -2.62 7.81 C-2.01 5.04 -1.12 2.6 0 0 Z " fill="#1682E0" transform="translate(202,138)"/>
<path d="M0 0 C0.99 0 1.98 0 3 0 C3.33 4.62 3.66 9.24 4 14 C3.01 14.5 3.01 14.5 2 15 C2.33 15.66 2.66 16.32 3 17 C1.35 17.66 -0.3 18.32 -2 19 C-1.98 20.07 -1.96 21.14 -1.94 22.25 C-1.99 25.15 -2.13 27.29 -3 30 C-3.66 30 -4.32 30 -5 30 C-5 30.66 -5 31.32 -5 32 C-5.66 32 -6.32 32 -7 32 C-7.33 29.69 -7.66 27.38 -8 25 C-7.34 24.67 -6.68 24.34 -6 24 C-5.34 21.47 -5.34 21.47 -5 19 C-4.34 19 -3.68 19 -3 19 C-2.94 18.16 -2.88 17.31 -2.82 16.45 C-2.73 15.35 -2.65 14.25 -2.56 13.12 C-2.48 12.03 -2.4 10.94 -2.32 9.82 C-2 7 -2 7 -1 5 C-0.01 5 0.98 5 2 5 C1.34 3.35 0.68 1.7 0 0 Z " fill="#24D5FC" transform="translate(55,102)"/>
<path d="M0 0 C0.66 1.32 1.32 2.64 2 4 C-1 8 -4 12 -7 16 C-1.06 16.66 4.88 17.32 11 18 C11 18.33 11 18.66 11 19 C4.57 19.1 -1.66 19.15 -8 18 C-8.33 15.69 -8.66 13.38 -9 11 C-9.66 11 -10.32 11 -11 11 C-10.67 9.02 -10.34 7.04 -10 5 C-9.01 5 -8.02 5 -7 5 C-7 4.34 -7 3.68 -7 3 C-6.34 3 -5.68 3 -5 3 C-5 2.34 -5 1.68 -5 1 C-3.35 0.67 -1.7 0.34 0 0 Z " fill="#010714" transform="translate(145,181)"/>
<path d="M0 0 C3.75 1.84 5.5 3.01 7.38 6.75 C7.58 7.49 7.79 8.23 8 9 C6.02 8.01 4.04 7.02 2 6 C2 6.99 2 7.98 2 9 C1.01 9 0.02 9 -1 9 C-1 7.35 -1 5.7 -1 4 C-1.66 4 -2.32 4 -3 4 C-3 3.34 -3 2.68 -3 2 C-4.98 2 -6.96 2 -9 2 C-9 2.66 -9 3.32 -9 4 C-10.38 5.62 -10.38 5.62 -12 7 C-12.66 7 -13.32 7 -14 7 C-14 12.61 -14 18.22 -14 24 C-17.39 18.92 -17.68 15.05 -17 9 C-13.04 1.22 -8.55 -1.33 0 0 Z " fill="#021018" transform="translate(77,93)"/>
<path d="M0 0 C-0.69 2.44 -0.69 2.44 -2 5 C-4.56 5.69 -4.56 5.69 -7 6 C-7.33 6.66 -7.66 7.32 -8 8 C-8.66 8 -9.32 8 -10 8 C-10 8.66 -10 9.32 -10 10 C-10.66 10 -11.32 10 -12 10 C-12 12.31 -12 14.62 -12 17 C-12.99 17 -13.98 17 -15 17 C-15.33 17.99 -15.66 18.98 -16 20 C-16.66 20 -17.32 20 -18 20 C-18 20.99 -18 21.98 -18 23 C-18.66 23 -19.32 23 -20 23 C-20 28.94 -20 34.88 -20 41 C-23.15 34.7 -22.65 28.68 -20.88 21.94 C-17.88 13.01 -12.21 5.45 -3.91 0.84 C-2 0 -2 0 0 0 Z " fill="#44C8C3" transform="translate(61,75)"/>
<path d="M0 0 C0 2.31 0 4.62 0 7 C0.99 7.33 1.98 7.66 3 8 C2.67 9.98 2.34 11.96 2 14 C3.32 14.66 4.64 15.32 6 16 C1.71 16 0.17 13.89 -2.93 11.09 C-6 7.99 -8.54 4.59 -11 1 C-7.29 -0.24 -3.88 0 0 0 Z " fill="#1EC2FE" transform="translate(76,176)"/>
<path d="M0 0 C0.99 0.66 1.98 1.32 3 2 C2.34 2 1.68 2 1 2 C1.02 2.77 1.05 3.54 1.07 4.34 C1.1 5.84 1.1 5.84 1.12 7.38 C1.15 8.37 1.17 9.37 1.2 10.4 C1 13 1 13 -1 15 C-1.3 17.53 -1.5 20.08 -1.62 22.62 C-1.7 24 -1.77 25.37 -1.85 26.79 C-1.9 27.85 -1.95 28.91 -2 30 C-1.34 30 -0.68 30 0 30 C0 31.98 0 33.96 0 36 C-4.22 29.66 -4.22 24.61 -4.12 17.19 C-4.11 15.28 -4.09 13.38 -4.07 11.42 C-4.04 9.23 -4.04 9.23 -4 7 C-3.34 7 -2.68 7 -2 7 C-2 6.01 -2 5.02 -2 4 C-1.34 4 -0.68 4 0 4 C0 2.68 0 1.36 0 0 Z " fill="#38DAE3" transform="translate(45,91)"/>
<path d="M0 0 C0.66 0 1.32 0 2 0 C2 0.66 2 1.32 2 2 C3.32 2.33 4.64 2.66 6 3 C6 3.99 6 4.98 6 6 C5.01 6 4.02 6 3 6 C3 6.66 3 7.32 3 8 C2.34 8 1.68 8 1 8 C1 7.34 1 6.68 1 6 C0.01 6.33 -0.98 6.66 -2 7 C-2.33 7.99 -2.66 8.98 -3 10 C-1.68 10 -0.36 10 1 10 C1 11.98 1 13.96 1 16 C0.34 16 -0.32 16 -1 16 C-1 15.34 -1 14.68 -1 14 C-2.65 13.67 -4.3 13.34 -6 13 C-8.12 6.25 -8.12 6.25 -7 4 C-6.34 4 -5.68 4 -5 4 C-5 4.66 -5 5.32 -5 6 C-4.34 6 -3.68 6 -3 6 C-3 4.68 -3 3.36 -3 2 C-2.01 2 -1.02 2 0 2 C0 1.34 0 0.68 0 0 Z " fill="#1ECFFD" transform="translate(87,82)"/>
<path d="M0 0 C4.22 8.44 1.36 16.15 -1.38 24.75 C-2.31 27.74 -2.31 27.74 -3.27 30.8 C-4.41 34.23 -5.66 37.64 -7 41 C-7.33 41 -7.66 41 -8 41 C-8 39.02 -8 37.04 -8 35 C-7.34 35 -6.68 35 -6 35 C-6 32.69 -6 30.38 -6 28 C-5.34 28 -4.68 28 -4 28 C-4.14 26.4 -4.29 24.79 -4.44 23.19 C-4.52 22.29 -4.6 21.4 -4.68 20.48 C-4.93 17.87 -4.93 17.87 -6 15 C-4.35 15 -2.7 15 -1 15 C-0.67 10.05 -0.34 5.1 0 0 Z " fill="#1782DA" transform="translate(215,84)"/>
<path d="M0 0 C7.71 1.61 13.89 6.08 19 12 C20.25 14.75 20.25 14.75 21 17 C18.69 16.34 16.38 15.68 14 15 C14 14.01 14 13.02 14 12 C13.34 11.67 12.68 11.34 12 11 C11.67 10.34 11.34 9.68 11 9 C10.34 9 9.68 9 9 9 C8.67 8.01 8.34 7.02 8 6 C5.03 5.5 5.03 5.5 2 5 C2.33 4.01 2.66 3.02 3 2 C-4.26 2 -11.52 2 -19 2 C-13.48 -1.68 -6.42 -0.48 0 0 Z " fill="#36BDDF" transform="translate(80,73)"/>
<path d="M0 0 C1.24 0.02 1.24 0.02 2.5 0.04 C3.32 0.04 4.15 0.05 5 0.06 C5.64 0.07 6.28 0.09 6.93 0.1 C5.61 0.43 4.29 0.76 2.93 1.1 C2.93 2.75 2.93 4.4 2.93 6.1 C1.94 6.43 0.95 6.76 -0.07 7.1 C0.26 10.4 0.59 13.7 0.93 17.1 C-2.07 19.1 -2.07 19.1 -6.07 19.1 C-6.07 17.45 -6.07 15.8 -6.07 14.1 C-5.08 13.77 -4.09 13.44 -3.07 13.1 C-3.08 12.24 -3.09 11.39 -3.1 10.51 C-3.12 8.85 -3.12 8.85 -3.13 7.16 C-3.14 6.06 -3.15 4.96 -3.16 3.82 C-3.03 0.14 -3.03 0.14 0 0 Z " fill="#26D6FB" transform="translate(71.06640625,73.90234375)"/>
<path d="M0 0 C0.33 0.66 0.66 1.32 1 2 C0.67 2.99 0.34 3.98 0 5 C-0.66 5 -1.32 5 -2 5 C-2 5.66 -2 6.32 -2 7 C-1.34 7.33 -0.68 7.66 0 8 C0 10.31 0 12.62 0 15 C-0.66 15 -1.32 15 -2 15 C-2 14.34 -2 13.68 -2 13 C-2.66 13 -3.32 13 -4 13 C-4 12.34 -4 11.68 -4 11 C-4.99 11 -5.98 11 -7 11 C-7 11.66 -7 12.32 -7 13 C-10.96 13 -14.92 13 -19 13 C-16.71 11.47 -14.78 10.42 -12.31 9.31 C-7.53 6.98 -3.84 3.64 0 0 Z " fill="#020001" transform="translate(182,185)"/>
<path d="M0 0 C0.66 0.33 1.32 0.66 2 1 C-1.76 7.32 -6.69 12.94 -14 15 C-15.52 15.06 -15.52 15.06 -17.06 15.12 C-20.07 15.69 -20.07 15.69 -21.27 17.84 C-22.28 19.87 -23.18 21.89 -24 24 C-25.06 20.34 -24.91 17.73 -24 14 C-21.13 12.57 -18.27 12.72 -15.09 12.57 C-12.8 12.2 -12.8 12.2 -11.72 9.96 C-11.48 9.31 -11.24 8.67 -11 8 C-9.68 8.66 -8.36 9.32 -7 10 C-6.75 9.2 -6.5 8.39 -6.25 7.56 C-5 5 -5 5 -2.88 4.19 C-2.26 4.13 -1.64 4.06 -1 4 C-0.67 2.68 -0.34 1.36 0 0 Z " fill="#000A1D" transform="translate(172,160)"/>
<path d="M0 0 C0.66 0 1.32 0 2 0 C1.72 2.31 1.43 4.63 1.12 6.94 C0.96 8.23 0.8 9.51 0.63 10.84 C0.42 11.88 0.22 12.93 0 14 C-0.99 14.5 -0.99 14.5 -2 15 C-2.66 17.53 -2.66 17.53 -3 20 C-3.66 20 -4.32 20 -5 20 C-4.67 20.74 -4.34 21.49 -4 22.25 C-3 25 -3 25 -3 29 C-2.34 29.33 -1.68 29.66 -1 30 C-1 31.32 -1 32.64 -1 34 C-0.34 34.33 0.32 34.66 1 35 C1 36.98 1 38.96 1 41 C-1.23 37.65 -2.61 34.35 -4.12 30.62 C-4.66 29.32 -5.2 28.01 -5.76 26.66 C-6.85 23.44 -7.3 21.34 -7 18 C-6.01 18 -5.02 18 -4 18 C-4 16.02 -4 14.04 -4 12 C-3.34 12 -2.68 12 -2 12 C-1.94 11.3 -1.88 10.6 -1.82 9.88 C-1.73 8.97 -1.65 8.06 -1.56 7.12 C-1.48 6.22 -1.4 5.32 -1.32 4.38 C-1 2 -1 2 0 0 Z " fill="#26D8F6" transform="translate(52,107)"/>
<path d="M0 0 C0.33 1.32 0.66 2.64 1 4 C0.34 4 -0.32 4 -1 4 C-1 5.65 -1 7.3 -1 9 C-2.32 9 -3.64 9 -5 9 C-4.67 11.97 -4.34 14.94 -4 18 C-5.65 18 -7.3 18 -9 18 C-9 17.34 -9 16.68 -9 16 C-9.99 16 -10.98 16 -12 16 C-12 16.66 -12 17.32 -12 18 C-13.32 18 -14.64 18 -16 18 C-16.33 18.66 -16.66 19.32 -17 20 C-17.66 19.34 -18.32 18.68 -19 18 C-18.43 17.65 -17.86 17.3 -17.28 16.93 C-10.22 12.42 -3.91 7.59 0 0 Z " fill="#00070F" transform="translate(136,175)"/>
<path d="M0 0 C1.32 0.66 2.64 1.32 4 2 C4 1.34 4 0.68 4 0 C4.66 0 5.32 0 6 0 C6 2.64 6 5.28 6 8 C7.32 7.67 8.64 7.34 10 7 C10 7.66 10 8.32 10 9 C11.32 9.33 12.64 9.66 14 10 C14 10.66 14 11.32 14 12 C13.34 12 12.68 12 12 12 C11.67 12.99 11.34 13.98 11 15 C10.65 14.56 10.29 14.13 9.93 13.68 C4.6 7.72 -1.7 5 -9 2 C-9 1.67 -9 1.34 -9 1 C-6.69 1 -4.38 1 -2 1 C-2 1.66 -2 2.32 -2 3 C-1.34 3 -0.68 3 0 3 C0 2.01 0 1.02 0 0 Z " fill="#000A15" transform="translate(198,56)"/>
<path d="M0 0 C0.33 0 0.66 0 1 0 C1.27 1.09 1.54 2.19 1.81 3.31 C2.92 6.76 3.42 7.75 6 10 C6.33 10.99 6.66 11.98 7 13 C7.66 13.33 8.32 13.66 9 14 C9 14.66 9 15.32 9 16 C6.36 16 3.72 16 1 16 C1 15.34 1 14.68 1 14 C0.01 13.67 -0.98 13.34 -2 13 C-1.34 12.67 -0.68 12.34 0 12 C-0.5 11.46 -0.99 10.93 -1.5 10.38 C-3.37 7.41 -3.24 5.45 -3 2 C-2.34 2 -1.68 2 -1 2 C-0.67 1.34 -0.34 0.68 0 0 Z " fill="#2688FD" transform="translate(155,181)"/>
<path d="M0 0 C0.66 0.33 1.32 0.66 2 1 C2.39 3.32 2.72 5.66 3 8 C3.33 8.99 3.66 9.98 4 11 C3.01 11 2.02 11 1 11 C1 11.99 1 12.98 1 14 C0.01 14 -0.98 14 -2 14 C-2.27 14.6 -2.54 15.2 -2.81 15.81 C-4.01 18.02 -5.04 19.44 -7 21 C-7.99 21 -8.98 21 -10 21 C-9.67 20.01 -9.34 19.02 -9 18 C-8.34 18.33 -7.68 18.66 -7 19 C-7.14 18.13 -7.29 17.27 -7.44 16.38 C-7 13 -7 13 -5.44 11.51 C-4.8 11.03 -4.16 10.56 -3.5 10.06 C-1.55 8.66 -1.55 8.66 0 7 C0.59 3.25 0.59 3.25 0 0 Z " fill="#1DBCFD" transform="translate(111,119)"/>
<path d="M0 0 C0.33 0 0.66 0 1 0 C1 3.96 1 7.92 1 12 C1.66 12 2.32 12 3 12 C3 15 3 15 1.62 16.69 C0 18 0 18 -2 18 C-2 18.66 -2 19.32 -2 20 C-2.66 20 -3.32 20 -4 20 C-4.33 20.66 -4.66 21.32 -5 22 C-5.66 22 -6.32 22 -7 22 C-4.84 14.61 -2.47 7.3 0 0 Z " fill="#1DA7ED" transform="translate(128,140)"/>
<path d="M0 0 C3.11 4.66 4.71 9.83 6.69 15.06 C7.52 17.24 8.35 19.42 9.2 21.66 C9.79 23.42 10.39 25.18 11 27 C10.67 27.66 10.34 28.32 10 29 C7.3 26.13 6.05 24.69 5.75 20.69 C5.83 19.8 5.92 18.91 6 18 C4.35 17.67 2.7 17.34 1 17 C1 14.03 1 11.06 1 8 C0.67 8 0.34 8 0 8 C0 5.36 0 2.72 0 0 Z " fill="#29BFEC" transform="translate(65,125)"/>
<path d="M0 0 C1.98 0 3.96 0 6 0 C5.01 0.33 4.02 0.66 3 1 C3.01 1.63 3.02 2.25 3.04 2.9 C3.04 3.72 3.05 4.53 3.06 5.38 C3.07 6.19 3.09 7 3.1 7.84 C3 10 3 10 2 12 C2.66 12 3.32 12 4 12 C4 16.29 4 20.58 4 25 C3.34 25.33 2.68 25.66 2 26 C2.07 24.91 2.07 24.91 2.14 23.8 C2.37 17.67 2.37 13.73 -2 9 C-4.6 7.14 -4.6 7.14 -7 6 C-4.92 5.45 -3.16 5 -1 5 C-0.67 3.35 -0.34 1.7 0 0 Z " fill="#1993E8" transform="translate(193,72)"/>
<path d="M0 0 C3.12 2 3.12 2 5 4 C2.69 4 0.38 4 -2 4 C-2.33 4.66 -2.66 5.32 -3 6 C-4.65 5.67 -6.3 5.34 -8 5 C-7.67 4.01 -7.34 3.02 -7 2 C-7.99 2.66 -8.98 3.32 -10 4 C-10 4.99 -10 5.98 -10 7 C-11.98 6.34 -13.96 5.68 -16 5 C-10.93 -0.24 -7.22 -0.87 0 0 Z " fill="#011324" transform="translate(186,77)"/>
<path d="M0 0 C0.33 0 0.66 0 1 0 C1 3.3 1 6.6 1 10 C0.34 10 -0.32 10 -1 10 C-0.01 11.49 -0.01 11.49 1 13 C0.67 13.99 0.34 14.98 0 16 C-0.33 15.67 -0.66 15.34 -1 15 C-3.09 17.99 -3.99 19.9 -4.44 23.56 C-5.07 27.44 -6 28.58 -9 31 C-10 29 -10 29 -8.93 25.76 C-8.39 24.42 -7.86 23.07 -7.31 21.69 C-4.55 14.54 -2.14 7.36 0 0 Z " fill="#011224" transform="translate(150,138)"/>
<path d="M0 0 C2.54 3.81 4.39 7.86 6.37 11.99 C7.98 14.97 9.81 17.43 12 20 C8.25 21.12 8.25 21.12 6 20 C6.33 18.68 6.66 17.36 7 16 C4.69 16.66 2.38 17.32 0 18 C0 17.01 0 16.02 0 15 C0.99 15 1.98 15 3 15 C2.67 14.01 2.34 13.02 2 12 C1.34 12 0.68 12 0 12 C0 8.04 0 4.08 0 0 Z " fill="#25BAEE" transform="translate(76,154)"/>
<path d="M0 0 C0.99 0.5 0.99 0.5 2 1 C2 1.99 2 2.98 2 4 C3.32 3.67 4.64 3.34 6 3 C6 3.99 6 4.98 6 6 C5.34 6 4.68 6 4 6 C4 6.66 4 7.32 4 8 C7.12 6.69 7.12 6.69 9 4 C9.99 3.67 10.98 3.34 12 3 C12.66 2.01 13.32 1.02 14 0 C14.66 0 15.32 0 16 0 C16.36 4.46 16.36 4.46 14.88 6.69 C11.08 9.34 7.57 10 3 10 C0 3.38 0 3.38 0 0 Z " fill="#2CAAFC" transform="translate(99,136)"/>
<path d="M0 0 C1.65 0.33 3.3 0.66 5 1 C3.97 6.45 2.75 11.12 0 16 C-1.69 14.5 -1.69 14.5 -3 12 C-2.35 9.17 -1.24 6.62 0 4 C-0.66 4 -1.32 4 -2 4 C-1.34 2.68 -0.68 1.36 0 0 Z " fill="#128AF0" transform="translate(202,124)"/>
<path d="M0 0 C1 2 1 2 0.5 4.44 C-0.24 7.1 -0.24 7.1 1 10 C5.95 10.33 10.9 10.66 16 11 C16 11.33 16 11.66 16 12 C13.48 12.05 10.96 12.09 8.44 12.12 C7.03 12.15 5.63 12.17 4.18 12.2 C0.13 12.01 -3.16 11.28 -7 10 C-5.33 6.06 -2.77 3.21 0 0 Z " fill="#427ADD" transform="translate(145,187)"/>
<path d="M0 0 C0.99 0 1.98 0 3 0 C4.04 1.64 5.04 3.31 6 5 C6.99 5.66 7.98 6.32 9 7 C9 7.66 9 8.32 9 9 C8.34 9 7.68 9 7 9 C7 10.65 7 12.3 7 14 C3.99 11.15 1.74 8.76 0 5 C-0.66 4.67 -1.32 4.34 -2 4 C-1.34 2.68 -0.68 1.36 0 0 Z " fill="#1293FC" transform="translate(159,175)"/>
<path d="M0 0 C0.99 0.5 0.99 0.5 2 1 C2 1.99 2 2.98 2 4 C2.99 4 3.98 4 5 4 C5.66 6.31 6.32 8.62 7 11 C8.32 11.33 9.64 11.66 11 12 C10.67 14.97 10.34 17.94 10 21 C9.01 20.67 8.02 20.34 7 20 C5.65 17.07 4.44 14.08 3.31 11.06 C2.69 9.42 2.07 7.79 1.43 6.1 C0 2 0 2 0 0 Z " fill="#22BCF4" transform="translate(91,116)"/>
<path d="M0 0 C0.99 0 1.98 0 3 0 C3.33 3.3 3.66 6.6 4 10 C3.01 10.33 2.02 10.66 1 11 C0.67 13.31 0.34 15.62 0 18 C-0.99 18 -1.98 18 -3 18 C-2.86 16.21 -2.71 14.42 -2.56 12.62 C-2.44 11.13 -2.44 11.13 -2.32 9.6 C-2 7 -2 7 -1 5 C-0.01 5 0.98 5 2 5 C1.34 3.35 0.68 1.7 0 0 Z " fill="#25D7F8" transform="translate(55,102)"/>
<path d="M0 0 C1.45 5.79 -0.58 9.63 -2.44 15.25 C-3.1 17.26 -3.75 19.26 -4.43 21.33 C-4.95 22.87 -5.47 24.41 -6 26 C-6.33 26 -6.66 26 -7 26 C-7 23.03 -7 20.06 -7 17 C-6.34 17 -5.68 17 -5 17 C-5 16.31 -5 15.63 -5 14.92 C-5 11.28 -5 7.64 -5 4 C-3.68 4.66 -2.36 5.32 -1 6 C-0.67 4.02 -0.34 2.04 0 0 Z " fill="#209DE7" transform="translate(152,128)"/>
<path d="M0 0 C0.66 0 1.32 0 2 0 C0.78 10.82 -3.28 20.83 -7 31 C-7.33 31 -7.66 31 -8 31 C-7.58 26.43 -6.54 22.52 -5 18.19 C-3.32 13.38 -2.49 9.04 -2.27 3.96 C-2 2 -2 2 0 0 Z " fill="#01132C" transform="translate(185,121)"/>
<path d="M0 0 C0.33 0 0.66 0 1 0 C1 2.64 1 5.28 1 8 C0.34 8 -0.32 8 -1 8 C-0.67 10.31 -0.34 12.62 0 15 C-0.99 15 -1.98 15 -3 15 C-3 18.3 -3 21.6 -3 25 C-4.32 25.33 -5.64 25.66 -7 26 C-6.39 20.67 -5.14 15.85 -3.5 10.75 C-3.06 9.36 -2.61 7.98 -2.16 6.55 C-1.44 4.36 -0.73 2.18 0 0 Z " fill="#1C87DA" transform="translate(188,118)"/>
<path d="M0 0 C2.02 0.6 4.02 1.27 6 2 C6.33 2.66 6.66 3.32 7 4 C7.33 2.68 7.66 1.36 8 0 C9.5 1.38 9.5 1.38 11 3 C11 3.66 11 4.32 11 5 C10.01 5 9.02 5 8 5 C8 5.66 8 6.32 8 7 C8.99 7 9.98 7 11 7 C10.67 8.65 10.34 10.3 10 12 C10.66 12 11.32 12 12 12 C12 13.98 12 15.96 12 18 C10.28 15.41 8.7 12.8 7.12 10.12 C4.97 6.52 2.76 3.18 0 0 Z " fill="#00070D" transform="translate(93,79)"/>
<path d="M0 0 C0.33 0 0.66 0 1 0 C1.12 7.62 1.12 7.62 0 11 C-1.03 14.06 -1.03 14.06 0 17 C-1.32 17 -2.64 17 -4 17 C-6.25 18.92 -6.25 18.92 -8 21 C-8 17.3 -6.84 15.45 -5.12 12.19 C-3.02 8.19 -1.33 4.32 0 0 Z " fill="#000A19" transform="translate(196,159)"/>
<path d="M0 0 C0.33 0 0.66 0 1 0 C1.29 0.89 1.58 1.77 1.88 2.69 C2.57 4.73 3.31 6.75 4.12 8.75 C5 11 5 11 5 13 C3.35 12.67 1.7 12.34 0 12 C0 11.34 0 10.68 0 10 C-1.65 9.67 -3.3 9.34 -5 9 C-4.67 6.69 -4.34 4.38 -4 2 C-2.29 3.63 -1.07 4.87 0 7 C0 4.69 0 2.38 0 0 Z " fill="#2B87FB" transform="translate(151,184)"/>
<path d="M0 0 C0.33 0 0.66 0 1 0 C1.12 0.78 1.25 1.57 1.38 2.38 C1.79 5.14 1.79 5.14 4 7 C4 7.99 4 8.98 4 10 C4.66 10 5.32 10 6 10 C6 10.66 6 11.32 6 12 C4.72 12.08 3.44 12.16 2.12 12.25 C-0.05 12.46 -0.05 12.46 -2 13 C-3.59 14.92 -3.59 14.92 -4 17 C-5 15 -5 15 -4 11.52 C-3.53 10.15 -3.05 8.79 -2.56 7.38 C-1.85 5.31 -1.85 5.31 -1.13 3.21 C-0.76 2.15 -0.38 1.09 0 0 Z " fill="#000919" transform="translate(210,116)"/>
<path d="M0 0 C1.32 0.33 2.64 0.66 4 1 C3.34 3.64 2.68 6.28 2 9 C1.34 9 0.68 9 0 9 C-0.33 10.32 -0.66 11.64 -1 13 C-1.99 13 -2.98 13 -4 13 C-4 10.36 -4 7.72 -4 5 C-2.68 5 -1.36 5 0 5 C0 3.35 0 1.7 0 0 Z " fill="#29DBF4" transform="translate(64,75)"/>
<path d="M0 0 C0.66 0 1.32 0 2 0 C2 0.66 2 1.32 2 2 C4.97 2.33 7.94 2.66 11 3 C7.46 5.92 3.84 8.5 0 11 C-1.12 3.38 -1.12 3.38 0 0 Z " fill="#000304" transform="translate(48,72)"/>
<path d="M0 0 C0.99 0 1.98 0 3 0 C3 1.32 3 2.64 3 4 C3.66 4 4.32 4 5 4 C4.71 4.57 4.43 5.14 4.13 5.72 C0.15 13.55 0.15 13.55 -2 22 C-2.33 22 -2.66 22 -3 22 C-3 19.03 -3 16.06 -3 13 C-2.34 13 -1.68 13 -1 13 C-1.21 12.07 -1.41 11.14 -1.62 10.19 C-2 7 -2 7 0 4 C0.66 4 1.32 4 2 4 C2 3.34 2 2.68 2 2 C1.34 2 0.68 2 0 2 C0 1.34 0 0.68 0 0 Z " fill="#00100C" transform="translate(42,80)"/>
<path d="M0 0 C0.99 0.33 1.98 0.66 3 1 C1.6 7.06 -1.93 11.44 -6 16 C-6.66 16.33 -7.32 16.66 -8 17 C-8 15.35 -8 13.7 -8 12 C-7.34 12 -6.68 12 -6 12 C-6 11.34 -6 10.68 -6 10 C-5.01 10 -4.02 10 -3 10 C-3.31 8.82 -3.31 8.82 -3.62 7.62 C-3.75 6.76 -3.87 5.89 -4 5 C-3.34 4.34 -2.68 3.68 -2 3 C-1.01 3 -0.02 3 1 3 C0.67 2.01 0.34 1.02 0 0 Z " fill="#1484E9" transform="translate(188,170)"/>
<path d="M0 0 C0.66 0 1.32 0 2 0 C2 0.66 2 1.32 2 2 C4.64 2 7.28 2 10 2 C10 2.66 10 3.32 10 4 C9.36 4.09 8.72 4.17 8.06 4.26 C1.74 5.29 -2.06 6.92 -7 11 C-7.5 8.53 -7.5 8.53 -8 6 C-7.34 6 -6.68 6 -6 6 C-5.67 5.34 -5.34 4.68 -5 4 C-3.35 4 -1.7 4 0 4 C0 2.68 0 1.36 0 0 Z " fill="#1FA1E6" transform="translate(174,73)"/>
<path d="M0 0 C0.99 0.33 1.98 0.66 3 1 C3 1.66 3 2.32 3 3 C2.34 3 1.68 3 1 3 C-1.22 6.33 -1.05 9.12 -0.94 13.03 C-1.02 15.65 -1.84 17.67 -3 20 C-4.13 16.39 -4.1 13.02 -4.06 9.25 C-4.05 8.08 -4.04 6.91 -4.04 5.7 C-4.02 4.81 -4.01 3.92 -4 3 C-3.34 3 -2.68 3 -2 3 C-2 2.34 -2 1.68 -2 1 C-1.34 0.67 -0.68 0.34 0 0 Z " fill="#18AAFC" transform="translate(164,82)"/>
<path d="M0 0 C0.66 0 1.32 0 2 0 C2 2.31 2 4.62 2 7 C0.68 7.33 -0.64 7.66 -2 8 C-2 9.32 -2 10.64 -2 12 C-2.99 12 -3.98 12 -5 12 C-6.12 7.25 -6.12 7.25 -5 5 C-4.34 5 -3.68 5 -3 5 C-3 4.34 -3 3.68 -3 3 C-2.34 3 -1.68 3 -1 3 C-0.67 2.01 -0.34 1.02 0 0 Z " fill="#34E3E9" transform="translate(54,80)"/>
<path d="M0 0 C-2.43 2.95 -4.32 3.32 -8 4 C-8.33 4.66 -8.66 5.32 -9 6 C-10.32 6 -11.64 6 -13 6 C-13 5.34 -13 4.68 -13 4 C-16.3 3.67 -19.6 3.34 -23 3 C-23 2.67 -23 2.34 -23 2 C-21.61 1.93 -21.61 1.93 -20.18 1.85 C-15.32 1.56 -4.03 -2.02 0 0 Z " fill="#001327" transform="translate(117,195)"/>
<path d="M0 0 C0.33 0 0.66 0 1 0 C1.18 5.22 0.97 9.07 -1 14 C-1.66 14 -2.32 14 -3 14 C-2.91 15.58 -2.91 15.58 -2.81 17.19 C-3.01 21.16 -3.7 22.84 -6 26 C-7.55 22.9 -6.23 20.76 -5.25 17.5 C-4.88 16.25 -4.51 15 -4.12 13.71 C-3.75 12.49 -3.38 11.26 -3 10 C-2.69 8.96 -2.38 7.92 -2.06 6.85 C-1.38 4.57 -0.69 2.28 0 0 Z " fill="#259CD6" transform="translate(136,114)"/>
<path d="M0 0 C0.33 1.32 0.66 2.64 1 4 C0.34 4 -0.32 4 -1 4 C-1 6.31 -1 8.62 -1 11 C-0.36 11.12 0.28 11.25 0.94 11.38 C1.62 11.58 2.3 11.79 3 12 C3.33 12.66 3.66 13.32 4 14 C6.59 14.47 6.59 14.47 9.56 14.62 C10.57 14.7 11.59 14.77 12.63 14.85 C13.8 14.93 13.8 14.93 15 15 C15 15.33 15 15.66 15 16 C12.73 16.03 10.46 16.05 8.19 16.06 C6.29 16.08 6.29 16.08 4.36 16.1 C1 16 1 16 -2 15 C-3.27 13.23 -3.27 13.23 -4 11 C-3.57 8.71 -3.57 8.71 -2.69 6.38 C-2.4 5.6 -2.12 4.82 -1.82 4.02 C-1 2 -1 2 0 0 Z " fill="#3682EE" transform="translate(148,182)"/>
<path d="M0 0 C0.33 1.32 0.66 2.64 1 4 C1.99 4.33 2.98 4.66 4 5 C4 5.66 4 6.32 4 7 C4.66 7 5.32 7 6 7 C6 6.34 6 5.68 6 5 C6.66 5 7.32 5 8 5 C8 6.32 8 7.64 8 9 C5.03 9 2.06 9 -1 9 C-1 9.66 -1 10.32 -1 11 C-1.66 11 -2.32 11 -3 11 C-2.01 7.37 -1.02 3.74 0 0 Z " fill="#000002" transform="translate(200,147)"/>
<path d="M0 0 C0.68 0.32 1.37 0.63 2.07 0.96 C5.4 2.14 8.3 2.41 11.81 2.62 C13.55 2.74 13.55 2.74 15.33 2.85 C16.21 2.9 17.09 2.95 18 3 C16 5 16 5 12.88 5.16 C11.64 5.13 10.4 5.1 9.12 5.06 C3.48 4.88 3.48 4.88 -2 6 C-1.34 4.02 -0.68 2.04 0 0 Z " fill="#28AAE2" transform="translate(88,174)"/>
<path d="M0 0 C2.08 3.13 3.29 6.06 4.62 9.56 C5.07 10.72 5.52 11.88 5.98 13.07 C7 16 7 16 7 18 C6.34 18 5.68 18 5 18 C4.34 18.99 3.68 19.98 3 21 C2.16 16.98 1.95 13.98 3 10 C2.34 10 1.68 10 1 10 C0.67 6.7 0.34 3.4 0 0 Z " fill="#000D14" transform="translate(48,137)"/>
<path d="M0 0 C0.66 0.33 1.32 0.66 2 1 C0.87 3.88 -0.08 5.06 -2.56 7 C-5.08 9.07 -5.66 9.85 -6 13 C-6.66 13 -7.32 13 -8 13 C-8.12 13.91 -8.25 14.81 -8.38 15.75 C-8.92 18.59 -9.57 20.53 -11 23 C-12 21 -12 21 -11.25 18.24 C-8.54 10.93 -5.67 5.41 0 0 Z " fill="#299CD5" transform="translate(157,65)"/>
<path d="M0 0 C0.66 0 1.32 0 2 0 C0.26 8.27 -1.89 16.13 -5 24 C-5.33 24 -5.66 24 -6 24 C-6 21.69 -6 19.38 -6 17 C-5.34 17 -4.68 17 -4 17 C-3.34 12.71 -2.68 8.42 -2 4 C-2.66 3.67 -3.32 3.34 -4 3 C-3.01 2.67 -2.02 2.34 -1 2 C-0.67 1.34 -0.34 0.68 0 0 Z " fill="#259ADB" transform="translate(165,85)"/>
<path d="M0 0 C3.96 0 7.92 0 12 0 C11.67 0.66 11.34 1.32 11 2 C17.27 2 23.54 2 30 2 C25.33 4.33 22.44 4.3 17.25 4.31 C15.71 4.33 14.17 4.35 12.58 4.36 C7.86 3.99 4.32 2.87 0 1 C0 0.67 0 0.34 0 0 Z " fill="#2D9DD3" transform="translate(82,193)"/>
<path d="M0 0 C-0.69 2.44 -0.69 2.44 -2 5 C-4.56 5.69 -4.56 5.69 -7 6 C-7.33 6.66 -7.66 7.32 -8 8 C-8.66 8 -9.32 8 -10 8 C-10 8.66 -10 9.32 -10 10 C-11.32 10.33 -12.64 10.66 -14 11 C-12.59 7.6 -10.98 5.94 -8 3.81 C-7.3 3.3 -6.6 2.79 -5.88 2.27 C-2.52 0 -2.52 0 0 0 Z " fill="#45C7C7" transform="translate(61,75)"/>
<path d="M0 0 C1.07 3.68 0.72 6.23 0 10 C0 10.99 0 11.98 0 13 C-0.99 13.5 -0.99 13.5 -2 14 C-2.91 16.11 -2.91 16.11 -3.62 18.56 C-4.02 19.8 -4.02 19.8 -4.41 21.07 C-4.61 21.7 -4.8 22.34 -5 23 C-5.66 23 -6.32 23 -7 23 C-4.98 15.22 -2.61 7.6 0 0 Z " fill="#299ED8" transform="translate(144,90)"/>
<path d="M0 0 C0.33 1.32 0.66 2.64 1 4 C0.34 4 -0.32 4 -1 4 C-1 5.65 -1 7.3 -1 9 C-2.32 9 -3.64 9 -5 9 C-5.08 9.62 -5.16 10.24 -5.25 10.88 C-6 13 -6 13 -7.94 14.31 C-8.96 14.65 -8.96 14.65 -10 15 C-10.66 14.67 -11.32 14.34 -12 14 C-11.39 13.41 -10.77 12.82 -10.14 12.21 C-9.33 11.42 -8.52 10.63 -7.69 9.81 C-6.89 9.04 -6.09 8.26 -5.26 7.46 C-3.09 5.1 -1.54 2.8 0 0 Z " fill="#011324" transform="translate(136,175)"/>
<path d="M0 0 C0.33 0 0.66 0 1 0 C1 1.65 1 3.3 1 5 C1.99 5 2.98 5 4 5 C4 7.31 4 9.62 4 12 C3.34 12 2.68 12 2 12 C2 11.01 2 10.02 2 9 C0.35 10.32 -1.3 11.64 -3 13 C-2.01 8.71 -1.02 4.42 0 0 Z " fill="#000919" transform="translate(204,134)"/>
<path d="M0 0 C2.36 3.55 3.68 7.08 5.19 11.06 C5.74 12.5 6.29 13.93 6.86 15.41 C8 19 8 19 7 21 C3.46 17.95 2.28 15.6 1.25 11.06 C1.01 10.04 0.77 9.02 0.52 7.97 C0.04 5.24 -0.1 2.77 0 0 Z " fill="#2EACDC" transform="translate(105,99)"/>
<path d="M0 0 C0.99 0.66 1.98 1.32 3 2 C2.34 2 1.68 2 1 2 C1.04 3.26 1.08 4.52 1.12 5.81 C1.24 9.29 1.06 9.91 -1 13 C-1.99 13 -2.98 13 -4 13 C-4 11.02 -4 9.04 -4 7 C-3.34 7 -2.68 7 -2 7 C-2 6.01 -2 5.02 -2 4 C-1.34 4 -0.68 4 0 4 C0 2.68 0 1.36 0 0 Z " fill="#36E5E3" transform="translate(45,91)"/>
<path d="M0 0 C3.66 3.36 6.21 6.33 8 11 C7.69 13.38 7.69 13.38 7 15 C6.67 13.68 6.34 12.36 6 11 C5.01 11.33 4.02 11.66 3 12 C2.01 11.34 1.02 10.68 0 10 C0.99 9.01 1.98 8.02 3 7 C2.5 6.22 2.01 5.43 1.5 4.62 C0 2 0 2 0 0 Z " fill="#188CE4" transform="translate(207,69)"/>
<path d="M0 0 C0.33 0 0.66 0 1 0 C1.27 1.09 1.54 2.19 1.81 3.31 C2.92 6.76 3.42 7.75 6 10 C6.33 10.99 6.66 11.98 7 13 C7.66 13.33 8.32 13.66 9 14 C9 14.66 9 15.32 9 16 C7.68 16 6.36 16 5 16 C4.5 13.53 4.5 13.53 4 11 C3.01 10.67 2.02 10.34 1 10 C-0.75 8.75 -0.75 8.75 -2 7 C-1.74 4.33 -1.2 2.4 0 0 Z " fill="#208BFB" transform="translate(155,181)"/>
<path d="M0 0 C1.5 0.01 1.5 0.01 3.04 0.03 C3.81 0.04 4.58 0.05 5.38 0.06 C2.38 2.06 2.38 2.06 -0.56 2.19 C-3.68 2.73 -3.68 2.73 -4.9 4.9 C-5.9 6.93 -6.81 8.95 -7.62 11.06 C-8.68 7.4 -8.54 4.79 -7.62 1.06 C-4.98 -0.26 -2.95 -0.03 0 0 Z " fill="#03142B" transform="translate(155.625,172.9375)"/>
<path d="M0 0 C2.26 2.26 2.97 4.05 4.12 7 C4.48 7.89 4.83 8.77 5.2 9.69 C6 12 6 12 6 14 C4 14 4 14 2.5 12.56 C2 12.05 1.51 11.53 1 11 C0.34 10.67 -0.32 10.34 -1 10 C-0.67 6.7 -0.34 3.4 0 0 Z " fill="#011222" transform="translate(99,139)"/>
<path d="M0 0 C1.42 4.26 0.05 6.76 -1.31 11 C-1.76 12.42 -2.21 13.85 -2.68 15.31 C-4 19 -4 19 -6 22 C-6 20.02 -6 18.04 -6 16 C-5.34 16 -4.68 16 -4 16 C-4 13.69 -4 11.38 -4 9 C-3.34 9 -2.68 9 -2 9 C-2.33 6.69 -2.66 4.38 -3 2 C-2.01 2 -1.02 2 0 2 C0 1.34 0 0.68 0 0 Z " fill="#1A7ED2" transform="translate(213,103)"/>
<path d="M0 0 C1.08 3.37 0.93 4.3 0 8 C-4.95 8 -9.9 8 -15 8 C-15 7.67 -15 7.34 -15 7 C-11.04 7 -7.08 7 -3 7 C-3 5.02 -3 3.04 -3 1 C-2.01 0.67 -1.02 0.34 0 0 Z " fill="#1BB0F9" transform="translate(107,188)"/>
<path d="M0 0 C1.12 3.75 0.73 5.45 -1 9 C-1.99 10.49 -1.99 10.49 -3 12 C-3 13.32 -3 14.64 -3 16 C-3.6 16.1 -4.2 16.21 -4.81 16.31 C-7.28 17.09 -8.32 18.07 -10 20 C-10.66 19.67 -11.32 19.34 -12 19 C-11.55 18.55 -11.11 18.1 -10.64 17.64 C-5.61 12.28 -2.71 6.8 0 0 Z " fill="#1C80CC" transform="translate(177,152)"/>
<path d="M0 0 C1.27 2.53 0.91 3.83 0.56 6.62 C0.05 11.13 -0.08 15.47 0 20 C-3.39 14.91 -3.57 11.05 -3 5 C-1.5 1.88 -1.5 1.88 0 0 Z " fill="#01151C" transform="translate(63,97)"/>
<path d="M0 0 C0 1.65 0 3.3 0 5 C-0.6 5.12 -1.2 5.25 -1.81 5.38 C-4.26 5.95 -4.26 5.95 -7 8 C-7.66 6.35 -8.32 4.7 -9 3 C-5.93 0.27 -4.1 -0.34 0 0 Z " fill="#13ADFE" transform="translate(176,59)"/>
<path d="M0 0 C0.99 0 1.98 0 3 0 C3 0.99 3 1.98 3 3 C2.01 3 1.02 3 0 3 C0 3.99 0 4.98 0 6 C-0.99 6 -1.98 6 -3 6 C-3.27 6.6 -3.54 7.2 -3.81 7.81 C-5.01 10.02 -6.04 11.44 -8 13 C-8.99 13 -9.98 13 -11 13 C-10.67 12.01 -10.34 11.02 -10 10 C-9.38 9.69 -8.77 9.39 -8.13 9.07 C-4.86 7.43 -3.46 4.66 -1.46 1.68 C-0.74 0.85 -0.74 0.85 0 0 Z " fill="#1FB7FD" transform="translate(112,127)"/>
<path d="M0 0 C0.33 0 0.66 0 1 0 C1 2.64 1 5.28 1 8 C0.34 8 -0.32 8 -1 8 C-0.66 9.33 -0.66 9.33 -0.31 10.69 C0.06 14.59 -0.6 15.97 -3 19 C-3.66 19 -4.32 19 -5 19 C-4.36 16.4 -3.71 13.79 -3.06 11.19 C-2.7 9.74 -2.34 8.29 -1.97 6.79 C-1.39 4.51 -0.75 2.24 0 0 Z " fill="#000516" transform="translate(216,97)"/>
<path d="M0 0 C0.66 0 1.32 0 2 0 C0.51 4.91 -2.45 8.4 -6 12 C-6.33 12 -6.66 12 -7 12 C-7 10.02 -7 8.04 -7 6 C-6.34 6 -5.68 6 -5 6 C-4.67 5.01 -4.34 4.02 -4 3 C-2.68 3 -1.36 3 0 3 C0 2.01 0 1.02 0 0 Z " fill="#219BE2" transform="translate(135,173)"/>
<path d="M0 0 C1.41 4.22 0.02 6.53 -1.44 10.69 C-1.91 12.05 -2.38 13.42 -2.87 14.82 C-3.24 15.87 -3.62 16.92 -4 18 C-4.33 18 -4.66 18 -5 18 C-5.33 14.37 -5.66 10.74 -6 7 C-5.67 7.99 -5.34 8.98 -5 10 C-4.34 10 -3.68 10 -3 10 C-2.88 9.28 -2.75 8.56 -2.62 7.81 C-2.01 5.04 -1.12 2.6 0 0 Z " fill="#167DD7" transform="translate(202,138)"/>
<path d="M0 0 C2.38 2.38 3 4.34 4.12 7.5 C4.48 8.48 4.83 9.46 5.2 10.47 C6 13 6 13 6 15 C5.34 15 4.68 15 4 15 C3.67 14.01 3.34 13.02 3 12 C1.68 12 0.36 12 -1 12 C-0.67 11.01 -0.34 10.02 0 9 C0.66 9 1.32 9 2 9 C2 8.34 2 7.68 2 7 C1.34 7 0.68 7 0 7 C0 4.69 0 2.38 0 0 Z " fill="#010E16" transform="translate(89,113)"/>
<path d="M0 0 C0 2.64 0 5.28 0 8 C-1.32 8.33 -2.64 8.66 -4 9 C-4.99 7.68 -5.98 6.36 -7 5 C-1.12 0 -1.12 0 0 0 Z " fill="#0F94FB" transform="translate(172,167)"/>
<path d="M0 0 C4.61 1.32 8.15 3.13 12 6 C12.33 6.66 12.66 7.32 13 8 C11.02 8.33 9.04 8.66 7 9 C7 7.35 7 5.7 7 4 C5.35 4.33 3.7 4.66 2 5 C1.34 3.35 0.68 1.7 0 0 Z " fill="#1E96E5" transform="translate(192,59)"/>
<path d="M0 0 C0.66 0 1.32 0 2 0 C2 0.99 2 1.98 2 3 C2.74 2.65 3.49 2.3 4.25 1.94 C7.21 0.93 8.12 1.12 11 2 C2.74 7.56 2.74 7.56 -2 8 C-2 7.34 -2 6.68 -2 6 C-0.68 6 0.64 6 2 6 C1.34 4.02 0.68 2.04 0 0 Z " fill="#1A83DB" transform="translate(166,189)"/>
<path d="M0 0 C0.66 0 1.32 0 2 0 C1.39 4.86 -0.73 8.74 -3 13 C-5.13 9.81 -5.5 7.73 -6 4 C-4.68 4.99 -3.36 5.98 -2 7 C-2 6.01 -2 5.02 -2 4 C-1.34 4 -0.68 4 0 4 C0 2.68 0 1.36 0 0 Z " fill="#1F9DE7" transform="translate(141,160)"/>
<path d="M0 0 C-0.53 4.51 -2.37 7.35 -5 11 C-5.66 10.67 -6.32 10.34 -7 10 C-7.62 7.44 -7.62 7.44 -8 5 C-7.34 5 -6.68 5 -6 5 C-6 5.99 -6 6.98 -6 8 C-5.34 8 -4.68 8 -4 8 C-4.23 7.24 -4.45 6.47 -4.69 5.69 C-5 3 -5 3 -3.69 1.19 C-2 0 -2 0 0 0 Z " fill="#438DD7" transform="translate(113,147)"/>
<path d="M0 0 C2.62 3.06 3 3.73 3 8 C3.66 8.33 4.32 8.66 5 9 C5 10.32 5 11.64 5 13 C5.66 13.33 6.32 13.66 7 14 C7 15.98 7 17.96 7 20 C4.61 16.42 3.36 12.85 1.88 8.81 C1.34 7.35 0.8 5.9 0.24 4.39 C-0.37 2.71 -0.37 2.71 -1 1 C-0.67 0.67 -0.34 0.34 0 0 Z " fill="#37BFDC" transform="translate(46,128)"/>
<path d="M0 0 C0.33 0 0.66 0 1 0 C1 2.64 1 5.28 1 8 C0.67 8 0.34 8 0 8 C-0.19 9.64 -0.19 9.64 -0.38 11.31 C-1 15 -1 15 -3 18 C-3.66 18 -4.32 18 -5 18 C-1.92 5.33 -1.92 5.33 0 0 Z " fill="#1F84D1" transform="translate(194,99)"/>
<path d="M0 0 C0.66 0 1.32 0 2 0 C0.98 5.47 -0.07 10.76 -2 16 C-2.66 16 -3.32 16 -4 16 C-3.25 9.38 -3.25 9.38 -1 6 C-0.61 4.01 -0.27 2.01 0 0 Z " fill="#011220" transform="translate(129,130)"/>
<path d="M0 0 C0.99 0 1.98 0 3 0 C3 1.32 3 2.64 3 4 C3.99 4.33 4.98 4.66 6 5 C5.22 5.62 4.43 6.24 3.62 6.88 C1.03 8.9 1.03 8.9 -1 11 C-1 9.35 -1 7.7 -1 6 C-0.34 6 0.32 6 1 6 C0.67 4.02 0.34 2.04 0 0 Z " fill="#30CBEC" transform="translate(62,89)"/>
<path d="M0 0 C0.66 0 1.32 0 2 0 C1.44 3.99 0.24 6.53 -2.06 9.81 C-2.88 11 -2.88 11 -3.72 12.21 C-4.35 13.09 -4.35 13.09 -5 14 C-5.66 12.68 -6.32 11.36 -7 10 C-6.34 10 -5.68 10 -5 10 C-4.67 9.01 -4.34 8.02 -4 7 C-3.34 7 -2.68 7 -2 7 C-2 6.01 -2 5.02 -2 4 C-1.34 4 -0.68 4 0 4 C0 2.68 0 1.36 0 0 Z " fill="#001322" transform="translate(121,155)"/>
<path d="M0 0 C0.99 0.5 0.99 0.5 2 1 C2 1.99 2 2.98 2 4 C2.99 4 3.98 4 5 4 C6.18 7.67 6.07 11.17 6 15 C3.62 12.62 3 10.66 1.88 7.5 C1.52 6.52 1.17 5.54 0.8 4.53 C0 2 0 2 0 0 Z " fill="#2DB1DF" transform="translate(91,116)"/>
<path d="M0 0 C0.99 0.33 1.98 0.66 3 1 C2.67 2.98 2.34 4.96 2 7 C3.32 7.66 4.64 8.32 6 9 C2.41 9 1.89 8.34 -0.69 6 C-1.31 5.44 -1.93 4.89 -2.57 4.31 C-3.04 3.88 -3.52 3.45 -4 3 C-2.68 2.67 -1.36 2.34 0 2 C0 1.34 0 0.68 0 0 Z " fill="#29B0E5" transform="translate(76,183)"/>
<path d="M0 0 C0.66 0 1.32 0 2 0 C1.98 0.79 1.95 1.57 1.93 2.38 C1.83 8.35 1.95 13.37 4 19 C2.68 18.34 1.36 17.68 0 17 C0 11.39 0 5.78 0 0 Z " fill="#35BBD9" transform="translate(59,100)"/>
<path d="M0 0 C3.63 0 7.26 0 11 0 C11 1.65 11 3.3 11 5 C10.5 4.69 10.01 4.38 9.5 4.06 C6.02 2.58 2.76 2.38 -1 2 C-0.67 1.34 -0.34 0.68 0 0 Z " fill="#32BADB" transform="translate(70,91)"/>
<path d="M0 0 C3.49 1.16 3.85 1.89 5.69 4.94 C6.34 6 6.34 6 7.01 7.09 C8 9 8 9 8 11 C7.01 11 6.02 11 5 11 C4.16 9.54 3.33 8.09 2.5 6.62 C1.8 5.41 1.8 5.41 1.09 4.16 C0 2 0 2 0 0 Z " fill="#168EFD" transform="translate(160,184)"/>
<path d="M0 0 C3.6 3.49 6.83 7.11 10 11 C9.01 11.5 9.01 11.5 8 12 C8 11.34 8 10.68 8 10 C6.68 9.67 5.36 9.34 4 9 C3.67 7.68 3.34 6.36 3 5 C2.34 5 1.68 5 1 5 C0.5 2.53 0.5 2.53 0 0 Z " fill="#011725" transform="translate(65,178)"/>
<path d="M0 0 C-0.33 0.66 -0.66 1.32 -1 2 C-3 2.67 -5 3.33 -7 4 C-7.33 4.66 -7.66 5.32 -8 6 C-7.34 6.33 -6.68 6.66 -6 7 C-7.65 6.67 -9.3 6.34 -11 6 C-11.33 5.01 -11.66 4.02 -12 3 C-10.38 2.3 -8.75 1.62 -7.12 0.94 C-6.22 0.55 -5.32 0.17 -4.38 -0.22 C-2 -1 -2 -1 0 0 Z " fill="#1D8AE5" transform="translate(165,173)"/>
<path d="M0 0 C1.94 0.38 1.94 0.38 4 1 C5.26 3.52 4.92 4.85 4.56 7.62 C4.46 8.44 4.36 9.26 4.25 10.1 C4.17 10.73 4.09 11.35 4 12 C3.67 12 3.34 12 3 12 C3 9.36 3 6.72 3 4 C2.01 4 1.02 4 0 4 C0 2.68 0 1.36 0 0 Z " fill="#1AA3F3" transform="translate(140,148)"/>
<path d="M0 0 C1.98 0.99 1.98 0.99 4 2 C4 4.64 4 7.28 4 10 C4.66 10.33 5.32 10.66 6 11 C5.34 11.66 4.68 12.32 4 13 C3.33 11.4 2.66 9.79 2 8.19 C1.63 7.29 1.26 6.4 0.88 5.48 C0 3 0 3 0 0 Z " fill="#001017" transform="translate(65,122)"/>
<path d="M0 0 C0.83 2.89 1 4.89 1 8 C0.34 8 -0.32 8 -1 8 C-1.66 11.3 -2.32 14.6 -3 18 C-3.66 18 -4.32 18 -5 18 C-1.92 5.33 -1.92 5.33 0 0 Z " fill="#011A32" transform="translate(162,100)"/>
<path d="M0 0 C0.66 0.99 1.32 1.98 2 3 C0.47 6.44 -1.6 9.12 -4 12 C-3.53 7.22 -2.76 3.96 0 0 Z " fill="#001221" transform="translate(169,82)"/>
<path d="M0 0 C0 0.66 0 1.32 0 2 C-0.62 2.08 -1.24 2.16 -1.88 2.25 C-4.18 2.81 -4.18 2.81 -5.25 5.06 C-5.5 5.7 -5.75 6.34 -6 7 C-6.66 7 -7.32 7 -8 7 C-8.5 4.53 -8.5 4.53 -9 2 C-5.63 0.5 -3.8 0 0 0 Z " fill="#33A2F2" transform="translate(112,144)"/>
<path d="M0 0 C1.59 3.18 2.65 5.88 3.62 9.25 C3.89 10.14 4.15 11.03 4.41 11.95 C4.61 12.63 4.8 13.3 5 14 C3.35 13.67 1.7 13.34 0 13 C0 8.71 0 4.42 0 0 Z " fill="#031C20" transform="translate(39,112)"/>
<path d="M0 0 C1.5 3.88 0.43 6.43 -0.94 10.25 C-1.32 11.33 -1.7 12.41 -2.09 13.52 C-2.39 14.34 -2.69 15.16 -3 16 C-4.17 11.9 -4.07 8.25 -4 4 C-3.01 3.67 -2.02 3.34 -1 3 C-0.67 2.01 -0.34 1.02 0 0 Z " fill="#2699E0" transform="translate(158,109)"/>
<path d="M0 0 C2.97 0 5.94 0 9 0 C9.33 0.66 9.66 1.32 10 2 C10.99 2.33 11.98 2.66 13 3 C13 3.99 13 4.98 13 6 C12.01 5.6 12.01 5.6 11 5.19 C7.35 3.74 3.68 2.37 0 1 C0 0.67 0 0.34 0 0 Z " fill="#021A27" transform="translate(80,73)"/>
<path d="M0 0 C0.33 0.66 0.66 1.32 1 2 C0.53 2.58 0.05 3.16 -0.44 3.75 C-1.95 5.93 -2.54 7.43 -3 10 C-2.01 10.33 -1.02 10.66 0 11 C-2.31 10.67 -4.62 10.34 -7 10 C-5.33 6.06 -2.77 3.21 0 0 Z " fill="#4771C9" transform="translate(145,187)"/>
<path d="M0 0 C2.33 2.12 3.89 4.03 5 7 C4.67 7.99 4.34 8.98 4 10 C4 9.34 4 8.68 4 8 C2.35 7.67 0.7 7.34 -1 7 C-0.67 4.69 -0.34 2.38 0 0 Z " fill="#3684FA" transform="translate(147,186)"/>
<path d="M0 0 C4 5 4 5 8 10 C4.25 11.12 4.25 11.12 2 10 C2 8.02 2 6.04 2 4 C1.34 4 0.68 4 0 4 C0 2.68 0 1.36 0 0 Z " fill="#29AEDF" transform="translate(80,164)"/>
<path d="M0 0 C0.66 0 1.32 0 2 0 C2.33 1.65 2.66 3.3 3 5 C2.01 5.66 1.02 6.32 0 7 C-0.73 9.56 -0.73 9.56 -1 12 C-1.66 12 -2.32 12 -3 12 C-2.01 8.04 -1.02 4.08 0 0 Z " fill="#031124" transform="translate(118,132)"/>
<path d="M0 0 C2.5 2.94 3.47 5.18 4 9 C1.69 8.34 -0.62 7.68 -3 7 C-2.67 6.01 -2.34 5.02 -2 4 C-1.34 4 -0.68 4 0 4 C0 2.68 0 1.36 0 0 Z " fill="#02101C" transform="translate(95,129)"/>
<path d="M0 0 C0.33 0.66 0.66 1.32 1 2 C1.66 2 2.32 2 3 2 C5 4 5 4 5.2 5.95 C5.13 7.96 5.07 9.98 5 12 C1.94 8.25 0 4.92 0 0 Z " fill="#2FBCE7" transform="translate(58,160)"/>
<path d="M0 0 C2.47 0.5 2.47 0.5 5 1 C4.67 2.65 4.34 4.3 4 6 C4.66 6 5.32 6 6 6 C6 7.98 6 9.96 6 12 C0 3 0 3 0 0 Z " fill="#00131D" transform="translate(99,85)"/>
<path d="M0 0 C0 1.32 0 2.64 0 4 C-3.63 4.66 -7.26 5.32 -11 6 C-7.93 2.93 -4.56 0 0 0 Z " fill="#269FE0" transform="translate(171,58)"/>
<path d="M0 0 C1.65 0 3.3 0 5 0 C-2.2 6 -2.2 6 -7 6 C-7 5.34 -7 4.68 -7 4 C-5.68 4 -4.36 4 -3 4 C-3 3.34 -3 2.68 -3 2 C-2.01 2 -1.02 2 0 2 C0 1.34 0 0.68 0 0 Z " fill="#269BDC" transform="translate(119,189)"/>
<path d="M0 0 C0.33 0.66 0.66 1.32 1 2 C0.67 2.99 0.34 3.98 0 5 C-0.66 5 -1.32 5 -2 5 C-2 5.66 -2 6.32 -2 7 C-3.98 7.33 -5.96 7.66 -8 8 C-5.33 5.33 -2.67 2.67 0 0 Z " fill="#000B1E" transform="translate(182,185)"/>
<path d="M0 0 C1.9 2.86 2.69 4.93 3.62 8.19 C3.89 9.09 4.15 9.99 4.41 10.92 C4.61 11.61 4.8 12.29 5 13 C2 11 2 11 0 8 C-0.26 5.31 -0.09 2.71 0 0 Z " fill="#30B3DB" transform="translate(71,141)"/>
<path d="M0 0 C0 2.31 0 4.62 0 7 C-1.32 7.33 -2.64 7.66 -4 8 C-3.74 5.66 -3.41 3.32 -3 1 C-1 0 -1 0 0 0 Z " fill="#168FE7" transform="translate(185,136)"/>
<path d="M0 0 C2.97 0.33 5.94 0.66 9 1 C6.31 3.25 4.35 4.88 1 6 C0.67 4.02 0.34 2.04 0 0 Z " fill="#000D0F" transform="translate(50,74)"/>
<path d="M0 0 C0.66 0 1.32 0 2 0 C2 0.66 2 1.32 2 2 C4.64 2 7.28 2 10 2 C10 2.66 10 3.32 10 4 C6.7 4 3.4 4 0 4 C0 2.68 0 1.36 0 0 Z " fill="#20A1EE" transform="translate(174,73)"/>
<path d="M0 0 C2.31 0.66 4.62 1.32 7 2 C6.67 3.32 6.34 4.64 6 6 C5.01 5.01 4.02 4.02 3 3 C2.01 3.99 1.02 4.98 0 6 C0 4.02 0 2.04 0 0 Z " fill="#1199F7" transform="translate(200,66)"/>
<path d="M0 0 C0.33 1.32 0.66 2.64 1 4 C0.34 4 -0.32 4 -1 4 C-1.12 9.58 -1.12 9.58 0 15 C-0.66 15 -1.32 15 -2 15 C-3.5 12.63 -4.1 11.52 -3.57 8.71 C-3.28 7.94 -2.99 7.17 -2.69 6.38 C-2.4 5.6 -2.12 4.82 -1.82 4.02 C-1 2 -1 2 0 0 Z " fill="#3C80EB" transform="translate(148,182)"/>
<path d="M0 0 C0.66 0 1.32 0 2 0 C2 1.98 2 3.96 2 6 C1.34 6 0.68 6 0 6 C-0.33 6.99 -0.66 7.98 -1 9 C-1.62 5.62 -1.62 5.62 -2 2 C-1.34 1.34 -0.68 0.68 0 0 Z " fill="#098DFA" transform="translate(205,119)"/>
<path d="M0 0 C0.33 0 0.66 0 1 0 C1 4.29 1 8.58 1 13 C-1.68 7.64 -1.68 7.64 -2 5 C-1.06 2.25 -1.06 2.25 0 0 Z " fill="#000704" transform="translate(38,99)"/>
<path d="M0 0 C2.31 0.33 4.62 0.66 7 1 C4.01 2.99 1.4 3.94 -2 5 C-1.34 3.35 -0.68 1.7 0 0 Z " fill="#000D19" transform="translate(165,56)"/>
<path d="M0 0 C1.21 0.03 1.21 0.03 2.44 0.06 C1.12 0.39 -0.2 0.72 -1.56 1.06 C-1.23 4.03 -0.9 7 -0.56 10.06 C-0.89 9.4 -1.22 8.74 -1.56 8.06 C-2.22 8.06 -2.88 8.06 -3.56 8.06 C-3.6 5.73 -3.6 3.4 -3.56 1.06 C-2.56 0.06 -2.56 0.06 0 0 Z " fill="#2C8CED" transform="translate(154.5625,174.9375)"/>
<path d="M0 0 C0.99 0.99 1.98 1.98 3 3 C3.99 2.01 4.98 1.02 6 0 C5.69 2.38 5.69 2.38 5 5 C4.01 5.66 3.02 6.32 2 7 C1.34 6.67 0.68 6.34 0 6 C0 4.02 0 2.04 0 0 Z " fill="#050E1D" transform="translate(105,154)"/>
<path d="M0 0 C0.33 0 0.66 0 1 0 C1.37 7.38 1.37 7.38 -0.5 10.5 C-1 11 -1.49 11.49 -2 12 C-3.16 8.52 -2.77 7.66 -1.56 4.31 C-1.13 3.1 -1.13 3.1 -0.69 1.86 C-0.46 1.25 -0.24 0.63 0 0 Z " fill="#2598D3" transform="translate(128,140)"/>
<path d="M0 0 C0.99 0.5 0.99 0.5 2 1 C2 1.99 2 2.98 2 4 C3.32 3.67 4.64 3.34 6 3 C6 3.99 6 4.98 6 6 C5.34 6 4.68 6 4 6 C3.67 7.32 3.34 8.64 3 10 C0 3.38 0 3.38 0 0 Z " fill="#30A8E1" transform="translate(99,136)"/>
<path d="M0 0 C1.23 0.01 1.23 0.01 2.48 0.03 C3.42 0.04 3.42 0.04 4.38 0.06 C4.05 0.72 3.72 1.38 3.38 2.06 C1.06 1.73 -1.25 1.4 -3.62 1.06 C-3.62 1.72 -3.62 2.38 -3.62 3.06 C-5.12 4.69 -5.12 4.69 -6.62 6.06 C-7.28 5.73 -7.95 5.4 -8.62 5.06 C-6.52 0.4 -5.02 -0.07 0 0 Z " fill="#00090E" transform="translate(71.625,93.9375)"/>
<path d="M0 0 C0.99 0 1.98 0 3 0 C3 1.32 3 2.64 3 4 C3.66 4 4.32 4 5 4 C4.34 5.32 3.68 6.64 3 8 C2.34 8 1.68 8 1 8 C0.67 6.68 0.34 5.36 0 4 C0.66 4 1.32 4 2 4 C2 3.34 2 2.68 2 2 C1.34 2 0.68 2 0 2 C0 1.34 0 0.68 0 0 Z " fill="#010B08" transform="translate(42,80)"/>
<path d="M0 0 C0.99 0 1.98 0 3 0 C2.6 2.89 2.21 3.82 -0.06 5.75 C-0.7 6.16 -1.34 6.57 -2 7 C-2 5.35 -2 3.7 -2 2 C-1.34 2 -0.68 2 0 2 C0 1.34 0 0.68 0 0 Z " fill="#1481E1" transform="translate(182,180)"/>
<path d="M0 0 C0.33 1.32 0.66 2.64 1 4 C1.66 4 2.32 4 3 4 C3.33 5.65 3.66 7.3 4 9 C1.35 6.42 -0.94 4.08 -3 1 C-2.01 0.67 -1.02 0.34 0 0 Z " fill="#2DB4E4" transform="translate(68,176)"/>
<path d="M0 0 C0.66 0.99 1.32 1.98 2 3 C2.99 3 3.98 3 5 3 C5 3.99 5 4.98 5 6 C2.69 6 0.38 6 -2 6 C-1.34 4.02 -0.68 2.04 0 0 Z " fill="#02101B" transform="translate(139,169)"/>
<path d="M0 0 C2.19 3.28 3 6.21 4 10 C2.68 9.67 1.36 9.34 0 9 C0 6.03 0 3.06 0 0 Z " fill="#031A25" transform="translate(55,155)"/>
<path d="M0 0 C0.33 0 0.66 0 1 0 C1.25 7.62 1.25 7.62 -1 11 C-1.66 11 -2.32 11 -3 11 C-2.01 7.37 -1.02 3.74 0 0 Z " fill="#00102A" transform="translate(200,147)"/>
<path d="M0 0 C0.99 0.5 0.99 0.5 2 1 C2 1.99 2 2.98 2 4 C2.66 4 3.32 4 4 4 C4.62 6.38 4.62 6.38 5 9 C4.34 9.66 3.68 10.32 3 11 C2.49 9.73 2 8.46 1.5 7.19 C1.22 6.48 0.94 5.77 0.66 5.04 C0 3 0 3 0 0 Z " fill="#011420" transform="translate(75,149)"/>
<path d="M0 0 C0.99 0.33 1.98 0.66 3 1 C2.01 1.5 2.01 1.5 1 2 C0.88 2.8 0.75 3.61 0.62 4.44 C0 7 0 7 -2.06 8.31 C-3.02 8.65 -3.02 8.65 -4 9 C-4 7.68 -4 6.36 -4 5 C-3.01 5 -2.02 5 -1 5 C-0.67 3.35 -0.34 1.7 0 0 Z " fill="#2AD6F5" transform="translate(49,120)"/>
<path d="M0 0 C0.66 0 1.32 0 2 0 C2.53 1.24 3.05 2.5 3.56 3.75 C3.85 4.45 4.14 5.14 4.44 5.86 C5.08 8.3 4.8 9.64 4 12 C3.33 10.38 2.66 8.75 2 7.12 C1.63 6.22 1.26 5.32 0.88 4.38 C0 2 0 2 0 0 Z " fill="#011425" transform="translate(109,108)"/>
<path d="M0 0 C2 2 2 2 2 6 C1.34 6 0.68 6 0 6 C0 6.66 0 7.32 0 8 C-0.99 8 -1.98 8 -3 8 C-1.12 2.25 -1.12 2.25 0 0 Z " fill="#1BB1F9" transform="translate(148,82)"/>
<path d="M0 0 C4.75 0.88 4.75 0.88 7 2 C7 3.65 7 5.3 7 7 C6.34 6.01 5.68 5.02 5 4 C1.93 3.27 1.93 3.27 -1 3 C-0.67 2.01 -0.34 1.02 0 0 Z " fill="#30C6EF" transform="translate(83,75)"/>
<path d="M0 0 C3.3 0.99 6.6 1.98 10 3 C10 3.33 10 3.66 10 4 C7.36 4 4.72 4 2 4 C1.34 2.68 0.68 1.36 0 0 Z " fill="#000C19" transform="translate(80,193)"/>
<path d="M0 0 C0.33 0 0.66 0 1 0 C1 3.3 1 6.6 1 10 C0.01 10 -0.98 10 -2 10 C-1.46 6.62 -0.89 3.3 0 0 Z " fill="#021529" transform="translate(150,138)"/>
<path d="M0 0 C2.19 3.28 3 6.21 4 10 C2.68 9.67 1.36 9.34 0 9 C0 6.03 0 3.06 0 0 Z " fill="#011620" transform="translate(44,127)"/>
<path d="M0 0 C0.99 0.33 1.98 0.66 3 1 C2 5 2 5 1 9 C0.34 9 -0.32 9 -1 9 C-0.67 6.03 -0.34 3.06 0 0 Z " fill="#2EE0EC" transform="translate(44,107)"/>
<path d="M0 0 C0.33 0 0.66 0 1 0 C1.33 3.3 1.66 6.6 2 10 C0.68 10 -0.64 10 -2 10 C-1.34 6.7 -0.68 3.4 0 0 Z " fill="#1394F4" transform="translate(197,90)"/>
<path d="M0 0 C1.38 1.29 2.71 2.63 4 4 C4 4.66 4 5.32 4 6 C1.69 5.34 -0.62 4.68 -3 4 C-2.67 3.34 -2.34 2.68 -2 2 C-1.34 2.33 -0.68 2.66 0 3 C0 2.01 0 1.02 0 0 Z " fill="#000D1E" transform="translate(191,81)"/>
<path d="M0 0 C1.28 3.03 0.99 4.04 -0.25 7.19 C-2 10 -2 10 -5 11 C-3.55 7.21 -1.85 3.61 0 0 Z " fill="#021838" transform="translate(192,169)"/>
<path d="M0 0 C2.15 2.62 3.4 4.64 4 8 C2 8 2 8 0.31 6.81 C-1 5 -1 5 -0.69 2.31 C-0.35 1.17 -0.35 1.17 0 0 Z " fill="#021826" transform="translate(59,166)"/>
<path d="M0 0 C0.33 1.32 0.66 2.64 1 4 C0.34 4 -0.32 4 -1 4 C-1.33 5.65 -1.66 7.3 -2 9 C-3.32 8.67 -4.64 8.34 -6 8 C-4.02 5.36 -2.04 2.72 0 0 Z " fill="#299DDD" transform="translate(120,162)"/>
<path d="M0 0 C0.33 0.66 0.66 1.32 1 2 C1.99 2.33 2.98 2.66 4 3 C4.69 5.06 4.69 5.06 5 7 C3 7 3 7 1.5 5.56 C1 5.05 0.51 4.53 0 4 C-0.66 3.67 -1.32 3.34 -2 3 C-2 2.34 -2 1.68 -2 1 C-1.34 0.67 -0.68 0.34 0 0 Z " fill="#020C18" transform="translate(100,146)"/>
<path d="M0 0 C1.47 3.81 0.43 6.29 -1 10 C-1.33 10 -1.66 10 -2 10 C-2 7.03 -2 4.06 -2 1 C-1.34 0.67 -0.68 0.34 0 0 Z " fill="#239AE4" transform="translate(147,144)"/>
<path d="M0 0 C0.99 0.33 1.98 0.66 3 1 C3.33 4.3 3.66 7.6 4 11 C1.55 7.33 0 4.45 0 0 Z " fill="#001220" transform="translate(114,120)"/>
<path d="M0 0 C0.33 0 0.66 0 1 0 C1 2.64 1 5.28 1 8 C0.34 8 -0.32 8 -1 8 C-1.33 8.99 -1.66 9.98 -2 11 C-3 9 -3 9 -2.44 6.84 C-2.15 6.02 -1.86 5.21 -1.56 4.38 C-1.13 3.15 -1.13 3.15 -0.69 1.9 C-0.46 1.27 -0.24 0.65 0 0 Z " fill="#021737" transform="translate(216,97)"/>
<path d="M0 0 C0.66 0 1.32 0 2 0 C1.12 5.75 1.12 5.75 0 8 C-0.66 8 -1.32 8 -2 8 C-2 6.35 -2 4.7 -2 3 C-1.34 3 -0.68 3 0 3 C0 2.01 0 1.02 0 0 Z " fill="#37E7DD" transform="translate(43,95)"/>
<path d="M0 0 C1.32 0.33 2.64 0.66 4 1 C4 2.32 4 3.64 4 5 C2.02 4.34 0.04 3.68 -2 3 C-1.34 2.01 -0.68 1.02 0 0 Z " fill="#010915" transform="translate(172,79)"/>
<path d="M0 0 C0.66 0.33 1.32 0.66 2 1 C0 4 0 4 -2.16 4.51 C-2.98 4.57 -3.79 4.63 -4.62 4.69 C-5.85 4.79 -5.85 4.79 -7.1 4.89 C-7.73 4.92 -8.35 4.96 -9 5 C-6.07 3.04 -3.22 1.44 0 0 Z " fill="#021734" transform="translate(172,193)"/>
<path d="M0 0 C0.33 1.32 0.66 2.64 1 4 C-0.98 4 -2.96 4 -5 4 C-4.67 3.01 -4.34 2.02 -4 1 C-1.94 0.31 -1.94 0.31 0 0 Z " fill="#10ABFB" transform="translate(131,164)"/>
<path d="M0 0 C0.66 0.99 1.32 1.98 2 3 C1 5 0 7 -1 9 C-1.66 9 -2.32 9 -3 9 C-2.01 6.03 -1.02 3.06 0 0 Z " fill="#020E1F" transform="translate(114,145)"/>
<path d="M0 0 C2.19 3.28 3 6.21 4 10 C3.01 10 2.02 10 1 10 C0.67 6.7 0.34 3.4 0 0 Z " fill="#042229" transform="translate(48,137)"/>
<path d="M0 0 C2.95 2.95 3.09 5.96 4 10 C3.34 9.67 2.68 9.34 2 9 C2 8.34 2 7.68 2 7 C1.34 7 0.68 7 0 7 C0 4.69 0 2.38 0 0 Z " fill="#021D2B" transform="translate(89,113)"/>
<path d="M0 0 C0.33 0 0.66 0 1 0 C1 2.31 1 4.62 1 7 C0.34 7 -0.32 7 -1 7 C-1.33 7.99 -1.66 8.98 -2 10 C-2.18 6.05 -2.09 3.4 0 0 Z " fill="#45D5CA" transform="translate(44,88)"/>
<path d="M0 0 C-2.31 1.65 -4.62 3.3 -7 5 C-7.33 4.01 -7.66 3.02 -8 2 C-7.34 2 -6.68 2 -6 2 C-6 1.34 -6 0.68 -6 0 C-3 -1 -3 -1 0 0 Z " fill="#010C1A" transform="translate(160,64)"/>
<path d="M0 0 C2.31 0 4.62 0 7 0 C7 0.66 7 1.32 7 2 C7.66 2 8.32 2 9 2 C9 2.66 9 3.32 9 4 C6.03 3.01 3.06 2.02 0 1 C0 0.67 0 0.34 0 0 Z " fill="#021C33" transform="translate(189,57)"/>
<path d="M0 0 C1.66 0 3 1.34 3 3 C3 4.66 1.66 6 0 6 C-1.66 6 -3 4.66 -3 3 C-3 1.34 -1.66 0 0 0 Z " fill="#000510" transform="translate(162,167.99983443)"/>
<path d="M0 0 C0.33 0 0.66 0 1 0 C0.67 2.31 0.34 4.62 0 7 C-0.99 7 -1.98 7 -3 7 C-1.12 1.12 -1.12 1.12 0 0 Z " fill="#17AEF8" transform="translate(132,135)"/>
<path d="M0 0 C1.99 2.99 2.94 5.6 4 9 C2.68 8.67 1.36 8.34 0 8 C0 5.36 0 2.72 0 0 Z " fill="#31B6D9" transform="translate(65,125)"/>
<path d="M0 0 C0.66 0 1.32 0 2 0 C2.33 1.98 2.66 3.96 3 6 C2.01 6 1.02 6 0 6 C-0.38 4.34 -0.71 2.68 -1 1 C-0.67 0.67 -0.34 0.34 0 0 Z " fill="#34E7E4" transform="translate(49,86)"/>
<path d="M0 0 C-0.81 2.44 -0.81 2.44 -2 5 C-2.99 5.33 -3.98 5.66 -5 6 C-4.62 3.56 -4.62 3.56 -4 1 C-2 0 -2 0 0 0 Z " fill="#40D5DA" transform="translate(61,75)"/>
</svg>
