<svg width="120" height="120" viewBox="0 0 120 120" fill="none" xmlns="http://www.w3.org/2000/svg">
<mask id="mask0_10_446" style="mask-type:luminance" maskUnits="userSpaceOnUse" x="28" y="28" width="65" height="65">
<path d="M93 28H28V93H93V28Z" fill="white"/>
</mask>
<g mask="url(#mask0_10_446)">
<mask id="mask1_10_446" style="mask-type:luminance" maskUnits="userSpaceOnUse" x="28" y="28" width="65" height="65">
<path d="M93 28H28V93H93V28Z" fill="white"/>
</mask>
<g mask="url(#mask1_10_446)">
<path fill-rule="evenodd" clip-rule="evenodd" d="M73.5108 33.3003L93.065 44.418V44.6536L73.3104 55.6521L73.3565 49.9186L71.1329 49.8374C68.2648 49.7615 66.7698 49.8428 64.9904 50.1353C62.1088 50.6093 59.4708 51.698 56.4673 53.797L50.601 57.8729C49.8319 58.401 49.2604 58.7829 48.7594 59.1052L47.3646 59.9773L46.2893 60.611L47.3321 61.234L48.7675 62.1494C50.0567 62.9998 51.9363 64.3052 56.0827 67.2032C59.089 69.3021 61.7242 70.3908 64.6058 70.8648L65.4183 70.9867C67.2979 71.2332 69.1423 71.2412 73.0694 71.076L73.129 65.2287L92.6833 76.3465V76.5821L72.9285 87.5833L72.9665 82.5404L71.2467 82.6C67.4929 82.7137 65.459 82.6054 62.7479 82.1613C58.16 81.4029 53.9188 79.6533 49.5285 76.5848L43.684 72.5223C43.0117 72.0589 42.3299 71.609 41.6392 71.1735L40.3743 70.4152C39.6913 70.0217 39.0052 69.6336 38.316 69.2507C35.8758 67.8937 29.5248 66.2308 28 66.2308V54.7801L28.3792 54.7909C29.9067 54.772 36.2604 53.1063 38.6952 51.7468L41.4469 50.1759L42.6332 49.4338C43.7923 48.6755 45.5365 47.4676 49.9077 44.4153C54.2979 41.3468 58.5365 39.5945 63.1271 38.8388C66.2471 38.3243 68.4733 38.262 73.4567 38.4651L73.5108 33.3003Z" fill="white"/>
</g>
</g>
</svg>
