<svg fill="none" viewBox="0 0 480 480" version="1.1" xmlns="http://www.w3.org/2000/svg" width="32" height="32">
<path d="M0 0 C158.4 0 316.8 0 480 0 C480 158.4 480 316.8 480 480 C321.6 480 163.2 480 0 480 C0 321.6 0 163.2 0 0 Z " fill="#001321" transform="translate(0,0)"/>
<path d="M0 0 C3.07 1.72 5.4 3.81 7 7 C7.15 34.73 7.22 62.46 7.25 90.19 C7.28 105.59 7.3 120.99 7.33 136.86 C7 174 7 174 4 181 C0.58 184.03 -2.64 184.54 -7.07 184.35 C-10.23 183.78 -11.83 182.29 -14 180 C-22.93 165.12 -17.44 106.68 -17.44 92.06 C-17.46 76.77 -17.48 61.48 -17.5 45.72 C-16.98 7.42 -16.98 7.42 -11.31 1.12 C-7.59 -0.69 -4.04 -0.77 0 0 Z " fill="#F9FAFA" transform="translate(197,244)"/>
<path d="M0 0 C3.98 2.32 4.91 3.81 7 8 C7.25 35.6 7.35 63.21 7.38 90.81 C7.4 106.1 7.43 121.39 7.46 137.14 C7 174 7 174 3 181 C-1.07 183.3 -5.29 183.1 -9.81 182.44 C-13 181 -13 181 -17 176 C-17.43 147.86 -17.56 119.71 -17.56 91.56 C-17.58 75.99 -17.61 60.42 -17.63 44.38 C-17 7 -17 7 -12 1 C-8.3 -0.85 -4.04 -0.46 0 0 Z " fill="#FBFBFC" transform="translate(293,53)"/>
<path d="M0 0 C4.51 2.26 5.72 3.44 8 8 C8.23 23.64 8.31 39.29 8.31 54.94 C8.33 63.57 8.35 72.2 8.36 81.09 C7.97 103.77 7.97 103.77 2.88 109.31 C-1.13 111.66 -4.46 111.93 -9 111 C-13.03 108.84 -14.95 106.09 -17 102 C-17.25 86.56 -17.35 71.13 -17.38 55.69 C-17.4 47.17 -17.43 38.66 -17.46 29.89 C-17 9 -17 9 -13 2 C-8.74 -0.84 -5 -0.64 0 0 Z " fill="#F6F6F7" transform="translate(105,105)"/>
<path d="M0 0 C7.74 5.19 12.23 10.12 14.22 19.49 C15.27 28.79 12.91 36.48 7.1 43.8 C0.86 50.29 -5.36 52.78 -14.34 53.12 C-21.04 52.89 -25.46 51.5 -30.78 47.49 C-31.68 46.89 -32.59 46.3 -33.53 45.68 C-39.77 39.61 -41.94 33.4 -42.09 24.8 C-41.99 16.45 -41.24 12.14 -35.53 6.12 C-25.17 -3.74 -13.08 -7.53 0 0 Z " fill="#D400FC" transform="translate(389.77734375,207.5078125)"/>
<path d="M0 0 C6.01 3.7 12.66 9.01 15.45 15.68 C17.27 23.98 17.72 33.33 13.51 40.92 C8.73 47.51 2.07 52.58 -5.99 54.23 C-14.74 55.25 -21.76 54.46 -28.99 49.23 C-35.57 43.64 -38.84 36.57 -40.37 28.14 C-40.83 20.93 -37.68 13.87 -33.87 7.92 C-24.69 -0.65 -12.17 -5.4 0 0 Z " fill="#FB00AB" transform="translate(203.9921875,157.765625)"/>
<path d="M0 0 C6.04 5.21 9.29 10.89 10.38 18.75 C10.93 27.87 8.07 35.28 2.1 42.2 C-5.04 48.92 -12.04 50.68 -21.75 50.4 C-30.29 49.34 -36.05 44.86 -41.37 38.3 C-46.64 30.85 -47.06 22.99 -46 14 C-43.54 6.03 -37.07 0.05 -30.06 -4.16 C-19.61 -8.82 -9.12 -6.19 0 0 Z " fill="#00EAE0" transform="translate(306,274)"/>
<path d="M0 0 C7.46 4.32 12.91 8.89 15.31 17.5 C16.12 28.16 15.72 35.51 9.75 44.56 C4.42 50.05 -1.05 53.37 -8.8 54.15 C-16.03 54.23 -21.48 54.08 -27.44 49.81 C-28.05 49.42 -28.66 49.03 -29.3 48.63 C-35.1 44.44 -37.55 38.58 -39.44 31.81 C-40.67 23.2 -39.04 14.91 -34.38 7.56 C-25.64 -1.81 -11.76 -5.7 0 0 Z " fill="#008FFC" transform="translate(116.4375,238.1875)"/>
<path d="M0 0 C1.34 0.04 1.34 0.04 2.7 0.08 C3.38 0.12 4.05 0.15 4.75 0.19 C4.75 0.85 4.75 1.51 4.75 2.19 C5.35 2.41 5.95 2.64 6.56 2.88 C8.75 4.19 8.75 4.19 11.75 9.19 C12.07 22.16 12.19 35.15 12.19 48.12 C12.21 55.25 12.23 62.37 12.25 69.71 C11.7 88.79 11.7 88.79 6.06 95.06 C2.35 96.87 -1.21 96.83 -5.25 96.19 C-10.04 93.48 -10.64 91.41 -13.25 86.19 C-13.57 73.36 -13.69 60.52 -13.69 47.69 C-13.71 40.66 -13.73 33.64 -13.75 26.41 C-13.19 7 -13.19 7 -7.33 1.32 C-4.72 -0.1 -2.96 -0.12 0 0 Z " fill="#F5F5F6" transform="translate(380.25,287.8125)"/>
<path d="M0 0 C3.75 2.02 5.64 3.45 8 7 C8.28 17.77 8.4 28.54 8.44 39.31 C8.48 45.25 8.52 51.18 8.56 57.3 C8 72 8 72 3 78 C-0.26 80.31 -3.06 80.47 -7 80 C-11.18 77.71 -13.1 75.87 -16 72 C-16.32 61.19 -16.44 50.38 -16.44 39.56 C-16.46 33.62 -16.48 27.69 -16.5 21.57 C-16 7 -16 7 -12 2 C-8.47 -0.65 -4.24 -0.68 0 0 Z " fill="#C5E5F6" transform="translate(288,344)"/>
<path d="M0 0 C3.62 1.88 5.69 4.07 7 8 C7.21 18.6 7.31 29.21 7.38 39.81 C7.42 45.66 7.47 51.5 7.52 57.52 C7 72 7 72 2 78 C-1.47 79.74 -5.2 79.47 -9 79 C-13.46 76.73 -14.73 75.53 -17 71 C-17.25 60.36 -17.35 49.71 -17.38 39.06 C-17.4 33.22 -17.43 27.37 -17.46 21.35 C-17 7 -17 7 -13 2 C-8.75 -0.83 -4.99 -0.77 0 0 Z " fill="#C5E4F6" transform="translate(201,57)"/>
<path d="M0 0 C3.4 0.73 5.56 2.19 8.15 4.46 C12.89 13.95 10.5 29.16 10.52 39.34 C10.55 44.98 10.58 50.63 10.61 56.45 C10.1 72.08 10.1 72.08 4.46 78.34 C0.74 80.15 -2.81 80.23 -6.85 79.46 C-9.92 77.74 -12.26 75.65 -13.85 72.46 C-14.11 61.55 -14.26 50.63 -14.35 39.71 C-14.46 30.65 -14.46 30.65 -14.57 21.41 C-14.33 16.48 -14.1 11.55 -13.85 6.46 C-5.83 -0.42 -5.83 -0.42 0 0 Z " fill="#C5E5F6" transform="translate(381.8515625,104.5390625)"/>
<path d="M0 0 C5.81 0.2 9 1.3 13.2 5.39 C18.45 11.58 15.74 24.89 15.79 32.14 C15.82 36.42 15.86 40.69 15.9 45.1 C15.41 57.52 15.41 57.52 9.79 63.77 C6.08 65.57 2.5 65.55 -1.53 64.89 C-5.45 62.55 -6.45 61.05 -8.53 56.89 C-8.83 48.79 -8.97 40.69 -9.03 32.58 C-9.08 28.15 -9.13 23.72 -9.18 19.16 C-8.24 2.92 -8.24 2.92 0 0 Z " fill="#C4E3F5" transform="translate(97.52734375,319.10546875)"/>
<path d="M0 0 C0.33 1.32 0.66 2.64 1 4 C0.34 4 -0.32 4 -1 4 C-0.86 14.1 -0.71 24.21 -0.56 34.31 C-0.48 39.94 -0.4 45.57 -0.32 51.36 C-0.47 59.82 -0.47 59.82 1 68 C0.01 68.99 0.01 68.99 -1 70 C-4.24 63.52 -2.18 41.28 -2.19 35 C-2.21 25.87 -2.21 25.87 -2.23 16.56 C-2 2 -2 2 0 0 Z " fill="#BFDCE2" transform="translate(370,109)"/>
<path d="M0 0 C0.33 0.99 0.66 1.98 1 3 C0.67 3.66 0.34 4.32 0 5 C-0.66 5 -1.32 5 -2 5 C-2 26.12 -2 47.24 -2 69 C-2.33 69 -2.66 69 -3 69 C-3.08 58.25 -3.14 47.5 -3.19 36.75 C-3.22 30.76 -3.26 24.78 -3.29 18.61 C-3 4 -3 4 0 0 Z " fill="#A6C5D3" transform="translate(275,347)"/>
<path d="M0 0 C3.81 3.81 3.23 8.11 3.31 13.25 C3.35 14.72 3.39 16.19 3.43 17.7 C2.96 22.43 1.62 25.09 -1 29 C-1.33 27.68 -1.66 26.36 -2 25 C-1.34 25 -0.68 25 0 25 C0 23.68 0 22.36 0 21 C0.66 21 1.32 21 2 21 C1.67 20.34 1.34 19.68 1 19 C0.77 15.79 0.59 12.59 0.44 9.38 C0.35 7.63 0.27 5.88 0.18 4.09 C0.12 2.74 0.06 1.39 0 0 Z " fill="#D10498" transform="translate(217,171)"/>
<path d="M0 0 C0 0.66 0 1.32 0 2 C-3.7 3.23 -6.79 3.1 -10.69 3.06 C-12.05 3.05 -13.42 3.04 -14.82 3.04 C-15.87 3.02 -16.92 3.01 -18 3 C-18 2.34 -18 1.68 -18 1 C-16.13 0.83 -14.25 0.66 -12.38 0.5 C-11.33 0.41 -10.29 0.31 -9.21 0.22 C-6.13 0.01 -3.09 -0.04 0 0 Z " fill="#C606E3" transform="translate(386,257)"/>
<path d="M0 0 C3.21 1.01 6.09 2.31 9 4 C6 5 6 5 2.69 3.56 C-3.29 1.09 -9.65 1.76 -16 2 C-11.11 -1.26 -5.72 -0.57 0 0 Z " fill="#AA0BCA" transform="translate(382,204)"/>
<path d="M0 0 C0.66 0.99 1.32 1.98 2 3 C1.12 6.69 1.12 6.69 0 10 C-0.33 10 -0.66 10 -1 10 C-1.33 13.3 -1.66 16.6 -2 20 C-2.33 20 -2.66 20 -3 20 C-3.08 17.79 -3.14 15.58 -3.19 13.38 C-3.24 11.53 -3.24 11.53 -3.29 9.65 C-2.98 5.74 -1.97 3.36 0 0 Z " fill="#00C1BD" transform="translate(263,282)"/>
<path d="M0 0 C8.78 -0.77 8.78 -0.77 11.78 1.11 C13.12 2.5 13.12 2.5 15 5 C14.01 5.5 14.01 5.5 13 6 C13 5.34 13 4.68 13 4 C11.68 3.67 10.36 3.34 9 3 C9 2.34 9 1.68 9 1 C5.7 1.33 2.4 1.66 -1 2 C-0.67 1.34 -0.34 0.68 0 0 Z " fill="#ADC5CD" transform="translate(95,320)"/>
<path d="M0 0 C3.19 -0.31 3.19 -0.31 7 0 C9.94 2.5 9.94 2.5 12 5 C11.01 5 10.02 5 9 5 C8.67 4.01 8.34 3.02 8 2 C5.36 2 2.72 2 0 2 C0 1.34 0 0.68 0 0 Z " fill="#C9E3ED" transform="translate(194,57)"/>
<path d="M0 0 C0.66 0 1.32 0 2 0 C0.59 3.47 -0.91 4.88 -4.12 6.75 C-5.21 7.39 -5.21 7.39 -6.32 8.05 C-6.87 8.36 -7.43 8.68 -8 9 C-8.33 8.34 -8.66 7.68 -9 7 C-8.43 6.58 -7.87 6.16 -7.29 5.72 C-6.55 5.17 -5.82 4.63 -5.06 4.06 C-4.33 3.52 -3.6 2.97 -2.85 2.41 C-1.09 1.13 -1.09 1.13 0 0 Z " fill="#E502A8" transform="translate(212,201)"/>
<path d="M0 0 C2.92 3.54 5.5 7.16 8 11 C7.01 11 6.02 11 5 11 C3.61 9.36 3.61 9.36 2.31 7.19 C1.88 6.48 1.44 5.77 0.99 5.04 C0 3 0 3 0 0 Z " fill="#008BE9" transform="translate(79,273)"/>
<path d="M0 0 C2.21 0.01 3.99 1.79 4 3 C3.99 5.21 2.21 7 0 7 C-1.66 7 -3 5.66 -3 3 C-3 1.34 -1.66 0 0 0 Z " fill="#BAD6E4" transform="translate(189,56.99977924)"/>
<path d="M0 0 C0.33 0 0.66 0 1 0 C1.33 4.16 1.41 6.36 -0.88 9.94 C-3 12 -3 12 -5 12 C-4 10 -3 8 -2 6 C-1.34 6 -0.68 6 0 6 C0 4.02 0 2.04 0 0 Z " fill="#BEDAE4" transform="translate(111,370)"/>
<path d="M0 0 C0.66 0.66 1.32 1.32 2 2 C0.25 4.06 0.25 4.06 -2 6 C-4.25 5.75 -4.25 5.75 -6 5 C-4.02 3.35 -2.04 1.7 0 0 Z " fill="#0086E2" transform="translate(88,241)"/>
<path d="M0 0 C0.66 0.33 1.32 0.66 2 1 C1.31 2.94 1.31 2.94 0 5 C-2.62 5.75 -2.62 5.75 -5 6 C-3.35 4.02 -1.7 2.04 0 0 Z " fill="#00E0DB" transform="translate(271,273)"/>
<path d="M0 0 C3.37 1.39 4.99 2.98 7 6 C6.01 6.5 6.01 6.5 5 7 C5 6.34 5 5.68 5 5 C4.36 4.73 3.72 4.46 3.06 4.19 C1 3 1 3 0 0 Z " fill="#ED01AA" transform="translate(207,161)"/>
</svg>
