<svg width="120" height="120" viewBox="0 0 120 120" fill="none" xmlns="http://www.w3.org/2000/svg">
<path d="M12.47 39.75C12.91 39.73 14.88 40.26 15.53 40.34C16.55 40.45 17.67 40.46 18.67 40.58C19.46 40.67 20.41 40.91 21.26 41.02L34.63 42.73C35.56 42.86 36.59 42.88 37.54 43.01C38.12 43.1 38.79 43.03 39.38 43.16C39.72 43.23 39.91 43.67 40.06 43.94C39.17 44.03 38.81 43.95 37.94 43.96C36.49 43.96 35.03 43.97 33.57 43.95C33.09 43.94 32.51 43.82 32.03 43.79C31.15 43.75 30.19 43.75 29.31 43.78C28.65 43.81 27.96 44.2 27.29 44.36C25.75 44.71 24.25 45.19 22.67 45.33C22.2 45.37 21.54 45.32 21.07 45.32C19.8 45.33 18.48 45.09 17.29 44.64C15.5 43.96 13.86 42.92 12.7 41.38C12.4 40.98 12.13 40.74 11.91 40.26C12.12 40.03 12.2 39.94 12.47 39.75Z" fill="#0A0A0A"/>
<path d="M17.85 46.48C19.73 46.46 21.61 46.48 23.49 46.54C24.11 46.57 24.67 46.67 25.32 46.68L33.99 46.69C36.56 46.67 39.1 46.56 41.64 46.9C42.07 46.95 42.55 46.78 42.97 46.94C43.55 47.49 42.36 47.76 42.01 47.8C41.33 47.89 40.77 47.95 40.08 47.95C38.88 47.94 37.19 48.13 35.98 48.24C35.07 48.32 34.18 48.4 33.28 48.59C32.34 48.79 31.71 49.21 30.87 49.52C28.61 50.37 26.32 50.87 23.89 50.61C23.35 50.6 22.77 50.36 22.26 50.29C21.23 50.15 17.41 47.79 17.56 46.73C17.65 46.57 17.7 46.56 17.85 46.48Z" fill="#0A0A0A"/>
<path d="M44.92 49.89C45.34 49.82 46.42 49.73 46.68 50.1C46.7 50.28 46.67 50.32 46.59 50.47C46.06 50.81 43 51.48 42.24 51.62C41.64 51.74 40.98 51.98 40.37 52.11C40.12 52.16 39.29 52.27 39.12 52.33C38.4 52.63 37.25 53.43 36.59 53.79C36.37 53.9 34.36 54.68 34.16 54.72C32.44 55.11 30.12 55.19 28.41 54.72C28.13 54.64 27.74 54.41 27.5 54.27C26.51 53.84 25.63 53.2 24.92 52.4C25.18 52.2 25.47 51.99 25.81 51.93C27.46 51.68 29.07 51.71 30.75 51.56C32.62 51.39 34.33 51.04 36.17 50.83C37.13 50.72 38.21 50.8 39.15 50.64C41.05 50.33 43.04 50.17 44.92 49.89Z" fill="#0A0A0A"/>
<path d="M63.52 41.41C64.08 41.46 63.93 41.73 64 42.14C64.18 43.4 63.54 44.55 63.46 45.72C63.39 46.77 63.79 47.61 63.51 48.74C63.18 50.05 62.45 51.13 62.16 52.42C62.08 53.14 62.07 55.57 62.14 56.32C61.59 56.69 61.02 56.74 60.43 57.09C59.75 56.69 59.73 56.64 59.72 55.82C59.74 54.82 59.69 53.83 59.73 52.83C59.81 50.75 59.44 48.72 60.36 46.78C60.87 45.7 62.24 45.1 62.16 43.92C62.09 42.95 62.96 42.16 63.52 41.41Z" fill="#0A0A0A"/>
<path d="M49.89 52.28C49.99 52.24 50.13 52.29 50.23 52.31C50.48 52.47 50.53 52.88 50.14 53.06C49.09 53.66 47.1 54.16 46.19 54.86C44.28 56.33 42.79 57.28 40.42 57.93C38.6 58.44 37.45 58.07 35.69 57.35C35.56 57.29 33.79 56.46 34.44 55.89C34.4 55.93 35.69 55.65 35.81 55.61C36.97 55.23 38.13 55.01 39.31 54.77C39.88 54.65 40.47 54.42 41.03 54.29C41.57 54.12 42.22 54.08 42.76 53.92C44.46 53.42 46.18 53.17 47.87 52.62C48.44 52.43 49.34 52.45 49.89 52.28Z" fill="#0A0A0A"/>
<path d="M52.76 67C52.95 67.02 53.28 67.02 53.41 67.19C53.62 67.45 53.87 68.52 54 68.91C54.23 69.62 55.85 74.36 56.1 74.58C56.47 74.92 57.31 74.54 57.72 74.83C57.83 74.91 57.85 75.13 57.87 75.26C57.99 76.14 57.68 77.49 57.14 78.2C56.91 78.45 56.8 78.57 56.53 78.77C55.9 78.8 55.11 78.58 54.91 77.9C53.94 74.54 53.49 70.96 52.49 67.62C52.55 67.43 52.62 67.12 52.76 67Z" fill="#0A0A0A"/>
<path d="M55.11 57.62C55.14 57.63 55.16 57.64 55.19 57.65C55.32 57.7 55.46 57.76 55.51 57.91C55.79 58.66 55.99 59.51 56.23 60.28C56.67 61.66 57.13 63.03 57.58 64.4C57.95 65.51 58.36 67.16 58.84 68.22C58.61 68.37 58.38 68.56 58.1 68.5C57.95 68.43 57.92 68.33 57.85 68.17C57.24 67.17 56.97 65.95 56.31 64.98C55.95 64.44 55.29 64.21 54.89 63.62C54.06 62.42 53.69 61.25 53.92 59.78C54.05 59 54.47 58.09 55.11 57.62Z" fill="#0A0A0A"/>
<path d="M53.64 54.05C53.91 54.03 54.25 54.11 54.27 54.43C54.05 54.94 52.87 55.57 52.47 56.01C51.14 57.45 49.33 58.77 47.31 58.93C46.77 58.97 46.13 58.81 45.59 58.68C45.23 58.52 44.64 58.39 44.58 57.96C44.83 57.54 47.95 56.26 48.6 56.06C50.32 55.53 51.97 54.54 53.64 54.05Z" fill="#0A0A0A"/>
<path d="M56.12 41.36C56.48 41.45 56.81 41.78 56.96 42.08C57.14 42.52 57.58 43.07 57.72 43.5C58.2 44.91 57.19 46.56 57.27 47.9C57.34 49.05 58.29 50.44 58.59 51.56C58.95 52.86 58.64 54.33 58.34 55.62C58.3 55.64 58.27 55.66 58.23 55.68C57.77 55.92 57.54 55.71 57.57 55.22C57.65 54.38 57.96 53.51 57.84 52.66C57.59 50.9 56.19 49.44 56.25 47.62C56.27 47.02 56.34 46.21 56.55 45.66C56.45 45.21 56.25 44.66 56.16 44.21C56.02 43.57 55.83 41.92 56.12 41.36Z" fill="#0A0A0A"/>
<path d="M60.02 35.38C60.27 35.38 60.27 35.34 60.45 35.45C60.52 35.58 60.57 35.78 60.58 35.92C60.68 37.64 60.99 39.33 61.17 41.04C61.29 42.18 61.12 42.41 60.39 43.24C60.19 43.44 60.15 43.52 59.86 43.49C59.16 43.03 59.8 39.46 59.73 38.57C59.68 37.89 59.77 35.94 60.02 35.38Z" fill="#0A0A0A"/>
<path d="M111.42 32.09H112V32.84C108.75 38.54 103.64 39.84 97.47 39.07C95.52 38.83 93.92 38.05 91.89 38.68C90.42 39.14 89.24 39.96 87.94 40.75C87.27 41.15 85.22 42.17 84.76 42.66L84.76 42.74C85.04 42.92 86.27 42.58 86.66 42.51C89.26 42.05 91.91 42.06 94.51 41.48C95.22 41.32 96.03 41.38 96.72 41.31C96.81 41.31 97.18 41.2 97.29 41.18C98.14 41.12 98.98 41.03 99.83 40.9C100.55 40.78 101.48 40.54 102.21 40.53C104.06 40.51 105.8 40.12 107.61 39.78C108.17 39.67 108.27 40.38 107.98 40.76C107.83 40.96 107.62 41.15 107.48 41.33C103.45 46.5 96.7 45.84 91.19 43.79C90.96 43.7 89.39 43.87 88.99 43.9L85.47 44.18C84.43 44.25 83.41 44.23 82.37 44.35C82.12 44.38 81.82 44.39 81.58 44.46C81.31 44.54 77.99 46.42 77.64 46.71C77.63 46.72 77.62 46.73 77.61 46.74C77.75 46.69 78.19 46.54 78.32 46.54C79.31 46.53 80.29 46.7 81.3 46.67C82.35 46.64 83.39 46.58 84.45 46.52C86.86 46.5 89.29 46.53 91.71 46.54C92.64 46.54 93.57 46.46 94.5 46.45C97.09 46.47 99.37 46.61 101.98 46.46L102.09 46.49C102.53 46.49 102.5 46.68 102.67 47.07C102.44 47.27 102.28 47.42 102.07 47.64C100.35 49.57 98.2 50.51 95.67 50.66C92.46 50.84 90.15 49.76 87.25 48.69C86.63 48.46 85.58 48.52 84.91 48.45C83.77 48.26 82.86 48.3 81.75 48.24L78.13 48.03C77.6 48 75.8 47.83 75.36 48.03C74.9 48.23 73 49.36 72.61 49.69C73.13 49.74 73.62 49.87 74.13 49.91C75.21 50 76.28 49.99 77.36 50.12C78.53 50.26 79.69 50.49 80.87 50.61C82.51 50.78 84.15 50.82 85.78 51.01C86.82 51.13 87.83 51.37 88.87 51.48C89.6 51.56 90.37 51.65 91.1 51.69C92.22 51.75 93.3 51.74 94.41 51.92C94.6 51.95 94.82 52.04 94.94 52.19C95.01 52.3 95.01 52.45 94.98 52.57C94.88 53.03 93.89 53.62 93.5 53.85C93.27 54 92.02 54.67 91.8 54.74C90.35 55.21 87.62 55.11 86.14 54.74C85.4 54.56 83.86 53.94 83.22 53.58C82.49 53.18 81.59 52.51 80.81 52.29C80.36 52.17 79.87 52.24 79.41 52.16C78.55 52.03 77.7 51.81 76.84 51.67C75.98 51.53 71.4 51.02 70.96 50.68C70.65 50.72 70.08 51.2 69.8 51.36C69.55 51.5 69.32 51.48 69.09 51.69L69.04 51.8L69.09 51.87C69.4 51.84 70.37 52.19 70.74 52.31C71.33 52.49 71.99 52.53 72.55 52.69C74.74 53.31 76.98 53.78 79.2 54.29C79.85 54.45 80.51 54.69 81.17 54.85C82.73 55.15 84.23 55.57 85.79 55.9C85.93 56.09 85.86 56.44 85.73 56.62C84.19 57.59 82.1 58.54 80.27 58.07C78.62 57.64 77.05 57.11 75.63 56.12C75.01 55.68 74.38 55.05 73.68 54.74C72.27 54.12 70.75 53.87 69.32 53.29C68.94 53.13 68.49 53.11 68.11 52.95C67.05 55 67.55 54.38 69.39 55.19C70.44 55.65 71.57 56.04 72.62 56.52C73.22 56.79 75.27 57.39 75.59 57.92C75.61 58.04 75.64 58.1 75.55 58.21C75.31 58.49 73.71 58.97 73.39 58.96C71.8 58.93 69.97 58.21 68.83 57.1C67.99 56.29 67.86 56 66.79 55.51C66.6 55.97 65.86 57.23 65.8 57.54C65.59 58.57 65.27 61.8 65.54 62.7C66.54 66.06 66.39 67.18 65.39 70.51L64.47 73.59C64.34 74.02 64.13 74.63 64.02 75.05C63.86 75.67 64.39 76.73 64.54 77.36C64.66 77.88 64.77 78.54 64.75 79.07C64.74 79.48 64.57 80.34 64.43 80.74C64 82 63.45 83.22 62.96 84.46C62.55 85.52 62.14 86.62 61.65 87.66C61.6 87.77 61.46 87.86 61.35 87.91H61.14C60.96 87.75 60.87 87.6 60.88 87.35C60.92 86.51 61.07 85.58 61.14 84.74C61.28 83.04 61.47 81.37 61.67 79.68C61.74 78.37 62.04 76.99 62.1 75.7C62.22 73.36 62.65 71.04 62.76 68.71C62.8 68.04 63.25 65.82 63.07 65.35C62.63 65.53 61.87 67.75 61.36 68.02C61.23 68.09 60.9 68.12 60.74 68.06C60.49 67.56 61.1 62.88 61.09 61.93C61.21 59.31 63.56 57.51 64.77 55.3C65.6 53.77 66.15 52.03 67.01 50.62C67.82 49.46 69.36 48.75 70.47 47.97C73.35 45.93 76.27 43.88 78.76 41.39C79.92 40.23 81.96 39.23 83.56 38.88C84.83 38.6 86.17 38.39 87.43 37.98C88.18 37.75 88.99 37.77 89.76 37.44C90.7 37.03 91.84 37 92.82 36.73C98.04 35.36 103.33 34.22 108.56 32.87C109.15 32.72 111.15 32.48 111.42 32.09Z" fill="#0A0A0A"/>
<path d="M8 32.09H8.6C8.87 32.46 10.71 32.72 11.23 32.79C12.06 32.89 12.68 33.13 13.47 33.38C14.09 33.56 14.93 33.58 15.53 33.79C17.28 34.42 18.82 34.56 20.63 35.12C21.64 35.43 23.14 35.6 24.23 36.01C25.06 36.32 26.35 36.25 27.26 36.72C28.58 36.92 29.88 37.37 31.17 37.65C32.41 37.91 33.53 38.21 34.76 38.51C36.27 38.89 37.74 39.1 39.19 39.81C40.32 40.37 41.23 41.37 42.18 42.18L44.13 43.83C44.55 44.17 45.67 44.8 45.2 45.39C45.03 45.44 44.92 45.46 44.75 45.37C44.18 45.04 43.65 44.62 43.1 44.26C41.65 43.31 40.3 42.06 38.77 41.26C38.46 41.13 38.09 41.04 37.76 40.96C37.37 40.87 36.81 40.57 36.43 40.51C34.91 40.28 33.52 39.98 32.04 39.55C31.27 39.32 30.29 39.29 29.49 39.06C28.54 38.84 27.56 38.44 26.55 38.46C25.2 38.48 23.71 38.95 22.37 39.12C21.59 39.21 20.56 39.16 19.75 39.16C18.98 39.16 18.06 39.21 17.33 39.13C14.07 38.74 11.11 37.05 9.12 34.44C8.61 33.76 8.38 33.13 8 32.49V32.09Z" fill="#0A0A0A"/>
</svg>
