<svg width="120" height="120" viewBox="0 0 120 120" fill="none" xmlns="http://www.w3.org/2000/svg">
<mask id="mask0_1_1013" style="mask-type:luminance" maskUnits="userSpaceOnUse" x="39" y="27" width="43" height="65">
<path d="M81.8866 27H39V92H81.8866V27Z" fill="white"/>
</mask>
<g mask="url(#mask0_1_1013)">
<path d="M60.6819 47.446C59.4869 47.5849 58.5756 48.5553 58.4908 49.7793C58.4543 50.3065 58.4657 50.3422 59.6612 53.4183C62.3806 60.4165 63.0395 62.1008 63.1502 62.3378C63.4188 62.9119 63.7962 63.4519 64.2679 63.9368C64.6298 64.3086 64.8685 64.5087 65.2721 64.7784C65.9817 65.2523 66.3337 65.3832 69.0947 66.2006C71.784 66.9971 73.2533 67.5263 74.5193 68.1547C76.1596 68.9689 77.3041 69.8948 78.028 70.9936C78.5474 71.782 79.0074 73.1957 79.2074 74.6188C79.2858 75.1752 79.2861 76.4048 79.2084 76.9077C79.0396 77.9994 78.7023 78.914 78.1863 79.6794C77.9119 80.0865 78.0074 80.0184 78.4063 79.5222C79.5354 78.1185 80.6855 75.7193 81.2723 73.5437C81.9826 70.9105 82.0793 68.083 81.5504 65.407C80.5206 60.1955 77.2306 55.698 72.5971 53.1675C72.306 53.0084 71.1971 52.4271 69.6938 51.6456C69.4656 51.5269 69.1545 51.3644 69.0024 51.2847C68.8504 51.2048 68.5393 51.0423 68.3111 50.9238C68.083 50.8052 67.4263 50.4632 66.8518 50.1634L65.4232 49.4186C64.9571 49.1757 64.4911 48.9323 64.0254 48.6887C62.5355 47.9089 61.905 47.5936 61.7252 47.539C61.5368 47.4815 61.0578 47.4079 60.9377 47.4178C60.9123 47.4199 60.7973 47.4326 60.6819 47.446Z" fill="url(#paint0_radial_1_1013)"/>
<path d="M63.9292 73.5711C63.8466 73.62 63.7309 73.6908 63.6717 73.7282C63.6125 73.766 63.4812 73.8476 63.3797 73.9097C62.642 74.3634 61.9046 74.8178 61.1677 75.2728C60.7166 75.5511 60.266 75.8302 59.8158 76.11C59.6168 76.2338 59.4171 76.3565 59.2167 76.4782C59.1407 76.5236 58.8158 76.7236 58.4947 76.9228C58.0804 77.1796 57.6656 77.4357 57.2505 77.6911C56.7687 77.9873 56.2874 78.2842 55.8064 78.5816C55.387 78.8412 54.9672 79.1002 54.5469 79.3584C54.285 79.5191 54.043 79.6742 54.0092 79.7032C53.959 79.7463 51.6295 81.1892 50.4607 81.9013C49.5728 82.4421 48.5458 82.8038 47.4946 82.9458C47.0053 83.012 46.079 83.0122 45.5911 82.9464C44.2676 82.7676 43.0486 82.2741 42.0045 81.4946C41.5951 81.1887 40.8239 80.4182 40.5292 80.0204C39.8345 79.0826 39.3852 78.0767 39.1525 76.9386C39.0989 76.6765 39.0483 76.4554 39.04 76.4469C39.0181 76.4251 39.0575 76.8206 39.1284 77.3379C39.2021 77.8758 39.3591 78.654 39.5283 79.3196C40.8373 84.4699 44.5624 88.659 49.605 90.6523C51.057 91.226 52.5224 91.5873 54.1167 91.7642C54.7158 91.8314 56.4117 91.8579 57.0367 91.811C59.9043 91.5933 62.4009 90.7498 64.962 89.1309C65.1902 88.9868 65.6188 88.7165 65.9144 88.5303C66.1915 88.3559 66.4681 88.1806 66.744 88.0043C66.9045 87.9013 67.0981 87.7796 67.174 87.7339C67.2877 87.6646 67.4004 87.5938 67.5121 87.5215C67.622 87.4505 68.0919 87.1529 68.5566 86.8608L70.4149 85.6871L71.0529 85.284L71.0759 85.2696L71.1463 85.2252L71.1796 85.2041L71.6493 84.9074L73.2727 83.882C75.3413 82.5821 75.9581 82.1259 76.919 81.1845C77.3197 80.7921 77.9236 80.1224 77.9536 80.0373C77.9598 80.0199 78.0672 79.8543 78.1922 79.6692C78.7008 78.9167 79.0399 77.9948 79.2081 76.9077C79.286 76.4048 79.2855 75.1752 79.2072 74.6188C79.056 73.5433 78.7122 72.3234 78.3416 71.5466C77.734 70.2729 76.4398 69.1154 74.5802 68.1834C74.0667 67.9259 73.5365 67.6903 73.4773 67.6935C73.4492 67.695 71.7189 68.7526 69.632 70.0439C67.5451 71.3355 65.734 72.4562 65.6072 72.535C65.4805 72.6137 65.2628 72.7466 65.1233 72.8305L63.9292 73.5711Z" fill="url(#paint1_radial_1_1013)"/>
<path d="M39.0088 67.3759L39.0179 76.3702L39.1344 76.8926C39.4982 78.5254 40.129 79.7028 41.2254 80.7963C41.741 81.3105 42.1354 81.6208 42.6943 81.9515C43.877 82.6513 45.1497 82.9965 46.5437 82.996C48.0039 82.9951 49.267 82.631 50.5685 81.8354C50.7881 81.7012 51.6488 81.1713 52.481 80.6579L53.9941 79.7244V58.3816L53.9938 48.6194C53.9934 42.3913 53.982 38.6925 53.9622 38.4023C53.8383 36.5788 53.0755 34.9024 51.7931 33.6344C51.3996 33.2452 51.0634 32.9852 50.0616 32.2958C49.563 31.9528 48.6505 31.3244 48.0338 30.8994C46.6206 29.9253 45.2074 28.9513 43.7941 27.9776C42.8259 27.3099 42.7502 27.2637 42.4575 27.159C42.0769 27.0228 41.6735 26.9727 41.29 27.0141C40.1723 27.1347 39.2776 27.9419 39.045 29.0389C39.0088 29.2098 39.0022 31.4815 39.0017 43.8113L39.0012 58.3818H39L39.0088 67.3759Z" fill="url(#paint2_linear_1_1013)"/>
</g>
<defs>
<radialGradient id="paint0_radial_1_1013" cx="0" cy="0" r="1" gradientTransform="matrix(-21.9364 -18.2161 35.1834 -21.9364 46.5997 -16.7927)" gradientUnits="userSpaceOnUse">
<stop stop-color="#00CACC"/>
<stop offset="1" stop-color="#048FCE"/>
</radialGradient>
<radialGradient id="paint1_radial_1_1013" cx="0" cy="0" r="1" gradientTransform="matrix(33.3043 -23.783 8.56322 33.304 55.7775 78.0622)" gradientUnits="userSpaceOnUse">
<stop stop-color="#00BBEC"/>
<stop offset="1" stop-color="#2756A9"/>
</radialGradient>
<linearGradient id="paint2_linear_1_1013" x1="46.497" y1="27" x2="46.497" y2="82.996" gradientUnits="userSpaceOnUse">
<stop stop-color="#00BBEC"/>
<stop offset="1" stop-color="#2756A9"/>
</linearGradient>
</defs>
</svg>
