<svg width="120" height="120" viewBox="0 0 120 120" fill="none" xmlns="http://www.w3.org/2000/svg">
<rect width="120" height="120" fill="#004AAD"/>
<path d="M38.605 36C43.3209 36 48.0369 36 52.8958 36C54.4721 40.1426 55.9856 44.2785 57.3669 48.49C58.4332 51.7214 59.5909 54.9223 60.7326 58.1277C61.7698 56.5717 62.3133 54.9971 62.9061 53.2421C63.0243 52.8969 63.1425 52.5516 63.2643 52.196C63.5144 51.4644 63.7634 50.7323 64.0117 50.0001C64.3868 48.8936 64.7648 47.7882 65.1435 46.6829C65.3871 45.969 65.6305 45.255 65.8738 44.5409C65.9847 44.2161 66.0957 43.8913 66.21 43.5567C67.0579 41.0509 67.8079 38.5382 68.5695 36C73.2854 36 78.0014 36 82.8603 36C82.8603 36.9128 82.8603 37.8255 82.8603 38.766C81.9149 38.8709 80.9694 38.976 80.024 39.0811C79.167 39.1434 79.167 39.1434 78.7114 39.6879C78.6656 40.5483 78.6523 41.4104 78.6517 42.2719C78.6495 43.1004 78.6495 43.1004 78.6473 43.9454C78.6482 44.5466 78.6492 45.1479 78.65 45.7673C78.6498 46.3857 78.6494 47.004 78.6487 47.6224C78.648 48.9198 78.649 50.2174 78.6513 51.5148C78.6538 53.1814 78.6524 54.8478 78.6496 56.5144C78.6479 57.7917 78.6484 59.0691 78.6496 60.3464C78.65 61.261 78.6487 62.1754 78.6473 63.0899C78.6487 63.6421 78.6502 64.1944 78.6517 64.7634C78.652 65.2524 78.6524 65.7413 78.6528 66.2451C78.5869 67.3259 78.5869 67.3259 79.1724 67.8085C79.7935 67.9148 80.4187 67.9981 81.0451 68.0678C81.6441 68.1343 82.2431 68.2008 82.8603 68.2695C82.8603 69.1823 82.8603 70.095 82.8603 71.0355C77.5358 71.0355 72.2114 71.0355 66.7255 71.0355C66.7255 70.1227 66.7255 69.2099 66.7255 68.2695C68.3228 67.8131 68.3228 67.8131 69.9525 67.3475C69.9525 59.4369 69.9525 51.5262 69.9525 43.3759C69.1157 45.8859 68.279 48.396 67.417 50.9823C65.1888 57.6667 62.9607 64.3511 60.7326 71.0355C59.5156 71.0355 58.2986 71.0355 57.0447 71.0355C56.9152 70.6586 56.7857 70.2817 56.6524 69.8934C53.5619 60.8986 50.4662 51.9056 47.3638 42.9149C47.3522 46.3119 47.3441 49.7089 47.3385 53.1059C47.3362 54.2624 47.333 55.4188 47.329 56.5752C47.3234 58.2343 47.3209 59.8934 47.3187 61.5527C47.3164 62.0722 47.314 62.5918 47.3115 63.1272C47.3115 63.607 47.3115 64.0869 47.3114 64.5813C47.31 65.2169 47.31 65.2169 47.3083 65.8656C47.2969 66.9056 47.2969 66.9056 47.8248 67.8085C48.895 67.9962 49.9716 68.1516 51.0518 68.2695C51.0518 69.1823 51.0518 70.095 51.0518 71.0355C46.9443 71.0355 42.8369 71.0355 38.605 71.0355C38.605 70.1227 38.605 69.2099 38.605 68.2695C39.5503 68.1644 40.4957 68.0593 41.4411 67.9544C42.2981 67.8919 42.2981 67.8919 42.7539 67.3475C42.7996 66.4871 42.8129 65.625 42.8136 64.7634C42.815 64.2111 42.8165 63.6589 42.8179 63.0899C42.817 62.4888 42.816 61.8876 42.8151 61.2682C42.8155 60.6498 42.8159 60.0314 42.8165 59.413C42.8171 58.1155 42.8161 56.8181 42.814 55.5205C42.8113 53.854 42.8129 52.1875 42.8156 50.5209C42.8172 49.2436 42.8168 47.9663 42.8156 46.6889C42.8151 45.7745 42.8165 44.8599 42.8179 43.9454C42.8165 43.3932 42.815 42.8409 42.8136 42.2719C42.8131 41.7831 42.8128 41.2941 42.8125 40.7903C42.8782 39.7095 42.8782 39.7095 42.2929 39.2269C41.6717 39.1205 41.0465 39.0372 40.4201 38.9676C39.8211 38.901 39.222 38.8345 38.605 38.766C38.605 37.8532 38.605 36.9404 38.605 36Z" fill="#F9FAFD"/>
<path d="M92.539 71.4962C92.6911 72.409 92.8433 73.3218 93 74.2622C87.0259 76.5718 80.9865 78.5787 74.8484 80.3992C74.3602 80.5459 74.3602 80.5459 73.8622 80.6955C69.739 81.9309 65.6411 82.9212 61.4001 83.663C60.0149 83.9067 58.6465 84.1887 57.273 84.4905C54.431 84.9557 51.5888 84.9639 48.7158 84.9802C48.0205 84.9867 48.0205 84.9867 47.3113 84.9932C41.745 84.97 36.5321 84.247 32.2066 80.4856C31.8832 80.1052 31.56 79.7249 31.227 79.3331C30.9037 78.9718 30.5803 78.6105 30.2473 78.2383C28.9635 76.441 28 74.6747 28 72.4182C28.9128 72.4182 29.8255 72.4182 30.766 72.4182C30.8896 72.7189 31.0131 73.0196 31.1405 73.3294C32.9313 77.3233 35.1 79.2225 39.1215 80.8889C54.3617 85.4706 76.0356 77.9696 89.9297 71.9717C91.156 71.4962 91.156 71.4962 92.539 71.4962Z" fill="#F3F7FB"/>
</svg>
