<svg width="120" height="120" viewBox="0 0 120 120" fill="none" xmlns="http://www.w3.org/2000/svg">
<path opacity="0.2" fill-rule="evenodd" clip-rule="evenodd" d="M78.0012 57.9975C81.9792 57.9975 85.7941 56.4174 88.607 53.6045C91.4198 50.7917 92.9999 46.9767 92.9999 42.9988C92.9999 39.0209 91.4198 35.2058 88.607 32.393C85.7941 29.5802 81.9792 28 78.0012 28C74.0232 28 70.2083 29.5802 67.3955 32.393C64.5826 35.2058 63.0025 39.0209 63.0025 42.9988C63.0025 46.9767 64.5826 50.7917 67.3955 53.6045C70.2083 56.4174 74.0232 57.9975 78.0012 57.9975ZM78.0012 93C81.9792 93 85.7941 91.4199 88.607 88.607C91.4198 85.7941 92.9999 81.9792 92.9999 78.0012C92.9999 74.0232 91.4198 70.2084 88.607 67.3955C85.7941 64.5826 81.9792 63.0025 78.0012 63.0025C74.0232 63.0025 70.2083 64.5826 67.3955 67.3955C64.5826 70.2084 63.0025 74.0232 63.0025 78.0012C63.0025 81.9792 64.5826 85.7941 67.3955 88.607C70.2083 91.4199 74.0232 93 78.0012 93ZM42.9988 93C46.9766 93 50.7916 91.4199 53.6044 88.607C56.4173 85.7941 57.9974 81.9792 57.9974 78.0012C57.9974 74.0232 56.4173 70.2084 53.6044 67.3955C50.7916 64.5826 46.9766 63.0025 42.9988 63.0025C39.0209 63.0025 35.2058 64.5826 32.393 67.3955C29.5802 70.2084 28 74.0232 28 78.0012C28 81.9792 29.5802 85.7941 32.393 88.607C35.2058 91.4199 39.0209 93 42.9988 93Z" fill="black"/>
<path d="M42.9988 57.9975C51.2823 57.9975 57.9974 51.2824 57.9974 42.9988C57.9974 34.7152 51.2823 28 42.9988 28C34.7152 28 28 34.7152 28 42.9988C28 51.2824 34.7152 57.9975 42.9988 57.9975Z" fill="#0F6FFF"/>
</svg>
