<svg xmlns="http://www.w3.org/2000/svg" viewBox="0 0 24 24" width="24" height="24" fill="none" stroke="currentColor" stroke-width="2" stroke-linecap="round" stroke-linejoin="round">
  <path d="M6 13.5C3.5 13.5 1.5 11.5 1.5 9S3.5 4.5 6 4.5c1.9 0 3.5 1.1 4.2 2.8" />
  <path d="M9.8 8.2C10.2 8.1 10.6 8 11 8c2.5 0 4.5 2 4.5 4.5c0 .3 0 .6-.1.9" />
  <path d="M10.5 16.5h7c2.8 0 5-2.2 5-5s-2.2-5-5-5c-.6 0-1.1.1-1.7.3" />
  <path d="M6 13.5c-1.1 0-2.1-.4-2.8-1" />
  <path d="M14.5 11.5c-.9-1.7-2.7-2.9-4.7-2.9" />
  <path d="M16.5 6.8c-1.4-.7-3-.7-4.4 0" />
  <path d="M4.5 16.5h14c1.4 0 2.7-.9 3.3-2.1" />
</svg>