<svg width="12" height="12" viewBox="0 0 12 12" fill="none" xmlns="http://www.w3.org/2000/svg">
<g clip-path="url(#clip0_15_4837)">
<path d="M4.79749 4.68244H2.399V2.4H4.32894C4.58657 2.4 4.79699 2.18899 4.79699 1.93176V0H7.07897V2.4C7.07904 2.69979 7.02005 2.99666 6.90539 3.27364C6.79073 3.55063 6.62263 3.80229 6.41071 4.01425C6.19879 4.22621 5.94719 4.39433 5.6703 4.50898C5.39341 4.62363 5.09666 4.68257 4.79699 4.68244H4.79749ZM2.399 4.91706H0V7.1995H1.93095C2.18807 7.1995 2.399 7.41051 2.399 7.66774V9.5995H4.68048V7.1995C4.68054 6.89975 4.62158 6.60292 4.50694 6.32597C4.39231 6.04902 4.22426 5.79738 4.01239 5.58542C3.80053 5.37347 3.54899 5.20535 3.27216 5.09067C2.99533 4.97599 2.69862 4.917 2.399 4.91706ZM10.0691 4.799C9.94504 4.7986 9.82622 4.74914 9.73853 4.66141C9.65084 4.57368 9.6014 4.45482 9.601 4.33075V2.4H7.31952V4.799C7.31939 5.09879 7.37831 5.39567 7.49291 5.67268C7.60751 5.94968 7.77555 6.20138 7.98743 6.41339C8.1993 6.6254 8.45086 6.79357 8.72772 6.90828C9.00459 7.02299 9.30133 7.082 9.601 7.08193H12V4.8H10.0691V4.799ZM4.915 9.6V12H7.19699V10.0682C7.19699 9.81051 7.40791 9.6 7.66503 9.6H9.59598V7.31606H7.19648C6.89677 7.31592 6.59997 7.37488 6.32305 7.48957C6.04613 7.60425 5.79451 7.7724 5.58258 7.98442C5.37066 8.19644 5.20257 8.44816 5.08794 8.7252C4.9733 9.00223 4.91437 9.29916 4.9145 9.59899L4.915 9.6Z" fill="#F0529C"/>
</g>
<defs>
<clipPath id="clip0_15_4837">
<rect width="12" height="12" fill="white"/>
</clipPath>
</defs>
</svg>
