<svg width="12" height="12" viewBox="0 0 12 12" fill="none" xmlns="http://www.w3.org/2000/svg">
<g clip-path="url(#clip0_15_4841)">
<path d="M6 12C9.3135 12 12 9.3135 12 6C12 2.6865 9.3135 0 6 0C2.6865 0 0 2.6865 0 6C0 9.3135 2.6865 12 6 12Z" fill="#006FFB"/>
<path fill-rule="evenodd" clip-rule="evenodd" d="M5.61999 4.19649C5.66749 3.87449 5.77099 3.46149 5.93199 2.95649L5.99999 2.74799L6.06799 2.95649C6.22899 3.46149 6.33299 3.87449 6.37999 4.19649C6.41549 4.43249 6.41549 4.73249 6.37999 5.09649C6.34399 5.46199 6.34399 5.76449 6.37999 6.00349C6.43299 6.35349 6.59299 6.64399 6.85999 6.87549C7.11991 7.10707 7.4569 7.2333 7.80499 7.22949C7.99417 7.23238 8.18195 7.19662 8.35682 7.1244C8.53169 7.05218 8.68998 6.94502 8.82199 6.80949C9.10199 6.52999 9.24299 6.19249 9.24599 5.79749C9.24749 5.44749 9.28349 5.06149 9.35399 4.63949C9.38849 4.42849 9.42399 4.25199 9.45899 4.10949L9.50649 3.91749L9.59049 4.09549C9.83158 4.6028 9.96116 5.15588 9.97049 5.71749V5.79749C9.9721 6.32813 9.86596 6.85358 9.65849 7.34199C9.25567 8.29484 8.49734 9.05317 7.54449 9.45599C7.05604 9.66327 6.5306 9.76924 5.99999 9.76749C5.46938 9.76925 4.94394 9.66328 4.45549 9.45599C3.50264 9.05317 2.74431 8.29484 2.34149 7.34199C2.13413 6.85339 2.02816 6.32776 2.02999 5.79699V5.71749C2.03917 5.15592 2.16857 4.60283 2.40949 4.09549L2.49399 3.91749L2.54049 4.10999C2.57649 4.25199 2.61199 4.42849 2.64599 4.63949C2.71649 5.06149 2.75249 5.44749 2.75399 5.79749C2.75699 6.19249 2.89899 6.52999 3.17799 6.80949C3.45949 7.08949 3.79849 7.22949 4.19549 7.22949C4.55299 7.22949 4.86799 7.11149 5.13999 6.87549C5.40178 6.65373 5.57266 6.34329 5.61999 6.00349C5.65649 5.76449 5.65649 5.46199 5.61999 5.09649C5.58449 4.73249 5.58449 4.43249 5.61999 4.19649ZM5.99999 9.04349C6.54849 9.04349 7.06249 8.91349 7.54249 8.65449C7.87671 8.47575 8.1764 8.23888 8.42749 7.95499C8.45899 7.91999 8.42249 7.86599 8.37699 7.87849C8.19199 7.92849 8.00199 7.95349 7.80499 7.95349C7.42166 7.9556 7.04493 7.85365 6.71499 7.65849C6.44796 7.50435 6.21764 7.29399 6.03999 7.04199C6.0354 7.03568 6.02938 7.03056 6.02243 7.02702C6.01548 7.02349 6.00779 7.02164 5.99999 7.02164C5.99219 7.02164 5.98451 7.02349 5.97755 7.02702C5.9706 7.03056 5.96459 7.03568 5.95999 7.04199C5.78229 7.29381 5.55197 7.50399 5.28499 7.65799C4.9551 7.85332 4.57837 7.95545 4.19499 7.95349C3.99849 7.95349 3.80799 7.92849 3.62349 7.87849C3.57799 7.86599 3.54099 7.91999 3.57249 7.95499C3.8236 8.23887 4.12328 8.47574 4.45749 8.65449C4.93749 8.91349 5.45149 9.04349 5.99999 9.04349Z" fill="white"/>
</g>
<defs>
<clipPath id="clip0_15_4841">
<rect width="12" height="12" fill="white"/>
</clipPath>
</defs>
</svg>
