<svg width="12" height="12" viewBox="0 0 12 12" fill="none" xmlns="http://www.w3.org/2000/svg">
<path d="M4.429 8.55751C4.507 8.35051 4.4615 8.42101 4.6765 8.60651C5.713 9.50251 9.8435 7.67901 9.194 6.61301C8.3915 5.50151 5.232 6.25301 3.4445 6.58901C3.7295 6.45951 4.862 6.09001 5.2875 5.98251C5.872 5.83451 6.1125 5.78651 6.6565 5.65701C5.4315 5.78201 3.5485 6.40351 1.813 7.05551C2.659 6.38251 4.3515 5.78651 4.74 5.60501C3.937 5.78651 2.442 6.45901 1.3175 7.02751C0.679 7.35001 0.466 7.47001 0 7.72901C0.348 7.43151 0.765 7.03751 1.4755 6.62101C2.3325 6.11951 2.383 6.09701 2.642 5.94151C2.02 6.20051 1.4505 6.46001 1.062 6.58951C1.4485 6.32251 2.1755 5.91601 2.4605 5.78651C2.374 5.79401 2.2015 5.86401 2.098 5.89001C2.616 5.60501 2.9975 5.47501 3.215 5.40501C6.925 4.18401 11.2145 4.31401 11.875 5.66901C12.536 7.02401 10.492 8.91201 7.7015 9.52351C7.2185 9.62951 6.791 9.68751 6.3885 9.70251C5.9705 9.71801 5.6645 9.70001 5.37 9.64251C4.5885 9.49001 4.2515 9.02651 4.429 8.55751Z" fill="#003E97"/>
<path d="M5.75001 3.09251C6.08651 3.14451 6.24201 3.17051 6.42351 3.17051C6.13851 2.98901 6.07251 2.96801 5.41351 2.60051C6.06051 2.54901 6.36651 2.58851 7.09651 2.57451C6.78601 2.39351 6.63051 2.39351 6.29401 2.23801C6.75927 2.20148 7.22583 2.18413 7.69251 2.18601C7.63707 2.11155 7.56631 2.04984 7.48501 2.00501C8.21001 1.97901 9.24001 2.05301 9.82751 2.31501C10.9735 2.82851 10.825 3.62451 9.54251 3.84651C9.30701 3.88701 8.88501 3.92051 8.60551 3.92151C8.2468 3.91684 7.88916 3.88137 7.53651 3.81551C6.60101 3.63651 5.87951 3.32551 5.75001 3.09251Z" fill="#D70D19"/>
</svg>
