<svg width="12" height="12" viewBox="0 0 12 12" fill="none" xmlns="http://www.w3.org/2000/svg">
<rect width="12" height="12" fill="white"/>
<path fill-rule="evenodd" clip-rule="evenodd" d="M4.65153 0.481667C4.67053 0.489667 4.68353 0.486667 4.68953 0.473667C4.69787 0.468489 4.70588 0.462812 4.71353 0.456667L4.88003 0.329668C5.09722 0.163778 5.3576 0.0639662 5.63003 0.0421697C5.66903 0.0386697 5.70403 0.0386697 5.73553 0.0421697C5.79552 0.0471697 5.83052 0.0501696 5.84052 0.0501696C5.84552 0.0501696 5.85052 0.0501696 5.85502 0.0521696C5.87885 0.060109 5.90393 0.0636664 5.92902 0.0626696C5.93702 0.0626696 5.94452 0.0636696 5.95202 0.0656695C5.97599 0.0744479 6.00179 0.0770277 6.02702 0.0731695C6.19702 0.0306698 6.33352 0.00666993 6.43702 0.00116997C6.53252 -0.00383 6.64702 0.00716993 6.78102 0.0346697C7.00802 0.0806694 7.21302 0.178669 7.39601 0.328668C7.42001 0.348668 7.46101 0.385667 7.52051 0.440167C7.52401 0.443167 7.52801 0.445167 7.53251 0.445667C7.55101 0.448667 7.56751 0.446167 7.58201 0.438167C7.69056 0.376652 7.81734 0.355405 7.94001 0.378167L8.12351 0.389167C8.24101 0.400667 8.34651 0.430667 8.43951 0.479167C8.48751 0.503167 8.55101 0.543166 8.63101 0.598166C8.63469 0.600766 8.63901 0.602321 8.64351 0.602666C8.66701 0.604166 8.68901 0.585166 8.70601 0.587666C8.72251 0.589666 8.74001 0.577666 8.75901 0.575666C8.89437 0.559659 9.03114 0.559659 9.1665 0.575666C9.234 0.583166 9.2985 0.599166 9.3595 0.624166C9.5125 0.687665 9.651 0.772165 9.7745 0.877664C9.9245 1.00516 10.0595 1.15266 10.157 1.32766C10.2235 1.44716 10.267 1.55516 10.2885 1.65266C10.299 1.70266 10.3115 1.76466 10.325 1.83866C10.326 1.84366 10.3275 1.84766 10.3295 1.85266C10.3645 1.93866 10.413 2.02016 10.4445 2.10666C10.4645 2.16316 10.4795 2.21066 10.488 2.24966C10.5 2.30365 10.5115 2.36915 10.5225 2.44665C10.5255 2.47215 10.5315 2.50065 10.5395 2.53165C10.5432 2.54591 10.5512 2.55867 10.5625 2.56815C10.699 2.68465 10.8075 2.82515 10.871 2.98865C10.8895 3.03615 10.901 3.09215 10.905 3.15715C10.9115 3.25665 10.915 3.36215 10.884 3.45615C10.861 3.52765 10.846 3.57115 10.8395 3.58615C10.8365 3.59359 10.8356 3.60173 10.837 3.60965C10.845 3.66215 10.8485 3.69965 10.847 3.72215C10.8405 3.79814 10.8365 3.85464 10.834 3.89214C10.8282 3.9671 10.8076 4.04017 10.7735 4.10714C10.65 4.35714 10.4235 4.49364 10.1485 4.52914C10.1323 4.53227 10.117 4.53874 10.1035 4.54814C10.0945 4.55314 10.0935 4.56514 10.1 4.58314C10.1012 4.58684 10.1017 4.59075 10.1015 4.59464C10.0972 4.67267 10.0858 4.75015 10.0675 4.82614C10.0335 4.97614 9.965 5.10114 9.8625 5.20014C9.75839 5.29906 9.63066 5.36964 9.4915 5.40513C9.4735 5.41013 9.4335 5.41613 9.3715 5.42213C9.36845 5.42253 9.36557 5.42376 9.36318 5.42571C9.3608 5.42765 9.359 5.43022 9.358 5.43313C9.353 5.44963 9.358 5.48163 9.3495 5.50813C9.338 5.54263 9.3465 5.59313 9.3365 5.62763C9.3265 5.66013 9.329 5.69463 9.3245 5.73513C9.3215 5.75713 9.313 5.81663 9.298 5.91363C9.18021 6.68806 8.91999 7.43397 8.53051 8.11362C8.47801 8.20562 8.41551 8.29662 8.34901 8.39561C8.344 8.40329 8.34221 8.41263 8.34401 8.42161C8.38851 8.66461 8.43651 8.89961 8.50401 9.12961C8.54401 9.26561 8.59501 9.39111 8.69551 9.48711C8.72401 9.51411 8.77301 9.54761 8.8435 9.58861C9.1585 9.77211 9.482 9.9166 9.836 10.0701C9.83734 10.0707 9.83854 10.0715 9.8395 10.0726C9.84046 10.0738 9.84114 10.0751 9.8415 10.0766C9.84184 10.0781 9.84184 10.0796 9.8415 10.0811C9.8206 10.1116 9.79807 10.141 9.774 10.1691C9.3955 10.6066 8.9995 10.9886 8.55001 11.3076C8.14997 11.5924 7.70077 11.8009 7.22502 11.9226C7.21086 11.927 7.19628 11.9298 7.18152 11.9311C7.17652 11.9311 7.17202 11.9321 7.16802 11.9351C7.14802 11.9486 7.12202 11.9401 7.09902 11.9536C7.09399 11.9564 7.08828 11.9578 7.08252 11.9576C7.06202 11.9564 7.04152 11.9598 7.02252 11.9676C7.0181 11.9696 7.01336 11.9708 7.00852 11.9711C6.93852 11.9731 6.87902 11.9856 6.81502 11.9866C6.65152 11.9901 6.47202 12.0036 6.30502 11.9991C6.19715 11.9972 6.0894 11.991 5.98202 11.9806C5.87873 11.9646 5.7764 11.9429 5.67553 11.9156C5.36452 11.84 5.06703 11.7168 4.79353 11.5506C4.56138 11.4064 4.35809 11.2202 4.19404 11.0016C4.12091 10.9116 4.07326 10.8037 4.05604 10.6891C4.05429 10.6615 4.04943 10.6341 4.04154 10.6076C4.04247 10.5752 4.03876 10.5429 4.03054 10.5116C4.02854 10.5043 4.02753 10.4967 4.02754 10.4891C4.02829 10.4679 4.02695 10.4466 4.02354 10.4256C4.01104 10.3696 4.01354 10.3356 4.00504 10.2706C3.9807 10.0889 3.95186 9.90786 3.91854 9.72761C3.91518 9.71046 3.91317 9.69307 3.91254 9.67561C3.91154 9.64911 3.89904 9.63261 3.89954 9.60561C3.90086 9.5835 3.89692 9.56139 3.88804 9.54111C3.88599 9.53692 3.88512 9.53225 3.88554 9.52761C3.88714 9.50497 3.88443 9.48223 3.87754 9.46061C3.86604 9.43061 3.87354 9.39911 3.85954 9.36161C3.85744 9.35584 3.85642 9.34974 3.85654 9.34361C3.85794 9.32424 3.85591 9.30477 3.85054 9.28611C3.83754 9.25161 3.84654 9.21811 3.83054 9.18211C3.82889 9.17781 3.82821 9.1732 3.82854 9.16861C3.8297 9.14766 3.82716 9.12668 3.82104 9.10661C3.80954 9.07461 3.81804 9.04661 3.80604 9.01661C3.79554 8.99061 3.80404 8.95711 3.79204 8.93161C3.77954 8.90411 3.78804 8.86911 3.77604 8.83811C3.76654 8.81461 3.77454 8.79161 3.76454 8.76411C3.75454 8.73411 3.76054 8.69911 3.74854 8.67211C3.74054 8.65411 3.74354 8.63261 3.73904 8.60961L3.71404 8.47611C3.70899 8.43499 3.69874 8.39466 3.68354 8.35611C3.68275 8.35409 3.68138 8.35235 3.6796 8.3511C3.67782 8.34985 3.67571 8.34916 3.67354 8.34911C3.66151 8.34749 3.64974 8.3443 3.63854 8.33962C3.51262 8.29455 3.39579 8.22732 3.29354 8.14112C3.1838 8.04892 3.10091 7.92889 3.05354 7.79362C3.03047 7.72858 3.01307 7.66166 3.00154 7.59362C2.98654 7.50862 2.92804 7.44212 2.89304 7.37862C2.8607 7.31817 2.83681 7.25357 2.82204 7.18662C2.81704 7.16612 2.82004 7.12912 2.80804 7.11312C2.80737 7.11221 2.80689 7.11117 2.80663 7.11007C2.80637 7.10896 2.80633 7.10782 2.80652 7.1067C2.8067 7.10558 2.80711 7.10451 2.80772 7.10356C2.80832 7.1026 2.80911 7.10177 2.81004 7.10112C2.81904 7.09462 2.82204 7.07912 2.81804 7.05512C2.81504 7.03662 2.80604 7.02762 2.79154 7.02812C2.78933 7.02828 2.78711 7.02793 2.78504 7.02712C2.78311 7.02617 2.7814 7.0248 2.78004 7.02312C2.65005 6.86912 2.55205 6.74613 2.50755 6.57463C2.4857 6.49565 2.4713 6.41479 2.46455 6.33313C2.46248 6.28653 2.45897 6.24001 2.45405 6.19363C2.45235 6.1917 2.45145 6.1892 2.45155 6.18663C2.46499 6.15788 2.47279 6.12682 2.47455 6.09513C2.47872 6.07341 2.47839 6.05106 2.47358 6.02947C2.46876 6.00789 2.45956 5.98752 2.44655 5.96963C2.44074 5.96198 2.4368 5.95308 2.43505 5.94363L2.39605 5.74663C2.39471 5.74056 2.39437 5.73431 2.39505 5.72813C2.40355 5.65363 2.40905 5.60963 2.41205 5.59613C2.43455 5.49013 2.47505 5.39313 2.53405 5.30463C2.53584 5.302 2.53655 5.29878 2.53605 5.29563C2.53533 5.29262 2.53355 5.28996 2.53105 5.28813C2.3141 5.11163 2.15308 4.87592 2.06755 4.60964C2.02159 4.47099 1.99878 4.32571 2.00005 4.17964C2.00055 4.10564 2.00405 4.03964 2.01005 3.98114C2.03492 3.71757 2.15091 3.47092 2.33805 3.28365C2.42105 3.19965 2.51605 3.12465 2.62405 3.05765C2.64255 3.04665 2.65055 3.03115 2.64905 3.01165C2.64725 2.99404 2.64322 2.97674 2.63705 2.96015C2.63535 2.95568 2.6345 2.95093 2.63455 2.94615C2.63019 2.762 2.63086 2.57777 2.63655 2.39365C2.63955 2.33065 2.65555 2.25366 2.68455 2.16266C2.77204 1.88466 2.90354 1.65516 3.07954 1.47316C3.18704 1.36216 3.30404 1.27316 3.42954 1.20566C3.51054 1.16216 3.58654 1.13466 3.62754 1.07966C3.71404 0.963164 3.81404 0.854664 3.92754 0.754665C4.08354 0.617666 4.26754 0.531166 4.47903 0.495167C4.53103 0.486667 4.59353 0.490167 4.65153 0.481667ZM4.70453 0.641666L4.58453 0.618166C4.48322 0.616062 4.38264 0.635667 4.28953 0.675665C3.95254 0.823665 3.67704 1.13416 3.58254 1.48366C3.56004 1.56866 3.55604 1.63616 3.54504 1.73866C3.54434 1.74459 3.54242 1.75032 3.53941 1.75548C3.5364 1.76064 3.53236 1.76513 3.52754 1.76866C3.47104 1.81066 3.39754 1.86166 3.34604 1.91966C3.27446 1.99901 3.21469 2.08826 3.16854 2.18466C3.12853 2.27106 3.10593 2.36451 3.10204 2.45965C3.09158 2.50594 3.09005 2.5538 3.09754 2.60065L3.10554 2.72065C3.10561 2.7217 3.10547 2.72276 3.10513 2.72375C3.10479 2.72475 3.10425 2.72567 3.10356 2.72646C3.10286 2.72725 3.10202 2.72789 3.10107 2.72836C3.10012 2.72882 3.09909 2.72909 3.09804 2.72915C3.07455 2.73084 3.05193 2.73878 3.03254 2.75215C2.88004 2.85415 2.77654 3.01215 2.71705 3.18315C2.69605 3.24315 2.65805 3.34615 2.67805 3.40115C2.67966 3.40544 2.68264 3.40908 2.68652 3.41151C2.69041 3.41395 2.69498 3.41505 2.69955 3.41465C2.70269 3.41448 2.70576 3.41363 2.70855 3.41215C2.74747 3.3908 2.78073 3.36046 2.80554 3.32365C2.92404 3.16615 3.05004 3.02715 3.23554 2.94465C3.40401 2.86842 3.59195 2.84623 3.77354 2.88115C3.86052 2.89706 3.94691 2.91607 4.03254 2.93815C4.03331 2.93788 4.03401 2.93745 4.03461 2.93689C4.03521 2.93633 4.03569 2.93566 4.03601 2.93491C4.03634 2.93416 4.03651 2.93335 4.03652 2.93253C4.03652 2.93171 4.03636 2.9309 4.03604 2.93015C4.001 2.85075 3.9784 2.76643 3.96904 2.68015C3.967 2.65653 3.967 2.63278 3.96904 2.60915L3.97654 2.54515C3.99269 2.78804 4.10194 3.01533 4.28154 3.17965C4.40853 3.29515 4.56003 3.34865 4.73053 3.36715C4.84903 3.38015 4.96053 3.38115 5.06603 3.37015C5.08684 3.36434 5.10861 3.36281 5.13003 3.36565C5.25007 3.35479 5.36653 3.31904 5.47199 3.26068C5.57745 3.20231 5.66958 3.12261 5.74253 3.02665V3.02365C5.74202 3.02242 5.74115 3.02137 5.74003 3.02065C5.73913 3.02005 5.7381 3.01971 5.73703 3.01965L5.52003 2.99565C5.45954 2.96959 5.39798 2.94606 5.33553 2.92515C5.26653 2.90215 5.20003 2.90015 5.13053 2.89115C4.90403 2.86215 4.71503 2.70565 4.67353 2.47065C4.65953 2.31165 4.68653 2.15916 4.79553 2.03816C4.82803 2.00216 4.86703 1.96416 4.91203 1.92466C4.91914 1.91915 4.92438 1.91159 4.92706 1.90301C4.92975 1.89443 4.92973 1.88523 4.92703 1.87666C4.92585 1.87242 4.92567 1.86797 4.92653 1.86366L4.96003 1.70766L5.04703 1.54516C5.04757 1.54404 5.0478 1.5428 5.0477 1.54156C5.0476 1.54032 5.04717 1.53913 5.04646 1.53811C5.04574 1.53709 5.04477 1.53628 5.04364 1.53576C5.04251 1.53525 5.04127 1.53504 5.04003 1.53516C4.94905 1.54982 4.86249 1.58459 4.78664 1.63691C4.71078 1.68924 4.64755 1.75782 4.60153 1.83766C4.50853 1.99216 4.46953 2.18266 4.52553 2.35265C4.52571 2.35312 4.5257 2.35364 4.52552 2.3541C4.52533 2.35456 4.52498 2.35494 4.52453 2.35515H4.52303L4.52203 2.35415C4.41103 2.14516 4.39853 1.89866 4.53703 1.69966C4.66353 1.51966 4.92453 1.34366 5.16053 1.36466C5.16278 1.36478 5.16502 1.36439 5.1671 1.36353C5.16918 1.36266 5.17103 1.36134 5.17253 1.35966L5.27403 1.25266C5.34027 1.18503 5.41467 1.1259 5.49553 1.07666C5.55153 1.04266 5.62503 1.01266 5.68503 0.979664C5.68619 0.978984 5.68716 0.978022 5.68786 0.976866C5.68855 0.97571 5.68894 0.974398 5.68899 0.973051C5.68904 0.971704 5.68875 0.970367 5.68814 0.969163C5.68754 0.967959 5.68664 0.966927 5.68553 0.966164C5.64511 0.938313 5.59983 0.9183 5.55203 0.907164C5.42281 0.875871 5.28901 0.86808 5.15703 0.884164C4.93203 0.911164 4.68553 1.03616 4.50603 1.18216C4.50517 1.18294 4.50409 1.18345 4.50293 1.18363C4.50178 1.18381 4.5006 1.18365 4.49953 1.18316C4.49849 1.18274 4.49758 1.18207 4.49688 1.18119C4.49617 1.18031 4.49571 1.17927 4.49553 1.17816C4.49553 1.17316 4.49603 1.16916 4.49803 1.16616C4.57803 1.05066 4.66903 0.956664 4.77103 0.885164C5.02453 0.706665 5.36753 0.685165 5.65503 0.783165C5.71903 0.813665 5.78003 0.849664 5.83852 0.890664C5.84942 0.899069 5.8618 0.905346 5.87502 0.909164C5.92494 0.912525 5.97477 0.901415 6.01852 0.877164C6.04364 0.863739 6.06521 0.844548 6.08146 0.821167C6.09771 0.797785 6.10819 0.770881 6.11202 0.742665C6.11743 0.721573 6.11674 0.699379 6.11002 0.678665C6.10822 0.674296 6.10549 0.670372 6.10202 0.667166C6.07352 0.642166 6.05952 0.614166 6.05952 0.583166C6.05952 0.523167 6.09702 0.483167 6.15902 0.494667C6.18922 0.501762 6.21775 0.514668 6.24302 0.532666C6.28856 0.595436 6.30824 0.673296 6.29802 0.750165L6.30002 0.752165C6.30077 0.752808 6.30167 0.75324 6.30263 0.753416C6.3036 0.753592 6.3046 0.753505 6.30552 0.753165C6.41252 0.709165 6.48702 0.713665 6.62602 0.707665C6.62729 0.70759 6.62857 0.707773 6.62977 0.708202C6.63098 0.708632 6.63208 0.709299 6.63302 0.710165C6.63465 0.711937 6.63554 0.71426 6.63552 0.716665V0.821665C6.63553 0.823041 6.63501 0.824369 6.63409 0.825387C6.63316 0.826405 6.63189 0.827039 6.63052 0.827164C6.51052 0.840164 6.43152 0.853664 6.39302 0.867164C6.11402 0.967664 5.92802 1.15866 5.83652 1.43916C5.78403 1.62916 5.79402 1.81516 5.86652 1.99566C5.92952 2.14616 6.02652 2.27066 6.15552 2.36815C6.37652 2.53415 6.66302 2.57015 6.93152 2.51365C6.98702 2.50215 7.03602 2.47865 7.08152 2.45865C7.08179 2.4585 7.08202 2.45828 7.0822 2.45802C7.08237 2.45776 7.08248 2.45746 7.08252 2.45715C7.08284 2.45672 7.08302 2.45619 7.08302 2.45565C7.08302 2.45511 7.08284 2.45459 7.08252 2.45415L7.08052 2.45365C6.92067 2.45954 6.76476 2.40327 6.64552 2.29665C6.60649 2.26084 6.57084 2.22151 6.53902 2.17916C6.61607 2.24094 6.71347 2.27163 6.81202 2.26516C6.92502 2.26016 7.04602 2.21416 7.11202 2.11666C7.11298 2.1152 7.11361 2.11355 7.11387 2.11182C7.11413 2.11009 7.11401 2.10833 7.11352 2.10666C7.113 2.105 7.11215 2.10347 7.11102 2.10216C7.1099 2.1009 7.10854 2.09988 7.10702 2.09916C6.85852 1.97466 6.75802 1.73616 6.78002 1.46516C6.78314 1.45502 6.78862 1.44577 6.79602 1.43816C6.79698 1.43734 6.79815 1.43679 6.7994 1.43658C6.80065 1.43637 6.80194 1.4365 6.80312 1.43696C6.8043 1.43742 6.80533 1.4382 6.80611 1.4392C6.80688 1.44021 6.80737 1.4414 6.80752 1.44266L6.80902 1.46166C6.81191 1.49469 6.82089 1.5269 6.83552 1.55666C6.90902 1.71466 7.02102 1.82966 7.17052 1.89966C7.40551 2.01016 7.73151 1.99366 7.94601 1.84266C8.00381 1.80317 8.04868 1.74751 8.07501 1.68266C8.0895 1.64956 8.09513 1.61325 8.09136 1.57732C8.0876 1.54138 8.07455 1.50704 8.05351 1.47766C7.99251 1.40116 7.91851 1.38066 7.83351 1.41616C7.77501 1.44016 7.74001 1.48266 7.68551 1.49816C7.41051 1.57766 7.12402 1.29116 7.23202 1.01816C7.24901 0.984425 7.27339 0.954949 7.30334 0.931924C7.33329 0.908899 7.36804 0.892916 7.40501 0.885164L7.45501 0.887164C7.42537 0.923861 7.40081 0.964394 7.38201 1.00766C7.33051 1.12266 7.35901 1.25366 7.46901 1.31766C7.52901 1.34666 7.58651 1.34766 7.64001 1.31966C7.68751 1.29466 7.71251 1.24916 7.74651 1.20966C7.76343 1.18946 7.78422 1.17285 7.80767 1.16083C7.83111 1.14881 7.85673 1.14161 7.88301 1.13966C8.12601 1.11666 8.32501 1.31316 8.41401 1.52466C8.44451 1.62516 8.45901 1.72366 8.45601 1.82016L8.43751 1.95916L8.42551 2.01216C8.38551 2.07116 8.35651 2.13916 8.33701 2.21516C8.30201 2.35515 8.35951 2.45615 8.45951 2.54615C8.46022 2.54672 8.4611 2.54703 8.46201 2.54703C8.46292 2.54703 8.4638 2.54672 8.46451 2.54615C8.46511 2.5457 8.46557 2.54508 8.46584 2.54437C8.4661 2.54366 8.46616 2.54289 8.46601 2.54215C8.4436 2.45568 8.44532 2.36471 8.47101 2.27915L8.52601 2.15816C8.59951 2.05916 8.69351 1.99466 8.8075 1.96466C8.87487 1.94799 8.94411 1.94009 9.0135 1.94116C9.01427 1.9408 9.01495 1.94029 9.0155 1.93966C9.01619 1.93895 9.0167 1.93809 9.017 1.93716V1.93466C8.9925 1.80466 9.002 1.69316 9.044 1.60016C9.176 1.31116 9.476 1.27116 9.7485 1.36516C9.8795 1.41066 9.9855 1.48866 10.098 1.55666C10.0989 1.55724 10.0999 1.55755 10.101 1.55755C10.1021 1.55755 10.1031 1.55724 10.104 1.55666C10.1049 1.55604 10.1056 1.55517 10.106 1.55416C10.1032 1.52572 10.0951 1.49807 10.082 1.47266C10.0307 1.34688 9.9545 1.23276 9.85802 1.13713C9.76153 1.04151 9.64673 0.966348 9.5205 0.916164C9.43038 0.886048 9.33645 0.868876 9.2415 0.865164C9.25506 0.840614 9.2751 0.820261 9.29943 0.806329C9.32377 0.792397 9.35147 0.785421 9.3795 0.786165C9.38058 0.786165 9.38164 0.785814 9.3825 0.785165C9.38333 0.784367 9.38386 0.783308 9.384 0.782165C9.38405 0.781062 9.38374 0.779973 9.3831 0.779069C9.38247 0.778164 9.38155 0.777495 9.3805 0.777165C9.34835 0.767988 9.31665 0.75731 9.2855 0.745165C9.11645 0.678746 8.93064 0.667888 8.75501 0.714165C8.75244 0.714782 8.75006 0.716004 8.74807 0.717729C8.74607 0.719454 8.74452 0.721632 8.74354 0.72408C8.74256 0.726528 8.74219 0.729176 8.74244 0.7318C8.74269 0.734425 8.74357 0.73695 8.74501 0.739165L8.7885 0.815165C8.79085 0.819256 8.79445 0.822486 8.79877 0.824376C8.80309 0.826267 8.80791 0.826718 8.8125 0.825664C8.841 0.819665 8.88 0.815665 8.93 0.813165C9.00314 0.808808 9.07577 0.827711 9.1375 0.867164C9.00348 0.878315 8.87369 0.919528 8.75778 0.987739C8.64187 1.05595 8.54283 1.14941 8.46801 1.26116C8.46394 1.25489 8.46059 1.24818 8.45801 1.24116C8.45051 1.22416 8.43751 1.21616 8.43101 1.20116C8.42001 1.17516 8.44551 1.12316 8.46001 1.10116C8.51351 1.02116 8.58251 0.952664 8.66601 0.896164C8.66823 0.894809 8.66986 0.892678 8.6706 0.890184C8.67134 0.88769 8.67113 0.88501 8.67001 0.882664C8.64899 0.835504 8.61833 0.793266 8.58001 0.758665C8.4888 0.653322 8.3681 0.577737 8.23351 0.541666C7.97751 0.470167 7.71351 0.508167 7.50501 0.669666C7.45965 0.705648 7.41498 0.742488 7.37101 0.780165C7.34801 0.800165 7.32451 0.806665 7.30102 0.800165C7.21583 0.773873 7.1243 0.776865 7.04102 0.808665C6.88752 0.868664 6.76902 0.994163 6.74452 1.16366C6.74252 1.17866 6.74352 1.19866 6.74152 1.21566C6.74118 1.2183 6.74003 1.22077 6.73825 1.22273C6.73646 1.2247 6.73411 1.22607 6.73152 1.22666C6.67033 1.24375 6.61191 1.26951 6.55802 1.30316C6.40402 1.39016 6.33702 1.52366 6.35652 1.70316C6.36152 1.74466 6.37452 1.78766 6.39602 1.83266L6.37002 1.94066C6.33802 1.89916 6.30152 1.85616 6.28002 1.81316C6.24833 1.75046 6.23038 1.68173 6.22737 1.61155C6.22435 1.54136 6.23633 1.47134 6.26252 1.40616C6.30252 1.29916 6.40452 1.18616 6.52952 1.21116C6.54179 1.21299 6.55349 1.21753 6.56378 1.22445C6.57407 1.23137 6.5827 1.24049 6.58902 1.25116C6.59032 1.25324 6.59219 1.25491 6.5944 1.25597C6.59661 1.25703 6.59908 1.25744 6.60152 1.25716C6.60393 1.25673 6.60617 1.25561 6.60795 1.25392C6.60973 1.25223 6.61097 1.25005 6.61152 1.24766C6.61652 1.22966 6.62152 1.20666 6.62452 1.17866C6.66152 0.899664 6.89152 0.647666 7.19252 0.640166C7.21202 0.640166 7.23102 0.634166 7.24752 0.623166L7.38951 0.532166C7.39018 0.531703 7.39074 0.53111 7.39117 0.530422C7.3916 0.529735 7.39189 0.528968 7.39201 0.528166V0.525667C7.22224 0.342203 7.00114 0.214139 6.75752 0.158169C6.51199 0.107215 6.25702 0.127335 6.02252 0.216169C6.00967 0.220797 5.99569 0.221321 5.98252 0.217669C5.8281 0.173666 5.66606 0.163126 5.50724 0.186751C5.34841 0.210376 5.19646 0.267623 5.06153 0.354668C5.01975 0.379487 4.97966 0.407047 4.94153 0.437167C4.86303 0.506167 4.78353 0.573666 4.70453 0.641666ZM5.18703 1.73966C5.11745 1.75841 5.05176 1.78939 4.99303 1.83116C4.97131 1.84609 4.95235 1.86471 4.93703 1.88616C4.93439 1.88987 4.93268 1.89415 4.93203 1.89866C4.90153 2.09316 4.91203 2.31115 5.03703 2.47465C5.26453 2.77465 5.66303 2.83215 6.00502 2.71215C6.06552 2.69115 6.12802 2.65015 6.18302 2.62515C6.18402 2.62472 6.18489 2.62403 6.18552 2.62315C6.18607 2.62207 6.18625 2.62084 6.18602 2.61965C6.18596 2.61851 6.18554 2.61741 6.18482 2.61651C6.18411 2.61561 6.18313 2.61496 6.18202 2.61465C6.00056 2.55538 5.84332 2.43867 5.73403 2.28215C5.67556 2.20536 5.63305 2.11764 5.60903 2.02416C5.56203 1.80416 5.58903 1.58466 5.69103 1.36566C5.73303 1.28266 5.78303 1.20416 5.84202 1.13066C5.84855 1.12287 5.85409 1.11431 5.85852 1.10516C5.85883 1.10419 5.85883 1.10314 5.85852 1.10216C5.85861 1.10112 5.85837 1.10008 5.85783 1.09918C5.85729 1.09828 5.85648 1.09758 5.85552 1.09716C5.76473 1.10782 5.6769 1.13619 5.59703 1.18066C5.38703 1.29966 5.21853 1.49966 5.18703 1.73966ZM2.78704 2.76165C2.83104 2.70165 2.87904 2.64965 2.92954 2.60665C2.94251 2.59571 2.95061 2.58006 2.95204 2.56315L2.96704 2.38965C3.00854 2.16216 3.11104 1.96966 3.27354 1.81366C3.31947 1.77258 3.37017 1.73716 3.42454 1.70816C3.42715 1.70666 3.42928 1.70446 3.4307 1.70181C3.43211 1.69916 3.43275 1.69616 3.43254 1.69316C3.4287 1.57148 3.44927 1.45026 3.49304 1.33666C3.49359 1.33532 3.49374 1.33386 3.49347 1.33244C3.4932 1.33102 3.49253 1.32971 3.49154 1.32866C3.49049 1.32767 3.48918 1.327 3.48776 1.32673C3.48634 1.32647 3.48488 1.32661 3.48354 1.32716C3.47045 1.33241 3.45775 1.33859 3.44554 1.34566C3.28249 1.4393 3.14175 1.56725 3.03304 1.72066C2.90418 1.90461 2.81403 2.11282 2.76804 2.33265C2.73666 2.4885 2.73058 2.64838 2.75004 2.80615C2.75025 2.80657 2.75057 2.80693 2.75097 2.80718C2.75137 2.80743 2.75183 2.80756 2.75229 2.80756C2.75276 2.80756 2.75322 2.80743 2.75362 2.80718C2.75402 2.80693 2.75434 2.80657 2.75454 2.80615L2.78704 2.76165ZM9.3585 2.29065C9.2905 2.32515 9.2175 2.34365 9.1395 2.34565C8.9865 2.35065 8.8655 2.30065 8.78951 2.16716C8.78886 2.16602 8.78797 2.16504 8.7869 2.16429C8.78584 2.16353 8.78462 2.16302 8.78333 2.16278C8.78205 2.16254 8.78073 2.16259 8.77946 2.16291C8.7782 2.16323 8.77702 2.16383 8.77601 2.16466L8.73351 2.20016C8.57251 2.32515 8.58951 2.50165 8.71351 2.64665C8.79751 2.74565 8.9035 2.80965 9.0305 2.83865C9.2545 2.88915 9.4805 2.84565 9.6515 2.69115C9.768 2.58615 9.8365 2.45615 9.8565 2.30015C9.8615 2.26465 9.8665 2.22116 9.8705 2.17016C9.87124 2.16175 9.87473 2.15382 9.88042 2.14758C9.88611 2.14135 9.89369 2.13716 9.902 2.13566C9.92055 2.13373 9.9393 2.13578 9.957 2.14166C10.1745 2.20116 10.291 2.43165 10.342 2.63365C10.3435 2.64165 10.342 2.64565 10.337 2.64615C10.2765 2.64865 10.212 2.65465 10.144 2.66365C10.1424 2.66394 10.1409 2.66471 10.1397 2.66588C10.1386 2.66704 10.1378 2.66853 10.1375 2.67015L10.138 2.67515C10.1388 2.67647 10.1401 2.67752 10.1415 2.67815C10.213 2.71615 10.2785 2.81965 10.2705 2.90065C10.2625 2.98215 10.2535 3.06515 10.244 3.15065C10.2365 3.22015 10.239 3.27515 10.2395 3.36165C10.2395 3.36665 10.2405 3.37165 10.2425 3.37665C10.2625 3.43365 10.2835 3.47465 10.351 3.47165C10.356 3.47165 10.36 3.47015 10.3645 3.46815C10.4475 3.43365 10.4855 3.34815 10.5075 3.26665C10.5475 3.12565 10.542 2.98965 10.49 2.85865C10.4736 2.82247 10.4549 2.7874 10.434 2.75365C10.4139 2.71961 10.3958 2.68438 10.38 2.64815C10.4021 2.52477 10.3987 2.39817 10.37 2.27615C10.29 1.94266 9.972 1.56166 9.5925 1.68866C9.50518 1.71663 9.42993 1.77341 9.37907 1.8497C9.3282 1.92599 9.30474 2.01729 9.3125 2.10866C9.319 2.16416 9.3425 2.23016 9.3585 2.29065ZM8.05851 2.53565C7.99786 2.61782 7.92561 2.69074 7.84401 2.75215C7.69851 2.86065 7.53651 2.92665 7.35901 2.94915C7.28052 2.95915 7.19152 2.95415 7.11902 2.95615C7.06247 2.9597 7.00798 2.97872 6.96152 3.01115C6.88052 3.06315 6.78652 3.12615 6.69652 3.16915C6.52302 3.25215 6.34152 3.29415 6.15152 3.29415C6.08401 3.29454 6.01649 3.29337 5.94902 3.29065C5.92537 3.28889 5.90164 3.29273 5.87975 3.30185C5.85786 3.31097 5.83843 3.32512 5.82302 3.34315C5.75743 3.41749 5.69126 3.49132 5.62453 3.56465L5.46353 3.67215L5.30403 3.75215C5.19253 3.80914 5.10403 3.88664 5.03903 3.98514C4.97953 4.07514 4.95403 4.16614 4.90903 4.29814C4.87047 4.40822 4.80639 4.5076 4.72203 4.58814L4.55353 4.68714C4.5519 4.68816 4.55067 4.68971 4.55003 4.69153C4.5494 4.69334 4.5494 4.69532 4.55003 4.69714C4.55603 4.71364 4.56603 4.73614 4.57903 4.76514C4.63403 4.88514 4.64653 5.01064 4.61753 5.14314C4.59843 5.21981 4.56122 5.2908 4.50903 5.35013C4.44991 5.40693 4.37557 5.44532 4.29503 5.46063C4.06704 5.49513 3.90104 5.33313 3.80604 5.14614L3.80504 5.14514H3.80354L3.80254 5.14614L3.80204 5.14764L3.83554 5.30564C3.84954 5.37113 3.88304 5.45413 3.92054 5.52313C3.94754 5.57113 3.97254 5.61813 3.99554 5.66463C3.98904 5.72513 3.96404 5.76463 3.92054 5.78363C3.87054 5.80513 3.80154 5.78113 3.75154 5.75963C3.67768 5.72746 3.60434 5.69412 3.53154 5.65963C3.50828 5.65005 3.4872 5.63585 3.46958 5.61789C3.45196 5.59993 3.43817 5.57858 3.42904 5.55513C3.40004 5.47263 3.37554 5.37563 3.34254 5.30813C3.2834 5.1841 3.17777 5.08835 3.04854 5.04164C3.02922 5.03419 3.00875 5.03013 2.98804 5.02964C2.98404 5.02314 2.98304 5.02114 2.98604 5.02364L2.97104 4.78114C2.95904 4.62114 2.98304 4.46114 3.15604 4.40314C3.39604 4.37464 3.42004 4.66064 3.55104 4.76414C3.55214 4.76491 3.55345 4.76533 3.55479 4.76533C3.55613 4.76533 3.55744 4.76491 3.55854 4.76414C3.55958 4.76355 3.56042 4.76267 3.56096 4.7616C3.56149 4.76053 3.56169 4.75932 3.56154 4.75814C3.53954 4.60514 3.51654 4.46414 3.41354 4.34914C3.38528 4.31615 3.34917 4.2908 3.30854 4.27542C3.26791 4.26005 3.22407 4.25513 3.18104 4.26114C2.97304 4.28464 2.89104 4.45414 2.87004 4.64214C2.85954 4.73864 2.85804 4.82764 2.86554 4.90964C2.87704 5.08764 2.92554 5.30764 2.94704 5.41263C2.97054 5.52913 3.00204 5.64013 3.04104 5.74513C3.07604 5.84013 3.14704 5.95813 3.19054 6.02213C3.25554 6.11913 3.34104 6.20313 3.44554 6.27413C3.62854 6.39713 3.82554 6.42263 4.03854 6.35063C4.06754 6.56613 4.11204 6.78062 4.17154 6.99562C4.18454 7.04162 4.20004 7.08412 4.21804 7.12212C4.31103 7.38112 4.45703 7.61212 4.65603 7.81412C4.78353 7.94412 4.91353 8.05412 5.04603 8.14612C5.04953 8.15212 5.06253 8.16112 5.08453 8.17112C5.10028 8.18882 5.11807 8.2046 5.13753 8.21812C5.37953 8.38261 5.63953 8.52461 5.91752 8.64411L6.03702 8.69561C6.13552 8.73911 6.21702 8.77061 6.27952 8.79111C6.42702 8.83811 6.51052 8.86411 6.53052 8.87011C6.72552 8.92661 6.92552 8.95611 7.13052 8.95761C7.28651 8.95961 7.42951 8.93311 7.56501 8.86561C7.66851 8.81311 7.77701 8.70561 7.81751 8.58911C7.89851 8.35512 7.78651 8.11412 7.58251 7.98212C7.48466 7.90853 7.37068 7.85934 7.25002 7.83862C7.16903 7.82284 7.0863 7.81796 7.00402 7.82412C7.03902 7.76912 7.06152 7.73512 7.07152 7.72212C7.13802 7.63462 7.26402 7.61762 7.36351 7.63362C7.44701 7.64762 7.51801 7.66012 7.57651 7.67212C7.68801 7.69462 7.77501 7.64012 7.75251 7.51562C7.74925 7.48754 7.73946 7.46061 7.72392 7.43699C7.70837 7.41337 7.68752 7.39373 7.66301 7.37962C7.56169 7.32452 7.45183 7.28683 7.33801 7.26812C7.29405 7.25842 7.24893 7.25505 7.20402 7.25812C7.09402 7.27212 7.00652 7.28312 6.94202 7.28962C6.88729 7.29895 6.83699 7.32559 6.79852 7.36562C6.77265 7.36036 6.74804 7.35017 6.72602 7.33562C6.71051 7.32126 6.69956 7.30265 6.69452 7.28212C6.71952 7.19612 6.77502 7.15012 6.86252 7.14462C6.86892 7.14437 6.87531 7.14539 6.88132 7.14762C6.88733 7.14985 6.89283 7.15325 6.89752 7.15762C6.97852 7.23362 7.07852 7.20312 7.17602 7.16962C7.29164 7.12669 7.41913 7.12847 7.53351 7.17462C7.57701 7.19162 7.68251 7.23712 7.74351 7.23062C7.81451 7.22262 7.85051 7.18062 7.85101 7.10512C7.85109 7.0997 7.84975 7.09436 7.84711 7.08962C7.84448 7.08488 7.84065 7.08092 7.83601 7.07812C7.8117 7.06191 7.78769 7.04524 7.76401 7.02812C7.7575 7.02314 7.75191 7.01704 7.74751 7.01012C7.72378 6.97457 7.70127 6.93821 7.68001 6.90112C7.63751 6.82763 7.56101 6.80512 7.48151 6.78613C7.43388 6.77302 7.39112 6.74625 7.35851 6.70913C7.40851 6.61113 7.49451 6.55263 7.61601 6.53463C7.67003 6.52599 7.72539 6.53239 7.77601 6.55313C7.91051 6.60813 8.00601 6.64613 8.06351 6.66663C8.21951 6.72163 8.38801 6.72413 8.47251 6.56013C8.4985 6.51714 8.51329 6.46831 8.51551 6.41813C8.52551 6.16413 8.54051 5.74463 8.56151 5.15964L8.58101 4.65564C8.58601 4.51914 8.62301 4.39814 8.74251 4.32164C8.83751 4.26664 8.959 4.27314 9.065 4.26564C9.279 4.25064 9.3075 4.04764 9.269 3.88064C9.237 3.70265 9.1085 3.54715 8.952 3.46165C8.86787 3.41686 8.77876 3.38212 8.68651 3.35815C8.62559 3.33705 8.56598 3.31234 8.50801 3.28415C8.44417 3.247 8.38464 3.2029 8.33051 3.15265V3.15065L8.33251 3.14965H8.33451L8.43551 3.19515C8.50401 3.22315 8.57551 3.23315 8.64951 3.22515C8.804 3.20915 8.892 3.06015 8.79351 2.92515C8.72851 2.83515 8.61151 2.76315 8.52851 2.70565C8.45309 2.6521 8.38501 2.58889 8.32601 2.51765C8.26256 2.44124 8.21374 2.35377 8.18201 2.25966C8.18165 2.25937 8.18121 2.25922 8.18076 2.25922C8.1803 2.25922 8.17986 2.25937 8.17951 2.25966L8.17901 2.26065C8.15833 2.35968 8.1173 2.45333 8.05851 2.53565ZM10.0155 2.75815C10.01 2.76815 10.0065 2.79015 10 2.79915C9.9085 2.91865 9.835 2.96815 9.7025 3.06515C9.64645 3.10616 9.60214 3.16116 9.574 3.22465C9.57399 3.22589 9.57445 3.22709 9.57528 3.22802C9.57612 3.22894 9.57726 3.22952 9.5785 3.22965C9.631 3.23365 9.6845 3.23065 9.7395 3.22065C9.99 3.17415 10.0445 2.98115 10.023 2.76015L10.022 2.75765C10.0214 2.75704 10.0207 2.75662 10.0199 2.75644C10.0191 2.75626 10.0183 2.75633 10.0175 2.75665C10.0167 2.75693 10.016 2.75745 10.0155 2.75815ZM2.13305 3.94514C2.10905 4.09264 2.11205 4.24164 2.14205 4.39164C2.18705 4.64514 2.29755 4.89514 2.48555 5.07464C2.50955 5.09764 2.53855 5.11964 2.57305 5.13964C2.58005 5.14664 2.58705 5.14864 2.59405 5.14514C2.64755 5.12014 2.70555 5.08264 2.76904 5.03364C2.77095 5.03216 2.77248 5.03026 2.77352 5.02809C2.77456 5.02593 2.77508 5.02354 2.77504 5.02114V4.97614C2.77494 4.96723 2.77149 4.95868 2.76538 4.9522C2.75926 4.94571 2.75093 4.94176 2.74205 4.94114C2.65943 4.9348 2.58058 4.90399 2.51555 4.85264C2.43091 4.78611 2.36877 4.69517 2.33755 4.59214C2.32648 4.5581 2.31481 4.52426 2.30255 4.49064L2.31105 4.41814C2.31105 4.41715 2.31144 4.41619 2.31215 4.41549C2.31285 4.41479 2.3138 4.41439 2.3148 4.41439C2.31579 4.41439 2.31675 4.41479 2.31745 4.41549C2.31815 4.41619 2.31855 4.41715 2.31855 4.41814C2.33655 4.53314 2.40705 4.68164 2.51605 4.73514C2.54034 4.74789 2.56776 4.75348 2.59511 4.75127C2.62245 4.74905 2.64861 4.73913 2.67055 4.72264C2.71377 4.67259 2.74353 4.61237 2.75704 4.54764C2.75864 4.54006 2.75797 4.53219 2.75513 4.52499C2.75229 4.51779 2.74739 4.51158 2.74104 4.50714C2.56355 4.38714 2.54855 4.20714 2.70205 4.06714C2.88104 3.90464 3.13604 3.89114 3.33854 4.00464C3.35554 4.01414 3.38204 4.03114 3.41704 4.05664C3.44204 4.07464 3.46804 4.09264 3.49454 4.11014C3.53204 4.14714 3.57954 4.18914 3.63704 4.23514C3.73704 4.31664 3.84104 4.35514 3.97204 4.36014C4.17754 4.36864 4.34603 4.29664 4.47703 4.14414C4.54053 4.07064 4.57053 3.99714 4.62303 3.88814C4.65153 3.82537 4.69378 3.76981 4.74666 3.72558C4.79955 3.68135 4.8617 3.64959 4.92853 3.63265C4.92878 3.63219 4.92892 3.63169 4.92895 3.63118C4.92898 3.63067 4.9289 3.63015 4.9287 3.62968C4.92851 3.6292 4.92822 3.62877 4.92784 3.62842C4.92747 3.62807 4.92702 3.6278 4.92653 3.62765L4.76753 3.59315C4.7088 3.57952 4.64881 3.57198 4.58853 3.57065C4.49751 3.55991 4.40528 3.5739 4.32153 3.61115C4.22354 3.65615 4.14304 3.75115 4.04404 3.77815C3.91054 3.81464 3.80854 3.77564 3.73854 3.66165C3.7266 3.63706 3.72077 3.60996 3.72154 3.58265L3.72604 3.57915C3.83254 3.71715 3.98104 3.63965 4.00504 3.49015C4.01801 3.40745 3.99906 3.32291 3.95204 3.25365C3.84554 3.09565 3.69304 3.02215 3.49404 3.03315C3.29554 3.04415 3.10754 3.15715 2.98304 3.30715C2.88704 3.42315 2.78204 3.58065 2.62855 3.53615C2.51555 3.50315 2.51105 3.39715 2.53355 3.29765C2.53368 3.29672 2.53354 3.29576 2.53316 3.2949C2.53277 3.29405 2.53215 3.29331 2.53137 3.29279C2.53059 3.29227 2.52967 3.29198 2.52873 3.29195C2.52779 3.29193 2.52686 3.29217 2.52605 3.29265C2.48105 3.32065 2.44355 3.35015 2.41405 3.38065C2.26457 3.53545 2.16645 3.73256 2.13305 3.94514ZM3.74354 4.75864C3.76141 4.81989 3.79095 4.8771 3.83054 4.92714C3.85754 4.96114 3.88804 4.99314 3.92104 5.02364C3.96104 5.10214 4.01004 5.15564 4.06754 5.18414C4.19754 5.24914 4.34453 5.19614 4.39653 5.05864C4.43553 4.94014 4.42003 4.83664 4.35053 4.74864C4.32434 4.71494 4.29154 4.68696 4.25413 4.66641C4.21673 4.64586 4.17552 4.63318 4.13304 4.62914C4.04512 4.62415 3.95694 4.627 3.86954 4.63764L3.69454 4.53264C3.69372 4.5321 3.69277 4.53182 3.69179 4.53182C3.69081 4.53182 3.68986 4.5321 3.68904 4.53264C3.68808 4.53316 3.68732 4.53398 3.68686 4.53497C3.68641 4.53596 3.6863 4.53708 3.68654 4.53814C3.69454 4.61814 3.71354 4.69214 3.74354 4.75864ZM2.61505 5.42963C2.60026 5.45072 2.5869 5.47277 2.57505 5.49563C2.53805 5.57463 2.52055 5.65713 2.52405 5.74313C2.52905 5.87313 2.62205 6.07913 2.78804 6.04313C2.81545 6.03771 2.84112 6.02568 2.86282 6.00807C2.88452 5.99047 2.90159 5.96783 2.91254 5.94213C2.92603 5.91942 2.93327 5.89354 2.93354 5.86713C2.92783 5.79856 2.91217 5.73119 2.88704 5.66713C2.84308 5.54577 2.81616 5.41889 2.80704 5.29014C2.80667 5.28665 2.80528 5.28334 2.80304 5.28064C2.80178 5.27908 2.80001 5.27801 2.79804 5.27763C2.79604 5.27713 2.79404 5.27763 2.79204 5.27863C2.7263 5.32048 2.66673 5.37131 2.61505 5.42963ZM2.66955 6.65463C2.71379 6.73995 2.77059 6.81816 2.83804 6.88662C2.83904 6.88712 2.83954 6.88762 2.84054 6.88712C2.84147 6.88717 2.8424 6.88701 2.84326 6.88667C2.84412 6.88632 2.8449 6.8858 2.84554 6.88512L2.88554 6.83712C2.98232 6.79089 3.08966 6.77122 3.19654 6.78013C3.21154 6.78163 3.22654 6.78262 3.24204 6.78212L3.31704 6.82313C3.35904 6.85162 3.40204 6.88062 3.44554 6.91112C3.49462 6.95018 3.54013 6.99352 3.58154 7.04062H3.58304C3.58346 7.04039 3.58381 7.04005 3.58404 7.03962V7.03812C3.57891 6.93105 3.55645 6.82551 3.51754 6.72563C3.48804 6.65593 3.44469 6.59295 3.39011 6.54052C3.33553 6.48809 3.27087 6.4473 3.20004 6.42063C3.15449 6.37286 3.10866 6.32536 3.06254 6.27813C3.03663 6.24998 3.00438 6.2284 2.96847 6.21519C2.93257 6.20197 2.89403 6.19749 2.85604 6.20213C2.76862 6.22156 2.67713 6.20915 2.59805 6.16713C2.59727 6.16713 2.5965 6.16731 2.59581 6.16766C2.59512 6.168 2.59451 6.16851 2.59405 6.16913C2.57343 6.33484 2.59958 6.50301 2.66955 6.65463ZM3.73804 7.60562C3.74104 7.61812 3.74204 7.62412 3.74104 7.62412C3.75254 7.77762 3.77004 7.92512 3.79404 8.06762C3.81654 8.28912 3.84004 8.47261 3.86404 8.61761L4.07354 9.8856C4.11954 10.1616 4.13654 10.3216 4.16604 10.6141C4.17704 10.7211 4.21354 10.8176 4.27504 10.9031C4.37653 11.0446 4.49403 11.1681 4.62753 11.2751C4.85703 11.4586 5.11253 11.5981 5.39453 11.6941C5.61653 11.7781 5.84752 11.8341 6.08702 11.8636C6.32502 11.8906 6.56852 11.8901 6.81752 11.8616C7.01502 11.8426 7.21452 11.8016 7.41551 11.7391C7.47501 11.7201 7.56751 11.6871 7.69251 11.6391C7.71221 11.6305 7.73126 11.6205 7.74951 11.6091C7.77166 11.6039 7.79314 11.5962 7.81351 11.5861C7.96901 11.5111 8.12001 11.4321 8.26601 11.3496C8.31406 11.3219 8.36017 11.291 8.40401 11.2571V11.2536C8.40344 11.2525 8.40257 11.2517 8.40151 11.2511C8.40049 11.2504 8.39925 11.25 8.39801 11.2501C8.04001 11.2826 7.71201 11.2166 7.38051 11.0586C7.09352 10.9221 6.83652 10.6996 6.60452 10.4536C6.3807 10.2184 6.16572 9.97486 5.96002 9.72361L4.81703 8.34311C4.68035 8.18114 4.55458 8.01026 4.44053 7.83162C4.3093 7.62472 4.21191 7.3982 4.15204 7.16062L4.07854 6.85562C4.07806 6.85351 4.07684 6.85164 4.07509 6.85035C4.07335 6.84906 4.0712 6.84845 4.06904 6.84862C3.84404 6.86762 3.72904 7.13162 3.72504 7.32762C3.72121 7.42049 3.72556 7.51351 3.73804 7.60562ZM3.00304 6.99862C2.97438 7.03831 2.95784 7.08547 2.95545 7.13437C2.95305 7.18327 2.9649 7.23182 2.98954 7.27412C3.01594 7.32566 3.05587 7.36905 3.10504 7.39962C3.11153 7.40369 3.11883 7.40629 3.12643 7.40724C3.13403 7.40819 3.14175 7.40747 3.14904 7.40512C3.30004 7.35762 3.43904 7.33112 3.59254 7.38812H3.59454C3.59529 7.38798 3.59598 7.38764 3.59654 7.38712C3.59702 7.38659 3.59733 7.38592 3.59742 7.3852C3.59751 7.38448 3.59738 7.38376 3.59704 7.38312C3.55872 7.29693 3.50784 7.21689 3.44604 7.14562C3.38877 7.07026 3.31485 7.00916 3.23004 6.96712C3.19768 6.94911 3.16192 6.93804 3.12504 6.93462C3.07604 6.93312 3.03504 6.95462 3.00304 6.99862ZM3.48304 8.12612C3.52114 8.14627 3.5624 8.1598 3.60504 8.16612L3.67504 8.17412C3.67821 8.17427 3.68137 8.1735 3.68412 8.1719C3.68687 8.17031 3.6891 8.16795 3.69054 8.16512C3.70264 8.03093 3.69079 7.89566 3.65554 7.76562C3.65492 7.76363 3.6537 7.76188 3.65204 7.76062C3.65033 7.75929 3.64821 7.75858 3.64604 7.75862C3.55654 7.76262 3.46804 7.77512 3.37954 7.79562C3.37504 7.79062 3.36804 7.78762 3.35804 7.78662C3.27439 7.73439 3.20769 7.65901 3.16604 7.56962C3.1652 7.56922 3.16427 7.56902 3.16334 7.56904C3.16241 7.56906 3.16149 7.5693 3.16066 7.56974C3.15984 7.57018 3.15913 7.5708 3.15858 7.57156C3.15804 7.57232 3.15769 7.5732 3.15754 7.57412C3.12304 7.80112 3.29654 8.02012 3.48304 8.12612Z" fill="black"/>
<path fill-rule="evenodd" clip-rule="evenodd" d="M4.0631 1.84864C4.01491 2.02338 4.01215 2.20754 4.0551 2.38364L4.0096 2.37214C3.8546 2.26464 3.6616 2.30264 3.5266 2.41714C3.52542 2.41826 3.52398 2.41907 3.52241 2.41951C3.52085 2.41994 3.51919 2.41999 3.5176 2.41964C3.46947 2.4084 3.4199 2.40452 3.37061 2.40814C3.4456 2.29314 3.5466 2.21664 3.6726 2.17964C3.7141 2.16764 3.7661 2.15764 3.8276 2.15064C3.82964 2.15031 3.83155 2.14944 3.83313 2.14812C3.83471 2.14681 3.83591 2.14508 3.8366 2.14314C3.8821 2.02314 3.9576 1.92564 4.0631 1.84864ZM7.59358 4.00463C7.80108 4.09513 7.94108 4.25813 7.95558 4.48963C7.95578 4.49422 7.95416 4.49871 7.95108 4.50213L7.94208 4.51263C7.82158 4.62863 7.71058 4.74363 7.57458 4.84262C7.45958 4.92512 7.29458 5.00012 7.15008 4.99112C7.12732 4.99044 7.10494 4.98511 7.08431 4.97549C7.06368 4.96586 7.04523 4.95212 7.03008 4.93512C7.01185 4.87527 7.0054 4.81244 7.01108 4.75013C7.01164 4.7445 7.00996 4.73887 7.00641 4.73447C7.00285 4.73008 6.9977 4.72726 6.99208 4.72663C6.9663 4.72347 6.94126 4.71586 6.91808 4.70413C6.94808 4.63713 6.96508 4.57863 6.96908 4.52813C6.98358 4.36463 6.85008 4.27813 6.70408 4.25913C6.58613 4.24381 6.46623 4.25649 6.35409 4.29613C6.30409 4.31113 6.25759 4.33263 6.21459 4.35913C6.18405 4.37842 6.15644 4.402 6.13259 4.42913C6.10826 4.45617 6.08426 4.4835 6.06059 4.51113C6.05929 4.51286 6.05859 4.51496 6.05859 4.51713C6.05859 4.51963 6.05959 4.52213 6.06109 4.52363C6.06859 4.53163 6.07209 4.53913 6.07159 4.54663L5.98259 4.58363L5.89659 4.56813C5.77223 4.53722 5.64619 4.51351 5.51909 4.49713C5.44036 4.48311 5.36268 4.46373 5.28659 4.43913C5.39409 4.44413 5.48859 4.43913 5.56909 4.42263C5.65512 4.40495 5.73919 4.37882 5.82009 4.34463C6.10209 4.22663 6.31559 4.12963 6.58908 4.09663C6.5933 4.0961 6.59725 4.09428 6.60038 4.09142C6.60352 4.08855 6.60568 4.08478 6.60658 4.08063C6.63008 3.97513 6.70158 3.93813 6.80508 3.91713C6.87408 3.90263 6.96158 3.89963 7.06808 3.90713C7.25708 3.92113 7.42558 3.94013 7.59308 4.00513L7.59358 4.00463Z" fill="black"/>
</svg>
