<svg width="12" height="12" viewBox="0 0 12 12" fill="none" xmlns="http://www.w3.org/2000/svg">
<path d="M5.2975 1C4.92526 0.999946 4.56168 1.11234 4.25441 1.32245C3.94713 1.53256 3.71049 1.8306 3.5755 2.1775L0 11.38H2.716L5.5305 4.137H5.5315C5.56718 4.04803 5.62869 3.97179 5.70809 3.91809C5.78749 3.86439 5.88115 3.83569 5.977 3.83569C6.07286 3.83569 6.16651 3.86439 6.24591 3.91809C6.32531 3.97179 6.38682 4.04803 6.4225 4.137H6.7975V2.6675H6.101L6.749 1H5.2975Z" fill="#2545D3"/>
<path d="M3.5755 2.1775C3.70484 1.84525 3.92756 1.55752 4.21679 1.34903C4.50602 1.14053 4.8494 1.02019 5.2055 1.0025L5.2045 1H6.7025C7.4645 1 8.149 1.468 8.4245 2.1775L12 11.38H9.2375L5.77 2.4565C5.66968 2.23481 5.5075 2.04679 5.30293 1.91501C5.09837 1.78324 4.86011 1.71331 4.61678 1.71363C4.37345 1.71395 4.13538 1.78449 3.93116 1.9168C3.72694 2.04911 3.56525 2.23755 3.4655 2.4595L3.5755 2.1775Z" fill="#566DE8"/>
</svg>
