<svg width="12" height="12" viewBox="0 0 12 12" fill="none" xmlns="http://www.w3.org/2000/svg">
<g clip-path="url(#clip0_15_4928)">
<path d="M9.533 0.0657743C9.501 0.0127743 9.427 -0.0192257 9.363 0.0127743L8.168 0.679274C7.565 1.01827 7.184 1.37777 6.951 2.06527C6.84807 2.3722 6.80999 2.69716 6.83917 3.01956C6.86834 3.34197 6.96414 3.65481 7.1205 3.93827C7.152 3.99127 7.2265 4.02327 7.2895 3.99127L8.4855 3.32477C9.0885 2.98577 9.4695 2.62627 9.702 1.93877C9.80508 1.63181 9.84328 1.30678 9.81419 0.984282C9.7851 0.661782 9.68935 0.348838 9.533 0.0652743V0.0657743ZM0.963 2.71077C0.921111 2.71167 0.881185 2.72871 0.851558 2.75833C0.821931 2.78796 0.804893 2.82789 0.804 2.86977C0.804 3.72677 1.174 4.49877 1.7565 5.02777C2.4335 5.64177 3.068 5.80027 3.936 5.80027H5.65C5.7345 5.80027 5.8085 5.72627 5.8085 5.64177C5.8085 4.78477 5.4385 4.01177 4.8565 3.48327C4.179 2.86977 3.5445 2.71027 2.6765 2.71027H0.9635L0.963 2.71077ZM11.913 5.27127C11.912 5.22956 11.895 5.18983 11.8655 5.16032C11.8359 5.13081 11.7962 5.11379 11.7545 5.11277V5.12277H10.0195C9.141 5.12277 8.496 5.29277 7.808 5.90627C7.2155 6.42427 6.835 7.21777 6.835 8.08577C6.835 8.17027 6.909 8.24428 6.9935 8.24428H8.7285C9.607 8.24428 10.252 8.07477 10.94 7.46127C11.2466 7.18481 11.4918 6.847 11.6595 6.46972C11.8272 6.09245 11.9132 5.68414 11.913 5.27127ZM0 7.89527C0 7.77877 0.095 7.67277 0.222 7.67277H2.624C3.8405 7.67277 4.729 7.90577 5.6815 8.76277C6.4965 9.49277 7.004 10.5828 7.0145 11.7778C7.0145 11.8943 6.9195 12.0003 6.7925 12.0003H4.391C3.174 12.0003 2.2855 11.7783 1.333 10.9213C0.518 10.1803 0.0105 9.09027 0 7.89527Z" fill="#416FDC"/>
</g>
<defs>
<clipPath id="clip0_15_4928">
<rect width="12" height="12" fill="white"/>
</clipPath>
</defs>
</svg>
