<svg width="12" height="12" viewBox="0 0 12 12" fill="none" xmlns="http://www.w3.org/2000/svg">
<g clip-path="url(#clip0_15_4934)">
<path d="M11.1675 2.805L9.176 3.96C9.10778 3.99898 9.03057 4.01948 8.952 4.01948C8.87343 4.01948 8.79622 3.99898 8.728 3.96L6.53 2.692C6.46172 2.65293 6.38442 2.63237 6.30575 2.63237C6.22708 2.63237 6.14978 2.65293 6.0815 2.692L3.888 3.96C3.81978 3.99898 3.74257 4.01948 3.664 4.01948C3.58543 4.01948 3.50822 3.99898 3.44 3.96L1.448 2.8085L6.311 0L11.1675 2.805Z" fill="#5BCA87"/>
<path d="M9.63047 4.73349C9.56353 4.77296 9.50809 4.82926 9.46966 4.89681C9.43124 4.96435 9.41118 5.04078 9.41147 5.11849V7.65449C9.4111 7.73248 9.39038 7.80902 9.35136 7.87654C9.31233 7.94407 9.25636 8.00024 9.18897 8.03949L6.97497 9.29449C6.90665 9.33357 6.85001 9.39019 6.81089 9.45849C6.77177 9.52679 6.75161 9.60429 6.75247 9.68299V11.9865L8.96697 10.7185L11.622 9.19499V3.57849L9.63047 4.73349Z" fill="#EC5D3E"/>
<path d="M5.8 9.47051C5.76481 9.39993 5.71235 9.33939 5.6475 9.29451L3.433 8.03651C3.36758 7.9964 3.31346 7.94027 3.27575 7.87344C3.23804 7.8066 3.218 7.73125 3.2175 7.65451V5.11551C3.21595 5.03823 3.19429 4.96268 3.15466 4.89631C3.11503 4.82994 3.0588 4.77504 2.9915 4.73701L2.766 4.60701L1 3.57901V9.19501L3.6555 10.7185L5.873 12V9.69601C5.86964 9.61576 5.84439 9.53745 5.8 9.47051Z" fill="#2464F5"/>
</g>
<defs>
<clipPath id="clip0_15_4934">
<rect width="12" height="12" fill="white"/>
</clipPath>
</defs>
</svg>
