<svg width="12" height="12" viewBox="0 0 12 12" fill="none" xmlns="http://www.w3.org/2000/svg">
<path fill-rule="evenodd" clip-rule="evenodd" d="M2.4885 2.1432C2.42283 2.08447 2.36969 2.01309 2.33225 1.93334C2.29482 1.85359 2.27385 1.7671 2.27061 1.67906C2.26738 1.59102 2.28194 1.50323 2.31342 1.42094C2.3449 1.33866 2.39266 1.26357 2.45384 1.20017C2.51501 1.13678 2.58835 1.08637 2.66946 1.05198C2.75057 1.01758 2.83779 0.999904 2.92589 1C3.01399 1.0001 3.10116 1.01796 3.1822 1.05254C3.26323 1.08711 3.33646 1.13767 3.3975 1.2012L4.8115 2.5652C4.8515 2.6042 4.886 2.6467 4.914 2.6922H7.0525C7.08128 2.64579 7.11571 2.60313 7.155 2.5652L8.569 1.2012C8.69528 1.08825 8.86042 1.02862 9.02973 1.03485C9.19905 1.04107 9.35936 1.11266 9.47701 1.23458C9.59466 1.3565 9.66049 1.51926 9.66067 1.68869C9.66086 1.85812 9.59538 2.02103 9.478 2.1432L8.91 2.6927H9.334C10.041 2.69284 10.7191 2.97376 11.219 3.4737C11.7189 3.97365 11.9999 4.65168 12 5.3587V9.0287C12.0001 9.37891 11.9311 9.72571 11.7972 10.0493C11.6632 10.3729 11.4668 10.6669 11.2192 10.9145C10.9716 11.1622 10.6776 11.3586 10.354 11.4927C10.0305 11.6267 9.68371 11.6957 9.3335 11.6957H2.6665C1.9593 11.6957 1.28107 11.4148 0.781 10.9147C0.280934 10.4146 0 9.7364 0 9.0292L0 5.3587C0 4.6515 0.280934 3.97327 0.781 3.4732C1.28107 2.97314 1.9593 2.6922 2.6665 2.6922H3.057L2.4885 2.1427V2.1432ZM2.6665 3.9782C2.31292 3.97834 1.97387 4.11889 1.7239 4.36895C1.47392 4.61902 1.3335 4.95812 1.3335 5.3117V9.0762C1.33363 9.4297 1.47412 9.76867 1.72407 10.0186C1.97403 10.2686 2.31301 10.4091 2.6665 10.4092H9.3335C9.68699 10.4091 10.026 10.2686 10.2759 10.0186C10.5259 9.76867 10.6664 9.4297 10.6665 9.0762V5.3112C10.6664 4.95771 10.5259 4.61873 10.2759 4.36878C10.026 4.11882 9.68699 3.97834 9.3335 3.9782H2.6665ZM3.3335 6.5742C3.3335 6.39744 3.40372 6.22791 3.52871 6.10292C3.65371 5.97792 3.82323 5.9077 4 5.9077C4.17677 5.9077 4.34629 5.97792 4.47129 6.10292C4.59628 6.22791 4.6665 6.39744 4.6665 6.5742V7.1702C4.6665 7.34697 4.59628 7.5165 4.47129 7.64149C4.34629 7.76648 4.17677 7.8367 4 7.8367C3.82323 7.8367 3.65371 7.76648 3.52871 7.64149C3.40372 7.5165 3.3335 7.34697 3.3335 7.1702V6.5742ZM8 5.9077C7.632 5.9077 7.3335 6.2062 7.3335 6.5742V7.1702C7.3335 7.25773 7.35074 7.3444 7.38423 7.42526C7.41773 7.50613 7.46682 7.5796 7.52871 7.64149C7.5906 7.70338 7.66408 7.75247 7.74494 7.78597C7.82581 7.81946 7.91247 7.8367 8 7.8367C8.08753 7.8367 8.17419 7.81946 8.25506 7.78597C8.33592 7.75247 8.4094 7.70338 8.47129 7.64149C8.53318 7.5796 8.58227 7.50613 8.61577 7.42526C8.64926 7.3444 8.6665 7.25773 8.6665 7.1702V6.5742C8.6665 6.2062 8.368 5.9077 8 5.9077Z" fill="#FB7299"/>
</svg>
