<svg width="12" height="12" viewBox="0 0 12 12" fill="none" xmlns="http://www.w3.org/2000/svg">
<path d="M9.10714 4.92944C8.89286 4.59737 8.64286 4.24686 8.35714 3.8779C8.35714 3.8779 7.39286 2.71567 7.55357 1C7.55357 1 3.85714 2.49429 3.80357 5.53822C3.80357 5.53822 3.26786 4.65272 3.375 2.99239C3.375 2.99239 2.19643 4.15462 2.03571 6.03632C0.910714 6.42373 0 7.41992 0 8.41612C0 9.79972 1.44643 10.962 3.16071 10.962C1.875 10.7406 0.910714 9.85507 0.910714 8.74818C0.910714 7.97337 1.33929 7.36458 1.98214 6.92183C2.01786 7.32768 2.10714 7.77044 2.25 8.25009C2.25 8.25009 2.89286 10.3532 5.14286 10.9066C5.78571 11.0726 6.48214 11.0173 7.125 10.7406C7.82143 10.4085 8.625 9.74438 8.625 8.25009C8.625 8.25009 8.67857 6.75579 7.82143 5.98098C7.82143 5.98098 8.94643 8.74818 6.85714 9.57835C6.16071 9.85507 5.46429 9.85507 4.76786 9.57835C3.85714 9.19094 2.73214 8.19474 2.89286 5.59357C2.89286 5.59357 3.42857 7.47527 4.60714 8.19474C4.60714 8.19474 3.53571 4.98478 6.69643 2.77101C6.69643 2.77101 6.96429 3.93324 7.71429 4.59737C7.92857 4.81875 9.85714 6.36838 9.48214 9.0249C9.85714 8.52681 10.1786 7.30924 9.85714 6.36838C9.85714 6.36838 9.80357 6.14701 9.64286 5.87029C10.4464 6.03632 11.0893 6.70045 11.1429 8.19474C11.1964 9.46766 10.2857 10.5192 9.10714 10.962C10.7143 10.7406 12 9.46766 12 7.86268C12 6.31304 10.8214 5.04012 9.10714 4.92944Z" fill="url(#paint0_linear_15_4942)"/>
<defs>
<linearGradient id="paint0_linear_15_4942" x1="6.03107" y1="4.10924" x2="6.00795" y2="9.22746" gradientUnits="userSpaceOnUse">
<stop stop-color="#F7B52C"/>
<stop offset="1" stop-color="#E95513"/>
</linearGradient>
</defs>
</svg>
