<svg width="12" height="12" viewBox="0 0 12 12" fill="none" xmlns="http://www.w3.org/2000/svg">
<path fill-rule="evenodd" clip-rule="evenodd" d="M4.9585 1C7.4115 1 10.0475 2.9735 9.4235 6.29C9.4165 6.325 9.405 6.36 9.395 6.395L9.3935 6.2565C9.352 4.7565 8.6265 1.7895 4.9585 1.7895C3.262 1.7895 0.89 3.3165 0.9935 5.8685C0.9735 8.2575 2.771 10.0685 4.9685 10.0345L5.005 10.034C5.605 10.0175 6.3865 9.8195 6.555 9.2055C6.5865 9.19 6.685 9.4725 6.689 9.5045C6.713 9.6325 6.745 9.689 6.785 9.6745C7.2755 9.5005 7.928 9.0635 7.761 8.4845C7.673 8.1795 6.8735 8.411 6.8005 8.311C7.0095 7.8215 7.9175 7.848 8.377 7.953C8.5985 8.004 8.7055 8.143 8.883 8.174C9.028 8.2 9.3735 8.074 9.363 8.295C8.613 9.816 6.9165 11 4.959 11C1.827 11 0 8.287 0 5.8685C0 2.9735 2.4795 1 4.9585 1ZM4.95 2.65C5.192 2.65 5.5125 2.7625 5.64 2.9425C7.4745 3.015 7.7965 4.2855 7.987 5.6645C8.1145 6.5835 8.1445 6.8145 8.078 6.358L8.1195 6.653C8.1535 6.877 8.3965 7.0215 8.6105 6.911C8.6825 6.8735 8.7375 6.7955 8.7745 6.676C8.77845 6.66309 8.78497 6.65112 8.79367 6.6408C8.80237 6.63049 8.81307 6.62203 8.82512 6.61596C8.83718 6.60989 8.85034 6.60632 8.8638 6.60546C8.87727 6.60461 8.89078 6.6065 8.9035 6.611L9.216 6.721C9.23925 6.72962 9.25847 6.74657 9.26992 6.76856C9.28138 6.79055 9.28426 6.81601 9.278 6.84C9.23197 7.01191 9.14441 7.16988 9.023 7.3C8.584 7.7585 7.6445 7.632 7.483 6.99C7.413 6.713 7.4555 6.677 7.3105 6.369C7.1645 6.0585 6.6915 6.0145 6.4655 6.2215C6.293 6.379 6.262 6.624 6.2625 6.8625L6.3 7.95C6.3 8.06935 6.25259 8.18381 6.1682 8.2682C6.08381 8.35259 5.96935 8.4 5.85 8.4H5.15C5.09091 8.4 5.03239 8.38836 4.97779 8.36575C4.9232 8.34313 4.87359 8.30998 4.8318 8.2682C4.79002 8.22641 4.75687 8.1768 4.73425 8.12221C4.71164 8.06761 4.7 8.00909 4.7 7.95V7.625C4.7 7.54949 4.68513 7.47472 4.65623 7.40496C4.62733 7.33519 4.58498 7.27181 4.53159 7.21841C4.47819 7.16502 4.41481 7.12267 4.34504 7.09377C4.27528 7.06487 4.20051 7.05 4.125 7.05C4.04949 7.05 3.97472 7.06487 3.90496 7.09377C3.83519 7.12267 3.77181 7.16502 3.71841 7.21841C3.66502 7.27181 3.62267 7.33519 3.59377 7.40496C3.56487 7.47472 3.55 7.54949 3.55 7.625V7.95C3.55 8.06935 3.50259 8.18381 3.4182 8.2682C3.33381 8.35259 3.21935 8.4 3.1 8.4H2.4C2.28065 8.4 2.16619 8.35259 2.0818 8.2682C1.99741 8.18381 1.95 8.06935 1.95 7.95L1.9675 6.3305C1.9735 5.3885 2.1455 4.5015 3.2025 4.2635C3.3025 4.241 3.3285 4.3285 3.3475 4.4345C3.36 4.5115 3.369 4.5605 3.374 4.5815C3.7245 6.1105 4.249 6.731 4.946 6.4425L5.276 6.277L5.403 6.212C5.482 6.171 5.528 6.1465 5.541 6.137C5.547 6.132 5.4585 6.034 5.3375 5.905L4.8315 5.3715C4.79774 5.33605 4.76457 5.30004 4.732 5.2635C4.7085 5.2465 4.674 5.2975 4.628 5.4165C4.591 5.495 4.5025 5.5425 4.492 5.5795C4.4855 5.6085 4.546 5.7285 4.673 5.9395C4.755 6.0835 4.783 6.1935 4.518 6.111C3.998 5.711 3.759 4.9745 3.676 4.2485C3.674 4.231 3.595 3.292 3.595 3.292C3.58387 3.13327 3.63624 2.97662 3.74061 2.8565C3.84497 2.73639 3.99277 2.66265 4.1515 2.6515L4.95 2.65ZM11.447 6.99C11.4655 7.3385 11.2455 7.342 10.8405 7.2855L9.949 7.1475C9.8165 7.121 9.7565 7.098 9.7925 7.074C10.0275 6.9165 11.4265 6.609 11.4475 6.99H11.447ZM10.9895 6.9485L10.5265 6.9695C10.1015 7.008 9.8005 7.0895 10.6955 7.1375L10.747 7.139C11.1545 7.145 11.379 6.9595 10.9895 6.9485ZM11.823 5.148H11.828C12.223 5.347 11.8615 5.663 11.503 5.8445C11.433 5.8795 11.2575 5.9325 10.977 6.002C10.8565 6.022 10.7485 6.048 10.8105 6.082L10.8155 6.0845C11.7915 6.5635 9.254 6.8515 9.568 6.727L9.758 6.653C10.098 6.52 10.565 6.312 10.591 5.9845C10.61 5.7445 11.2175 5.7635 11.3375 5.5005C11.3615 5.4475 11.3375 5.3825 11.2655 5.306C11.2405 5.2825 11.2185 5.259 11.212 5.232C11.1755 5.0795 11.562 5.0165 11.823 5.148ZM10.539 4.911C10.4715 5.51 9.2995 7.007 9.5645 6.3425L9.573 6.3215C9.722 5.963 9.761 5.211 10.2415 4.711C10.3665 4.581 10.5595 4.7285 10.539 4.911ZM6.551 4.7845C6.561 4.4375 7.052 4.3005 7.224 4.611C7.229 3.974 6.2535 4.227 6.551 4.7845Z" fill="url(#paint0_linear_15_4949)"/>
<defs>
<linearGradient id="paint0_linear_15_4949" x1="-2.2507" y1="5.9371" x2="7.73002" y2="11.491" gradientUnits="userSpaceOnUse">
<stop stop-color="#504AF4"/>
<stop offset="1" stop-color="#3485FF"/>
</linearGradient>
</defs>
</svg>
