<svg width="12" height="12" viewBox="0 0 12 12" fill="none" xmlns="http://www.w3.org/2000/svg">
<path d="M7.63598 8.2775L10.496 10.716C10.496 10.716 8.85798 12.2785 6.88448 9.283L7.63598 8.2775Z" fill="url(#paint0_linear_15_4956)"/>
<path d="M7.70048 8.26151L9.99848 11.235C9.99848 11.235 8.07348 12.43 6.75998 9.0885L7.70098 8.26151H7.70048Z" fill="url(#paint1_radial_15_4956)"/>
<path d="M6.91697 10.5215H5.05697C5.01325 10.5219 4.9704 10.5093 4.93389 10.4852C4.89738 10.4612 4.86886 10.4268 4.85197 10.3865L1.01247 1.46999C0.968968 1.37299 1.04497 1.25949 1.15247 1.25949H3.03547C3.12747 1.25949 3.20847 1.31349 3.24047 1.39449L7.05797 10.31C7.09597 10.4125 7.02547 10.521 6.91747 10.521L6.91697 10.5215Z" fill="url(#paint2_linear_15_4956)"/>
<path d="M3.81898 1.7735C2.77548 2.0545 2.39148 3.006 2.39148 3.006C2.39148 3.006 3.05648 2.7735 3.98148 2.568C4.40344 2.47962 4.829 2.40939 5.25698 2.3575C5.23548 2.049 4.61898 1.5575 3.81898 1.7735Z" fill="url(#paint3_linear_15_4956)"/>
<path d="M3.33247 2.52501C2.51047 3.23301 2.53247 4.25501 2.53247 4.25501C2.53247 4.25501 3.00247 3.80101 3.71097 3.17351C4.18647 2.75201 4.72697 2.37351 4.72697 2.37351C4.55947 2.11401 3.99247 1.95701 3.33247 2.52501Z" fill="url(#paint4_linear_15_4956)"/>
<path d="M3.15397 3.59C2.47247 4.4225 2.62897 5.2825 2.62897 5.2825C2.62897 5.2825 3.02947 4.8985 3.62947 4.174C3.91006 3.84658 4.20414 3.53098 4.51097 3.228C4.30547 3 3.69447 2.936 3.15397 3.59Z" fill="url(#paint5_linear_15_4956)"/>
<path d="M7.47898 2.0705C7.47898 2.0705 7.27398 1.5355 6.85198 1.303C6.44098 1.076 5.33798 1.027 4.55948 1.611C3.52698 2.379 3.17548 3.63299 3.09948 3.93099C2.35348 6.8285 3.87848 8.461 5.57048 9.251L7.47898 2.071V2.0705Z" fill="url(#paint6_linear_15_4956)"/>
<path d="M2.45647 5.623C2.47733 6.60446 2.88717 7.53745 3.59584 8.21678C4.30452 8.89611 5.254 9.26614 6.23547 9.2455L6.07897 1.8385C4.03497 1.887 2.41297 3.579 2.45647 5.623Z" fill="url(#paint7_linear_15_4956)"/>
<path d="M3.14848 6.30999C3.36998 8.32599 5.19198 9.78049 7.20848 9.55899L6.39798 2.24899C5.42923 2.35795 4.54319 2.84655 3.93407 3.60769C3.32495 4.36883 3.04245 5.34091 3.14848 6.30999Z" fill="url(#paint8_radial_15_4956)"/>
<path d="M4.65697 1.89249C4.38818 2.17278 4.23412 2.54357 4.22515 2.93181C4.21617 3.32005 4.35293 3.69757 4.60847 3.98999C4.86388 4.28265 5.21912 4.46973 5.60495 4.51474C5.99078 4.55976 6.37954 4.45949 6.69547 4.23349L4.65697 1.89249Z" fill="url(#paint9_radial_15_4956)"/>
<path d="M5.89547 4.03851C6.08872 4.04209 6.28074 4.00713 6.46031 3.93565C6.63989 3.86418 6.80342 3.75763 6.94135 3.62224C7.07928 3.48684 7.18884 3.32532 7.26363 3.1471C7.33842 2.96888 7.37694 2.77754 7.37694 2.58426C7.37694 2.39098 7.33842 2.19965 7.26363 2.02143C7.18884 1.84321 7.07928 1.68168 6.94135 1.54628C6.80342 1.41089 6.63989 1.30434 6.46031 1.23287C6.28074 1.16139 6.08872 1.12643 5.89547 1.13001C5.51445 1.13708 5.15142 1.2934 4.88446 1.56535C4.6175 1.83731 4.46794 2.20317 4.46794 2.58426C4.46794 2.96535 4.6175 3.33121 4.88446 3.60317C5.15142 3.87512 5.51445 4.03145 5.89547 4.03851Z" fill="url(#paint10_radial_15_4956)"/>
<path d="M4.36498 6.81251C4.87298 8.42901 6.59798 9.33201 8.21448 8.82351L6.37598 2.96301C5.99102 3.0835 5.63358 3.27868 5.32412 3.53742C5.01466 3.79615 4.75924 4.11335 4.57246 4.47088C4.38569 4.8284 4.27123 5.21924 4.23563 5.62104C4.20002 6.02284 4.24398 6.42772 4.36498 6.81251Z" fill="url(#paint11_linear_15_4956)"/>
<path d="M4.78147 6.03951C4.84921 6.38139 4.98365 6.70657 5.1771 6.99648C5.37055 7.28638 5.61923 7.53533 5.90892 7.72909C6.19862 7.92286 6.52365 8.05764 6.86546 8.12575C7.20726 8.19385 7.55913 8.19394 7.90097 8.12601L6.86297 2.92001C5.42997 3.20151 4.49497 4.60101 4.78147 6.03951Z" fill="url(#paint12_linear_15_4956)"/>
<path d="M5.53797 1.411C5.53797 1.411 5.21397 1.9735 5.39247 2.601C5.61397 3.379 6.44097 3.4925 6.79247 3.406L7.29547 2.352L6.41397 1.173L5.53797 1.411Z" fill="url(#paint13_radial_15_4956)"/>
<path d="M6.45197 2.9035C6.45197 2.9035 6.18197 2.9845 6.00847 3.3085C5.86247 3.579 5.90597 3.952 5.90597 3.952L7.00347 3.109L6.45197 2.9035Z" fill="url(#paint14_linear_15_4956)"/>
<path d="M7.66297 4.985C7.66297 4.985 6.73297 4.974 6.50047 4.109C6.34397 3.52 6.62497 3.114 6.62497 3.114L7.23047 2.936L7.66297 4.985Z" fill="url(#paint15_linear_15_4956)"/>
<path d="M3.51047 0.37851C3.51047 0.37851 3.71047 1.30301 4.71647 1.67601C5.47847 1.95701 6.75447 1.18951 6.75447 1.18951C6.75447 1.18951 6.08447 0.913509 5.08947 0.913509C4.34347 0.913509 3.51047 0.37851 3.51047 0.37851Z" fill="url(#paint16_radial_15_4956)"/>
<path d="M8.45247 2.3355C8.45247 2.3355 8.57147 1.714 8.17647 1.1355C7.87397 0.692 7.11647 0.1945 5.71147 0.503C4.52697 0.7625 4.34897 0 4.34897 0C4.31097 0.195 4.44047 1.46 5.67347 1.276C7.18697 1.049 7.05747 2.5305 7.59247 2.779C8.03597 2.974 8.45247 2.3355 8.45247 2.3355Z" fill="url(#paint17_linear_15_4956)"/>
<path d="M6.87898 3.20599C7.07683 3.20599 7.26658 3.12739 7.40648 2.98749C7.54638 2.84759 7.62498 2.65784 7.62498 2.45999C7.62498 2.26214 7.54638 2.07239 7.40648 1.93249C7.26658 1.79259 7.07683 1.71399 6.87898 1.71399C6.68113 1.71399 6.49138 1.79259 6.35148 1.93249C6.21158 2.07239 6.13298 2.26214 6.13298 2.45999C6.13298 2.65784 6.21158 2.84759 6.35148 2.98749C6.49138 3.12739 6.68113 3.20599 6.87898 3.20599Z" fill="url(#paint18_radial_15_4956)"/>
<path d="M5.02997 10.5215H6.94397C6.98769 10.5219 7.03054 10.5093 7.06705 10.4853C7.10356 10.4612 7.13208 10.4268 7.14897 10.3865L10.9885 1.47001C11.032 1.37301 10.956 1.25951 10.8485 1.25951H8.91247C8.86867 1.25899 8.82572 1.27157 8.7891 1.29562C8.75249 1.31967 8.7239 1.3541 8.70697 1.39451L4.88947 10.31C4.85147 10.4125 4.92197 10.5215 5.02997 10.5215Z" fill="url(#paint19_linear_15_4956)"/>
<path d="M5.02997 10.5215H6.94397C6.98771 10.522 7.03058 10.5094 7.06711 10.4853C7.10363 10.4613 7.13214 10.4269 7.14897 10.3865L10.199 3.31451C10.242 3.21701 10.1665 3.10351 10.058 3.10351H8.12297C8.07909 3.10289 8.03602 3.11542 7.99931 3.13948C7.9626 3.16354 7.93393 3.19802 7.91697 3.23851L4.88947 10.3105C4.85147 10.413 4.92197 10.5215 5.02997 10.5215Z" fill="url(#paint20_radial_15_4956)"/>
<path d="M8.03598 2.444C8.03598 2.444 8.06298 1.5465 7.13298 1.076C5.83548 0.421499 4.64598 1.9735 3.28348 1.076C3.28348 1.076 3.55948 2.46 6.33848 1.936C7.02498 1.806 7.32798 2.022 7.47898 2.271C7.60898 2.4815 7.59798 2.6655 7.59798 2.7735L8.03598 2.444Z" fill="url(#paint21_radial_15_4956)"/>
<path d="M7.83597 2.6115C7.83597 2.6115 7.90597 2.125 7.50097 1.8275C7.06297 1.5085 6.71097 1.5735 6.71097 1.5735C6.71097 1.5735 6.95997 1.422 7.31697 1.422C7.50647 1.422 7.57097 1.395 7.57097 1.395C7.57097 1.395 7.59797 1.3085 7.47897 1.173C8.49547 1.622 8.23047 2.3895 8.23047 2.3895L7.83597 2.6115Z" fill="url(#paint22_linear_15_4956)"/>
<path d="M8.17648 3.42801C8.17648 3.42801 7.77648 3.80101 7.20348 3.60601C7.16548 3.59551 7.17098 3.36851 7.20348 3.22251C7.23598 3.05451 7.34948 2.87101 7.44148 2.75751C8.06298 2.81151 8.17648 3.42801 8.17648 3.42801Z" fill="url(#paint23_linear_15_4956)"/>
<path d="M8.45247 2.298C8.45247 2.298 8.76047 2.779 8.66847 3.325C8.56047 3.9575 7.96047 4.255 7.96047 4.255C7.96047 4.255 8.24697 3.152 7.43547 2.7575C7.43547 2.7575 7.60347 2.5735 7.84697 2.46C8.20347 2.298 8.45247 2.298 8.45247 2.298Z" fill="url(#paint24_linear_15_4956)"/>
<path d="M6.76047 2.752C6.85655 2.752 6.94869 2.71383 7.01662 2.6459C7.08456 2.57796 7.12272 2.48582 7.12272 2.38975C7.12272 2.29367 7.08456 2.20153 7.01662 2.1336C6.94869 2.06566 6.85655 2.0275 6.76047 2.0275C6.6644 2.0275 6.57226 2.06566 6.50432 2.1336C6.43639 2.20153 6.39822 2.29367 6.39822 2.38975C6.39822 2.48582 6.43639 2.57796 6.50432 2.6459C6.57226 2.71383 6.6644 2.752 6.76047 2.752Z" fill="url(#paint25_radial_15_4956)"/>
<path d="M6.67897 2.58451C6.80747 2.58451 6.91147 2.47301 6.91147 2.33551C6.91147 2.19851 6.80747 2.08701 6.67897 2.08701C6.55047 2.08701 6.44647 2.19851 6.44647 2.33551C6.44647 2.47301 6.55047 2.58451 6.67897 2.58451Z" fill="url(#paint26_radial_15_4956)"/>
<path d="M6.84098 2.2115C6.85537 2.2115 6.86916 2.20578 6.87934 2.19561C6.88951 2.18543 6.89523 2.17163 6.89523 2.15725C6.89523 2.14286 6.88951 2.12906 6.87934 2.11889C6.86916 2.10871 6.85537 2.103 6.84098 2.103C6.82659 2.103 6.81279 2.10871 6.80262 2.11889C6.79244 2.12906 6.78673 2.14286 6.78673 2.15725C6.78673 2.17163 6.79244 2.18543 6.80262 2.19561C6.81279 2.20578 6.82659 2.2115 6.84098 2.2115Z" fill="white"/>
<defs>
<linearGradient id="paint0_linear_15_4956" x1="7.03548" y1="9.426" x2="10.157" y2="10.0415" gradientUnits="userSpaceOnUse">
<stop offset="0.006" stop-color="#E8096A"/>
<stop offset="1" stop-color="#00AFFF"/>
</linearGradient>
<radialGradient id="paint1_radial_15_4956" cx="0" cy="0" r="1" gradientUnits="userSpaceOnUse" gradientTransform="translate(7.89268 9.74262) rotate(5.75) scale(3.21439)">
<stop stop-color="#00CAFF"/>
<stop offset="1" stop-color="#38E700"/>
</radialGradient>
<linearGradient id="paint2_linear_15_4956" x1="5.88247" y1="10.2665" x2="1.95597" y2="0.965991" gradientUnits="userSpaceOnUse">
<stop stop-color="#412DF5"/>
<stop offset="0.691" stop-color="#0606B6"/>
<stop offset="1" stop-color="#4B00B4"/>
</linearGradient>
<linearGradient id="paint3_linear_15_4956" x1="2.61548" y1="2.433" x2="4.22498" y2="2.259" gradientUnits="userSpaceOnUse">
<stop stop-color="#E60030"/>
<stop offset="1" stop-color="#690040"/>
</linearGradient>
<linearGradient id="paint4_linear_15_4956" x1="2.67997" y1="3.37651" x2="3.96697" y2="3.00651" gradientUnits="userSpaceOnUse">
<stop stop-color="#FF6500"/>
<stop offset="1" stop-color="#EE182C"/>
</linearGradient>
<linearGradient id="paint5_linear_15_4956" x1="2.76447" y1="4.054" x2="4.29547" y2="4.3495" gradientUnits="userSpaceOnUse">
<stop stop-color="#EA4D07"/>
<stop offset="1" stop-color="#C5171E"/>
</linearGradient>
<linearGradient id="paint6_linear_15_4956" x1="6.01198" y1="1.5035" x2="3.52898" y2="9.01" gradientUnits="userSpaceOnUse">
<stop stop-color="#0091FF"/>
<stop offset="0.005" stop-color="#0292FC"/>
<stop offset="0.126" stop-color="#37A5C2"/>
<stop offset="0.249" stop-color="#65B58E"/>
<stop offset="0.372" stop-color="#8CC363"/>
<stop offset="0.496" stop-color="#ACCF3F"/>
<stop offset="0.62" stop-color="#C4D823"/>
<stop offset="0.745" stop-color="#D6DE10"/>
<stop offset="0.871" stop-color="#E1E204"/>
<stop offset="1" stop-color="#E4E300"/>
</linearGradient>
<linearGradient id="paint7_linear_15_4956" x1="3.40197" y1="2.4035" x2="6.80847" y2="9.2" gradientUnits="userSpaceOnUse">
<stop offset="0.006" stop-color="#DE003B"/>
<stop offset="0.241" stop-color="#D976FF"/>
<stop offset="1" stop-color="#00A4EA"/>
</linearGradient>
<radialGradient id="paint8_radial_15_4956" cx="0" cy="0" r="1" gradientUnits="userSpaceOnUse" gradientTransform="translate(5.56315 4.52291) rotate(-6.338) scale(5.7409)">
<stop stop-color="#00DFFF"/>
<stop offset="1" stop-color="#ABE700"/>
</radialGradient>
<radialGradient id="paint9_radial_15_4956" cx="0" cy="0" r="1" gradientUnits="userSpaceOnUse" gradientTransform="translate(5.32009 3.08825) rotate(-40.957) scale(1.38445)">
<stop stop-color="#0068FF"/>
<stop offset="1" stop-color="#9CE830"/>
</radialGradient>
<radialGradient id="paint10_radial_15_4956" cx="0" cy="0" r="1" gradientUnits="userSpaceOnUse" gradientTransform="translate(5.89547 2.58451) scale(1.45747)">
<stop stop-color="#008A43"/>
<stop offset="1" stop-color="#A3E830"/>
</radialGradient>
<linearGradient id="paint11_linear_15_4956" x1="5.71798" y1="3.93001" x2="6.30498" y2="8.07501" gradientUnits="userSpaceOnUse">
<stop stop-color="#FF9500"/>
<stop offset="1" stop-color="#F7FF2B"/>
</linearGradient>
<linearGradient id="paint12_linear_15_4956" x1="7.74797" y1="6.78551" x2="5.29847" y2="4.23801" gradientUnits="userSpaceOnUse">
<stop offset="0.207" stop-color="#FF8E00"/>
<stop offset="1" stop-color="#F41B56"/>
</linearGradient>
<radialGradient id="paint13_radial_15_4956" cx="0" cy="0" r="1" gradientUnits="userSpaceOnUse" gradientTransform="translate(6.70247 2.435) scale(1.19902)">
<stop stop-color="#FF0000"/>
<stop offset="1" stop-color="#FFFF00"/>
</radialGradient>
<linearGradient id="paint14_linear_15_4956" x1="6.01597" y1="3.719" x2="6.40847" y2="3.292" gradientUnits="userSpaceOnUse">
<stop stop-color="#FFB41F"/>
<stop offset="1" stop-color="#F42A56"/>
</linearGradient>
<linearGradient id="paint15_linear_15_4956" x1="6.73647" y1="4.787" x2="7.46597" y2="3.464" gradientUnits="userSpaceOnUse">
<stop stop-color="#FFB900"/>
<stop offset="1" stop-color="#F41880"/>
</linearGradient>
<radialGradient id="paint16_radial_15_4956" cx="0" cy="0" r="1" gradientUnits="userSpaceOnUse" gradientTransform="translate(4.87273 1.15551) rotate(-9.492) scale(1.65777)">
<stop offset="0.001" stop-color="#72003F"/>
<stop offset="1" stop-color="#CA1D67"/>
</radialGradient>
<linearGradient id="paint17_linear_15_4956" x1="4.34347" y1="1.408" x2="8.46947" y2="1.408" gradientUnits="userSpaceOnUse">
<stop stop-color="#FF6500"/>
<stop offset="1" stop-color="#EE182C"/>
</linearGradient>
<radialGradient id="paint18_radial_15_4956" cx="0" cy="0" r="1" gradientUnits="userSpaceOnUse" gradientTransform="translate(6.88898 2.45499) scale(0.59023)">
<stop stop-color="#D1DEE7"/>
<stop offset="1" stop-color="white"/>
</radialGradient>
<linearGradient id="paint19_linear_15_4956" x1="5.27847" y1="10.596" x2="10.6735" y2="1.01501" gradientUnits="userSpaceOnUse">
<stop stop-color="#008DFF"/>
<stop offset="0.181" stop-color="#331DEA"/>
<stop offset="0.833" stop-color="#39C3FE"/>
<stop offset="1" stop-color="#60F5A9"/>
</linearGradient>
<radialGradient id="paint20_radial_15_4956" cx="0" cy="0" r="1" gradientUnits="userSpaceOnUse" gradientTransform="translate(7.8915 8.23778) rotate(-156.16) scale(1.37775 3.82058)">
<stop offset="0.001" stop-color="#7F06FB"/>
<stop offset="1" stop-color="#7A10FB" stop-opacity="0"/>
</radialGradient>
<radialGradient id="paint21_radial_15_4956" cx="0" cy="0" r="1" gradientUnits="userSpaceOnUse" gradientTransform="translate(3.55048 1.4105) scale(4.32024)">
<stop offset="0.001" stop-color="#FF0042"/>
<stop offset="0.422" stop-color="#0068FF"/>
<stop offset="0.659" stop-color="#1877E2"/>
<stop offset="1" stop-color="#4EEFBE"/>
</radialGradient>
<linearGradient id="paint22_linear_15_4956" x1="7.47397" y1="1.3155" x2="7.50097" y2="2.474" gradientUnits="userSpaceOnUse">
<stop stop-color="#E60030"/>
<stop offset="1" stop-color="#690040"/>
</linearGradient>
<linearGradient id="paint23_linear_15_4956" x1="7.66798" y1="3.57201" x2="7.71348" y2="2.84951" gradientUnits="userSpaceOnUse">
<stop stop-color="#FFD71F"/>
<stop offset="1" stop-color="#DD001B"/>
</linearGradient>
<linearGradient id="paint24_linear_15_4956" x1="7.62547" y1="3.236" x2="8.56397" y2="3.3015" gradientUnits="userSpaceOnUse">
<stop stop-color="#FF4C00"/>
<stop offset="1" stop-color="#FFFF1E"/>
</linearGradient>
<radialGradient id="paint25_radial_15_4956" cx="0" cy="0" r="1" gradientUnits="userSpaceOnUse" gradientTransform="translate(6.58697 2.4) scale(0.45255)">
<stop stop-color="#FF9100"/>
<stop offset="0.226" stop-color="#FF9500"/>
<stop offset="0.443" stop-color="#FEA000"/>
<stop offset="0.657" stop-color="#FCB400"/>
<stop offset="0.867" stop-color="#F9CF00"/>
<stop offset="1" stop-color="#F7E400"/>
</radialGradient>
<radialGradient id="paint26_radial_15_4956" cx="0" cy="0" r="1" gradientUnits="userSpaceOnUse" gradientTransform="translate(6.56547 2.32001) scale(0.48668)">
<stop/>
<stop offset="0.092" stop-color="#000004"/>
<stop offset="0.177" stop-color="#01000F"/>
<stop offset="0.258" stop-color="#020021"/>
<stop offset="0.338" stop-color="#03003C"/>
<stop offset="0.417" stop-color="#05005D"/>
<stop offset="0.494" stop-color="#080087"/>
<stop offset="0.571" stop-color="#0A00B8"/>
<stop offset="0.645" stop-color="#0E00F0"/>
<stop offset="0.654" stop-color="#0E00F7"/>
</radialGradient>
</defs>
</svg>
