<svg width="12" height="12" viewBox="0 0 12 12" fill="none" xmlns="http://www.w3.org/2000/svg">
<path fill-rule="evenodd" clip-rule="evenodd" d="M4.564 7.5495C4.86 7.5495 5.449 7.533 6.263 7.198C7.2115 6.8075 9.099 6.098 10.4605 5.37C11.413 4.861 11.8305 4.187 11.8305 3.28C11.8305 2.98054 11.7715 2.68402 11.6569 2.40737C11.5423 2.13071 11.3743 1.87934 11.1625 1.66762C10.9508 1.4559 10.6994 1.28796 10.4227 1.17341C10.146 1.05886 9.84946 0.999934 9.55 1H4.2745C3.406 1.00013 2.57312 1.34523 1.95905 1.9594C1.34497 2.57357 1 3.4065 1 4.275C1 6.0835 2.3725 7.5495 4.564 7.5495Z" fill="#39594D"/>
<path fill-rule="evenodd" clip-rule="evenodd" d="M5.45599 9.80499C5.45597 9.37143 5.58443 8.94758 5.82515 8.58698C6.06588 8.22639 6.40806 7.94522 6.80849 7.77899L8.46999 7.08899C10.1505 6.39199 12 7.62699 12 9.44649C12 9.78166 11.934 10.1136 11.8057 10.4232C11.6774 10.7329 11.4894 11.0142 11.2524 11.2512C11.0153 11.4882 10.7339 11.6762 10.4243 11.8044C10.1146 11.9326 9.78267 11.9986 9.44749 11.9985L7.64899 11.998C7.36096 11.998 7.07575 11.9412 6.80965 11.831C6.54355 11.7208 6.30178 11.5592 6.09813 11.3555C5.89449 11.1518 5.73296 10.91 5.62278 10.6439C5.5126 10.3777 5.45593 10.0925 5.45599 9.80449V9.80499Z" fill="#D18EE2"/>
<path d="M2.888 7.98099C2.64005 7.98092 2.39451 8.02971 2.16542 8.12457C1.93632 8.21943 1.72817 8.35849 1.55284 8.53382C1.37751 8.70915 1.23844 8.91731 1.14358 9.1464C1.04872 9.3755 0.999934 9.62103 1 9.86899V10.1135C1.00806 10.6088 1.21049 11.0812 1.56364 11.4286C1.91678 11.776 2.39234 11.9708 2.88775 11.9708C3.38316 11.9708 3.85872 11.776 4.21186 11.4286C4.56501 11.0812 4.76744 10.6088 4.7755 10.1135V9.86849C4.7755 9.62062 4.72668 9.37517 4.63182 9.14617C4.53697 8.91717 4.39793 8.70909 4.22266 8.53382C4.04739 8.35855 3.83932 8.21952 3.61032 8.12466C3.38131 8.02981 3.13587 7.98099 2.888 7.98099Z" fill="#FF7759"/>
</svg>
