<svg width="12" height="12" viewBox="0 0 12 12" fill="none" xmlns="http://www.w3.org/2000/svg">
<g clip-path="url(#clip0_15_4997)">
<path d="M9.87002 10.8085L11.9765 5.5415C11.9831 5.52547 11.9876 5.50867 11.99 5.4915L11.9915 5.4765C11.9941 5.44827 11.9907 5.41982 11.9815 5.393L11.978 5.38C11.9721 5.36505 11.9645 5.3508 11.9555 5.3375L11.954 5.335L8.26402 0.0645C8.26302 0.063 8.26402 0.0615 8.26252 0.0595H8.26452V0.146H8.25952C8.20852 0.019 8.12102 0.0035 8.03702 0.022L8.03652 0.0205C8.03602 0.021 8.03502 0.019 8.03502 0.019H8.03202C8.03202 0.019 8.03202 0 8.03102 0L2.23302 1.571C2.23002 1.572 2.22702 1.5685 2.22402 1.5695C2.21302 1.573 2.20202 1.5745 2.19202 1.58C2.18533 1.58332 2.17882 1.58699 2.17252 1.591C2.16602 1.595 2.15952 1.5985 2.15402 1.6035C2.12915 1.62472 2.10904 1.65096 2.09502 1.6805L2.09002 1.689L1.90349e-05 6.959C-0.00198097 6.9655 0.011519 6.972 0.011519 6.979V7.053C0.011519 7.0625 0.011519 7.072 0.013019 7.0815L0.011519 7.082V7.085C0.011519 7.1095 0.00601903 7.133 0.019519 7.1545H0.015019C0.015019 7.1555 0.011019 7.1555 0.011019 7.1555L0.00601903 7.156C0.00951903 7.162 0.010019 7.1675 0.014019 7.173L3.70252 11.916V11.9185C3.70347 11.9194 3.70447 11.9202 3.70552 11.921C3.70852 11.925 3.71202 11.9275 3.71552 11.931C3.71867 11.9345 3.72201 11.9379 3.72552 11.941C3.72952 11.945 3.73302 11.9495 3.73702 11.9525L3.74702 11.9595C3.76339 11.9701 3.78082 11.979 3.79902 11.986C3.80452 11.9875 3.80952 11.99 3.81502 11.991C3.81752 11.992 3.82002 11.9935 3.82302 11.994C3.85128 12.0003 3.8805 12.0009 3.90902 11.996L9.70752 10.942C9.71444 10.9407 9.72129 10.9391 9.72802 10.937L9.73352 10.9375H9.73402C9.73652 10.9375 9.73902 10.934 9.74152 10.933C9.74652 10.9315 9.75152 10.929 9.75652 10.9265C9.76079 10.9247 9.76497 10.9227 9.76902 10.9205L9.77402 10.917C9.79156 10.9072 9.80771 10.8951 9.82202 10.881C9.82402 10.879 9.82502 10.876 9.82702 10.8745C9.84089 10.8596 9.85251 10.8428 9.86152 10.8245L9.86402 10.8205L9.86552 10.8175L9.86602 10.816L9.86902 10.8085H9.87002ZM9.48502 10.3615L5.82752 8.075L9.94202 4.875L9.48502 10.3615ZM5.57502 7.7265L4.18402 2.6265L9.74752 4.4815L5.57502 7.7265ZM10.3805 4.785L11.514 5.541L10.003 9.318L10.3805 4.785ZM10.947 4.646L10.363 4.257L9.58502 2.7005L10.947 4.646ZM9.77202 4.036L4.43102 2.2565L7.99202 0.4765L9.77202 4.0365V4.036ZM3.85502 2.064L3.03152 1.7895L6.05002 0.9655L3.85502 2.0635V2.064ZM2.41452 2.0375L3.51502 2.4045L0.946519 5.707L2.41452 2.037V2.0375ZM3.77702 2.7675L5.15402 7.8155L0.564519 6.898L3.77702 2.768V2.7675ZM5.15002 8.2535L3.81652 11.3645L0.705019 7.3645L5.15002 8.2535ZM5.55152 8.41L9.08402 10.6185L4.22602 11.502L5.55152 8.41Z" fill="#4E81EE"/>
</g>
<defs>
<clipPath id="clip0_15_4997">
<rect width="12" height="12" fill="white"/>
</clipPath>
</defs>
</svg>
