<svg width="12" height="12" viewBox="0 0 12 12" fill="none" xmlns="http://www.w3.org/2000/svg">
<g clip-path="url(#clip0_15_5005)">
<mask id="mask0_15_5005" style="mask-type:luminance" maskUnits="userSpaceOnUse" x="0" y="0" width="12" height="12">
<path d="M12 0H0V12H12V0Z" fill="white"/>
</mask>
<g mask="url(#mask0_15_5005)">
<path d="M2.65499 7.87805C2.74099 6.00305 3.59649 4.87854 3.92949 4.50854C2.29949 5.53755 1.21699 7.33755 0.750488 8.66255V9.22255C0.750488 10.7566 2.11299 12 3.79499 12C4.16965 12.0005 4.54165 11.9371 4.89499 11.8125C5.0715 11.7525 5.245 11.6886 5.4145 11.6236C5.871 11.1741 6.2395 10.6686 6.536 10.1276C4.09749 11.3431 2.54899 10.1636 2.65449 7.87755L2.65499 7.87805Z" fill="#1E37FC"/>
<path d="M11.2851 5.14145C10.6791 4.69095 9.23055 3.93946 7.58655 3.74146C7.73405 5.63745 7.63305 8.12445 6.53655 10.1279C6.2379 10.6789 5.8599 11.183 5.41455 11.624C7.29655 10.9 8.78755 9.89545 9.71255 9.01445C11.1226 7.67295 11.3891 6.42545 11.3931 5.68445C11.3943 5.4983 11.3576 5.3139 11.2851 5.14245V5.14145Z" fill="#37E1BE"/>
<path d="M7.1515 0.9335C6.4775 0.35 5.624 0 4.695 0C3.766 0 2.9415 0.3385 2.2725 0.9035C1.3955 1.645 0.8135 2.7785 0.75 4.0625V8.663C1.216 7.338 2.2985 5.538 3.9285 4.5095C4.1785 4.3505 4.441 4.212 4.713 4.095C5.6545 3.6945 6.652 3.629 7.586 3.742C7.475 2.327 7.227 1.241 7.151 0.9335H7.1515Z" fill="#A569FF"/>
<path d="M8.65261 2.48047C8.47186 2.29884 8.29186 2.1165 8.11261 1.93347C8.01161 1.82697 7.91361 1.72397 7.81961 1.62247L7.15311 0.933472C7.22861 1.24097 7.47711 2.32647 7.58761 3.74197C9.23161 3.93947 10.6801 4.69097 11.2856 5.14195C10.6326 4.50447 9.54811 3.39847 8.65261 2.48047Z" fill="#1E37FC"/>
</g>
</g>
<defs>
<clipPath id="clip0_15_5005">
<rect width="12" height="12" fill="white"/>
</clipPath>
</defs>
</svg>
