<svg width="12" height="12" viewBox="0 0 12 12" fill="none" xmlns="http://www.w3.org/2000/svg">
<path fill-rule="evenodd" clip-rule="evenodd" d="M7.4 3L5.9995 6.3975L4.5975 3H3.6985L5.2345 6.714C5.29586 6.86505 5.40087 6.99438 5.53609 7.08547C5.67131 7.17656 5.83062 7.22527 5.99366 7.22537C6.15671 7.22548 6.31608 7.17698 6.45142 7.08607C6.58677 6.99516 6.69194 6.86597 6.7535 6.715L8.299 3H7.4ZM7.998 8.176L10.56 5.554L10.2105 4.7195L7.4125 7.589C7.29827 7.70607 7.22108 7.85421 7.19057 8.0149C7.16007 8.1756 7.17761 8.34172 7.241 8.4925C7.30323 8.64229 7.40844 8.77028 7.54334 8.86034C7.67825 8.95039 7.8368 8.99847 7.999 8.9985L8 9L12 8.99L11.6505 8.1555L7.999 8.176H7.998ZM1.44 5.552L1.7895 4.7175L4.5875 7.587C4.8215 7.8265 4.889 8.1815 4.759 8.4905C4.69671 8.64025 4.59149 8.76821 4.4566 8.85825C4.32171 8.9483 4.16318 8.9964 4.001 8.9965L0.001 8.9875L0 8.9885L0.3495 8.154L4.001 8.175L1.44 5.552Z" fill="#5019C5"/>
</svg>
