<svg width="12" height="12" viewBox="0 0 12 12" fill="none" xmlns="http://www.w3.org/2000/svg">
<g clip-path="url(#clip0_15_5326)">
<path d="M12 5.99976C12 2.58265 9.12971 -0.176055 5.67284 0.00877655C2.63146 0.170697 0.170558 2.63159 0.00863642 5.67291C-0.174674 9.12824 2.58411 12 5.99973 12H9.94239C11.0774 12 11.997 11.0804 11.997 9.94542V6.19988C11.9985 6.13422 12 6.06696 12 5.99976ZM2.91407 9.33291C1.95934 8.51723 1.3697 7.21267 1.3972 5.88372C1.39872 5.79053 1.4033 5.69735 1.41247 5.60416V5.59806C1.55148 4.01093 2.57647 2.53072 4.01237 1.84332C5.44984 1.15593 7.2447 1.28729 8.56757 2.17479C9.88894 3.06382 10.6894 4.67691 10.5962 6.26708C10.5763 6.61536 10.5152 6.96059 10.4312 7.29817C10.3915 7.45857 10.3411 7.62661 10.2005 7.72744C10.1226 7.78241 10.0203 7.8038 9.93169 7.76562C9.78354 7.70146 9.7652 7.52883 9.7545 7.38067C9.67965 6.31291 9.39551 5.21311 8.67297 4.42336C8.12763 3.8261 7.3547 3.44729 6.54967 3.37244C5.74464 3.29758 4.91825 3.52819 4.26137 3.99869C3.71148 4.39279 3.28067 4.95647 3.0714 5.59806C2.86212 6.2396 2.88351 6.96063 3.15847 7.57929C3.36009 8.03299 3.69463 8.427 4.10862 8.69893C4.84185 9.18011 5.84548 9.24882 6.60772 8.8135C7.36995 8.37813 7.82519 7.43413 7.63119 6.57873C7.428 5.68206 6.48702 4.9931 5.57354 5.16269C5.48649 5.17948 5.39484 5.12752 5.3719 5.04197C5.33984 4.91825 5.47729 4.85414 5.59034 4.83425C6.47632 4.6754 7.42495 5.12447 7.91074 5.88213C8.39648 6.6398 8.42093 7.6541 8.02378 8.46218C7.62659 9.27026 6.83991 9.85988 5.96463 10.0737C4.78686 10.3609 3.71908 10.0218 2.91254 9.33291H2.91407Z" fill="url(#paint0_linear_15_5326)"/>
</g>
<defs>
<linearGradient id="paint0_linear_15_5326" x1="0.268321" y1="0.441074" x2="13.7443" y2="13.5109" gradientUnits="userSpaceOnUse">
<stop offset="0.11" stop-color="#FFD400"/>
<stop offset="0.22" stop-color="#FF891F"/>
<stop offset="0.42" stop-color="#E4659A"/>
<stop offset="0.56" stop-color="#DB2ED7"/>
<stop offset="0.75" stop-color="#7264F4"/>
</linearGradient>
<clipPath id="clip0_15_5326">
<rect width="12" height="12" fill="white"/>
</clipPath>
</defs>
</svg>
