<svg width="12" height="12" viewBox="0 0 12 12" fill="none" xmlns="http://www.w3.org/2000/svg">
<g clip-path="url(#clip0_15_5334)">
<path d="M0 0C3.96 0 7.92 0 12 0C12 3.96 12 7.92 12 12C8.04 12 4.08 12 0 12C0 8.04 0 4.08 0 0Z" fill="#1D67AC"/>
<path d="M6.89999 5.64C7.33559 5.64 7.77119 5.64 8.21999 5.64C8.21999 5.6796 8.21999 5.7192 8.21999 5.76C8.25959 5.76 8.29919 5.76 8.33999 5.76C8.33999 5.7204 8.33999 5.6808 8.33999 5.64C8.77559 5.64 9.21119 5.64 9.65999 5.64C9.65999 5.7192 9.65999 5.7984 9.65999 5.88C9.44219 5.88 9.22439 5.88 8.99999 5.88C8.99999 5.8404 8.99999 5.8008 8.99999 5.76C8.96039 5.76 8.92079 5.76 8.87999 5.76C8.87999 5.7996 8.87999 5.8392 8.87999 5.88C8.22659 5.88 7.57319 5.88 6.89999 5.88C6.89999 5.8008 6.89999 5.7216 6.89999 5.64Z" fill="#CDDDEC"/>
<path d="M3.72 6.96C4.5516 6.96 5.3832 6.96 6.24 6.96C6.2202 7.0392 6.2004 7.1184 6.18 7.2C5.3682 7.2 4.5564 7.2 3.72 7.2C3.72 7.1208 3.72 7.0416 3.72 6.96Z" fill="#EFF4F9"/>
<path d="M3.72 4.8C4.5318 4.8 5.3436 4.8 6.18 4.8C6.21 4.9188 6.21 4.9188 6.24 5.04C5.4084 5.04 4.5768 5.04 3.72 5.04C3.72 4.9608 3.72 4.8816 3.72 4.8Z" fill="#EFF4F9"/>
<path d="M3.72 7.38C4.4724 7.38 5.2248 7.38 6 7.38C6 7.4196 6 7.4592 6 7.5C5.5632 7.6746 5.16 7.6314 4.6914 7.6272C4.5102 7.6266 4.329 7.6254 4.1424 7.6242C3.9336 7.6224 3.9336 7.6224 3.72 7.62C3.72 7.5408 3.72 7.4616 3.72 7.38Z" fill="#DFEAF3"/>
<path d="M3.72 4.38C4.044 4.377 4.3674 4.3746 4.6914 4.3728C4.8714 4.371 5.052 4.3698 5.2374 4.368C5.7 4.38 5.7 4.38 6 4.5C6 4.5396 6 4.5792 6 4.62C5.2476 4.62 4.4952 4.62 3.72 4.62C3.72 4.5408 3.72 4.4616 3.72 4.38Z" fill="#DFEAF3"/>
<path d="M4.14001 6.12C4.77361 6.12 5.40721 6.12 6.06001 6.12C6.09961 6.1992 6.13921 6.2784 6.18001 6.36C5.50681 6.36 4.83361 6.36 4.14001 6.36C4.14001 6.2808 4.14001 6.2016 4.14001 6.12Z" fill="#DFE9F3"/>
<path d="M4.20001 5.64C4.85341 5.64 5.50681 5.64 6.18001 5.64C6.14041 5.7192 6.10081 5.7984 6.06001 5.88C5.44621 5.88 4.83241 5.88 4.20001 5.88C4.20001 5.8008 4.20001 5.7216 4.20001 5.64Z" fill="#E2EBF4"/>
<path d="M1.92001 7.38C2.43481 7.38 2.94961 7.38 3.48001 7.38C3.48001 7.4592 3.48001 7.5384 3.48001 7.62C2.96521 7.62 2.45041 7.62 1.92001 7.62C1.92001 7.5408 1.92001 7.4616 1.92001 7.38Z" fill="#E3ECF4"/>
<path d="M1.92001 6.96C2.43481 6.96 2.94961 6.96 3.48001 6.96C3.48001 7.0392 3.48001 7.1184 3.48001 7.2C2.96521 7.2 2.45041 7.2 1.92001 7.2C1.92001 7.1208 1.92001 7.0416 1.92001 6.96Z" fill="#F0F5F9"/>
<path d="M1.92001 4.8C2.43481 4.8 2.94961 4.8 3.48001 4.8C3.48001 4.8792 3.48001 4.9584 3.48001 5.04C2.96521 5.04 2.45041 5.04 1.92001 5.04C1.92001 4.9608 1.92001 4.8816 1.92001 4.8Z" fill="#F0F5F9"/>
<path d="M1.92001 4.38C2.43481 4.38 2.94961 4.38 3.48001 4.38C3.48001 4.4592 3.48001 4.5384 3.48001 4.62C2.96521 4.62 2.45041 4.62 1.92001 4.62C1.92001 4.5408 1.92001 4.4616 1.92001 4.38Z" fill="#E3ECF4"/>
<path d="M6.42001 4.8C6.91501 4.8 7.41001 4.8 7.92001 4.8C7.93981 4.8792 7.95961 4.9584 7.98001 5.04C7.46521 5.04 6.95041 5.04 6.42001 5.04C6.42001 4.9608 6.42001 4.8816 6.42001 4.8Z" fill="#EBF2F8"/>
<path d="M8.63999 4.8C9.11519 4.8 9.59039 4.8 10.08 4.8C10.08 4.8792 10.08 4.9584 10.08 5.04C9.58499 5.04 9.08999 5.04 8.57999 5.04C8.59979 4.9608 8.61959 4.8816 8.63999 4.8Z" fill="#EFF4F9"/>
<path d="M6.42001 4.38C6.87541 4.38 7.33081 4.38 7.80001 4.38C7.81981 4.4592 7.83961 4.5384 7.86001 4.62C7.40461 4.62 6.94921 4.62 6.48001 4.62C6.46021 4.5408 6.44041 4.4616 6.42001 4.38Z" fill="#DDE8F2"/>
<path d="M8.76001 4.38C9.19561 4.38 9.63121 4.38 10.08 4.38C10.08 4.4592 10.08 4.5384 10.08 4.62C9.62461 4.62 9.16921 4.62 8.70001 4.62C8.71981 4.5408 8.73961 4.4616 8.76001 4.38Z" fill="#E0EAF3"/>
<path d="M8.34 5.64C8.7756 5.64 9.2112 5.64 9.66 5.64C9.66 5.7192 9.66 5.7984 9.66 5.88C9.4422 5.88 9.2244 5.88 9 5.88C9 5.8404 9 5.8008 9 5.76C8.9604 5.76 8.9208 5.76 8.88 5.76C8.88 5.7996 8.88 5.8392 8.88 5.88C8.682 5.88 8.484 5.88 8.28 5.88C8.2998 5.8008 8.3196 5.7216 8.34 5.64Z" fill="#D5E2EF"/>
<path d="M6.89999 5.22C7.29599 5.22 7.69199 5.22 8.09999 5.22C8.11979 5.2992 8.13959 5.3784 8.15999 5.46C7.74419 5.46 7.32839 5.46 6.89999 5.46C6.89999 5.3808 6.89999 5.3016 6.89999 5.22Z" fill="#EDF3F8"/>
<path d="M6.42001 6.96C6.81601 6.96 7.21201 6.96 7.62001 6.96C7.62001 7.0392 7.62001 7.1184 7.62001 7.2C7.22401 7.2 6.82801 7.2 6.42001 7.2C6.42001 7.1208 6.42001 7.0416 6.42001 6.96Z" fill="#E7EFF6"/>
<path d="M8.45999 5.22C8.85599 5.22 9.25199 5.22 9.65999 5.22C9.65999 5.2992 9.65999 5.3784 9.65999 5.46C9.26399 5.46 8.86799 5.46 8.45999 5.46C8.45999 5.3808 8.45999 5.3016 8.45999 5.22Z" fill="#EEF3F8"/>
<path d="M6.48001 7.38C6.85621 7.38 7.23241 7.38 7.62001 7.38C7.62001 7.4592 7.62001 7.5384 7.62001 7.62C7.22401 7.62 6.82801 7.62 6.42001 7.62C6.43981 7.5408 6.45961 7.4616 6.48001 7.38Z" fill="#DDE8F2"/>
<path d="M8.94 7.38C9.3162 7.38 9.6924 7.38 10.08 7.38C10.08 7.4592 10.08 7.5384 10.08 7.62C9.7038 7.62 9.3276 7.62 8.94 7.62C8.94 7.5408 8.94 7.4616 8.94 7.38Z" fill="#E0EAF3"/>
<path d="M8.94 6.96C9.3162 6.96 9.6924 6.96 10.08 6.96C10.08 7.0392 10.08 7.1184 10.08 7.2C9.7038 7.2 9.3276 7.2 8.94 7.2C8.94 7.1208 8.94 7.0416 8.94 6.96Z" fill="#EDF3F8"/>
<path d="M7.73999 6.12C8.09639 6.12 8.45279 6.12 8.81999 6.12C8.80019 6.1992 8.78039 6.2784 8.75999 6.36C8.44319 6.36 8.12639 6.36 7.79999 6.36C7.78019 6.2808 7.76039 6.2016 7.73999 6.12Z" fill="#E4EDF5"/>
<path d="M5.51999 6.54C5.77739 6.54 6.03479 6.54 6.29999 6.54C6.29999 6.6192 6.29999 6.6984 6.29999 6.78C6.04259 6.78 5.78519 6.78 5.51999 6.78C5.51999 6.7008 5.51999 6.6216 5.51999 6.54Z" fill="#E6EEF6"/>
<path d="M5.51999 5.22C5.77739 5.22 6.03479 5.22 6.29999 5.22C6.28019 5.2992 6.26039 5.3784 6.23999 5.46C6.00239 5.46 5.76479 5.46 5.51999 5.46C5.51999 5.3808 5.51999 5.3016 5.51999 5.22Z" fill="#E8EFF6"/>
<path d="M8.94 6.54C9.1776 6.54 9.4152 6.54 9.66 6.54C9.66 6.6192 9.66 6.6984 9.66 6.78C9.4224 6.78 9.1848 6.78 8.94 6.78C8.94 6.7008 8.94 6.6216 8.94 6.54Z" fill="#E9F0F7"/>
<path d="M6.89999 6.54C7.13759 6.54 7.37519 6.54 7.61999 6.54C7.61999 6.6192 7.61999 6.6984 7.61999 6.78C7.38239 6.78 7.14479 6.78 6.89999 6.78C6.89999 6.7008 6.89999 6.6216 6.89999 6.54Z" fill="#E9F0F7"/>
<path d="M4.14001 6.54C4.37761 6.54 4.61521 6.54 4.86001 6.54C4.86001 6.6192 4.86001 6.6984 4.86001 6.78C4.62241 6.78 4.38481 6.78 4.14001 6.78C4.14001 6.7008 4.14001 6.6216 4.14001 6.54Z" fill="#E6EEF6"/>
<path d="M2.34 6.54C2.5776 6.54 2.8152 6.54 3.06 6.54C3.06 6.6192 3.06 6.6984 3.06 6.78C2.8224 6.78 2.5848 6.78 2.34 6.78C2.34 6.7008 2.34 6.6216 2.34 6.54Z" fill="#E9F0F7"/>
<path d="M8.94 6.12C9.1776 6.12 9.4152 6.12 9.66 6.12C9.66 6.1992 9.66 6.2784 9.66 6.36C9.4224 6.36 9.1848 6.36 8.94 6.36C8.94 6.2808 8.94 6.2016 8.94 6.12Z" fill="#DFE9F3"/>
<path d="M2.34 6.12C2.5776 6.12 2.8152 6.12 3.06 6.12C3.06 6.1992 3.06 6.2784 3.06 6.36C2.8224 6.36 2.5848 6.36 2.34 6.36C2.34 6.2808 2.34 6.2016 2.34 6.12Z" fill="#DFE9F3"/>
<path d="M2.34 5.64C2.5776 5.64 2.8152 5.64 3.06 5.64C3.06 5.7192 3.06 5.7984 3.06 5.88C2.8224 5.88 2.5848 5.88 2.34 5.88C2.34 5.8008 2.34 5.7216 2.34 5.64Z" fill="#DFE9F3"/>
<path d="M4.14001 5.22C4.37761 5.22 4.61521 5.22 4.86001 5.22C4.86001 5.2992 4.86001 5.3784 4.86001 5.46C4.62241 5.46 4.38481 5.46 4.14001 5.46C4.14001 5.3808 4.14001 5.3016 4.14001 5.22Z" fill="#E6EEF6"/>
<path d="M2.34 5.22C2.5776 5.22 2.8152 5.22 3.06 5.22C3.06 5.2992 3.06 5.3784 3.06 5.46C2.8224 5.46 2.5848 5.46 2.34 5.46C2.34 5.3808 2.34 5.3016 2.34 5.22Z" fill="#E9F0F7"/>
<path d="M7.92001 6.54C8.15761 6.54 8.39521 6.54 8.64001 6.54C8.62021 6.6192 8.60041 6.6984 8.58001 6.78C8.38201 6.78 8.18401 6.78 7.98001 6.78C7.96021 6.7008 7.94041 6.6216 7.92001 6.54Z" fill="#F0F5F9"/>
<path d="M6.89999 5.7C7.15739 5.7 7.41479 5.7 7.67999 5.7C7.62059 5.73 7.62059 5.73 7.55999 5.76C7.55999 5.7996 7.55999 5.8392 7.55999 5.88C7.34219 5.88 7.12439 5.88 6.89999 5.88C6.89999 5.8206 6.89999 5.7612 6.89999 5.7Z" fill="#FDFDFE"/>
<path d="M6.89999 6.12C7.11779 6.12 7.33559 6.12 7.55999 6.12C7.55999 6.1794 7.55999 6.2388 7.55999 6.3C7.34219 6.3 7.12439 6.3 6.89999 6.3C6.89999 6.2406 6.89999 6.1812 6.89999 6.12Z" fill="#FDFDFE"/>
<path d="M8.34 5.7C8.5578 5.7 8.7756 5.7 9 5.7C8.9406 5.73 8.9406 5.73 8.88 5.76C8.88 5.7996 8.88 5.8392 8.88 5.88C8.682 5.88 8.484 5.88 8.28 5.88C8.2998 5.8206 8.3196 5.7612 8.34 5.7Z" fill="white"/>
<path d="M8.04001 6.96C8.19841 6.96 8.35681 6.96 8.52001 6.96C8.50021 7.0392 8.48041 7.1184 8.46001 7.2C8.34121 7.2 8.22241 7.2 8.10001 7.2C8.08021 7.1208 8.06041 7.0416 8.04001 6.96Z" fill="#E2EBF4"/>
</g>
<defs>
<clipPath id="clip0_15_5334">
<rect width="12" height="12" fill="white"/>
</clipPath>
</defs>
</svg>
