<svg width="12" height="12" viewBox="0 0 12 12" fill="none" xmlns="http://www.w3.org/2000/svg">
<g clip-path="url(#clip0_15_5415)">
<path fill-rule="evenodd" clip-rule="evenodd" d="M9.74145 2.55106C9.82849 2.4394 9.9049 2.33739 9.98554 2.23864C10.023 2.19216 10.0197 2.15681 9.98337 2.10827C9.63354 1.64836 9.60046 1.13773 9.80181 0.619622C9.95295 0.229712 10.2873 0.0469658 10.6959 0.00807325C10.9507 -0.0159515 11.2007 0.0101411 11.4325 0.134007C11.737 0.296961 11.9142 0.545381 11.9719 0.888227C12.0179 1.16175 12.0093 1.42878 11.9319 1.69375C11.7946 2.16272 11.4576 2.40573 10.9956 2.46717C10.6121 2.51847 10.2232 2.52487 9.83647 2.55106C9.80663 2.55322 9.77611 2.55106 9.74145 2.55106Z" fill="#027AFF"/>
<path fill-rule="evenodd" clip-rule="evenodd" d="M8.79297 0.450661H6.48226L4.65283 4.62231H2.06662V0.468877H0V11.2167H2.06711V6.68883H5.71209C6.33969 6.68883 6.91273 6.32295 7.1772 5.75413V11.2167H9.24432V6.68883C9.24432 5.61156 8.40247 4.70561 7.32785 4.62713V4.62172H6.19278C6.46631 4.52838 6.71758 4.3796 6.93105 4.18484C7.14461 3.98998 7.31564 3.75328 7.4336 3.4894L8.79297 0.450661Z" fill="black"/>
</g>
<defs>
<clipPath id="clip0_15_5415">
<rect width="12" height="12" fill="white"/>
</clipPath>
</defs>
</svg>
