<svg width="12" height="12" viewBox="0 0 12 12" fill="none" xmlns="http://www.w3.org/2000/svg">
<g clip-path="url(#clip0_15_5429)">
<path fill-rule="evenodd" clip-rule="evenodd" d="M5.33985 0.00874684C6.44222 -0.0168895 7.66787 0.00547412 8.77624 0.189837C10.111 0.411837 11.2193 1.39474 11.6557 2.66238C11.7604 2.96783 11.8401 3.39492 11.8957 3.94201C12.0512 5.49383 12.0419 7.13401 11.8063 8.74419C11.575 10.3195 10.2517 11.5876 8.69169 11.826C8.26078 11.8915 7.66132 11.9498 6.89495 12H5.17676C4.36402 11.9591 3.70565 11.8964 3.20165 11.8107C2.56564 11.7027 1.9831 11.4218 1.45345 10.9669C0.750904 10.3636 0.328173 9.60164 0.186354 8.68255C0.129511 8.29305 0.0858489 7.90173 0.0554441 7.50928C-0.0121928 6.68837 -0.0105564 5.70819 0.0210802 4.97838C0.0450804 4.41492 0.100717 3.84765 0.188536 3.27601C0.388174 1.9762 1.27727 0.885291 2.51219 0.388928C2.8651 0.24711 3.33147 0.148928 3.90966 0.0965649C4.38506 0.0509039 4.86189 0.0216138 5.3393 0.00874684H5.33985ZM5.10748 1.37074C4.56039 1.21802 4.03566 1.15802 3.55674 1.1962C3.31573 1.2135 3.07767 1.25965 2.84765 1.33365C2.04855 1.59547 1.502 2.19002 1.29254 3.02401C1.17636 3.48492 1.16709 4.00801 1.26364 4.56819C1.358 5.11474 1.55218 5.68801 1.83746 6.25965C2.4331 7.45528 3.3942 8.58328 4.53311 9.42491C5.04039 9.79964 5.57112 10.1089 6.10404 10.3396C6.71713 10.6047 7.32204 10.7618 7.88659 10.8033C8.34914 10.836 8.77842 10.7907 9.1586 10.668C9.72479 10.4853 10.1688 10.1351 10.4546 9.64582C10.6717 9.27491 10.7944 8.83091 10.8163 8.33401L10.8184 8.27892C10.8209 8.1973 10.8209 8.11563 10.8184 8.03401L10.8146 7.96364C10.7901 7.48419 10.6799 6.9731 10.4879 6.45001C10.2705 5.86786 9.98271 5.31448 9.63097 4.80219C8.92007 3.76091 8.00386 2.8759 6.93859 2.20147C6.33422 1.82238 5.7124 1.54038 5.10748 1.37074Z" fill="url(#paint0_radial_15_5429)"/>
</g>
<defs>
<radialGradient id="paint0_radial_15_5429" cx="0" cy="0" r="1" gradientTransform="matrix(-6.00002 5.72729 -8.37461 -8.77326 5.99985 6.00001)" gradientUnits="userSpaceOnUse">
<stop offset="0.413" stop-color="#CBFF00"/>
<stop offset="0.678" stop-color="#7EF426"/>
</radialGradient>
<clipPath id="clip0_15_5429">
<rect width="12" height="12" fill="white"/>
</clipPath>
</defs>
</svg>
