<svg width="12" height="12" viewBox="0 0 12 12" fill="none" xmlns="http://www.w3.org/2000/svg">
<g clip-path="url(#clip0_15_5434)">
<path d="M6 0C7.5913 0 9.11742 0.632141 10.2426 1.75736C11.3679 2.88258 12 4.4087 12 6C12 7.5913 11.3679 9.11742 10.2426 10.2426C9.11742 11.3679 7.5913 12 6 12C4.4087 12 2.88258 11.3679 1.75736 10.2426C0.632141 9.11742 0 7.5913 0 6C0 4.4087 0.632141 2.88258 1.75736 1.75736C2.88258 0.632141 4.4087 0 6 0ZM9.5835 9.59C10.0556 9.12027 10.43 8.56165 10.6849 7.9464C10.9399 7.33116 11.0704 6.67148 11.069 6.0055V5.7315L10.8195 5.7325H7.4795V6.2925H10.4985L10.4975 6.3095C10.4181 7.4489 9.91028 8.51599 9.07606 9.29613C8.24184 10.0763 7.14316 10.5116 6.001 10.5145C5.40874 10.516 4.82206 10.4 4.27493 10.1733C3.72779 9.94654 3.23106 9.61352 2.8135 9.1935C2.39374 8.77569 2.06095 8.27883 1.83438 7.73163C1.60781 7.18443 1.49195 6.59775 1.4935 6.0055C1.4935 4.8025 1.963 3.6705 2.8135 2.819C3.23109 2.39937 3.72771 2.06666 4.27464 1.8401C4.82158 1.61353 5.40799 1.4976 6 1.499L6.286 1.5025V0.941L6.001 0.938C4.65745 0.939587 3.36936 1.47388 2.41913 2.42372C1.46891 3.37357 0.934117 4.66145 0.932 6.005C0.932 7.359 1.4595 8.6315 2.417 9.59C2.88653 10.0619 3.44491 10.4362 4.0599 10.691C4.67489 10.9459 5.33429 11.0764 6 11.075C6.66613 11.0767 7.32598 10.9463 7.94141 10.6914C8.55685 10.4366 9.11564 10.0622 9.5855 9.59M6.2855 8.119V3.3285H5.7155V8.681H7.48V8.1195H6.285L6.2855 8.119ZM4.852 4.0915C4.85233 3.99081 4.83282 3.89104 4.79459 3.79789C4.75636 3.70474 4.70016 3.62003 4.62919 3.54859C4.55822 3.47716 4.47388 3.42041 4.38098 3.38157C4.28808 3.34274 4.18844 3.32258 4.08775 3.32225C3.98706 3.32192 3.88729 3.34143 3.79414 3.37966C3.70099 3.41789 3.61628 3.47409 3.54484 3.54506C3.47341 3.61603 3.41666 3.70037 3.37782 3.79327C3.33899 3.88617 3.31883 3.98581 3.3185 4.0865C3.31784 4.28985 3.39798 4.48514 3.54131 4.62941C3.68463 4.77367 3.8794 4.85509 4.08275 4.85575C4.2861 4.85641 4.48139 4.77627 4.62566 4.63294C4.76992 4.48962 4.85134 4.29485 4.852 4.0915Z" fill="#C00C3F"/>
</g>
<defs>
<clipPath id="clip0_15_5434">
<rect width="12" height="12" fill="white"/>
</clipPath>
</defs>
</svg>
