<svg width="12" height="12" viewBox="0 0 12 12" fill="none" xmlns="http://www.w3.org/2000/svg">
<path d="M6.48809 5.95473C6.48809 5.95473 6.46059 4.81273 7.03809 4.13273C7.61509 3.45323 8.35709 2.93623 8.82409 2.61023C9.29159 2.28423 9.95109 1.87573 9.86859 1.29173C9.78609 0.706729 9.32459 0.319229 7.31859 0.319229C5.31259 0.319229 3.93359 0.503729 2.65509 1.16923C1.37709 1.83523 1.91909 2.69623 2.46309 2.84173C2.94309 2.97023 3.55459 3.02173 4.03909 3.53323C4.91809 4.45973 4.82559 5.88673 4.82559 5.88673L6.48809 5.95473Z" fill="url(#paint0_radial_15_5515)"/>
<path d="M3.19009 6.41672C3.19009 6.41672 1.62409 8.56522 1.21109 9.09572C0.798088 9.62572 -0.0529116 10.4957 0.00258842 10.6042C0.0575884 10.7127 0.703588 10.9712 0.703588 10.9712C0.703588 10.9712 3.97359 11.4332 4.23409 11.4332C4.49509 11.4332 9.85359 9.92472 9.85359 9.92472C9.85359 9.92472 7.97159 5.94072 7.36609 6.17172C6.76109 6.40322 3.19009 6.41672 3.19009 6.41672Z" fill="#717578"/>
<path d="M5.7456 7.69473C5.7456 7.69473 5.2786 8.10223 5.0591 8.32023C4.8391 8.53873 4.2241 9.02773 4.3041 9.10873C4.3691 9.17523 5.2976 8.75772 5.3941 8.70972C5.4771 8.66922 6.5021 8.29223 6.5706 8.38823C6.6391 8.48373 6.3406 8.70972 6.2411 8.85022C6.1486 8.98072 4.5121 10.6122 4.1256 10.7127C3.8476 10.7857 2.1606 10.8762 2.1056 10.7397C2.0501 10.6047 2.7096 9.67972 2.5456 9.54322C2.3806 9.40722 1.7066 9.84472 1.3086 10.0762C0.911096 10.3072 0.292596 10.6032 0.196096 10.6172C0.0995963 10.6312 0.00359629 10.6032 0.00359629 10.6032C0.00359629 10.6032 -0.0254036 10.7732 0.828596 11.1602C1.5011 11.4652 2.0511 11.7452 3.8931 11.9217C5.7346 12.0982 7.0531 11.9357 7.8221 11.8262C8.5921 11.7172 10.0066 11.2817 10.3781 11.1192C10.7486 10.9562 11.0356 10.7877 10.9966 10.6712C10.9826 10.6302 8.8396 7.81623 8.8396 7.81623L7.6831 6.11823L5.7456 7.69422V7.69473Z" fill="#474B4E"/>
<path d="M4.39509 4.91423C3.96759 4.97723 3.81509 5.45723 3.37009 6.01723C3.11359 6.34023 2.89409 6.55923 2.77209 6.70723C2.63509 6.87323 2.45359 7.21623 2.63509 7.31273C2.81609 7.40923 3.09609 7.12073 3.17259 6.96123C3.24859 6.80273 3.36109 6.64023 3.46709 6.75173C3.57259 6.86323 3.57959 7.05773 3.30859 7.28173C3.03709 7.50623 2.71959 7.76723 2.75009 7.99923C2.78009 8.23173 2.93809 8.29823 3.11959 8.24573C3.30059 8.19373 3.73859 7.69273 3.90459 7.44623C4.07109 7.20023 4.33459 6.77373 4.51609 6.77373C4.69759 6.77373 4.69459 7.14723 4.33509 7.56573C3.92009 8.04923 3.71759 8.21673 3.22509 8.65723C2.71359 9.11373 2.78009 9.27723 2.87059 9.36673C2.96159 9.45673 3.21809 9.47823 3.58759 9.16523C3.95759 8.85123 4.47909 8.26173 4.70559 7.99923C4.93209 7.73823 5.13559 7.45423 5.37059 7.46923C5.60459 7.48423 5.54359 7.71523 5.57359 7.82823C5.60359 7.93973 5.60359 8.14873 5.88259 8.14873C6.16159 8.14873 6.31259 7.86473 6.40359 7.64073C6.49359 7.41623 6.48609 7.11773 6.66709 7.08773C6.84859 7.05773 6.87059 7.23723 7.01459 7.52123C7.15759 7.80523 7.70959 8.98473 7.84559 9.19423C7.98159 9.40373 8.13259 9.79923 8.57759 9.66423C9.02259 9.53023 8.44959 8.71573 8.31359 8.51373C8.17759 8.31223 7.78509 7.63173 7.63359 7.17623C7.48309 6.72123 7.48309 6.57823 7.58159 6.50373C7.67909 6.42873 7.84559 6.63823 8.06509 7.04173C8.28359 7.44523 8.47309 7.81923 8.64609 7.96873C8.81909 8.11823 8.97009 8.10323 9.04609 8.03523C9.12109 7.96873 9.15159 7.71423 8.95509 7.52023C8.72266 7.28344 8.51198 7.02624 8.32559 6.75173C8.06448 6.36069 7.81634 5.96114 7.58159 5.55373C7.40059 5.24023 7.29659 5.02473 7.05009 4.98673C6.73059 4.93823 6.50109 5.17423 6.32009 5.30073C6.13859 5.42723 5.89009 5.49523 5.64009 5.48023C5.39109 5.46523 5.05909 5.19623 4.92309 5.07673C4.78809 4.95923 4.65209 4.87723 4.39559 4.91423H4.39509Z" fill="url(#paint1_radial_15_5515)"/>
<path d="M4.6181 5.31873C4.6181 5.31873 4.7891 5.35473 4.9141 5.44723C5.0391 5.54023 5.3461 5.78823 5.7456 5.78223C6.1456 5.77723 6.3681 5.58723 6.5291 5.49423C6.6906 5.40173 6.8406 5.41723 6.8406 5.41723C6.8406 5.41723 6.5696 6.46273 5.7651 6.49373C4.7126 6.53473 4.6181 5.31873 4.6181 5.31873Z" fill="#EC5F32"/>
<path d="M9.62109 5.46022C9.47409 5.48122 9.55059 5.68972 9.57109 6.18172C9.59259 6.67422 9.58759 6.88172 9.82409 6.88222C10.1206 6.88322 10.0276 6.26472 9.97109 6.07722C9.91609 5.88972 9.79809 5.43522 9.62109 5.46022Z" fill="url(#paint2_radial_15_5515)"/>
<path d="M9.5856 3.05973C9.5211 3.18723 9.7256 3.33073 9.9151 3.55223C10.0426 3.70223 10.2301 4.07223 10.4901 4.10023C10.7501 4.12773 10.7801 3.81923 10.6511 3.64173C10.5251 3.46823 10.3076 3.29473 10.0621 3.17023C9.8171 3.04573 9.6351 2.96223 9.5856 3.05973Z" fill="url(#paint3_radial_15_5515)"/>
<path d="M6.26959 1.82423C6.34709 1.85923 6.42359 1.81023 6.45159 1.70623C6.47009 1.63773 6.78009 1.13923 7.23709 0.832731C7.60859 0.582731 7.78409 0.582731 7.97359 0.506731C8.08859 0.459731 8.19109 0.284231 8.13459 0.152731C8.08109 0.0277306 7.96609 -0.0202694 7.77709 0.0077306C7.65709 0.0252306 7.22009 0.135731 6.78809 0.597731C6.25559 1.16623 6.22709 1.56173 6.21309 1.63073C6.19909 1.69973 6.19509 1.79023 6.26959 1.82423Z" fill="url(#paint4_radial_15_5515)"/>
<path d="M5.24508 1.88673C5.10108 1.92473 4.97858 1.72023 4.72008 1.45673C4.46008 1.19223 4.22908 1.15823 4.10208 0.99773C3.97558 0.83773 3.99758 0.65773 4.10958 0.56073C4.22108 0.46373 4.41758 0.44973 4.59258 0.58123C4.76758 0.71273 4.99258 0.96323 5.15358 1.30973C5.24108 1.49723 5.37908 1.85173 5.24508 1.88673Z" fill="url(#paint5_radial_15_5515)"/>
<path d="M1.84009 2.94473C1.73859 2.85023 1.33409 3.01773 1.02359 3.27573C0.875585 3.39873 0.726585 3.54423 0.665085 3.69673C0.614085 3.82623 0.616086 3.99023 0.736586 4.07023C0.845586 4.14173 0.978585 4.10823 1.07159 4.03723C1.19909 3.93873 1.28759 3.74023 1.36209 3.63073C1.49309 3.43923 1.71059 3.25723 1.78209 3.19623C1.84709 3.13923 1.91709 3.01623 1.84059 2.94523L1.84009 2.94473Z" fill="url(#paint6_radial_15_5515)"/>
<path d="M2.17609 5.56473C2.05909 5.52923 1.88359 5.65573 1.73659 6.21173C1.60659 6.70373 1.56659 7.14723 1.89409 7.15523C2.23809 7.16423 2.09509 6.66823 2.13559 6.22023C2.17559 5.77323 2.29259 5.60023 2.17559 5.56523L2.17609 5.56473Z" fill="url(#paint7_radial_15_5515)"/>
<path d="M2.14509 4.91923C2.33709 4.95723 2.43759 4.81273 2.47709 4.68023C2.50809 4.57423 2.64009 4.02423 3.32709 3.96273C3.99159 3.90273 4.46709 4.56423 4.53559 4.63723C4.60459 4.70973 4.69559 4.72273 4.74659 4.67123C4.79209 4.62623 4.78309 4.54373 4.73759 4.43173C4.69059 4.31223 4.14159 3.37873 3.16659 3.50123C2.24309 3.61673 1.92409 4.32123 1.93209 4.59023C1.93909 4.77873 1.99409 4.88923 2.14509 4.91923Z" fill="url(#paint8_radial_15_5515)"/>
<path d="M6.52309 4.79872C6.64809 4.83972 6.70659 4.70172 6.75159 4.63722C6.79709 4.57222 7.03759 4.11622 7.46559 3.89772C7.89459 3.67972 8.21709 3.65572 8.62059 3.83722C8.83559 3.93372 8.98659 4.19472 9.07809 4.35422C9.20109 4.56822 9.37209 4.62522 9.53509 4.53572C9.69859 4.44672 9.72259 4.17972 9.48209 3.86072C9.28709 3.60272 8.85209 3.16222 8.08109 3.23922C6.85259 3.36072 6.52109 4.42572 6.48909 4.52772C6.45409 4.64522 6.43759 4.77072 6.52309 4.79872Z" fill="url(#paint9_radial_15_5515)"/>
<path d="M5.93109 5.02873C6.05909 5.04173 6.09209 4.98573 6.12759 4.76673C6.20759 4.27323 6.33209 3.34173 6.99259 2.58823C7.51409 1.99323 8.10109 2.06523 8.36009 2.22473C8.58659 2.36423 8.64209 2.49773 8.73359 2.59473C8.82509 2.69123 9.00959 2.80673 9.17459 2.69123C9.31259 2.59523 9.34709 2.35123 9.10709 2.08423C8.86759 1.81723 8.62309 1.59923 8.02209 1.55023C7.42059 1.50123 6.82659 1.88373 6.50709 2.34523C6.18809 2.80673 5.95509 3.46123 5.88209 3.90523C5.80809 4.34823 5.80209 4.74173 5.80209 4.83373C5.80209 4.92373 5.82659 5.01773 5.93109 5.02873Z" fill="url(#paint10_radial_15_5515)"/>
<path d="M5.41861 5.02973C5.55261 5.00973 5.57161 4.90823 5.55361 4.75073C5.53511 4.59323 5.41561 3.72723 5.17561 3.05373C4.93711 2.38023 4.57561 1.75223 3.86961 1.62173C3.16461 1.49123 2.60411 1.98173 2.52511 2.06223C2.40261 2.18873 2.27461 2.40023 2.42761 2.57023C2.58061 2.74073 2.82861 2.60823 2.98761 2.43773C3.14661 2.26773 3.41461 2.03523 3.85061 2.16873C4.28561 2.30223 4.49211 2.70573 4.68261 3.08873C4.87261 3.47123 5.02361 4.02223 5.10311 4.31373C5.18311 4.60423 5.23311 4.83473 5.26461 4.92023C5.29561 5.00023 5.35711 5.03823 5.41861 5.02973Z" fill="url(#paint11_radial_15_5515)"/>
<defs>
<radialGradient id="paint0_radial_15_5515" cx="0" cy="0" r="1" gradientUnits="userSpaceOnUse" gradientTransform="translate(3.96128 6.08198) scale(5.32812 5.32825)">
<stop offset="0.1743" stop-color="#E79F68"/>
<stop offset="0.2776" stop-color="#E6A272"/>
<stop offset="0.4528" stop-color="#E3AB8D"/>
<stop offset="0.5312" stop-color="#E2AF9B"/>
<stop offset="0.7833" stop-color="#E1D1CC"/>
<stop offset="0.8828" stop-color="#E0E0E0"/>
</radialGradient>
<radialGradient id="paint1_radial_15_5515" cx="0" cy="0" r="1" gradientUnits="userSpaceOnUse" gradientTransform="translate(-3.32103 5.78863) rotate(90) scale(6.83483 3.65536)">
<stop offset="0.3896" stop-color="#CB2D30"/>
<stop offset="0.4916" stop-color="#D23730"/>
<stop offset="0.6646" stop-color="#E45231"/>
<stop offset="0.7153" stop-color="#EA5B31"/>
<stop offset="0.7921" stop-color="#EA6032"/>
<stop offset="0.887" stop-color="#EC6F36"/>
<stop offset="0.9672" stop-color="#ED823A"/>
</radialGradient>
<radialGradient id="paint2_radial_15_5515" cx="0" cy="0" r="1" gradientUnits="userSpaceOnUse" gradientTransform="translate(9.39594 1.73566) scale(1.23285 1.2333)">
<stop offset="0.0448" stop-color="#CB2D30"/>
<stop offset="0.3439" stop-color="#D23730"/>
<stop offset="0.8512" stop-color="#E45231"/>
<stop offset="1" stop-color="#EA5B31"/>
</radialGradient>
<radialGradient id="paint3_radial_15_5515" cx="0" cy="0" r="1" gradientUnits="userSpaceOnUse" gradientTransform="translate(8.65911 2.86298) scale(1.58394 1.58376)">
<stop offset="0.2939" stop-color="#CB2D30"/>
<stop offset="0.5149" stop-color="#D23730"/>
<stop offset="0.89" stop-color="#E45231"/>
<stop offset="1" stop-color="#EA5B31"/>
</radialGradient>
<radialGradient id="paint4_radial_15_5515" cx="0" cy="0" r="1" gradientUnits="userSpaceOnUse" gradientTransform="translate(5.80544 2.42051) scale(2.38657 2.38648)">
<stop offset="0.0448" stop-color="#CB2D30"/>
<stop offset="0.3439" stop-color="#D23730"/>
<stop offset="0.8512" stop-color="#E45231"/>
<stop offset="1" stop-color="#EA5B31"/>
</radialGradient>
<radialGradient id="paint5_radial_15_5515" cx="0" cy="0" r="1" gradientUnits="userSpaceOnUse" gradientTransform="translate(5.65478 2.19503) scale(1.91893 1.91923)">
<stop offset="0.4232" stop-color="#CB2D30"/>
<stop offset="0.6038" stop-color="#D23730"/>
<stop offset="0.9102" stop-color="#E45231"/>
<stop offset="1" stop-color="#EA5B31"/>
</radialGradient>
<radialGradient id="paint6_radial_15_5515" cx="0" cy="0" r="1" gradientUnits="userSpaceOnUse" gradientTransform="translate(2.15673 2.62113) scale(1.66744 1.66799)">
<stop offset="0.3406" stop-color="#CB2D30"/>
<stop offset="0.547" stop-color="#D23730"/>
<stop offset="0.8973" stop-color="#E45231"/>
<stop offset="1" stop-color="#EA5B31"/>
</radialGradient>
<radialGradient id="paint7_radial_15_5515" cx="0" cy="0" r="1" gradientUnits="userSpaceOnUse" gradientTransform="translate(2.19867 1.6741) scale(1.92175 1.92161)">
<stop offset="0.4833" stop-color="#CB2D30"/>
<stop offset="0.6451" stop-color="#D23730"/>
<stop offset="0.9195" stop-color="#E45231"/>
<stop offset="1" stop-color="#EA5B31"/>
</radialGradient>
<radialGradient id="paint8_radial_15_5515" cx="0" cy="0" r="1" gradientUnits="userSpaceOnUse" gradientTransform="translate(1.56899 4.20809) scale(1.12866 1.12876)">
<stop offset="0.0448" stop-color="#CB2D30"/>
<stop offset="0.3439" stop-color="#D23730"/>
<stop offset="0.8512" stop-color="#E45231"/>
<stop offset="1" stop-color="#EA5B31"/>
</radialGradient>
<radialGradient id="paint9_radial_15_5515" cx="0" cy="0" r="1" gradientUnits="userSpaceOnUse" gradientTransform="translate(3.84346 4.01837) scale(1.26395 1.264)">
<stop offset="0.0448" stop-color="#CB2D30"/>
<stop offset="0.3439" stop-color="#D23730"/>
<stop offset="0.8512" stop-color="#E45231"/>
<stop offset="1" stop-color="#EA5B31"/>
</radialGradient>
<radialGradient id="paint10_radial_15_5515" cx="0" cy="0" r="1" gradientUnits="userSpaceOnUse" gradientTransform="translate(4.19112 3.10067) scale(4.2384 4.23785)">
<stop offset="0.3943" stop-color="#CB2D30"/>
<stop offset="0.5839" stop-color="#D23730"/>
<stop offset="0.9057" stop-color="#E45231"/>
<stop offset="1" stop-color="#EA5B31"/>
</radialGradient>
<radialGradient id="paint11_radial_15_5515" cx="0" cy="0" r="1" gradientUnits="userSpaceOnUse" gradientTransform="translate(6.753 4.04968) scale(4.05845 4.05887)">
<stop offset="0.4205" stop-color="#CB2D30"/>
<stop offset="0.6019" stop-color="#D23730"/>
<stop offset="0.9097" stop-color="#E45231"/>
<stop offset="1" stop-color="#EA5B31"/>
</radialGradient>
</defs>
</svg>
