<svg width="12" height="12" viewBox="0 0 12 12" fill="none" xmlns="http://www.w3.org/2000/svg">
<path d="M9.23 0.746L10 1.518V5.25L9.23 6.005L8.4605 5.25V1.518L9.2305 0.746H9.23ZM5.4955 0.746L6.274 1.518V5.25L5.4955 6.005L4.7255 5.25V1.518L5.4955 0.746ZM1.77 6.005L1 5.2495V1.518L1.77 0.746L2.5395 1.518V5.25L1.77 6.005ZM1 6.7595L1.77 6.0045L2.5395 6.7595V11.245L1.7695 12L1 11.245V6.759V6.7595ZM9.23 12L8.4605 11.245V6.759L9.2305 6.004L10 6.7595V11.2455L9.23 12ZM2.54 0H4.7265L5.4965 0.746L4.7265 1.518H2.5395L1.77 0.746L2.54 0ZM6.275 0H8.461L9.2305 0.746L8.461 1.518H6.274L5.4955 0.746L6.274 0H6.275Z" fill="#FF5C00"/>
</svg>
