<svg width="12" height="12" viewBox="0 0 12 12" fill="none" xmlns="http://www.w3.org/2000/svg">
<g clip-path="url(#clip0_15_5536)">
<path d="M3.44851 2H3.43651L3.42101 3.3075H3.43201C4.28951 3.3075 4.95501 3.986 6.40201 6.4305L6.48951 6.579L6.49551 6.589L7.30551 5.37L7.29951 5.3605C7.1225 5.07071 6.93946 4.78465 6.75051 4.5025C6.56447 4.22406 6.36851 3.95239 6.16301 3.688C5.20651 2.466 4.40651 2 3.44851 2Z" fill="url(#paint0_linear_15_5536)"/>
<path d="M3.4365 2C2.475 2.005 1.6235 2.629 1.01 3.585C1.00833 3.58783 1.00667 3.59066 1.005 3.5935L2.132 4.209L2.1375 4.2005C2.4965 3.659 2.9425 3.3135 3.4215 3.308H3.432L3.448 2H3.4365Z" fill="url(#paint1_linear_15_5536)"/>
<path d="M1.00951 3.58501L1.00401 3.59351C0.600006 4.22351 0.299006 4.99751 0.137006 5.83201L0.134506 5.84301L1.40151 6.14301L1.40351 6.13201C1.53851 5.39851 1.79651 4.71801 2.13151 4.20951L2.13701 4.20101L1.00951 3.58501Z" fill="url(#paint2_linear_15_5536)"/>
<path d="M1.4035 6.132L0.137 5.832L0.1345 5.843C0.046 6.302 0.001 6.7685 0 7.236V7.2475L1.299 7.364V7.3525C1.29427 6.94339 1.32944 6.53479 1.404 6.1325L1.4035 6.132Z" fill="url(#paint3_linear_15_5536)"/>
<path d="M1.3385 7.76849C1.31521 7.63417 1.302 7.49829 1.299 7.36199V7.35099L5.17488e-07 7.23399V7.24599C-0.00145728 7.523 0.0229824 7.79954 0.0730005 8.07199L1.3405 7.77949C1.33982 7.77583 1.33916 7.77216 1.3385 7.76849Z" fill="url(#paint4_linear_15_5536)"/>
<path d="M1.635 8.44501C1.493 8.29001 1.393 8.06701 1.3405 7.78101L1.3385 7.77051L0.0709991 8.06301L0.0729991 8.07351C0.168999 8.57851 0.356999 8.99851 0.625999 9.31701L0.632999 9.32551L1.642 8.45301C1.63949 8.45035 1.63749 8.44769 1.635 8.44501Z" fill="url(#paint5_linear_15_5536)"/>
<path d="M5.39001 4.827C4.62601 6.002 4.16301 6.7395 4.16301 6.7395C3.14551 8.3395 2.79351 8.698 2.22751 8.698C2.1162 8.7009 2.00558 8.6797 1.90322 8.63586C1.80087 8.59202 1.70921 8.52657 1.63451 8.444L0.626007 9.316L0.633007 9.3245C1.00501 9.759 1.52901 10 2.17801 10C3.15951 10 3.86501 9.536 5.12001 7.335L6.00301 5.77C5.80711 5.45015 5.60304 5.1357 5.39001 4.827Z" fill="#0082FB"/>
<path d="M6.75099 2.973L6.74299 2.981C6.54299 3.196 6.34999 3.435 6.16299 3.689C6.35199 3.9305 6.54699 4.201 6.75049 4.504C6.99049 4.1325 7.21449 3.8315 7.43399 3.6005L7.44199 3.5925L6.75099 2.973Z" fill="url(#paint6_linear_15_5536)"/>
<path d="M10.459 2.8565C9.9265 2.3165 9.2915 2 8.6125 2C7.8965 2 7.294 2.3935 6.751 2.972L6.743 2.98L7.434 3.6L7.442 3.5915C7.7995 3.218 8.146 3.0315 8.53 3.0315C8.943 3.0315 9.33 3.2265 9.665 3.569L9.6725 3.577L10.467 2.8645L10.459 2.8565Z" fill="#0082FB"/>
<path d="M11.999 7.06251C11.969 5.32901 11.364 3.77951 10.467 2.86451L10.459 2.85651L9.66499 3.56851L9.67249 3.57651C10.3475 4.27251 10.811 5.56651 10.853 7.06201V7.07351H11.999V7.06251Z" fill="url(#paint7_linear_15_5536)"/>
<path d="M11.999 7.07501V7.06351H10.853V7.07451C10.855 7.14451 10.856 7.21551 10.856 7.28651C10.856 7.69401 10.7955 8.02351 10.672 8.26151L10.6665 8.27251L11.5205 9.16351L11.527 9.15351C11.837 8.67351 12 8.00701 12 7.19851C12 7.15701 12 7.11601 11.999 7.07501Z" fill="url(#paint8_linear_15_5536)"/>
<path d="M10.672 8.25999L10.6665 8.26999C10.5595 8.47099 10.407 8.60499 10.208 8.66349L10.597 9.89449C10.672 9.86916 10.7452 9.83875 10.816 9.80349C11.0929 9.66352 11.3283 9.45358 11.499 9.19449L11.521 9.16199L11.527 9.15199L10.672 8.25999Z" fill="url(#paint9_linear_15_5536)"/>
<path d="M9.96 8.6965C9.829 8.6965 9.714 8.677 9.601 8.6265L9.202 9.8875C9.4265 9.964 9.6655 9.9985 9.932 9.9985C10.178 9.9985 10.4035 9.962 10.608 9.891L10.218 8.66C10.1345 8.685 10.048 8.6975 9.96 8.6965Z" fill="url(#paint10_linear_15_5536)"/>
<path d="M9.1615 8.267L9.1545 8.2585L8.2365 9.2155L8.2445 9.224C8.563 9.565 8.8675 9.7765 9.213 9.8925L9.6115 8.6325C9.466 8.57 9.325 8.456 9.1615 8.267Z" fill="url(#paint11_linear_15_5536)"/>
<path d="M9.1545 8.2575C8.8795 7.9365 8.5385 7.4015 8.003 6.5375L7.305 5.3695L7.2995 5.3595L6.4895 6.5785L6.4955 6.5885L6.99 7.4225C7.4695 8.2275 7.86 8.8095 8.2365 9.215L8.2445 9.223L9.1615 8.266C9.15916 8.26317 9.15682 8.26034 9.1545 8.2575Z" fill="url(#paint12_linear_15_5536)"/>
</g>
<defs>
<linearGradient id="paint0_linear_15_5536" x1="6.36922" y1="6.09334" x2="3.9604" y2="2.92677" gradientUnits="userSpaceOnUse">
<stop offset="0.0006" stop-color="#0867DF"/>
<stop offset="0.4539" stop-color="#0668E1"/>
<stop offset="0.8591" stop-color="#0064E0"/>
</linearGradient>
<linearGradient id="paint1_linear_15_5536" x1="1.5344" y1="3.67606" x2="3.25315" y2="2.36792" gradientUnits="userSpaceOnUse">
<stop offset="0.1323" stop-color="#0064DF"/>
<stop offset="0.9988" stop-color="#0064E0"/>
</linearGradient>
<linearGradient id="paint2_linear_15_5536" x1="0.900723" y1="5.86488" x2="1.60142" y2="4.09566" gradientUnits="userSpaceOnUse">
<stop offset="0.0147" stop-color="#0072EC"/>
<stop offset="0.6881" stop-color="#0064DF"/>
</linearGradient>
<linearGradient id="paint3_linear_15_5536" x1="0.660329" y1="7.21371" x2="0.745809" y2="6.07424" gradientUnits="userSpaceOnUse">
<stop offset="0.0731" stop-color="#007CF6"/>
<stop offset="0.9943" stop-color="#0072EC"/>
</linearGradient>
<linearGradient id="paint4_linear_15_5536" x1="0.699109" y1="7.72256" x2="0.674544" y2="7.53918" gradientUnits="userSpaceOnUse">
<stop offset="0.0731" stop-color="#007FF9"/>
<stop offset="1" stop-color="#007CF6"/>
</linearGradient>
<linearGradient id="paint5_linear_15_5536" x1="0.663093" y1="7.96491" x2="1.03808" y2="8.76284" gradientUnits="userSpaceOnUse">
<stop offset="0.0731" stop-color="#007FF9"/>
<stop offset="1" stop-color="#0082FB"/>
</linearGradient>
<linearGradient id="paint6_linear_15_5536" x1="6.60819" y1="4.02708" x2="7.0604" y2="3.39981" gradientUnits="userSpaceOnUse">
<stop offset="0.2799" stop-color="#007FF8"/>
<stop offset="0.9141" stop-color="#0082FB"/>
</linearGradient>
<linearGradient id="paint7_linear_15_5536" x1="10.6864" y1="3.11944" x2="11.6909" y2="6.82619" gradientUnits="userSpaceOnUse">
<stop stop-color="#0082FB"/>
<stop offset="0.9995" stop-color="#0081FA"/>
</linearGradient>
<linearGradient id="paint8_linear_15_5536" x1="11.4673" y1="7.16139" x2="10.878" y2="8.35616" gradientUnits="userSpaceOnUse">
<stop offset="0.0619" stop-color="#0081FA"/>
<stop offset="1" stop-color="#0080F9"/>
</linearGradient>
<linearGradient id="paint9_linear_15_5536" x1="10.6074" y1="9.22958" x2="11.0829" y2="8.90472" gradientUnits="userSpaceOnUse">
<stop stop-color="#027AF3"/>
<stop offset="1" stop-color="#0080F9"/>
</linearGradient>
<linearGradient id="paint10_linear_15_5536" x1="9.48928" y1="9.31251" x2="10.3565" y2="9.31251" gradientUnits="userSpaceOnUse">
<stop stop-color="#0377EF"/>
<stop offset="0.9994" stop-color="#0279F1"/>
</linearGradient>
<linearGradient id="paint11_linear_15_5536" x1="8.79066" y1="8.83527" x2="9.27892" y2="9.12351" gradientUnits="userSpaceOnUse">
<stop offset="0.0019" stop-color="#0471E9"/>
<stop offset="1" stop-color="#0377EF"/>
</linearGradient>
<linearGradient id="paint12_linear_15_5536" x1="7.35133" y1="6.12134" x2="8.9462" y2="8.13271" gradientUnits="userSpaceOnUse">
<stop offset="0.2765" stop-color="#0867DF"/>
<stop offset="1" stop-color="#0471E9"/>
</linearGradient>
<clipPath id="clip0_15_5536">
<rect width="12" height="12" fill="white"/>
</clipPath>
</defs>
</svg>
