<svg width="12" height="12" viewBox="0 0 12 12" fill="none" xmlns="http://www.w3.org/2000/svg">
<g clip-path="url(#clip0_15_5567)">
<path fill-rule="evenodd" clip-rule="evenodd" d="M0.525976 8.4585L5.29548 9.7345C5.28906 10.0736 5.29907 10.4128 5.32548 10.751L8.30348 11.5475C7.42021 11.9121 6.46264 12.0603 5.51048 11.98L5.42048 11.972L5.39848 11.97L5.35648 11.9655L5.30948 11.9605C5.28329 11.9573 5.25712 11.954 5.23098 11.9505L5.17748 11.9435L5.12248 11.9355C5.06903 11.9277 5.01569 11.9192 4.96248 11.91L4.94148 11.906L4.90398 11.8995L4.85048 11.8895L4.81548 11.882L4.76898 11.8725L4.73148 11.8645L4.68398 11.8545L4.63548 11.843L4.58848 11.832L4.55448 11.8235L4.51048 11.8125L4.46548 11.8005L4.41798 11.788L4.37698 11.7765L4.32248 11.7615L4.29148 11.7515L4.24948 11.739L4.20298 11.725L4.15048 11.708L4.12148 11.6985L4.08148 11.6855L4.03648 11.67L4.00348 11.658C3.99613 11.6555 3.9888 11.653 3.98148 11.6505L3.94748 11.638L3.89698 11.6195L3.86848 11.6085L3.82848 11.5935L3.78498 11.576L3.74098 11.5585L3.70148 11.5425L3.65398 11.5225L3.62248 11.5085L3.59098 11.495C3.58413 11.492 3.5773 11.489 3.57048 11.486L3.53748 11.471L3.48598 11.4475L3.45998 11.4355L3.41198 11.4125L3.38098 11.3975L3.33898 11.3775L3.29598 11.3555L3.24948 11.332L3.22348 11.3185L3.17198 11.291L3.14348 11.276L3.11448 11.26C3.10679 11.2557 3.09913 11.2514 3.09148 11.247L3.04448 11.2205L3.01448 11.2035L2.98898 11.1885L2.95298 11.168L2.91198 11.143L2.86548 11.115L2.83948 11.099L2.79748 11.0725L2.76698 11.053L2.72748 11.028L2.69248 11.0045L2.66598 10.987C2.65695 10.981 2.64795 10.975 2.63898 10.969L2.61698 10.954L2.59498 10.939C2.58829 10.9344 2.58162 10.9297 2.57498 10.925L2.54648 10.905L2.50848 10.878L2.47398 10.853L2.43698 10.826L2.40898 10.805L2.37098 10.7765L2.33298 10.747L2.28998 10.7135L2.26748 10.696L2.23548 10.67L2.19848 10.64L2.15398 10.6035L2.13098 10.584L2.10798 10.5645C2.10079 10.5584 2.09362 10.5522 2.08648 10.546L2.06398 10.526L2.03348 10.4995L1.99848 10.4685L1.96448 10.4385L1.93348 10.4095L1.89998 10.3785L1.87348 10.3535L1.82948 10.3115C1.81289 10.2954 1.79639 10.2793 1.77998 10.263L1.76548 10.249L1.74498 10.228L1.71048 10.193L1.68548 10.1675L1.66048 10.141C1.63191 10.1117 1.60391 10.0819 1.57648 10.0515L1.53648 10.0075L1.50548 9.9725L1.46998 9.9325L1.44898 9.908L1.42248 9.877L1.39348 9.843L1.37048 9.815C1.36596 9.80951 1.36146 9.80401 1.35698 9.7985L1.33448 9.771L1.30148 9.73L1.28098 9.704L1.25598 9.672L1.24598 9.6595C0.959886 9.28867 0.718238 8.88558 0.525976 8.4585ZM0.0159761 5.5615L5.69248 7.08C5.59744 7.41101 5.51918 7.7466 5.45798 8.0855L10.8665 9.5325C10.5978 9.9004 10.2883 10.2367 9.94398 10.535L0.328476 7.962L0.320476 7.939L0.302976 7.887C0.294471 7.86156 0.286138 7.83606 0.277976 7.8105L0.274476 7.799C0.23599 7.67665 0.201472 7.55308 0.170976 7.4285L0.155976 7.3655L0.146976 7.3255L0.136476 7.277L0.127476 7.2365L0.118476 7.1915L0.109976 7.1495L0.100976 7.1025C0.0879761 7.032 0.0759761 6.961 0.0654761 6.8895L0.0569761 6.8305L0.0514761 6.789L0.0449761 6.738C0.0416284 6.71119 0.0384617 6.68435 0.0354761 6.6575L0.0329761 6.634C-0.00438077 6.27771 -0.0100697 5.9188 0.0159761 5.5615ZM0.812476 2.9865L6.78648 4.5845C6.60248 4.887 6.43398 5.2 6.28148 5.522L11.929 7.033C11.858 7.443 11.745 7.839 11.595 8.2155L5.81998 6.6705L0.0619761 5.1305L0.0694761 5.0805L0.0734761 5.056L0.0784761 5.0225L0.0859761 4.979L0.0949761 4.93C0.107976 4.856 0.122976 4.7825 0.138976 4.709L0.152976 4.647L0.162976 4.6045L0.174976 4.556C0.185976 4.511 0.197476 4.466 0.209976 4.422L0.223976 4.371L0.235476 4.3295L0.250476 4.2795L0.262976 4.2385L0.277976 4.1905L0.290976 4.1495L0.306476 4.102C0.435954 3.71361 0.605184 3.33963 0.811476 2.986L0.812476 2.9865ZM3.03348 0.7865L8.67598 2.2955C8.37822 2.56575 8.09641 2.85307 7.83198 3.156L11.7435 4.2025C11.877 4.6285 11.9645 5.0745 12 5.535L1.05298 2.607L1.07548 2.5745L1.08898 2.5545L1.10898 2.527L1.13198 2.4945L1.15948 2.4565L1.18648 2.4205L1.21848 2.3775L1.24348 2.345L1.27198 2.3085L1.29948 2.2735L1.32948 2.2365L1.35698 2.202L1.38948 2.1635L1.41648 2.1305L1.44948 2.092L1.47598 2.062L1.51198 2.021L1.53848 1.991L1.57198 1.954L1.59898 1.925L1.63548 1.886L1.66448 1.856L1.69598 1.8225L1.77998 1.7375L1.82998 1.6885L1.85948 1.6605L1.89748 1.625C2.24207 1.30206 2.62334 1.02064 3.03348 0.7865ZM6.00848 0.0005H6.05698L6.09798 0.001L6.13248 0.0015L6.15948 0.0025L6.19348 0.0035L6.21648 0.004L6.25448 0.0055L6.27798 0.0065L6.30798 0.008L6.33498 0.009L6.37848 0.0115L6.43098 0.015L6.50298 0.0205L6.54698 0.024L6.56898 0.026L6.60748 0.03L6.64848 0.034L6.67198 0.0365L6.72298 0.0425L6.74798 0.0455L6.80198 0.0525L6.84248 0.0575L6.86348 0.0605L6.89598 0.0655L6.99948 0.0815L7.03448 0.0875L7.06698 0.093L7.13698 0.106L7.18298 0.115L7.23798 0.126L7.26098 0.131L7.29848 0.139L7.31898 0.144L7.34998 0.1505L7.37098 0.1555L7.40348 0.163L7.42798 0.169L7.46348 0.1775L7.51148 0.1895L7.56748 0.2045L7.62398 0.2195L7.68048 0.2355L7.70548 0.243L7.74048 0.253L7.77948 0.265L7.81598 0.2765L7.84098 0.2845L7.86598 0.2925L7.90398 0.305L7.95348 0.3215L8.00448 0.3395L8.02848 0.348L8.06048 0.3595L8.10698 0.3765L8.16198 0.397L8.21998 0.4195L8.26998 0.4395L8.29348 0.4495L8.32348 0.4615L8.34398 0.4705L8.37548 0.4835L8.39548 0.4925L8.42398 0.505L8.47898 0.529L8.52898 0.552L8.56598 0.5695L8.60348 0.5875L8.63348 0.6015L8.67948 0.6245L8.72498 0.647L8.77598 0.673L8.80248 0.687L8.82698 0.7L8.84998 0.712L8.87998 0.7285L8.90048 0.7395L8.92648 0.754L8.97048 0.779L9.02348 0.809L9.06698 0.8345L9.09548 0.8515L9.12198 0.8675L9.16998 0.897L9.21398 0.9245L9.26298 0.9555L9.28098 0.9675L9.31298 0.988L9.35498 1.016L9.37498 1.0295L9.40598 1.0505L9.43698 1.072L9.44848 1.0805C9.47548 1.099 9.50248 1.118 9.52898 1.1375L9.57048 1.1675L9.60298 1.1915L9.63098 1.213L9.67398 1.2455L9.71498 1.2775L9.73498 1.2925L9.75998 1.313L9.80298 1.3475L9.84248 1.38L9.88498 1.4155C10.241 1.7155 10.5615 2.057 10.8395 2.431L3.61098 0.4975L3.64198 0.484L3.67448 0.47L3.71498 0.453L3.75798 0.4355C3.81448 0.413 3.87148 0.3905 3.92848 0.37L3.97648 0.3525L4.02298 0.336L4.06498 0.321L4.11298 0.3055C4.15648 0.2905 4.20098 0.2765 4.24498 0.263L4.29048 0.2495L4.33348 0.237L4.38448 0.222L4.42698 0.2105L4.47698 0.1975L4.51998 0.1855L4.56498 0.174L4.61048 0.163L4.65798 0.152L4.70298 0.142L4.75198 0.1315L4.79748 0.1215L4.84498 0.1125L4.89098 0.1035L4.94098 0.0945L4.98648 0.0865L5.03548 0.078L5.08148 0.071L5.12998 0.0635L5.17598 0.057L5.22698 0.0505L5.27248 0.0445L5.32498 0.0385L5.36998 0.0335L5.42248 0.0285C5.46898 0.0235 5.51548 0.0195 5.56248 0.0165L5.61548 0.0125L5.66048 0.01L5.71548 0.007L5.76198 0.005L5.81198 0.003L5.86048 0.002L5.90998 0.001L6.00848 0V0.0005Z" fill="black"/>
</g>
<defs>
<clipPath id="clip0_15_5567">
<rect width="12" height="12" fill="white"/>
</clipPath>
</defs>
</svg>
