<svg width="12" height="12" viewBox="0 0 12 12" fill="none" xmlns="http://www.w3.org/2000/svg">
<path d="M3.9705 1C4.0855 1 4.1965 1.0365 4.2895 1.105C4.3825 1.173 4.452 1.269 4.488 1.38L4.7845 2.287C4.821 2.3975 4.8905 2.4935 4.983 2.562C5.076 2.63 5.1875 2.667 5.302 2.667H6.6975C6.8125 2.667 6.9235 2.63 7.0165 2.562C7.10974 2.49329 7.17915 2.39713 7.215 2.287L7.512 1.3795C7.54785 1.26937 7.61726 1.17321 7.7105 1.1045C7.803 1.0365 7.9145 1 8.029 1H8.879C8.994 1 9.1055 1.0365 9.1985 1.105C9.291 1.173 9.3605 1.269 9.397 1.38L9.723 2.377C9.782 2.5575 9.928 2.6945 10.108 2.741L11.5865 3.117C11.7045 3.147 11.8095 3.2165 11.8845 3.314C11.9595 3.4115 11.9995 3.532 12 3.656V8.344C12 8.468 11.9595 8.588 11.8845 8.686C11.8102 8.78319 11.7055 8.85258 11.587 8.883L10.1085 9.259C10.0191 9.28186 9.93704 9.32712 9.87 9.3905C9.80251 9.45455 9.75215 9.53448 9.7235 9.623L9.397 10.62C9.36128 10.7301 9.29206 10.8262 9.199 10.895C9.106 10.963 8.994 11 8.88 11H8.029C7.9145 11 7.803 10.9635 7.7105 10.895C7.61726 10.8263 7.54785 10.7301 7.512 10.62L7.33 10.065C7.30269 9.98141 7.29524 9.8926 7.30826 9.80563C7.32128 9.71866 7.35441 9.63593 7.405 9.564C7.45455 9.49255 7.5207 9.4342 7.59778 9.39396C7.67486 9.35372 7.76055 9.3328 7.8475 9.333H9.2725C9.4175 9.333 9.556 9.275 9.6585 9.1705C9.7605 9.0665 9.8185 8.9255 9.8185 8.778V3.222C9.8185 3.075 9.7605 2.9335 9.6585 2.8295C9.60832 2.77804 9.54838 2.73712 9.48218 2.70913C9.41599 2.68114 9.34487 2.66665 9.273 2.6665H7.6365C7.4915 2.6665 7.353 2.725 7.2505 2.8295C7.1485 2.9335 7.0905 3.0745 7.0905 3.222V7.111C7.0905 7.2585 7.0335 7.4 6.931 7.504C6.88078 7.55537 6.82082 7.5962 6.75463 7.6241C6.68843 7.652 6.61734 7.66642 6.5455 7.6665H5.4545C5.38267 7.66642 5.31157 7.652 5.24537 7.6241C5.17918 7.5962 5.11922 7.55537 5.069 7.504C4.96627 7.399 4.90882 7.2579 4.909 7.111V3.222C4.909 3.075 4.8515 2.9335 4.749 2.8295C4.69887 2.77813 4.639 2.73725 4.5729 2.70927C4.5068 2.68128 4.43578 2.66674 4.364 2.6665H2.727C2.582 2.6665 2.4435 2.725 2.341 2.8295C2.239 2.9335 2.181 3.0745 2.181 3.222V8.778C2.181 8.925 2.239 9.0665 2.341 9.1705C2.4435 9.275 2.582 9.3335 2.727 9.3335H4.152C4.2389 9.33329 4.32455 9.35415 4.40162 9.3943C4.47868 9.43444 4.54487 9.49267 4.5945 9.564C4.64534 9.63572 4.67862 9.71837 4.69165 9.80531C4.70467 9.89225 4.69709 9.98103 4.6695 10.0645L4.4875 10.6205C4.45165 10.7306 4.38224 10.8268 4.289 10.8955C4.1965 10.9635 4.085 11 3.9705 11H3.12C3.0055 11 2.894 10.9635 2.801 10.895C2.70776 10.8263 2.63835 10.7301 2.6025 10.62L2.2765 9.623C2.24771 9.53443 2.19717 9.45449 2.1295 9.3905C2.06246 9.32712 1.98038 9.28186 1.891 9.259L0.413 8.883C0.294538 8.85258 0.189753 8.78319 0.1155 8.686C0.0404403 8.5878 -0.000154649 8.4676 4.42743e-07 8.344V3.656C4.42743e-07 3.532 0.0405004 3.4115 0.1155 3.314C0.1905 3.2165 0.2955 3.147 0.413 3.117L1.8915 2.7405C1.9805 2.718 2.0625 2.6725 2.13 2.609C2.197 2.5455 2.2475 2.4655 2.2765 2.377L2.603 1.3795C2.63885 1.26937 2.70826 1.17321 2.8015 1.1045C2.894 1.0375 3.005 1 3.12 1H3.9705Z" fill="#99D52A"/>
</svg>
