<svg width="12" height="12" viewBox="0 0 12 12" fill="none" xmlns="http://www.w3.org/2000/svg">
<g clip-path="url(#clip0_15_5582)">
<mask id="mask0_15_5582" style="mask-type:alpha" maskUnits="userSpaceOnUse" x="0" y="0" width="12" height="12">
<path d="M6.49924 0.342262C6.41832 0.135807 6.21915 0 5.99742 0C5.77564 0 5.57652 0.135807 5.49555 0.342262L4.55179 2.74873C4.54062 2.77723 4.5474 2.80964 4.56904 2.8313L5.28207 3.54432C5.32133 3.58358 5.38793 3.56966 5.40822 3.51799L5.92572 2.19843C5.95129 2.13324 6.0435 2.13324 6.06912 2.19843L7.03039 4.64977C7.09639 4.818 7.24227 4.94197 7.41893 4.98C7.59559 5.01795 7.77953 4.96489 7.90887 4.8387L10.7999 2.01622C10.8304 1.98651 10.831 1.93776 10.8012 1.90733L10.1557 1.24606C10.126 1.21563 10.0772 1.21505 10.0468 1.24476L7.82044 3.41824C7.78099 3.45674 7.7151 3.44256 7.695 3.39125L6.49924 0.342262Z" fill="white" fill-opacity="0.85"/>
<path d="M5.50072 11.6577C5.58168 11.8642 5.78081 12 6.00254 12C6.22432 12 6.42348 11.8642 6.50441 11.6577L7.44817 9.25128C7.45934 9.22274 7.45256 9.19034 7.43092 9.16871L6.71789 8.45568C6.67863 8.41642 6.61203 8.43033 6.59174 8.48204L6.07428 9.80152C6.04867 9.86677 5.95646 9.86677 5.93088 9.80152L4.96957 7.35022C4.90357 7.18199 4.75769 7.05802 4.58103 7.01999C4.40437 6.98204 4.22039 7.03503 4.09109 7.16133L1.2 9.98377C1.16957 10.0135 1.16898 10.0622 1.19869 10.0926L1.84425 10.7539C1.87397 10.7844 1.92272 10.785 1.95316 10.7553L4.17952 8.58172C4.21893 8.54324 4.28486 8.55742 4.30499 8.60872L5.50072 11.6577Z" fill="white" fill-opacity="0.85"/>
<path d="M11.6577 6.49928C11.8642 6.41832 12 6.21919 12 5.99745C12 5.77568 11.8642 5.57652 11.6577 5.49559L9.2513 4.55183C9.22276 4.54065 9.19036 4.5474 9.16872 4.56908L8.4557 5.28207C8.41643 5.32137 8.43035 5.38797 8.48206 5.40825L9.80153 5.92572C9.86678 5.95129 9.86678 6.04354 9.80153 6.06912L7.35023 7.03043C7.18201 7.09643 7.05803 7.2423 7.02001 7.41897C6.98206 7.59563 7.03505 7.77957 7.16135 7.9089L9.98378 10.8C10.0135 10.8304 10.0622 10.831 10.0926 10.8013L10.754 10.1557C10.7844 10.126 10.785 10.0772 10.7553 10.0469L8.58173 7.82048C8.54326 7.78103 8.55743 7.71514 8.60873 7.695L11.6577 6.49928Z" fill="white" fill-opacity="0.85"/>
<path d="M0.342262 5.50076C0.135807 5.58169 0 5.78085 0 6.00255C0 6.22436 0.135807 6.42349 0.342262 6.50445L2.74873 7.44817C2.77723 7.45935 2.80964 7.4526 2.8313 7.43096L3.54432 6.71794C3.58358 6.67867 3.56966 6.61207 3.51799 6.59175L2.19843 6.07429C2.13324 6.04871 2.13324 5.95646 2.19843 5.93089L4.64977 4.96957C4.818 4.90361 4.94197 4.7577 4.98 4.58104C5.01795 4.40437 4.96496 4.22044 4.8387 4.09114L2.01622 1.20003C1.98651 1.1696 1.93776 1.16901 1.90733 1.19872L1.24606 1.84428C1.21563 1.874 1.21505 1.92275 1.24476 1.95319L3.41824 4.17952C3.45674 4.21897 3.44256 4.2849 3.39125 4.30504L0.342262 5.50076Z" fill="white" fill-opacity="0.85"/>
</mask>
<g mask="url(#mask0_15_5582)">
<path d="M-1.09091 12.5455L13.0909 12.5455L13.0909 -1.09092L-1.09091 -1.09092L-1.09091 12.5455Z" fill="url(#paint0_linear_15_5582)"/>
</g>
</g>
<defs>
<linearGradient id="paint0_linear_15_5582" x1="14.6435" y1="12.5455" x2="2.64308" y2="1.24995" gradientUnits="userSpaceOnUse">
<stop offset="0.076587" stop-color="#FF6200"/>
<stop offset="0.537477" stop-color="#EA00FF" stop-opacity="0.9"/>
<stop offset="1" stop-color="#7C42FA"/>
</linearGradient>
<clipPath id="clip0_15_5582">
<rect width="12" height="12" fill="white"/>
</clipPath>
</defs>
</svg>
