<svg width="12" height="12" viewBox="0 0 12 12" fill="none" xmlns="http://www.w3.org/2000/svg">
<path d="M4.47927 4.38757V3.66442C4.54855 3.65909 4.61891 3.65536 4.69091 3.65322C6.65236 3.59083 7.94018 5.35124 7.94018 5.35124C7.94018 5.35124 6.55036 7.29618 5.05909 7.29618C4.86183 7.29706 4.66583 7.26551 4.47927 7.20285V5.01153C5.24291 5.10433 5.39618 5.44457 5.85545 6.21572L6.87709 5.34804C6.63606 5.05221 6.33227 4.811 5.98668 4.64104C5.64108 4.47108 5.2619 4.37642 4.87527 4.36358C4.74239 4.36421 4.60964 4.37204 4.47764 4.38704M4.47764 2V3.07993C4.54855 3.0746 4.61891 3.0698 4.68927 3.06713C7.41764 2.97434 9.19527 5.32085 9.19527 5.32085C9.19527 5.32085 7.15364 7.82201 5.02636 7.82201C4.842 7.82201 4.65818 7.80548 4.47709 7.77295V8.43957C4.62873 8.45984 4.78145 8.46997 4.93418 8.46997C6.91364 8.46997 8.34491 7.45137 9.73091 6.24665C9.96055 6.4317 10.9015 6.88287 11.0951 7.08073C9.77727 8.19159 6.70527 9.08753 4.96418 9.08753C4.79618 9.08753 4.63527 9.07686 4.47655 9.06193V10H12V2.00053H4.47818L4.47764 2ZM4.47764 7.20285V7.77241C2.64709 7.4439 2.13927 5.52723 2.13927 5.52723C2.76205 4.8964 3.58757 4.49387 4.47764 4.38704V5.01207H4.47491C4.21375 5.00964 3.95539 5.06487 3.71909 5.17365C3.4828 5.28242 3.27466 5.44193 3.11018 5.64029C3.11018 5.64029 3.44564 6.85354 4.47764 7.20285ZM1.22618 5.4435C2.00945 4.41157 3.192 3.76468 4.47764 3.66442V3.07939C2.07818 3.27351 0 5.31925 0 5.31925C0 5.31925 1.17709 8.74675 4.47818 9.06033V8.4385C2.05636 8.13346 1.22727 5.44457 1.22727 5.44457H1.22618V5.4435Z" fill="#74B71B"/>
</svg>
