<svg width="12" height="12" viewBox="0 0 12 12" fill="none" xmlns="http://www.w3.org/2000/svg">
<path d="M0.584728 4.37376L0.634729 4.02626C0.756729 3.19976 1.09523 2.46976 1.63123 1.82476C2.08983 1.26363 2.66766 0.811689 3.32273 0.501756C3.90623 0.226756 4.52023 0.0507557 5.17523 0.0107557C5.74323 -0.0242443 6.29573 0.0252557 6.84173 0.172756C7.12982 0.250392 7.40888 0.358328 7.67423 0.494756C8.02173 0.673756 8.07073 0.950256 7.78873 1.21376C7.13622 1.82853 6.41298 2.36362 5.63423 2.80776C4.99915 3.16682 4.33192 3.46579 3.64123 3.70076C3.04601 3.90098 2.43796 4.06084 1.82123 4.17926C1.59673 4.22326 1.18423 4.28826 0.584229 4.37426L0.584728 4.37376Z" fill="url(#paint0_linear_15_5595)"/>
<path d="M1.57421 4.59026C2.45371 4.79526 3.34621 4.92026 4.24571 4.98476C5.03171 5.04126 5.82071 5.03976 6.60921 5.00276C7.39471 4.96626 8.16821 4.85976 8.93821 4.71826C9.20621 4.66926 9.46571 4.58726 9.74471 4.59476C10.3172 4.60926 10.7117 4.91226 10.8487 5.45226C11.0462 6.22776 11.0562 7.00476 10.8452 7.77526C10.6383 8.54429 10.2421 9.24925 9.69271 9.82576C9.10631 10.4467 8.38413 10.9235 7.58271 11.2188C6.72521 11.5388 5.83621 11.6418 4.92271 11.5588C4.6867 11.5407 4.45258 11.5032 4.22271 11.4468C4.19789 11.4405 4.17203 11.4397 4.14685 11.4443C4.12168 11.4488 4.09776 11.4587 4.07671 11.4733C3.46521 11.8343 2.80021 12.0048 2.08821 11.9998C1.88735 11.9965 1.68707 11.9775 1.48921 11.9428C1.10421 11.8798 0.967209 11.5313 1.20521 11.2278C1.33521 11.0628 1.45321 10.8928 1.52621 10.6958C1.55971 10.6058 1.59121 10.5153 1.61821 10.4228C1.64071 10.3575 1.64336 10.2871 1.62582 10.2203C1.60829 10.1536 1.57136 10.0935 1.51971 10.0478C1.07671 9.61726 0.705709 9.13276 0.448209 8.57476C-0.0907909 7.40776 -0.146791 6.21626 0.297209 5.00676C0.379235 4.78758 0.476816 4.57454 0.589209 4.36926L0.625209 4.37476C1.08571 4.47826 1.40221 4.55026 1.57421 4.59026Z" fill="url(#paint1_linear_15_5595)"/>
<defs>
<linearGradient id="paint0_linear_15_5595" x1="3.1242" y1="1.63663" x2="4.04404" y2="3.09307" gradientUnits="userSpaceOnUse">
<stop stop-color="#6595F1"/>
<stop offset="1" stop-color="#336BD7"/>
</linearGradient>
<linearGradient id="paint1_linear_15_5595" x1="5.50008" y1="4.36926" x2="5.50008" y2="11.9999" gradientUnits="userSpaceOnUse">
<stop stop-color="#6595F1"/>
<stop offset="1" stop-color="#336BD7"/>
</linearGradient>
</defs>
</svg>
