<svg width="12" height="12" viewBox="0 0 12 12" fill="none" xmlns="http://www.w3.org/2000/svg">
<path d="M10.1425 0V3.636H11.5V8.81H10.0325V12L6.514 8.903V11.9755H5.9685V8.8995L2.446 12V8.7675H1V3.594H2.442V0L5.9685 3.247V0.095H6.5135V3.34L10.1425 0ZM6.514 4.522V8.1815L9.487 10.7985V7.22L6.514 4.522ZM5.9645 4.482L2.9915 7.181V10.7985L5.9645 8.1815V4.4825V4.482ZM10.0325 8.272H10.9545V4.1745H6.98L10.0325 6.9445V8.272ZM5.5415 4.132H1.545V8.2295H2.445V6.9415L5.541 4.1315L5.5415 4.132ZM2.9875 1.238V3.593H5.545L2.9875 1.238ZM9.597 1.238L7.0395 3.593H9.597V1.238Z" fill="#22B8CD"/>
</svg>
