<svg width="12" height="12" viewBox="0 0 12 12" fill="none" xmlns="http://www.w3.org/2000/svg">
<g clip-path="url(#clip0_15_5618)">
<mask id="mask0_15_5618" style="mask-type:alpha" maskUnits="userSpaceOnUse" x="0" y="0" width="12" height="12">
<path d="M12 0H0V12H12V0Z" fill="url(#paint0_linear_15_5618)"/>
<path d="M12 0H0V12H12V0Z" fill="url(#paint1_linear_15_5618)"/>
<path d="M12 0H0V12H12V0Z" fill="url(#paint2_linear_15_5618)"/>
</mask>
<g mask="url(#mask0_15_5618)">
<path d="M3.37102 11.393C2.26391 10.8555 1.35015 9.98871 0.755017 8.91149C0.171881 7.86298 -0.0829575 6.66352 0.0235173 5.46849C0.0349879 5.33966 0.0971658 5.22066 0.196373 5.13768C0.295579 5.0547 0.423688 5.01452 0.552517 5.02599C0.681346 5.03746 0.800342 5.09964 0.883327 5.19884C0.966312 5.29805 1.00649 5.42616 0.995017 5.55499C0.906017 6.55749 1.11802 7.55499 1.60802 8.43949C2.02596 9.19615 2.63351 9.8311 3.37102 10.282L5.66402 5.57949C4.76652 5.28049 4.01902 5.41049 3.95152 5.42349L3.92252 5.42949C3.81511 5.44747 3.70477 5.42886 3.60921 5.37663C3.51364 5.32441 3.43839 5.2416 3.39552 5.14149C3.27552 4.91749 2.91552 4.36949 2.47852 4.15649C2.04202 3.94349 1.36952 4.01199 1.15302 4.05899C1.06352 4.07843 0.970364 4.07233 0.884173 4.04137C0.797983 4.01041 0.722231 3.95584 0.665561 3.8839C0.608892 3.81195 0.573589 3.72553 0.563679 3.63448C0.55377 3.54344 0.569653 3.45144 0.609517 3.36899C2.05852 0.395989 5.65752 -0.843011 8.63102 0.607489C11.604 2.05749 12.842 5.65399 11.3955 8.62649L11.3905 8.63649C9.93902 11.6065 6.34302 12.8435 3.37102 11.3935V11.393ZM6.54002 6.00649L4.24702 10.709C6.56152 11.574 9.19502 10.613 10.399 8.42999C10.23 8.16799 9.93302 7.79249 9.58902 7.62499C9.14502 7.40799 8.49402 7.47899 8.27052 7.52599C8.16755 7.54998 8.0596 7.54035 7.96252 7.49849C7.8553 7.45133 7.76843 7.36747 7.71752 7.26199C7.70352 7.23299 7.34802 6.54299 6.54002 6.00699V6.00649ZM2.90502 3.27999C3.27852 3.46249 3.58302 3.75199 3.81002 4.02499C4.51302 2.94999 5.46702 2.13799 6.20352 1.61499C6.47159 1.42413 6.74857 1.2461 7.03352 1.08149C6.08638 0.884428 5.10255 0.964173 4.19951 1.3112C3.29648 1.65823 2.51243 2.25786 1.94102 3.03849C2.24952 3.05949 2.58952 3.12549 2.90552 3.27949L2.90502 3.27999ZM9.24052 2.15849C9.28552 2.47049 9.31652 2.80549 9.33152 3.14099C9.37302 4.04149 9.32102 5.28899 8.90952 6.50199C9.25252 6.51099 9.65152 6.57199 10.0165 6.74949C10.3425 6.90849 10.6155 7.14949 10.8305 7.38949C11.0967 6.45701 11.0883 5.46753 10.8063 4.53971C10.5243 3.61189 9.98061 2.78511 9.24052 2.15849ZM6.54352 4.88849C7.1119 5.16671 7.61912 5.55545 8.03552 6.03199C8.57302 4.28549 8.33852 2.33099 8.14302 1.60699C7.45252 1.89899 5.76802 2.91699 4.72302 4.41599C5.35504 4.45068 5.97379 4.61115 6.54302 4.88799L6.54352 4.88849Z" fill="#4137FF"/>
</g>
</g>
<defs>
<linearGradient id="paint0_linear_15_5618" x1="3.375" y1="10.275" x2="2.8125" y2="10.275" gradientUnits="userSpaceOnUse">
<stop/>
<stop offset="1" stop-opacity="0"/>
</linearGradient>
<linearGradient id="paint1_linear_15_5618" x1="3.4125" y1="5.925" x2="3.6" y2="5.5685" gradientUnits="userSpaceOnUse">
<stop stop-opacity="0"/>
<stop offset="1"/>
</linearGradient>
<linearGradient id="paint2_linear_15_5618" x1="0.4875" y1="10.256" x2="0.4875" y2="5.456" gradientUnits="userSpaceOnUse">
<stop/>
<stop offset="0.105" stop-opacity="0.9"/>
<stop offset="0.904" stop-opacity="0.04"/>
<stop offset="1" stop-opacity="0"/>
</linearGradient>
<clipPath id="clip0_15_5618">
<rect width="12" height="12" fill="white"/>
</clipPath>
</defs>
</svg>
