<svg width="12" height="12" viewBox="0 0 12 12" fill="none" xmlns="http://www.w3.org/2000/svg">
<g clip-path="url(#clip0_15_5629)">
<path d="M6.32964 0.185543C6.544 0.561903 6.75727 0.939354 6.97 1.31735C6.97859 1.33247 6.99105 1.34503 7.0061 1.35375C7.02115 1.36247 7.03824 1.36704 7.05563 1.36699H10.084C10.1789 1.36699 10.2596 1.42699 10.3272 1.54535L11.1203 2.94715C11.2239 3.13097 11.2512 3.20788 11.1334 3.40369C10.9916 3.63824 10.8536 3.87496 10.7189 4.11278L10.5187 4.47168C10.4609 4.57859 10.397 4.62441 10.4969 4.75095L11.9434 7.2802C12.0372 7.44438 12.0039 7.54966 11.9199 7.7002C11.6816 8.12838 11.4388 8.55328 11.1918 8.97655C11.105 9.12491 10.9998 9.1811 10.8209 9.17837C10.397 9.16964 9.97432 9.17291 9.5516 9.1871C9.54254 9.18756 9.53374 9.19031 9.52602 9.19507C9.51829 9.19984 9.5119 9.20648 9.50742 9.21437C9.0197 10.0785 8.52788 10.9403 8.03198 11.7998C7.9398 11.9596 7.82471 11.9978 7.63653 11.9983C7.09272 12 6.54455 12.0005 5.99092 11.9994C5.93937 11.9993 5.88878 11.9855 5.84425 11.9596C5.79971 11.9336 5.76282 11.8964 5.73728 11.8516L5.00911 10.5845C5.00488 10.5762 4.99837 10.5693 4.99035 10.5646C4.98234 10.5599 4.97314 10.5575 4.96384 10.5578H2.17224C2.01679 10.5742 1.87061 10.5573 1.73315 10.5076L0.858801 8.99673C0.832942 8.952 0.819237 8.90128 0.819045 8.84961C0.818854 8.79794 0.832183 8.74712 0.85771 8.70219L1.51607 7.54584C1.52544 7.52948 1.53038 7.51096 1.53038 7.49211C1.53038 7.47326 1.52544 7.45474 1.51607 7.43838C1.17313 6.84465 0.832219 6.24974 0.493351 5.65367L0.0624471 4.89277C-0.0248245 4.72368 -0.0319153 4.62223 0.114265 4.36641C0.367898 3.92296 0.619895 3.48006 0.8708 3.0377C0.9428 2.91006 1.03662 2.85552 1.18934 2.85497C1.66006 2.85299 2.13079 2.85281 2.60151 2.85443C2.6134 2.85433 2.62505 2.85111 2.6353 2.84508C2.64554 2.83904 2.65402 2.83042 2.65987 2.82006L4.19039 0.150089C4.21359 0.109471 4.24708 0.0756824 4.28749 0.0521262C4.3279 0.02857 4.3738 0.0160779 4.42057 0.0159082C4.70639 0.0153628 4.99493 0.0159082 5.28402 0.0126355L5.83874 9.01728e-05C6.02474 -0.00154618 6.23364 0.0175446 6.32964 0.185543ZM4.45766 0.405359C4.45192 0.405355 4.44627 0.406866 4.44129 0.409738C4.43631 0.412611 4.43217 0.416744 4.4293 0.421723L2.86605 3.15715C2.85854 3.17004 2.8478 3.18075 2.83488 3.18821C2.82197 3.19567 2.80733 3.19963 2.79241 3.1997H1.22916C1.19861 3.1997 1.19098 3.21333 1.2068 3.24006L4.37585 8.77964C4.38948 8.80255 4.38294 8.81346 4.3573 8.81401L2.83278 8.82219C2.81049 8.82145 2.78844 8.82698 2.76915 8.83817C2.74986 8.84936 2.73411 8.86575 2.72369 8.88546L2.0037 10.1455C1.9797 10.188 1.99224 10.2098 2.04079 10.2098L5.15856 10.2142C5.18365 10.2142 5.2022 10.2251 5.21529 10.2474L5.98055 11.586C6.00564 11.6302 6.03073 11.6307 6.05637 11.586L8.78688 6.80784L9.21397 6.05403C9.21657 6.04938 9.22037 6.0455 9.22497 6.0428C9.22958 6.0401 9.23481 6.03868 9.24015 6.03868C9.24548 6.03868 9.25072 6.0401 9.25532 6.0428C9.25993 6.0455 9.26373 6.04938 9.26633 6.05403L10.043 7.43402C10.0489 7.44435 10.0574 7.45293 10.0676 7.45887C10.0779 7.46482 10.0896 7.46791 10.1014 7.46784L11.6085 7.45693C11.6123 7.45696 11.6161 7.45597 11.6195 7.45406C11.6229 7.45214 11.6256 7.44937 11.6276 7.44602C11.6294 7.44269 11.6304 7.43893 11.6304 7.43511C11.6304 7.43129 11.6294 7.42754 11.6276 7.4242L10.0458 4.65005C10.0401 4.64077 10.0371 4.63011 10.0371 4.61923C10.0371 4.60835 10.0401 4.59768 10.0458 4.58841L10.2056 4.31187L10.8165 3.23351C10.8296 3.21115 10.823 3.1997 10.7974 3.1997H4.47294C4.44076 3.1997 4.43312 3.18551 4.44948 3.1577L5.23165 1.79135C5.23751 1.78204 5.24062 1.77126 5.24062 1.76026C5.24062 1.74925 5.23751 1.73848 5.23165 1.72916L4.48657 0.422268C4.48372 0.417107 4.47953 0.412812 4.47444 0.409836C4.46936 0.406859 4.46356 0.405313 4.45766 0.405359ZM7.88853 4.77986C7.91362 4.77986 7.92017 4.79077 7.90707 4.81259L7.45326 5.61167L6.02801 8.11256C6.02533 8.11743 6.02138 8.12147 6.01657 8.12426C6.01176 8.12705 6.00629 8.12847 6.00074 8.12838C5.9952 8.12836 5.98977 8.12688 5.98499 8.12411C5.9802 8.12133 5.97623 8.11735 5.97346 8.11256L4.09003 4.82241C4.07912 4.80386 4.08458 4.79404 4.1053 4.79295L4.22312 4.78641L7.88962 4.77986H7.88853Z" fill="url(#paint0_linear_15_5629)"/>
</g>
<defs>
<linearGradient id="paint0_linear_15_5629" x1="0" y1="0" x2="12" y2="0" gradientUnits="userSpaceOnUse">
<stop stop-color="#6336E7" stop-opacity="0.84"/>
<stop offset="1" stop-color="#6F69F7" stop-opacity="0.84"/>
</linearGradient>
<clipPath id="clip0_15_5629">
<rect width="12" height="12" fill="white"/>
</clipPath>
</defs>
</svg>
