<svg width="12" height="12" viewBox="0 0 12 12" fill="none" xmlns="http://www.w3.org/2000/svg">
<path d="M7.5635 11.4121C7.61 11.5616 7.733 11.6886 7.736 11.8601C7.747 11.9136 7.7105 12.0686 7.652 11.9651C7.5275 11.5491 7.487 11.9476 7.1195 11.3731C7.0405 11.2166 6.905 11.3456 6.788 11.3531C6.441 11.2391 6.543 11.2066 6.3355 11.5031C6.178 11.5471 6.311 11.1816 6.386 11.1411C6.531 11.0171 6.7605 11.0981 6.8445 10.9631C6.9855 10.3916 6.5245 9.67961 6.2655 9.18811C6.181 9.05611 6.272 8.89961 6.253 8.75711C6.178 8.55311 6.159 8.60611 6.2285 8.39011C6.115 8.15361 5.797 8.52311 5.6185 8.51761C5.476 8.51961 5.357 8.29261 5.172 8.27761C4.5045 8.27961 3.8815 8.68161 3.209 8.61311C3.08735 8.61442 2.96884 8.65184 2.8685 8.72061C2.6615 8.83161 2.414 8.82211 2.2245 8.98161C2.165 9.02911 2.0895 9.03361 2.0175 9.03061C1.8825 9.05061 1.779 9.21561 1.6255 9.20061C1.4695 9.14611 1.3425 9.24011 1.1955 9.22911C1.0255 9.08661 0.804996 9.20061 0.608496 9.23311C0.583163 9.2443 0.555124 9.2479 0.527786 9.24346C0.500448 9.23902 0.474987 9.22674 0.454496 9.20811C0.409496 9.17211 0.322496 9.16711 0.292496 9.11961C0.277496 9.09011 0.306496 9.04711 0.342496 9.01761C0.605996 8.81511 0.910996 8.68461 1.2025 8.53061C1.7755 8.23361 2.2615 7.79911 2.7825 7.42161C2.8155 7.39661 2.825 7.36161 2.765 7.36211C1.959 7.42961 1.192 7.88611 0.394996 7.86811C0.306996 7.87961 0.225496 7.93161 0.133996 7.94311C-0.304004 7.85061 0.458996 7.36311 0.610996 7.31261C1.463 6.95711 2.41 6.89111 3.203 6.39461C3.297 6.32861 3.118 6.26061 3.201 6.12961C3.396 5.48461 3.989 5.22711 4.5685 5.03761C4.8655 4.92211 5.137 4.70161 5.467 4.69811C5.6295 4.70611 5.784 4.64161 5.893 4.51811C6.4745 3.98261 7.114 3.51211 7.73 3.01861C8.4365 2.12711 8.871 0.43111 10.338 1.19061C10.798 1.38811 11.325 1.37311 11.7415 1.67861C11.89 1.77311 12.17 2.06111 11.8595 2.10361C11.0085 2.24911 10.5835 1.98861 10.5445 2.83061C10.5295 3.02561 10.5765 3.20561 10.4655 3.37361C10.4585 3.72061 10.6415 4.12761 10.4235 4.43811C10.2415 4.75311 10.3845 5.14461 10.2335 5.46161C10.1235 5.72861 9.9085 5.92661 9.709 6.12311C9.057 6.93811 8.576 7.86111 8.4145 8.90911C8.3535 9.22261 8.1755 9.68911 8.463 9.93711C8.7665 10.2431 9.088 10.6661 9.553 10.4431C9.706 10.3731 9.995 10.3486 9.973 10.5801C9.948 10.6216 9.844 10.5311 9.7875 10.5521C9.7075 10.6031 9.8235 10.7101 9.802 10.7846C9.791 10.8546 9.735 10.8446 9.687 10.8116C9.5465 10.7556 9.3445 10.8126 9.1845 10.8066C9.0555 10.8291 8.9285 10.8876 8.8035 10.8316C8.7455 10.8071 8.689 10.7816 8.6255 10.7801C8.4305 10.7691 8.1835 10.8711 8.074 10.7066C7.953 10.4796 7.9275 10.6546 7.808 10.7306C7.6905 10.7231 7.7745 10.5556 7.815 10.5006C7.9395 10.2156 8.738 10.7591 8.4065 10.2846C7.2615 9.27961 8.018 8.94161 7.5835 8.93961C7.4985 8.89511 7.532 8.73711 7.4005 8.85311C7.233 9.02811 7.1705 8.80411 7.1705 8.65311C7.1505 8.56561 7.082 8.50311 7.108 8.41361C7.119 8.21861 6.86 8.45611 6.918 8.61861C6.9465 8.92661 6.852 9.23111 6.867 9.53511C6.987 10.1731 7.072 10.9836 7.799 11.1731C7.8875 11.2111 8.0305 11.3891 7.9255 11.4556C7.879 11.4506 7.8455 11.4006 7.804 11.3791C7.746 11.3401 7.6755 11.3836 7.615 11.3881C7.598 11.3921 7.571 11.3916 7.565 11.4111L7.5635 11.4121Z" fill="url(#paint0_linear_15_5633)"/>
<defs>
<linearGradient id="paint0_linear_15_5633" x1="11.9999" y1="6.9282" x2="0" y2="6.9282" gradientUnits="userSpaceOnUse">
<stop stop-color="#1D1A5C"/>
<stop offset="0.49586" stop-color="#3431C3"/>
<stop offset="1" stop-color="#7361F7"/>
</linearGradient>
</defs>
</svg>
