<svg width="12" height="12" viewBox="0 0 12 12" fill="none" xmlns="http://www.w3.org/2000/svg">
<g clip-path="url(#clip0_15_5709)">
<path d="M6.22985 10.1083C5.97889 10.1083 5.73821 10.208 5.56075 10.3854C5.38329 10.5629 5.2836 10.8036 5.2836 11.0545C5.2836 11.3055 5.38329 11.5462 5.56075 11.7236C5.73821 11.9011 5.97889 12.0008 6.22985 12.0008C6.48081 12.0008 6.72149 11.9011 6.89895 11.7236C7.07641 11.5462 7.1761 11.3055 7.1761 11.0545C7.1761 10.8036 7.07641 10.5629 6.89895 10.3854C6.72149 10.208 6.48081 10.1083 6.22985 10.1083ZM6.22985 11.5113C6.1379 11.5113 6.04804 11.4839 5.97168 11.4327C5.89532 11.3815 5.83593 11.3087 5.80104 11.2236C5.76616 11.1385 5.75737 11.045 5.77579 10.9549C5.79421 10.8649 5.839 10.7823 5.90447 10.7177C5.96995 10.6532 6.05314 10.6095 6.14348 10.5924C6.23381 10.5753 6.3272 10.5854 6.41177 10.6215C6.49635 10.6575 6.56828 10.718 6.61842 10.795C6.66856 10.8721 6.69464 10.9623 6.69335 11.0543C6.69336 11.1148 6.68132 11.1748 6.65795 11.2307C6.63458 11.2866 6.60033 11.3372 6.55721 11.3797C6.51408 11.4223 6.46293 11.4558 6.40673 11.4784C6.35053 11.501 6.29041 11.5121 6.22985 11.5113Z" fill="#4285F4"/>
<path fill-rule="evenodd" clip-rule="evenodd" d="M11.0758 7.07227C11.1943 7.09127 11.3018 7.15227 11.3783 7.24427C11.4466 7.34449 11.4752 7.46649 11.4586 7.5866C11.4419 7.70671 11.3813 7.81636 11.2883 7.89427L7.16835 10.9353C7.14747 10.7703 7.08346 10.6137 6.98278 10.4813C6.88209 10.3489 6.74829 10.2454 6.59485 10.1813L10.7348 7.14127C10.8364 7.07781 10.9576 7.05329 11.0758 7.07227Z" fill="#669DF6"/>
<path fill-rule="evenodd" clip-rule="evenodd" d="M5.29337 10.9213L1.18487 7.88827C1.08909 7.81422 1.02512 7.70646 1.00598 7.58691C0.986849 7.46736 1.01399 7.34501 1.08187 7.24477C1.15772 7.1515 1.26527 7.08945 1.38397 7.07045C1.50267 7.05145 1.62421 7.07684 1.72537 7.14177L5.86537 10.1818C5.71417 10.245 5.58196 10.3463 5.4817 10.476C5.38143 10.6056 5.31654 10.759 5.29337 10.9213Z" fill="#AECBFA"/>
<path d="M2.36885 2.23778C2.24141 2.2361 2.11966 2.18473 2.02953 2.0946C1.93941 2.00448 1.88803 1.88273 1.88635 1.75528V0.545284C1.87841 0.476777 1.88506 0.407364 1.90584 0.341606C1.92663 0.275847 1.96109 0.215229 2.00697 0.163732C2.05284 0.112236 2.10909 0.0710253 2.17202 0.0428068C2.23495 0.0145882 2.30314 0 2.3721 0C2.44107 0 2.50925 0.0145882 2.57218 0.0428068C2.63511 0.0710253 2.69136 0.112236 2.73723 0.163732C2.78311 0.215229 2.81757 0.275847 2.83836 0.341606C2.85915 0.407364 2.86579 0.476777 2.85785 0.545284V1.75528C2.85614 1.88385 2.80387 2.00656 2.71235 2.09687C2.62083 2.18717 2.49742 2.2378 2.36885 2.23778ZM2.35585 6.51728C2.48554 6.51728 2.60992 6.46576 2.70163 6.37406C2.79333 6.28235 2.84485 6.15798 2.84485 6.02828C2.84485 5.89859 2.79333 5.77421 2.70163 5.68251C2.60992 5.5908 2.48554 5.53928 2.35585 5.53928C2.22616 5.53928 2.10178 5.5908 2.01008 5.68251C1.91837 5.77421 1.86685 5.89859 1.86685 6.02828C1.86685 6.15798 1.91837 6.28235 2.01008 6.37406C2.10178 6.46576 2.22616 6.51728 2.35585 6.51728ZM2.35585 5.09528C2.42007 5.09528 2.48366 5.08264 2.54298 5.05806C2.60231 5.03349 2.65622 4.99747 2.70163 4.95206C2.74703 4.90665 2.78305 4.85275 2.80763 4.79342C2.8322 4.73409 2.84485 4.6705 2.84485 4.60628C2.84485 4.54207 2.8322 4.47848 2.80763 4.41915C2.78305 4.35982 2.74703 4.30592 2.70163 4.26051C2.65622 4.2151 2.60231 4.17908 2.54298 4.15451C2.48366 4.12993 2.42007 4.11728 2.35585 4.11728C2.22616 4.11728 2.10178 4.1688 2.01008 4.26051C1.91837 4.35221 1.86685 4.47659 1.86685 4.60628C1.86685 4.73598 1.91837 4.86035 2.01008 4.95206C2.10178 5.04377 2.22616 5.09528 2.35585 5.09528ZM2.35585 3.66628C2.48554 3.66628 2.60992 3.61476 2.70163 3.52306C2.79333 3.43135 2.84485 3.30698 2.84485 3.17728C2.84485 3.04759 2.79333 2.92321 2.70163 2.83151C2.60992 2.7398 2.48554 2.68828 2.35585 2.68828C2.22616 2.68828 2.10178 2.7398 2.01008 2.83151C1.91837 2.92321 1.86685 3.04759 1.86685 3.17728C1.86685 3.30698 1.91837 3.43135 2.01008 3.52306C2.10178 3.61476 2.22616 3.66628 2.35585 3.66628Z" fill="#AECBFA"/>
<path d="M10.0914 3.65377C9.96271 3.65206 9.83992 3.59972 9.7496 3.50809C9.65928 3.41647 9.60871 3.29293 9.60886 3.16427V1.95427C9.60886 1.82631 9.65969 1.70358 9.75018 1.6131C9.84066 1.52261 9.96339 1.47177 10.0914 1.47177C10.2193 1.47177 10.342 1.52261 10.4325 1.6131C10.523 1.70358 10.5739 1.82631 10.5739 1.95427V3.16427C10.5749 3.22824 10.5631 3.29177 10.5393 3.35115C10.5155 3.41053 10.4801 3.46457 10.4352 3.51014C10.3903 3.5557 10.3367 3.59186 10.2777 3.61653C10.2187 3.64119 10.1553 3.65385 10.0914 3.65377ZM10.1039 6.52377C10.1681 6.52377 10.2317 6.51113 10.291 6.48655C10.3503 6.46198 10.4042 6.42596 10.4496 6.38055C10.495 6.33514 10.5311 6.28123 10.5556 6.22191C10.5802 6.16258 10.5929 6.09899 10.5929 6.03477C10.5929 5.97056 10.5802 5.90697 10.5556 5.84764C10.5311 5.78831 10.495 5.73441 10.4496 5.689C10.4042 5.64359 10.3503 5.60757 10.291 5.583C10.2317 5.55842 10.1681 5.54577 10.1039 5.54577C9.97417 5.54577 9.84979 5.59729 9.75808 5.689C9.66638 5.7807 9.61486 5.90508 9.61486 6.03477C9.61486 6.16447 9.66638 6.28884 9.75808 6.38055C9.84979 6.47225 9.97417 6.52377 10.1039 6.52377ZM10.1039 5.07577C10.2335 5.07577 10.3579 5.02425 10.4496 4.93255C10.5413 4.84084 10.5929 4.71647 10.5929 4.58677C10.5929 4.45708 10.5413 4.3327 10.4496 4.241C10.3579 4.14929 10.2335 4.09777 10.1039 4.09777C9.97417 4.09777 9.84979 4.14929 9.75808 4.241C9.66638 4.3327 9.61486 4.45708 9.61486 4.58677C9.61486 4.71647 9.66638 4.84084 9.75808 4.93255C9.84979 5.02425 9.97417 5.07577 10.1039 5.07577ZM10.1039 1.03427C10.1681 1.03427 10.2317 1.02163 10.291 0.997052C10.3503 0.972477 10.4042 0.936457 10.4496 0.89105C10.495 0.845642 10.5311 0.791735 10.5556 0.732407C10.5802 0.673078 10.5929 0.609491 10.5929 0.545274C10.5929 0.481058 10.5802 0.41747 10.5556 0.358142C10.5311 0.298814 10.495 0.244907 10.4496 0.199499C10.4042 0.154091 10.3503 0.118072 10.291 0.0934973C10.2317 0.0689228 10.1681 0.0562744 10.1039 0.0562744C9.97417 0.0562744 9.84979 0.107794 9.75808 0.199499C9.66638 0.291204 9.61486 0.415584 9.61486 0.545274C9.61486 0.674965 9.66638 0.799344 9.75808 0.89105C9.84979 0.982755 9.97417 1.03427 10.1039 1.03427Z" fill="#4285F4"/>
<path d="M6.22988 7.95879C6.10243 7.9571 5.98068 7.90573 5.89056 7.81561C5.80043 7.72548 5.74906 7.60373 5.74738 7.47629V6.24679C5.76118 6.12764 5.8183 6.01772 5.90786 5.93794C5.99742 5.85816 6.11318 5.81407 6.23313 5.81407C6.35307 5.81407 6.46883 5.85816 6.55839 5.93794C6.64795 6.01772 6.70507 6.12764 6.71887 6.24679V7.46329C6.71987 7.52809 6.70795 7.59243 6.68381 7.65257C6.65967 7.71271 6.62379 7.76745 6.57827 7.81357C6.53275 7.8597 6.4785 7.89629 6.41868 7.92123C6.35886 7.94616 6.29468 7.95893 6.22988 7.95879ZM6.22988 9.38129C6.35957 9.38129 6.48394 9.32977 6.57565 9.23806C6.66736 9.14636 6.71887 9.02198 6.71887 8.89229C6.71887 8.7626 6.66736 8.63822 6.57565 8.54651C6.48394 8.45481 6.35957 8.40329 6.22988 8.40329C6.10018 8.40329 5.97581 8.45481 5.8841 8.54651C5.79239 8.63822 5.74088 8.7626 5.74088 8.89229C5.74088 9.02198 5.79239 9.14636 5.8841 9.23806C5.97581 9.32977 6.10018 9.38129 6.22988 9.38129ZM6.22988 5.32029C6.35957 5.32029 6.48394 5.26877 6.57565 5.17706C6.66736 5.08536 6.71887 4.96098 6.71887 4.83129C6.71887 4.7016 6.66736 4.57722 6.57565 4.48551C6.48394 4.39381 6.35957 4.34229 6.22988 4.34229C6.10018 4.34229 5.97581 4.39381 5.8841 4.48551C5.79239 4.57722 5.74088 4.7016 5.74088 4.83129C5.74088 4.96098 5.79239 5.08536 5.8841 5.17706C5.97581 5.26877 6.10018 5.32029 6.22988 5.32029ZM6.22988 3.89179C6.35957 3.89179 6.48394 3.84027 6.57565 3.74856C6.66736 3.65686 6.71887 3.53248 6.71887 3.40279C6.71887 3.2731 6.66736 3.14872 6.57565 3.05701C6.48394 2.96531 6.35957 2.91379 6.22988 2.91379C6.10018 2.91379 5.97581 2.96531 5.8841 3.05701C5.79239 3.14872 5.74088 3.2731 5.74088 3.40279C5.74088 3.53248 5.79239 3.65686 5.8841 3.74856C5.97581 3.84027 6.10018 3.89179 6.22988 3.89179Z" fill="#669DF6"/>
<path d="M8.16035 5.08876C8.03291 5.08708 7.91116 5.0357 7.82103 4.94558C7.73091 4.85545 7.67953 4.7337 7.67785 4.60626V3.39626C7.66551 3.29287 7.68653 3.18824 7.73784 3.09764C7.78915 3.00704 7.86806 2.9352 7.96308 2.8926C8.05809 2.85001 8.16423 2.83889 8.26601 2.86086C8.36778 2.88284 8.45988 2.93676 8.52885 3.01476C8.57467 3.06628 8.60909 3.12689 8.62986 3.19264C8.65062 3.25838 8.65727 3.32777 8.64935 3.39626V4.60626C8.64764 4.73482 8.59537 4.85754 8.50385 4.94784C8.41233 5.03814 8.28892 5.08877 8.16035 5.08876ZM8.16685 2.45676C8.23107 2.45676 8.29466 2.44411 8.35398 2.41954C8.41331 2.39496 8.46722 2.35894 8.51263 2.31354C8.55804 2.26813 8.59405 2.21422 8.61863 2.15489C8.6432 2.09556 8.65585 2.03198 8.65585 1.96776C8.65585 1.90354 8.6432 1.83996 8.61863 1.78063C8.59405 1.7213 8.55804 1.66739 8.51263 1.62198C8.46722 1.57658 8.41331 1.54056 8.35398 1.51598C8.29466 1.49141 8.23107 1.47876 8.16685 1.47876C8.03716 1.47876 7.91278 1.53028 7.82108 1.62198C7.72937 1.71369 7.67785 1.83807 7.67785 1.96776C7.67785 2.09745 7.72937 2.22183 7.82108 2.31353C7.91278 2.40524 8.03716 2.45676 8.16685 2.45676ZM8.16685 7.92676C8.29654 7.92676 8.42092 7.87524 8.51263 7.78354C8.60433 7.69183 8.65585 7.56745 8.65585 7.43776C8.65585 7.30807 8.60433 7.18369 8.51263 7.09198C8.42092 7.00028 8.29654 6.94876 8.16685 6.94876C8.03716 6.94876 7.91278 7.00028 7.82108 7.09198C7.72937 7.18369 7.67785 7.30807 7.67785 7.43776C7.67785 7.56745 7.72937 7.69183 7.82108 7.78354C7.91278 7.87524 8.03716 7.92676 8.16685 7.92676ZM8.16685 6.49826C8.29654 6.49826 8.42092 6.44674 8.51263 6.35504C8.60433 6.26333 8.65585 6.13895 8.65585 6.00926C8.65585 5.87957 8.60433 5.75519 8.51263 5.66348C8.42092 5.57178 8.29654 5.52026 8.16685 5.52026C8.03716 5.52026 7.91278 5.57178 7.82108 5.66348C7.72937 5.75519 7.67785 5.87957 7.67785 6.00926C7.67785 6.13895 7.72937 6.26333 7.82108 6.35504C7.91278 6.44674 8.03716 6.49826 8.16685 6.49826Z" fill="#4285F4"/>
<path d="M4.29287 7.92677C4.42256 7.92677 4.54694 7.87525 4.63864 7.78355C4.73035 7.69184 4.78187 7.56746 4.78187 7.43777C4.78187 7.30808 4.73035 7.1837 4.63864 7.092C4.54694 7.00029 4.42256 6.94877 4.29287 6.94877C4.16318 6.94877 4.0388 7.00029 3.94709 7.092C3.85539 7.1837 3.80387 7.30808 3.80387 7.43777C3.80387 7.56746 3.85539 7.69184 3.94709 7.78355C4.0388 7.87525 4.16318 7.92677 4.29287 7.92677ZM4.29287 3.89177C4.42256 3.89177 4.54694 3.84025 4.63864 3.74855C4.73035 3.65684 4.78187 3.53246 4.78187 3.40277C4.78187 3.27308 4.73035 3.1487 4.63864 3.057C4.54694 2.96529 4.42256 2.91377 4.29287 2.91377C4.16318 2.91377 4.0388 2.96529 3.94709 3.057C3.85539 3.1487 3.80387 3.27308 3.80387 3.40277C3.80387 3.53246 3.85539 3.65684 3.94709 3.74855C4.0388 3.84025 4.16318 3.89177 4.29287 3.89177ZM4.29287 2.45677C4.42263 2.45677 4.54707 2.40523 4.63882 2.31347C4.73057 2.22172 4.78212 2.09728 4.78212 1.96752C4.78212 1.83776 4.73057 1.71332 4.63882 1.62157C4.54707 1.52982 4.42263 1.47827 4.29287 1.47827C4.16311 1.47827 4.03867 1.52982 3.94692 1.62157C3.85517 1.71332 3.80362 1.83776 3.80362 1.96752C3.80362 2.09728 3.85517 2.22172 3.94692 2.31347C4.03867 2.40523 4.16311 2.45677 4.29287 2.45677ZM4.29937 6.49827C4.1729 6.49837 4.05132 6.44946 3.96014 6.36183C3.86896 6.27419 3.81528 6.15464 3.81037 6.02827V4.80577C3.81037 4.6778 3.8612 4.55508 3.95169 4.46459C4.04218 4.37411 4.1649 4.32327 4.29287 4.32327C4.42084 4.32327 4.54356 4.37411 4.63405 4.46459C4.72453 4.55508 4.77537 4.6778 4.77537 4.80577V6.02827C4.77203 6.1529 4.72062 6.27141 4.6319 6.35901C4.54319 6.44661 4.42403 6.49651 4.29937 6.49827Z" fill="#AECBFA"/>
</g>
<defs>
<clipPath id="clip0_15_5709">
<rect width="12" height="12" fill="white"/>
</clipPath>
</defs>
</svg>
