<svg width="12" height="12" viewBox="0 0 12 12" fill="none" xmlns="http://www.w3.org/2000/svg">
<path d="M6.08376 0.0961307C6.19722 0.033085 6.32488 0 6.45468 0C6.58448 0 6.71214 0.033085 6.8256 0.0961307L11.5384 2.73783C11.7681 2.86547 11.9094 3.10329 11.9094 3.36021V8.64034C11.9094 8.8978 11.7681 9.13562 11.5384 9.26381L6.8256 11.9039C6.71214 11.9669 6.58448 12 6.45468 12C6.32488 12 6.19722 11.9669 6.08376 11.9039L1.37092 9.26381C1.25907 9.20246 1.16568 9.11228 1.10045 9.00264C1.03523 8.89301 1.00054 8.76791 1 8.64034V3.35966C1 3.10275 1.14128 2.86492 1.37092 2.73674L6.08376 0.0966762V0.0961307ZM10.1311 7.64486V3.94222L6.45577 6.00027L6.45468 10.1191L9.75967 8.26778C9.87144 8.20648 9.96477 8.11639 10.03 8.00685C10.0952 7.89732 10.1305 7.77234 10.1311 7.64486ZM6.8256 2.09091C6.71225 2.02751 6.58455 1.99422 6.45468 1.99422C6.32481 1.99422 6.1971 2.02751 6.08376 2.09091L3.15132 3.7344C2.92168 3.86258 2.78041 4.09986 2.78041 4.35732V7.64486C2.78041 7.90123 2.92168 8.13851 3.15132 8.26778L4.67591 9.12198V5.5039C4.67655 5.65577 4.7182 5.80465 4.79646 5.93482C4.71433 5.79763 4.67343 5.6397 4.67863 5.4799L4.68082 5.42862L4.69173 5.3468L4.70154 5.30098L4.71082 5.26716L4.73209 5.20334L4.76591 5.12589L4.785 5.09043L4.82918 5.01952L4.88046 4.95297L4.92628 4.90334L4.96991 4.86243L5.0381 4.80788L5.07683 4.7817L5.14992 4.74024L8.35181 2.94565L6.82669 2.09145L6.8256 2.09091Z" fill="url(#paint0_linear_15_5720)"/>
<path d="M6.45469 5.50282C6.45469 5.02553 6.0565 4.63879 5.56503 4.63879C5.40072 4.63877 5.2395 4.68346 5.09866 4.76807C5.08393 4.7768 5.06865 4.78607 5.05502 4.79534C5.03211 4.81152 5.00973 4.82844 4.98793 4.84607C4.97592 4.85698 4.96338 4.8668 4.95192 4.87825L4.92574 4.9028L4.89138 4.93935C4.88374 4.94807 4.8761 4.95626 4.86956 4.96553C4.8517 4.98767 4.8346 5.01041 4.81828 5.03371L4.79538 5.07135C4.78163 5.09442 4.76889 5.11808 4.75719 5.14226L4.73756 5.18644C4.7331 5.19718 4.7291 5.2081 4.72556 5.21917C4.7201 5.23554 4.71465 5.25081 4.71028 5.26663L4.70101 5.30045C4.69288 5.32897 4.6874 5.35819 4.68465 5.38772C4.68355 5.40136 4.68083 5.41499 4.68028 5.42809C4.66395 5.60507 4.70466 5.78263 4.79647 5.93483C4.9612 6.21192 5.26011 6.36684 5.56776 6.36684C5.71885 6.36684 5.87213 6.32974 6.01177 6.2512L6.45632 6.00192V5.50336L6.45469 5.50282Z" fill="#012F8D"/>
<defs>
<linearGradient id="paint0_linear_15_5720" x1="1.99875" y1="9.02124" x2="11.3216" y2="3.79809" gradientUnits="userSpaceOnUse">
<stop stop-color="#0A51C3"/>
<stop offset="1" stop-color="#23A4FB"/>
</linearGradient>
</defs>
</svg>
